solid OpenSCAD_Model
  facet normal -0.00872563 0.999858 -0.0144071
    outer loop
      vertex 13.9906 0.751365 5.5
      vertex 13.9947 0.672151 0
      vertex -0.00479959 0.549979 0
    endloop
  endfacet
  facet normal -0.00872291 0.999547 -0.0288067
    outer loop
      vertex 27.9892 0.952788 5.5
      vertex 27.9941 0.794322 0
      vertex 13.9947 0.672151 0
    endloop
  endfacet
  facet normal -0.00871839 0.999029 -0.0431885
    outer loop
      vertex 41.9877 1.15421 5.5
      vertex 41.9936 0.916494 0
      vertex 27.9941 0.794322 0
    endloop
  endfacet
  facet normal -0.00871208 0.998305 -0.0575435
    outer loop
      vertex 55.9863 1.35563 5.5
      vertex 55.9931 1.03867 0
      vertex 41.9936 0.916494 0
    endloop
  endfacet
  facet normal 0.999962 0.00872653 -0.000402956
    outer loop
      vertex 56.0021 0.255746 5.5
      vertex 56.0027 -0.0612931 0
      vertex 55.9931 1.03867 0
    endloop
  endfacet
  facet normal 0.00871839 -0.999029 0.0431917
    outer loop
      vertex 42.0036 0.054324 5.5
      vertex 42.0032 -0.183465 0
      vertex 56.0027 -0.0612931 0
    endloop
  endfacet
  facet normal 0.00872291 -0.999547 0.0288099
    outer loop
      vertex 28.005 -0.147098 5.5
      vertex 28.0037 -0.305636 0
      vertex 42.0032 -0.183465 0
    endloop
  endfacet
  facet normal 0.00872563 -0.999858 0.0144103
    outer loop
      vertex 14.0065 -0.348521 5.5
      vertex 14.0043 -0.427808 0
      vertex 28.0037 -0.305636 0
    endloop
  endfacet
  facet normal 0.00872654 -0.999962 1.60243e-006
    outer loop
      vertex 0.00791302 -0.549943 5.5
      vertex 0.00479959 -0.549979 0
      vertex 14.0043 -0.427808 0
    endloop
  endfacet
  facet normal -0.0143833 0.999615 -0.0237471
    outer loop
      vertex 13.983 0.881915 11
      vertex 13.9906 0.751365 5.5
      vertex -0.00791302 0.549943 5.5
    endloop
  endfacet
  facet normal -0.0143711 0.99877 -0.0474583
    outer loop
      vertex 27.9791 1.21398 11
      vertex 27.9892 0.952788 5.5
      vertex 13.9906 0.751365 5.5
    endloop
  endfacet
  facet normal -0.0143509 0.997367 -0.0710896
    outer loop
      vertex 41.9751 1.54605 11
      vertex 41.9877 1.15421 5.5
      vertex 27.9892 0.952788 5.5
    endloop
  endfacet
  facet normal -0.0143228 0.995412 -0.0946019
    outer loop
      vertex 55.9712 1.87812 11
      vertex 55.9863 1.35563 5.5
      vertex 41.9877 1.15421 5.5
    endloop
  endfacet
  facet normal 0.999896 0.0143873 -0.00048985
    outer loop
      vertex 55.9973 0.778433 11
      vertex 56.0021 0.255746 5.5
      vertex 55.9863 1.35563 5.5
    endloop
  endfacet
  facet normal 0.0143509 -0.997366 0.0710983
    outer loop
      vertex 42.0012 0.446364 11
      vertex 42.0036 0.054324 5.5
      vertex 56.0021 0.255746 5.5
    endloop
  endfacet
  facet normal 0.0143711 -0.998769 0.047467
    outer loop
      vertex 28.0052 0.114294 11
      vertex 28.005 -0.147098 5.5
      vertex 42.0036 0.054324 5.5
    endloop
  endfacet
  facet normal 0.0143833 -0.999614 0.0237558
    outer loop
      vertex 14.0091 -0.217776 11
      vertex 14.0065 -0.348521 5.5
      vertex 28.005 -0.147098 5.5
    endloop
  endfacet
  facet normal 0.0143873 -0.999896 4.35584e-006
    outer loop
      vertex 0.0130456 -0.549845 11
      vertex 0.00791302 -0.549943 5.5
      vertex 14.0065 -0.348521 5.5
    endloop
  endfacet
  facet normal -0.0237011 0.998953 -0.0391277
    outer loop
      vertex 13.9678 1.09698 16.5
      vertex 13.983 0.881915 11
      vertex -0.0130456 0.549845 11
    endloop
  endfacet
  facet normal -0.0236468 0.996666 -0.078088
    outer loop
      vertex 27.9571 1.64438 16.5
      vertex 27.9791 1.21398 11
      vertex 13.983 0.881915 11
    endloop
  endfacet
  facet normal -0.0235572 0.992889 -0.116694
    outer loop
      vertex 41.9464 2.19179 16.5
      vertex 41.9751 1.54605 11
      vertex 27.9791 1.21398 11
    endloop
  endfacet
  facet normal -0.0234334 0.987671 -0.154778
    outer loop
      vertex 55.9357 2.73919 16.5
      vertex 55.9712 1.87812 11
      vertex 41.9751 1.54605 11
    endloop
  endfacet
  facet normal 0.999719 0.0237193 -0.000333248
    outer loop
      vertex 55.9787 1.64003 16.5
      vertex 55.9973 0.778433 11
      vertex 55.9712 1.87812 11
    endloop
  endfacet
  facet normal 0.0235571 -0.992886 0.116717
    outer loop
      vertex 41.9894 1.09263 16.5
      vertex 42.0012 0.446364 11
      vertex 55.9973 0.778433 11
    endloop
  endfacet
  facet normal 0.0236468 -0.996664 0.0781115
    outer loop
      vertex 28.0001 0.545225 16.5
      vertex 28.0052 0.114294 11
      vertex 42.0012 0.446364 11
    endloop
  endfacet
  facet normal 0.0237011 -0.998952 0.0391513
    outer loop
      vertex 14.0108 -0.00217738 16.5
      vertex 14.0091 -0.217776 11
      vertex 28.0052 0.114294 11
    endloop
  endfacet
  facet normal 0.0237193 -0.999719 1.18403e-005
    outer loop
      vertex 0.0215051 -0.549579 16.5
      vertex 0.0130456 -0.549845 11
      vertex 14.0091 -0.217776 11
    endloop
  endfacet
  facet normal -0.039019 0.99716 -0.064409
    outer loop
      vertex 13.9355 1.45098 22
      vertex 13.9678 1.09698 16.5
      vertex -0.0215051 0.549579 16.5
    endloop
  endfacet
  facet normal -0.0387782 0.991009 -0.128055
    outer loop
      vertex 27.9064 2.35309 22
      vertex 27.9571 1.64438 16.5
      vertex 13.9678 1.09698 16.5
    endloop
  endfacet
  facet normal -0.0383867 0.981003 -0.190159
    outer loop
      vertex 41.8773 3.25521 22
      vertex 41.9464 2.19179 16.5
      vertex 27.9571 1.64438 16.5
    endloop
  endfacet
  facet normal -0.0378579 0.967489 -0.250063
    outer loop
      vertex 55.8482 4.15733 22
      vertex 55.9357 2.73919 16.5
      vertex 41.9464 2.19179 16.5
    endloop
  endfacet
  facet normal 0.999235 0.0391001 0.000740041
    outer loop
      vertex 55.9191 3.05962 22
      vertex 55.9787 1.64003 16.5
      vertex 55.9357 2.73919 16.5
    endloop
  endfacet
  facet normal 0.0383862 -0.980991 0.19022
    outer loop
      vertex 41.9482 2.1575 22
      vertex 41.9894 1.09263 16.5
      vertex 55.9787 1.64003 16.5
    endloop
  endfacet
  facet normal 0.0387779 -0.991001 0.128118
    outer loop
      vertex 27.9773 1.25538 22
      vertex 28.0001 0.545225 16.5
      vertex 41.9894 1.09263 16.5
    endloop
  endfacet
  facet normal 0.0390188 -0.997156 0.064473
    outer loop
      vertex 14.0063 0.353261 22
      vertex 14.0108 -0.00217738 16.5
      vertex 28.0001 0.545225 16.5
    endloop
  endfacet
  facet normal 0.0391001 -0.999235 3.21841e-005
    outer loop
      vertex 0.0354404 -0.548857 22
      vertex 0.0215051 -0.549579 16.5
      vertex 14.0108 -0.00217738 16.5
    endloop
  endfacet
  facet normal -0.0640756 0.992325 -0.105763
    outer loop
      vertex 13.8626 2.03247 27.5
      vertex 13.9355 1.45098 22
      vertex -0.0354404 0.548857 22
    endloop
  endfacet
  facet normal -0.0630257 0.976065 -0.208145
    outer loop
      vertex 27.7836 3.51804 27.5
      vertex 27.9064 2.35309 22
      vertex 13.9355 1.45098 22
    endloop
  endfacet
  facet normal -0.0613846 0.950651 -0.30413
    outer loop
      vertex 41.7045 5.00361 27.5
      vertex 41.8773 3.25521 22
      vertex 27.9064 2.35309 22
    endloop
  endfacet
  facet normal -0.0592884 0.918187 -0.391686
    outer loop
      vertex 55.6255 6.48918 27.5
      vertex 55.8482 4.15733 22
      vertex 41.8773 3.25521 22
    endloop
  endfacet
  facet normal 0.997911 0.0644363 0.00472489
    outer loop
      vertex 55.7422 5.39539 27.5
      vertex 55.9191 3.05962 22
      vertex 55.8482 4.15733 22
    endloop
  endfacet
  facet normal 0.0613815 -0.950602 0.304282
    outer loop
      vertex 41.8212 3.90982 27.5
      vertex 41.9482 2.1575 22
      vertex 55.9191 3.05962 22
    endloop
  endfacet
  facet normal 0.0630235 -0.97603 0.208309
    outer loop
      vertex 27.9003 2.42425 27.5
      vertex 27.9773 1.25538 22
      vertex 41.9482 2.1575 22
    endloop
  endfacet
  facet normal 0.0640744 -0.992307 0.105935
    outer loop
      vertex 13.9793 0.938676 27.5
      vertex 14.0063 0.353261 22
      vertex 27.9773 1.25538 22
    endloop
  endfacet
  facet normal 0.064437 -0.997922 8.74774e-005
    outer loop
      vertex 0.0583617 -0.546895 27.5
      vertex 0.0354404 -0.548857 22
      vertex 14.0063 0.353261 22
    endloop
  endfacet
  facet normal -0.104521 0.97944 -0.172548
    outer loop
      vertex 13.6896 2.98294 33
      vertex 13.8626 2.03247 27.5
      vertex -0.0583617 0.546895 27.5
    endloop
  endfacet
  facet normal -0.100136 0.938357 -0.330846
    outer loop
      vertex 27.4751 5.4243 33
      vertex 27.7836 3.51804 27.5
      vertex 13.8626 2.03247 27.5
    endloop
  endfacet
  facet normal -0.0939127 0.880036 -0.465529
    outer loop
      vertex 41.2606 7.86567 33
      vertex 41.7045 5.00361 27.5
      vertex 27.7836 3.51804 27.5
    endloop
  endfacet
  facet normal -0.0868727 0.814065 -0.57424
    outer loop
      vertex 55.046 10.307 33
      vertex 55.6255 6.48918 27.5
      vertex 41.7045 5.00361 27.5
    endloop
  endfacet
  facet normal 0.994205 0.106096 0.0173113
    outer loop
      vertex 55.2379 9.22389 33
      vertex 55.7422 5.39539 27.5
      vertex 55.6255 6.48918 27.5
    endloop
  endfacet
  facet normal 0.0938943 -0.879863 0.465859
    outer loop
      vertex 41.4524 6.78252 33
      vertex 41.8212 3.90982 27.5
      vertex 55.7422 5.39539 27.5
    endloop
  endfacet
  facet normal 0.100122 -0.938218 0.331245
    outer loop
      vertex 27.6669 4.34116 33
      vertex 27.9003 2.42425 27.5
      vertex 41.8212 3.90982 27.5
    endloop
  endfacet
  facet normal 0.104512 -0.979361 0.173003
    outer loop
      vertex 13.8814 1.89979 33
      vertex 13.9793 0.938676 27.5
      vertex 27.9003 2.42425 27.5
    endloop
  endfacet
  facet normal 0.106112 -0.994354 0.000237729
    outer loop
      vertex 0.0959108 -0.541573 33
      vertex 0.0583617 -0.546895 27.5
      vertex 13.9793 0.938676 27.5
    endloop
  endfacet
  facet normal -0.167565 0.946176 -0.2769
    outer loop
      vertex 13.2627 4.51693 38.5
      vertex 13.6896 2.98294 33
      vertex -0.0959108 0.541573 33
    endloop
  endfacet
  facet normal -0.151044 0.852892 -0.499761
    outer loop
      vertex 26.6822 8.50667 38.5
      vertex 27.4751 5.4243 33
      vertex 13.6896 2.98294 33
    endloop
  endfacet
  facet normal -0.131836 0.744431 -0.654554
    outer loop
      vertex 40.1017 12.4964 38.5
      vertex 41.2606 7.86567 33
      vertex 27.4751 5.4243 33
    endloop
  endfacet
  facet normal -0.114166 0.644652 -0.755903
    outer loop
      vertex 53.5211 16.4861 38.5
      vertex 55.046 10.307 33
      vertex 41.2606 7.86567 33
    endloop
  endfacet
  facet normal 0.983224 0.174126 0.0543248
    outer loop
      vertex 53.8346 15.4318 38.5
      vertex 55.2379 9.22389 33
      vertex 55.046 10.307 33
    endloop
  endfacet
  facet normal 0.131752 -0.743955 0.655112
    outer loop
      vertex 40.4151 11.442 38.5
      vertex 41.4524 6.78252 33
      vertex 55.2379 9.22389 33
    endloop
  endfacet
  facet normal 0.15096 -0.852415 0.500599
    outer loop
      vertex 26.9957 7.45228 38.5
      vertex 27.6669 4.34116 33
      vertex 41.4524 6.78252 33
    endloop
  endfacet
  facet normal 0.167507 -0.94585 0.278046
    outer loop
      vertex 13.5762 3.46254 38.5
      vertex 13.8814 1.89979 33
      vertex 27.6669 4.34116 33
    endloop
  endfacet
  facet normal 0.174383 -0.984678 0.000645773
    outer loop
      vertex 0.15674 -0.527193 38.5
      vertex 0.0959108 -0.541573 33
      vertex 13.8814 1.89979 33
    endloop
  endfacet
  facet normal -0.25765 0.866606 -0.427329
    outer loop
      vertex 12.1885 6.90964 44
      vertex 13.2627 4.51693 38.5
      vertex -0.15674 0.527193 38.5
    endloop
  endfacet
  facet normal -0.206914 0.695954 -0.68763
    outer loop
      vertex 24.6292 13.3305 44
      vertex 26.6822 8.50667 38.5
      vertex 13.2627 4.51693 38.5
    endloop
  endfacet
  facet normal -0.163972 0.551518 -0.817888
    outer loop
      vertex 37.07 19.7514 44
      vertex 40.1017 12.4964 38.5
      vertex 26.6822 8.50667 38.5
    endloop
  endfacet
  facet normal -0.132954 0.44719 -0.884502
    outer loop
      vertex 49.5107 26.1723 44
      vertex 53.5211 16.4861 38.5
      vertex 40.1017 12.4964 38.5
    endloop
  endfacet
  facet normal 0.94653 0.281412 0.157762
    outer loop
      vertex 50.0152 25.1948 44
      vertex 53.8346 15.4318 38.5
      vertex 53.5211 16.4861 38.5
    endloop
  endfacet
  facet normal 0.163702 -0.55061 0.818554
    outer loop
      vertex 37.5745 18.7739 44
      vertex 40.4151 11.442 38.5
      vertex 53.8346 15.4318 38.5
    endloop
  endfacet
  facet normal 0.206552 -0.694737 0.688968
    outer loop
      vertex 25.1337 12.353 44
      vertex 26.9957 7.45228 38.5
      vertex 40.4151 11.442 38.5
    endloop
  endfacet
  facet normal 0.257301 -0.865431 0.429913
    outer loop
      vertex 12.693 5.93215 44
      vertex 13.5762 3.46254 38.5
      vertex 26.9957 7.45228 38.5
    endloop
  endfacet
  facet normal 0.284981 -0.958532 0.00175214
    outer loop
      vertex 0.252249 -0.488744 44
      vertex 0.15674 -0.527193 38.5
      vertex 13.5762 3.46254 38.5
    endloop
  endfacet
  facet normal -0.363467 0.704231 -0.609877
    outer loop
      vertex 9.50905 10.2898 49.5
      vertex 12.1885 6.90964 44
      vertex -0.252249 0.488744 44
    endloop
  endfacet
  facet normal -0.249334 0.483096 -0.839316
    outer loop
      vertex 19.4071 20.1908 49.5
      vertex 24.6292 13.3305 44
      vertex 12.1885 6.90964 44
    endloop
  endfacet
  facet normal -0.181662 0.351977 -0.918211
    outer loop
      vertex 29.3051 30.0918 49.5
      vertex 37.07 19.7514 44
      vertex 24.6292 13.3305 44
    endloop
  endfacet
  facet normal -0.141112 0.273411 -0.95149
    outer loop
      vertex 39.2031 39.9927 49.5
      vertex 49.5107 26.1723 44
      vertex 37.07 19.7514 44
    endloop
  endfacet
  facet normal 0.809723 0.417912 0.411945
    outer loop
      vertex 39.981 39.215 49.5
      vertex 50.0152 25.1948 44
      vertex 49.5107 26.1723 44
    endloop
  endfacet
  facet normal 0.181038 -0.350768 0.918797
    outer loop
      vertex 30.083 29.3141 49.5
      vertex 37.5745 18.7739 44
      vertex 50.0152 25.1948 44
    endloop
  endfacet
  facet normal 0.24826 -0.481014 0.840829
    outer loop
      vertex 20.185 19.4131 49.5
      vertex 25.1337 12.353 44
      vertex 37.5745 18.7739 44
    endloop
  endfacet
  facet normal 0.361803 -0.701008 0.614562
    outer loop
      vertex 10.287 9.51212 49.5
      vertex 12.693 5.93215 44
      vertex 25.1337 12.353 44
    endloop
  endfacet
  facet normal 0.45863 -0.888615 0.00473884
    outer loop
      vertex 0.388967 -0.388851 49.5
      vertex 0.252249 -0.488744 44
      vertex 12.693 5.93215 44
    endloop
  endfacet
  facet normal -0.0143873 0.999896 -1.60243e-006
    outer loop
      vertex -0.00791302 0.549943 5.5
      vertex 13.9906 0.751365 5.5
      vertex -0.00479959 0.549979 0
    endloop
  endfacet
  facet normal -0.0143858 0.999793 -0.0144103
    outer loop
      vertex 13.9906 0.751365 5.5
      vertex 27.9892 0.952788 5.5
      vertex 13.9947 0.672151 0
    endloop
  endfacet
  facet normal -0.0143813 0.999481 -0.0288099
    outer loop
      vertex 27.9892 0.952788 5.5
      vertex 41.9877 1.15421 5.5
      vertex 27.9941 0.794322 0
    endloop
  endfacet
  facet normal -0.0143739 0.998963 -0.0431917
    outer loop
      vertex 41.9877 1.15421 5.5
      vertex 55.9863 1.35563 5.5
      vertex 41.9936 0.916494 0
    endloop
  endfacet
  facet normal 0.999896 0.0143873 0.000402956
    outer loop
      vertex 55.9863 1.35563 5.5
      vertex 56.0021 0.255746 5.5
      vertex 55.9931 1.03867 0
    endloop
  endfacet
  facet normal 0.0143635 -0.99824 0.0575435
    outer loop
      vertex 56.0021 0.255746 5.5
      vertex 42.0036 0.054324 5.5
      vertex 56.0027 -0.0612931 0
    endloop
  endfacet
  facet normal 0.0143739 -0.998964 0.0431885
    outer loop
      vertex 42.0036 0.054324 5.5
      vertex 28.005 -0.147098 5.5
      vertex 42.0032 -0.183465 0
    endloop
  endfacet
  facet normal 0.0143813 -0.999482 0.0288067
    outer loop
      vertex 28.005 -0.147098 5.5
      vertex 14.0065 -0.348521 5.5
      vertex 28.0037 -0.305636 0
    endloop
  endfacet
  facet normal 0.0143858 -0.999793 0.0144071
    outer loop
      vertex 14.0065 -0.348521 5.5
      vertex 0.00791302 -0.549943 5.5
      vertex 14.0043 -0.427808 0
    endloop
  endfacet
  facet normal -0.0237193 0.999719 -4.35584e-006
    outer loop
      vertex -0.0130456 0.549845 11
      vertex 13.983 0.881915 11
      vertex -0.00791302 0.549943 5.5
    endloop
  endfacet
  facet normal -0.0237126 0.999437 -0.0237558
    outer loop
      vertex 13.983 0.881915 11
      vertex 27.9791 1.21398 11
      vertex 13.9906 0.751365 5.5
    endloop
  endfacet
  facet normal -0.0236925 0.998592 -0.047467
    outer loop
      vertex 27.9791 1.21398 11
      vertex 41.9751 1.54605 11
      vertex 27.9892 0.952788 5.5
    endloop
  endfacet
  facet normal -0.0236592 0.997189 -0.0710983
    outer loop
      vertex 41.9751 1.54605 11
      vertex 55.9712 1.87812 11
      vertex 41.9877 1.15421 5.5
    endloop
  endfacet
  facet normal 0.999719 0.0237193 0.00048985
    outer loop
      vertex 55.9712 1.87812 11
      vertex 55.9973 0.778433 11
      vertex 55.9863 1.35563 5.5
    endloop
  endfacet
  facet normal 0.0236129 -0.995235 0.0946019
    outer loop
      vertex 55.9973 0.778433 11
      vertex 42.0012 0.446364 11
      vertex 56.0021 0.255746 5.5
    endloop
  endfacet
  facet normal 0.0236592 -0.997189 0.0710896
    outer loop
      vertex 42.0012 0.446364 11
      vertex 28.0052 0.114294 11
      vertex 42.0036 0.054324 5.5
    endloop
  endfacet
  facet normal 0.0236925 -0.998592 0.0474583
    outer loop
      vertex 28.0052 0.114294 11
      vertex 14.0091 -0.217776 11
      vertex 28.005 -0.147098 5.5
    endloop
  endfacet
  facet normal 0.0237126 -0.999437 0.0237471
    outer loop
      vertex 14.0091 -0.217776 11
      vertex 0.0130456 -0.549845 11
      vertex 14.0065 -0.348521 5.5
    endloop
  endfacet
  facet normal -0.0391001 0.999235 -1.18403e-005
    outer loop
      vertex -0.0215051 0.549579 16.5
      vertex 13.9678 1.09698 16.5
      vertex -0.0130456 0.549845 11
    endloop
  endfacet
  facet normal -0.0390702 0.998469 -0.0391513
    outer loop
      vertex 13.9678 1.09698 16.5
      vertex 27.9571 1.64438 16.5
      vertex 13.983 0.881915 11
    endloop
  endfacet
  facet normal -0.0389807 0.996182 -0.0781115
    outer loop
      vertex 27.9571 1.64438 16.5
      vertex 41.9464 2.19179 16.5
      vertex 27.9791 1.21398 11
    endloop
  endfacet
  facet normal -0.0388329 0.992406 -0.116717
    outer loop
      vertex 41.9464 2.19179 16.5
      vertex 55.9357 2.73919 16.5
      vertex 41.9751 1.54605 11
    endloop
  endfacet
  facet normal 0.999235 0.0391001 0.000333248
    outer loop
      vertex 55.9357 2.73919 16.5
      vertex 55.9787 1.64003 16.5
      vertex 55.9712 1.87812 11
    endloop
  endfacet
  facet normal 0.038629 -0.987194 0.154778
    outer loop
      vertex 55.9787 1.64003 16.5
      vertex 41.9894 1.09263 16.5
      vertex 55.9973 0.778433 11
    endloop
  endfacet
  facet normal 0.038833 -0.992408 0.116694
    outer loop
      vertex 41.9894 1.09263 16.5
      vertex 28.0001 0.545225 16.5
      vertex 42.0012 0.446364 11
    endloop
  endfacet
  facet normal 0.0389808 -0.996184 0.078088
    outer loop
      vertex 28.0001 0.545225 16.5
      vertex 14.0108 -0.00217738 16.5
      vertex 28.0052 0.114294 11
    endloop
  endfacet
  facet normal 0.0390702 -0.99847 0.0391277
    outer loop
      vertex 14.0108 -0.00217738 16.5
      vertex 0.0215051 -0.549579 16.5
      vertex 14.0091 -0.217776 11
    endloop
  endfacet
  facet normal -0.064437 0.997922 -3.21841e-005
    outer loop
      vertex -0.0354404 0.548857 22
      vertex 13.9355 1.45098 22
      vertex -0.0215051 0.549579 16.5
    endloop
  endfacet
  facet normal -0.0643029 0.995846 -0.064473
    outer loop
      vertex 13.9355 1.45098 22
      vertex 27.9064 2.35309 22
      vertex 13.9678 1.09698 16.5
    endloop
  endfacet
  facet normal -0.063906 0.989698 -0.128118
    outer loop
      vertex 27.9064 2.35309 22
      vertex 41.8773 3.25521 22
      vertex 27.9571 1.64438 16.5
    endloop
  endfacet
  facet normal -0.0632605 0.979701 -0.19022
    outer loop
      vertex 41.8773 3.25521 22
      vertex 55.8482 4.15733 22
      vertex 41.9464 2.19179 16.5
    endloop
  endfacet
  facet normal 0.997922 0.064437 -0.000740041
    outer loop
      vertex 55.8482 4.15733 22
      vertex 55.9191 3.05962 22
      vertex 55.9357 2.73919 16.5
    endloop
  endfacet
  facet normal 0.0623898 -0.966217 0.250063
    outer loop
      vertex 55.9191 3.05962 22
      vertex 41.9482 2.1575 22
      vertex 55.9787 1.64003 16.5
    endloop
  endfacet
  facet normal 0.0632612 -0.979713 0.190159
    outer loop
      vertex 41.9482 2.1575 22
      vertex 27.9773 1.25538 22
      vertex 41.9894 1.09263 16.5
    endloop
  endfacet
  facet normal 0.0639065 -0.989706 0.128055
    outer loop
      vertex 27.9773 1.25538 22
      vertex 14.0063 0.353261 22
      vertex 28.0001 0.545225 16.5
    endloop
  endfacet
  facet normal 0.0643032 -0.99585 0.064409
    outer loop
      vertex 14.0063 0.353261 22
      vertex 0.0354404 -0.548857 22
      vertex 14.0108 -0.00217738 16.5
    endloop
  endfacet
  facet normal -0.106112 0.994354 -8.74774e-005
    outer loop
      vertex -0.0583617 0.546895 27.5
      vertex 13.8626 2.03247 27.5
      vertex -0.0354404 0.548857 22
    endloop
  endfacet
  facet normal -0.105515 0.988759 -0.105935
    outer loop
      vertex 13.8626 2.03247 27.5
      vertex 27.7836 3.51804 27.5
      vertex 13.9355 1.45098 22
    endloop
  endfacet
  facet normal -0.103784 0.972541 -0.208309
    outer loop
      vertex 27.7836 3.51804 27.5
      vertex 41.7045 5.00361 27.5
      vertex 27.9064 2.35309 22
    endloop
  endfacet
  facet normal -0.101081 0.947204 -0.304282
    outer loop
      vertex 41.7045 5.00361 27.5
      vertex 55.6255 6.48918 27.5
      vertex 41.8773 3.25521 22
    endloop
  endfacet
  facet normal 0.994343 0.106111 -0.00472489
    outer loop
      vertex 55.6255 6.48918 27.5
      vertex 55.7422 5.39539 27.5
      vertex 55.8482 4.15733 22
    endloop
  endfacet
  facet normal 0.0976337 -0.914904 0.391686
    outer loop
      vertex 55.7422 5.39539 27.5
      vertex 41.8212 3.90982 27.5
      vertex 55.9191 3.05962 22
    endloop
  endfacet
  facet normal 0.101086 -0.947252 0.30413
    outer loop
      vertex 41.8212 3.90982 27.5
      vertex 27.9003 2.42425 27.5
      vertex 41.9482 2.1575 22
    endloop
  endfacet
  facet normal 0.103788 -0.972576 0.208145
    outer loop
      vertex 27.9003 2.42425 27.5
      vertex 13.9793 0.938676 27.5
      vertex 27.9773 1.25538 22
    endloop
  endfacet
  facet normal 0.105517 -0.988777 0.105763
    outer loop
      vertex 13.9793 0.938676 27.5
      vertex 0.0583617 -0.546895 27.5
      vertex 14.0063 0.353261 22
    endloop
  endfacet
  facet normal -0.174383 0.984678 -0.000237729
    outer loop
      vertex -0.0959108 0.541573 33
      vertex 13.6896 2.98294 33
      vertex -0.0583617 0.546895 27.5
    endloop
  endfacet
  facet normal -0.171754 0.96983 -0.173003
    outer loop
      vertex 13.6896 2.98294 33
      vertex 27.4751 5.4243 33
      vertex 13.8626 2.03247 27.5
    endloop
  endfacet
  facet normal -0.164538 0.929088 -0.331245
    outer loop
      vertex 27.4751 5.4243 33
      vertex 41.2606 7.86567 33
      vertex 27.7836 3.51804 27.5
    endloop
  endfacet
  facet normal -0.154305 0.871301 -0.465859
    outer loop
      vertex 41.2606 7.86567 33
      vertex 55.046 10.307 33
      vertex 41.7045 5.00361 27.5
    endloop
  endfacet
  facet normal 0.98453 0.174357 -0.0173113
    outer loop
      vertex 55.046 10.307 33
      vertex 55.2379 9.22389 33
      vertex 55.6255 6.48918 27.5
    endloop
  endfacet
  facet normal 0.142765 -0.806143 0.57424
    outer loop
      vertex 55.2379 9.22389 33
      vertex 41.4524 6.78252 33
      vertex 55.7422 5.39539 27.5
    endloop
  endfacet
  facet normal 0.154335 -0.871472 0.465529
    outer loop
      vertex 41.4524 6.78252 33
      vertex 27.6669 4.34116 33
      vertex 41.8212 3.90982 27.5
    endloop
  endfacet
  facet normal 0.164563 -0.929226 0.330846
    outer loop
      vertex 27.6669 4.34116 33
      vertex 13.8814 1.89979 33
      vertex 27.9003 2.42425 27.5
    endloop
  endfacet
  facet normal 0.171768 -0.969909 0.172548
    outer loop
      vertex 13.8814 1.89979 33
      vertex 0.0959108 -0.541573 33
      vertex 13.9793 0.938676 27.5
    endloop
  endfacet
  facet normal -0.284981 0.958533 -0.000645773
    outer loop
      vertex -0.15674 0.527193 38.5
      vertex 13.2627 4.51693 38.5
      vertex -0.0959108 0.541573 33
    endloop
  endfacet
  facet normal -0.273744 0.920736 -0.278046
    outer loop
      vertex 13.2627 4.51693 38.5
      vertex 26.6822 8.50667 38.5
      vertex 13.6896 2.98294 33
    endloop
  endfacet
  facet normal -0.246702 0.829782 -0.500599
    outer loop
      vertex 26.6822 8.50667 38.5
      vertex 40.1017 12.4964 38.5
      vertex 27.4751 5.4243 33
    endloop
  endfacet
  facet normal -0.215312 0.724202 -0.655112
    outer loop
      vertex 40.1017 12.4964 38.5
      vertex 53.5211 16.4861 38.5
      vertex 41.2606 7.86567 33
    endloop
  endfacet
  facet normal 0.957118 0.28456 -0.0543248
    outer loop
      vertex 53.5211 16.4861 38.5
      vertex 53.8346 15.4318 38.5
      vertex 55.046 10.307 33
    endloop
  endfacet
  facet normal 0.186572 -0.627535 0.755903
    outer loop
      vertex 53.8346 15.4318 38.5
      vertex 40.4151 11.442 38.5
      vertex 55.2379 9.22389 33
    endloop
  endfacet
  facet normal 0.21545 -0.724665 0.654554
    outer loop
      vertex 40.4151 11.442 38.5
      vertex 26.9957 7.45228 38.5
      vertex 41.4524 6.78252 33
    endloop
  endfacet
  facet normal 0.24684 -0.830246 0.499761
    outer loop
      vertex 26.9957 7.45228 38.5
      vertex 13.5762 3.46254 38.5
      vertex 27.6669 4.34116 33
    endloop
  endfacet
  facet normal 0.273838 -0.921053 0.2769
    outer loop
      vertex 13.5762 3.46254 38.5
      vertex 0.15674 -0.527193 38.5
      vertex 13.8814 1.89979 33
    endloop
  endfacet
  facet normal -0.458635 0.888623 -0.00175214
    outer loop
      vertex -0.252249 0.488744 44
      vertex 12.1885 6.90964 44
      vertex -0.15674 0.527193 38.5
    endloop
  endfacet
  facet normal -0.414088 0.802313 -0.429913
    outer loop
      vertex 12.1885 6.90964 44
      vertex 24.6292 13.3305 44
      vertex 13.2627 4.51693 38.5
    endloop
  endfacet
  facet normal -0.332415 0.644068 -0.688968
    outer loop
      vertex 24.6292 13.3305 44
      vertex 37.07 19.7514 44
      vertex 26.6822 8.50667 38.5
    endloop
  endfacet
  facet normal -0.263454 0.510453 -0.818554
    outer loop
      vertex 37.07 19.7514 44
      vertex 49.5107 26.1723 44
      vertex 40.1017 12.4964 38.5
    endloop
  endfacet
  facet normal 0.877497 0.452892 -0.157762
    outer loop
      vertex 49.5107 26.1723 44
      vertex 50.0152 25.1948 44
      vertex 53.5211 16.4861 38.5
    endloop
  endfacet
  facet normal 0.21397 -0.414576 0.884502
    outer loop
      vertex 50.0152 25.1948 44
      vertex 37.5745 18.7739 44
      vertex 53.8346 15.4318 38.5
    endloop
  endfacet
  facet normal 0.263888 -0.511295 0.817888
    outer loop
      vertex 37.5745 18.7739 44
      vertex 25.1337 12.353 44
      vertex 40.4151 11.442 38.5
    endloop
  endfacet
  facet normal 0.332997 -0.645196 0.68763
    outer loop
      vertex 25.1337 12.353 44
      vertex 12.693 5.93215 44
      vertex 26.9957 7.45228 38.5
    endloop
  endfacet
  facet normal 0.41465 -0.803402 0.427329
    outer loop
      vertex 12.693 5.93215 44
      vertex 0.252249 -0.488744 44
      vertex 13.5762 3.46254 38.5
    endloop
  endfacet
  facet normal -0.707205 0.706993 -0.00473884
    outer loop
      vertex -0.388967 0.388851 49.5
      vertex 9.50905 10.2898 49.5
      vertex -0.252249 0.488744 44
    endloop
  endfacet
  facet normal -0.557898 0.557731 -0.614562
    outer loop
      vertex 9.50905 10.2898 49.5
      vertex 19.4071 20.1908 49.5
      vertex 12.1885 6.90964 44
    endloop
  endfacet
  facet normal -0.382815 0.382701 -0.840829
    outer loop
      vertex 19.4071 20.1908 49.5
      vertex 29.3051 30.0918 49.5
      vertex 24.6292 13.3305 44
    endloop
  endfacet
  facet normal -0.279159 0.279075 -0.918797
    outer loop
      vertex 29.3051 30.0918 49.5
      vertex 39.2031 39.9927 49.5
      vertex 37.07 19.7514 44
    endloop
  endfacet
  facet normal 0.644226 0.644418 -0.411945
    outer loop
      vertex 39.2031 39.9927 49.5
      vertex 39.981 39.215 49.5
      vertex 49.5107 26.1723 44
    endloop
  endfacet
  facet normal 0.217594 -0.217529 0.95149
    outer loop
      vertex 39.981 39.215 49.5
      vertex 30.083 29.3141 49.5
      vertex 50.0152 25.1948 44
    endloop
  endfacet
  facet normal 0.280121 -0.280038 0.918211
    outer loop
      vertex 30.083 29.3141 49.5
      vertex 20.185 19.4131 49.5
      vertex 37.5745 18.7739 44
    endloop
  endfacet
  facet normal 0.384472 -0.384357 0.839316
    outer loop
      vertex 20.185 19.4131 49.5
      vertex 10.287 9.51212 49.5
      vertex 25.1337 12.353 44
    endloop
  endfacet
  facet normal 0.560463 -0.560295 0.609877
    outer loop
      vertex 10.287 9.51212 49.5
      vertex 0.388967 -0.388851 49.5
      vertex 12.693 5.93215 44
    endloop
  endfacet
  facet normal -0.999962 -0.00872653 -0.000566113
    outer loop
      vertex -0.00791302 0.549943 5.5
      vertex -0.00479959 0.549979 0
      vertex 0.00479959 -0.549979 0
    endloop
  endfacet
  facet normal -0.999896 -0.0143873 -0.000933354
    outer loop
      vertex -0.0130456 0.549845 11
      vertex -0.00791302 0.549943 5.5
      vertex 0.00791302 -0.549943 5.5
    endloop
  endfacet
  facet normal -0.999717 -0.0237192 -0.0015388
    outer loop
      vertex -0.0215051 0.549579 16.5
      vertex -0.0130456 0.549845 11
      vertex 0.0130456 -0.549845 11
    endloop
  endfacet
  facet normal -0.999232 -0.0391 -0.00253688
    outer loop
      vertex -0.0354404 0.548857 22
      vertex -0.0215051 0.549579 16.5
      vertex 0.0215051 -0.549579 16.5
    endloop
  endfacet
  facet normal -0.997913 -0.0644364 -0.00418181
    outer loop
      vertex -0.0583617 0.546895 27.5
      vertex -0.0354404 0.548857 22
      vertex 0.0354404 -0.548857 22
    endloop
  endfacet
  facet normal -0.994331 -0.10611 -0.00689108
    outer loop
      vertex -0.0959108 0.541573 33
      vertex -0.0583617 0.546895 27.5
      vertex 0.0583617 -0.546895 27.5
    endloop
  endfacet
  facet normal -0.984614 -0.174372 -0.0113455
    outer loop
      vertex -0.15674 0.527193 38.5
      vertex -0.0959108 0.541573 33
      vertex 0.0959108 -0.541573 33
    endloop
  endfacet
  facet normal -0.958367 -0.284932 -0.0186343
    outer loop
      vertex -0.252249 0.488744 44
      vertex -0.15674 0.527193 38.5
      vertex 0.15674 -0.527193 38.5
    endloop
  endfacet
  facet normal -0.888214 -0.458423 -0.030405
    outer loop
      vertex -0.388967 0.388851 49.5
      vertex -0.252249 0.488744 44
      vertex 0.252249 -0.488744 44
    endloop
  endfacet
  facet normal -0.999896 -0.0143873 0.000566113
    outer loop
      vertex 0.00791302 -0.549943 5.5
      vertex -0.00791302 0.549943 5.5
      vertex 0.00479959 -0.549979 0
    endloop
  endfacet
  facet normal -0.999718 -0.0237192 0.000933354
    outer loop
      vertex 0.0130456 -0.549845 11
      vertex -0.0130456 0.549845 11
      vertex 0.00791302 -0.549943 5.5
    endloop
  endfacet
  facet normal -0.999234 -0.0391001 0.0015388
    outer loop
      vertex 0.0215051 -0.549579 16.5
      vertex -0.0215051 0.549579 16.5
      vertex 0.0130456 -0.549845 11
    endloop
  endfacet
  facet normal -0.997919 -0.0644368 0.00253688
    outer loop
      vertex 0.0354404 -0.548857 22
      vertex -0.0354404 0.548857 22
      vertex 0.0215051 -0.549579 16.5
    endloop
  endfacet
  facet normal -0.994345 -0.106111 0.00418181
    outer loop
      vertex 0.0583617 -0.546895 27.5
      vertex -0.0583617 0.546895 27.5
      vertex 0.0354404 -0.548857 22
    endloop
  endfacet
  facet normal -0.984654 -0.174379 0.00689108
    outer loop
      vertex 0.0959108 -0.541573 33
      vertex -0.0959108 0.541573 33
      vertex 0.0583617 -0.546895 27.5
    endloop
  endfacet
  facet normal -0.958471 -0.284963 0.0113455
    outer loop
      vertex 0.15674 -0.527193 38.5
      vertex -0.15674 0.527193 38.5
      vertex 0.0959108 -0.541573 33
    endloop
  endfacet
  facet normal -0.88847 -0.458556 0.0186343
    outer loop
      vertex 0.252249 -0.488744 44
      vertex -0.252249 0.488744 44
      vertex 0.15674 -0.527193 38.5
    endloop
  endfacet
  facet normal -0.706674 -0.706886 0.030405
    outer loop
      vertex 0.388967 -0.388851 49.5
      vertex -0.388967 0.388851 49.5
      vertex 0.252249 -0.488744 44
    endloop
  endfacet
  facet normal 0 -0 -1
    outer loop
      vertex 55.9931 1.03867 0
      vertex 56.0027 -0.0612931 0
      vertex 42.0032 -0.183465 0
    endloop
  endfacet
  facet normal 0 -0 -1
    outer loop
      vertex 41.9936 0.916494 0
      vertex 42.0032 -0.183465 0
      vertex 28.0037 -0.305636 0
    endloop
  endfacet
  facet normal 0 -0 -1
    outer loop
      vertex 27.9941 0.794322 0
      vertex 28.0037 -0.305636 0
      vertex 14.0043 -0.427808 0
    endloop
  endfacet
  facet normal 0 -0 -1
    outer loop
      vertex 13.9947 0.672151 0
      vertex 14.0043 -0.427808 0
      vertex 0.00479959 -0.549979 0
    endloop
  endfacet
  facet normal 0 0 -1
    outer loop
      vertex 41.9936 0.916494 0
      vertex 55.9931 1.03867 0
      vertex 42.0032 -0.183465 0
    endloop
  endfacet
  facet normal 0 0 -1
    outer loop
      vertex 27.9941 0.794322 0
      vertex 41.9936 0.916494 0
      vertex 28.0037 -0.305636 0
    endloop
  endfacet
  facet normal 0 0 -1
    outer loop
      vertex 13.9947 0.672151 0
      vertex 27.9941 0.794322 0
      vertex 14.0043 -0.427808 0
    endloop
  endfacet
  facet normal 0 0 -1
    outer loop
      vertex -0.00479959 0.549979 0
      vertex 13.9947 0.672151 0
      vertex 0.00479959 -0.549979 0
    endloop
  endfacet
  facet normal 0 0 1
    outer loop
      vertex 10.287 9.51212 49.5
      vertex 9.50905 10.2898 49.5
      vertex -0.388967 0.388851 49.5
    endloop
  endfacet
  facet normal 0 0 1
    outer loop
      vertex 20.185 19.4131 49.5
      vertex 19.4071 20.1908 49.5
      vertex 9.50905 10.2898 49.5
    endloop
  endfacet
  facet normal 0 0 1
    outer loop
      vertex 30.083 29.3141 49.5
      vertex 29.3051 30.0918 49.5
      vertex 19.4071 20.1908 49.5
    endloop
  endfacet
  facet normal 0 0 1
    outer loop
      vertex 39.981 39.215 49.5
      vertex 39.2031 39.9927 49.5
      vertex 29.3051 30.0918 49.5
    endloop
  endfacet
  facet normal 0 -0 1
    outer loop
      vertex 0.388967 -0.388851 49.5
      vertex 10.287 9.51212 49.5
      vertex -0.388967 0.388851 49.5
    endloop
  endfacet
  facet normal 0 -0 1
    outer loop
      vertex 10.287 9.51212 49.5
      vertex 20.185 19.4131 49.5
      vertex 9.50905 10.2898 49.5
    endloop
  endfacet
  facet normal 0 -0 1
    outer loop
      vertex 20.185 19.4131 49.5
      vertex 30.083 29.3141 49.5
      vertex 19.4071 20.1908 49.5
    endloop
  endfacet
  facet normal 0 -0 1
    outer loop
      vertex 30.083 29.3141 49.5
      vertex 39.981 39.215 49.5
      vertex 29.3051 30.0918 49.5
    endloop
  endfacet
endsolid OpenSCAD_Model
