999
Inkscape export via "Better DXF Output" (bob@bobcookdev.com)
  0
SECTION
  2
HEADER
  9
$ACADVER
  1
AC1014
  9
$HANDSEED
  5
FFFF
  0
ENDSEC
  0
SECTION
  2
TABLES
  0
TABLE
  2
VPORT
  5
8
330
0
100
AcDbSymbolTable
 70
     4
  0
VPORT
  5
2E
330
8
100
AcDbSymbolTableRecord
100
AcDbViewportTableRecord
  2
*ACTIVE
 70
     0
 10
0.0
 20
0.0
 11
1.0
 21
1.0
 12
4.25
 22
5.5
 13
0.0
 23
0.0
 14
10.0
 24
10.0
 15
10.0
 25
10.0
 16
0.0
 26
0.0
 36
1.0
 17
0.0
 27
0.0
 37
0.0
 40
11
 41
1.24
 42
50.0
 43
0.0
 44
0.0
 50
0.0
 51
0.0
 71
     0
 72
   100
 73
     1
 74
     3
 75
     0
 76
     0
 77
     0
 78
     0
  0
ENDTAB
  0
TABLE
  2
LTYPE
  5
5
330
0
100
AcDbSymbolTable
 70
     1
  0
LTYPE
  5
14
330
5
100
AcDbSymbolTableRecord
100
AcDbLinetypeTableRecord
  2
BYBLOCK
 70
     0
  3

 72
    65
 73
     0
 40
0.0
  0
LTYPE
  5
15
330
5
100
AcDbSymbolTableRecord
100
AcDbLinetypeTableRecord
  2
BYLAYER
 70
     0
  3

 72
    65
 73
     0
 40
0.0
  0
LTYPE
  5
16
330
5
100
AcDbSymbolTableRecord
100
AcDbLinetypeTableRecord
  2
CONTINUOUS
 70
     0
  3
Solid line
 72
    65
 73
     0
 40
0.0
  0
ENDTAB
  0
TABLE
  2
LAYER
  5
2
330
0
100
AcDbSymbolTable
 70
1
  0
LAYER
  5
10
330
2
100
AcDbSymbolTableRecord
100
AcDbLayerTableRecord
  2
0
 70
     0
 62
     7
  6
CONTINUOUS
  0
ENDTAB
  0
TABLE
  2
STYLE
  5
3
330
0
100
AcDbSymbolTable
 70
     1
  0
STYLE
  5
11
330
3
100
AcDbSymbolTableRecord
100
AcDbTextStyleTableRecord
  2
STANDARD
 70
     0
 40
0.0
 41
1.0
 50
0.0
 71
     0
 42
2.5
  3
txt
  4

  0
ENDTAB
  0
TABLE
  2
VIEW
  5
6
330
0
100
AcDbSymbolTable
 70
     0
  0
ENDTAB
  0
TABLE
  2
UCS
  5
7
330
0
100
AcDbSymbolTable
 70
     0
  0
ENDTAB
  0
TABLE
  2
APPID
  5
9
330
0
100
AcDbSymbolTable
 70
     2
  0
APPID
  5
12
330
9
100
AcDbSymbolTableRecord
100
AcDbRegAppTableRecord
  2
ACAD
 70
     0
  0
ENDTAB
  0
TABLE
  2
DIMSTYLE
  5
A
330
0
100
AcDbSymbolTable
 70
     1
  0
DIMSTYLE
105
27
330
A
100
AcDbSymbolTableRecord
100
AcDbDimStyleTableRecord
  2
ISO-25
 70
     0
  3

  4

  5

  6

  7

 40
1.0
 41
2.5
 42
0.625
 43
3.75
 44
1.25
 45
0.0
 46
0.0
 47
0.0
 48
0.0
140
2.5
141
2.5
142
0.0
143
0.03937007874016
144
1.0
145
0.0
146
1.0
147
0.625
 71
     0
 72
     0
 73
     0
 74
     0
 75
     0
 76
     0
 77
     1
 78
     8
170
     0
171
     3
172
     1
173
     0
174
     0
175
     0
176
     0
177
     0
178
     0
270
     2
271
     2
272
     2
273
     2
274
     3
340
11
275
     0
280
     0
281
     0
282
     0
283
     0
284
     8
285
     0
286
     0
287
     3
288
     0
  0
ENDTAB
  0
TABLE
  2
BLOCK_RECORD
  5
1
330
0
100
AcDbSymbolTable
 70
     1
  0
BLOCK_RECORD
  5
1F
330
1
100
AcDbSymbolTableRecord
100
AcDbBlockTableRecord
  2
*MODEL_SPACE
  0
BLOCK_RECORD
  5
1B
330
1
100
AcDbSymbolTableRecord
100
AcDbBlockTableRecord
  2
*PAPER_SPACE
  0
ENDTAB
  0
ENDSEC
  0
SECTION
  2
BLOCKS
  0
BLOCK
  5
20
330
1F
100
AcDbEntity
  8
0
100
AcDbBlockBegin
  2
*MODEL_SPACE
 70
     0
 10
0.0
 20
0.0
 30
0.0
  3
*MODEL_SPACE
  1

  0
ENDBLK
  5
21
330
1F
100
AcDbEntity
  8
0
100
AcDbBlockEnd
  0
BLOCK
  5
1C
330
1B
100
AcDbEntity
 67
     1
  8
0
100
AcDbBlockBegin
  2
*PAPER_SPACE
  1

  0
ENDBLK
  5
1D
330
1B
100
AcDbEntity
 67
     1
  8
0
100
AcDbBlockEnd
  0
ENDSEC
  0
SECTION
  2
ENTITIES
0
LINE
8
ductPlan
62
4
5
100
100
AcDbEntity
100
AcDbLine
10
151.623923
20
-7.398295
30
0.0
11
151.501716
21
-1.942175
31
0.0
0
LINE
8
ductPlan
62
4
5
101
100
AcDbEntity
100
AcDbLine
10
151.501716
20
-1.942175
30
0.0
11
151.156169
21
3.329621
31
0.0
0
LINE
8
ductPlan
62
4
5
102
100
AcDbEntity
100
AcDbLine
10
151.156169
20
3.329621
30
0.0
11
150.602102
21
8.436427
31
0.0
0
LINE
8
ductPlan
62
4
5
103
100
AcDbEntity
100
AcDbLine
10
150.602102
20
8.436427
30
0.0
11
149.854334
21
13.397577
31
0.0
0
LINE
8
ductPlan
62
4
5
104
100
AcDbEntity
100
AcDbLine
10
149.854334
20
13.397577
30
0.0
11
148.927684
21
18.232408
31
0.0
0
LINE
8
ductPlan
62
4
5
105
100
AcDbEntity
100
AcDbLine
10
148.927684
20
18.232408
30
0.0
11
147.836971
21
22.960252
31
0.0
0
LINE
8
ductPlan
62
4
5
106
100
AcDbEntity
100
AcDbLine
10
147.836971
20
22.960252
30
0.0
11
146.597014
21
27.600444
31
0.0
0
LINE
8
ductPlan
62
4
5
107
100
AcDbEntity
100
AcDbLine
10
146.597014
20
27.600444
30
0.0
11
145.222632
21
32.172319
31
0.0
0
LINE
8
ductPlan
62
4
5
108
100
AcDbEntity
100
AcDbLine
10
145.222632
20
32.172319
30
0.0
11
142.129870
21
41.188455
31
0.0
0
LINE
8
ductPlan
62
4
5
109
100
AcDbEntity
100
AcDbLine
10
142.129870
20
41.188455
30
0.0
11
138.677236
21
50.163336
31
0.0
0
LINE
8
ductPlan
62
4
5
10a
100
AcDbEntity
100
AcDbLine
10
138.677236
20
50.163336
30
0.0
11
131.166567
21
68.608036
31
0.0
0
LINE
8
ductPlan
62
4
5
10b
100
AcDbEntity
100
AcDbLine
10
131.166567
20
68.608036
30
0.0
11
127.345637
21
78.387205
31
0.0
0
LINE
8
ductPlan
62
4
5
10c
100
AcDbEntity
100
AcDbLine
10
127.345637
20
78.387205
30
0.0
11
123.639046
21
88.743823
31
0.0
0
LINE
8
ductPlan
62
4
5
10d
100
AcDbEntity
100
AcDbLine
10
123.639046
20
88.743823
30
0.0
11
120.165347
21
99.832564
31
0.0
0
LINE
8
ductPlan
62
4
5
10e
100
AcDbEntity
100
AcDbLine
10
120.165347
20
99.832564
30
0.0
11
118.552879
21
105.699817
31
0.0
0
LINE
8
ductPlan
62
4
5
10f
100
AcDbEntity
100
AcDbLine
10
118.552879
20
105.699817
30
0.0
11
117.043092
21
111.808104
31
0.0
0
LINE
8
ductPlan
62
4
5
110
100
AcDbEntity
100
AcDbLine
10
117.043092
20
111.808104
30
0.0
11
115.650804
21
118.176760
31
0.0
0
LINE
8
ductPlan
62
4
5
111
100
AcDbEntity
100
AcDbLine
10
115.650804
20
118.176760
30
0.0
11
114.390834
21
124.825119
31
0.0
0
LINE
8
ductPlan
62
4
5
112
100
AcDbEntity
100
AcDbLine
10
114.390834
20
124.825119
30
0.0
11
113.278002
21
131.772516
31
0.0
0
LINE
8
ductPlan
62
4
5
113
100
AcDbEntity
100
AcDbLine
10
113.278002
20
131.772516
30
0.0
11
112.327126
21
139.038285
31
0.0
0
LINE
8
ductPlan
62
4
5
114
100
AcDbEntity
100
AcDbLine
10
112.327126
20
139.038285
30
0.0
11
111.553026
21
146.641761
31
0.0
0
LINE
8
ductPlan
62
4
5
115
100
AcDbEntity
100
AcDbLine
10
111.553026
20
146.641761
30
0.0
11
110.970521
21
154.602278
31
0.0
0
LINE
8
ductPlan
62
4
5
116
100
AcDbEntity
100
AcDbLine
10
110.970521
20
154.602278
30
0.0
11
110.594429
21
162.939170
31
0.0
0
LINE
8
ductPlan
62
4
5
117
100
AcDbEntity
100
AcDbLine
10
110.594429
20
162.939170
30
0.0
11
110.439570
21
171.671773
31
0.0
0
LINE
8
ductPlan
62
4
5
118
100
AcDbEntity
100
AcDbLine
10
110.439570
20
171.671773
30
0.0
11
99.211223
21
171.671773
31
0.0
0
LINE
8
ductPlan
62
4
5
119
100
AcDbEntity
100
AcDbLine
10
99.211223
20
171.671773
30
0.0
11
99.056364
21
162.939170
31
0.0
0
LINE
8
ductPlan
62
4
5
11a
100
AcDbEntity
100
AcDbLine
10
99.056364
20
162.939170
30
0.0
11
98.680272
21
154.602278
31
0.0
0
LINE
8
ductPlan
62
4
5
11b
100
AcDbEntity
100
AcDbLine
10
98.680272
20
154.602278
30
0.0
11
98.097767
21
146.641761
31
0.0
0
LINE
8
ductPlan
62
4
5
11c
100
AcDbEntity
100
AcDbLine
10
98.097767
20
146.641761
30
0.0
11
97.323666
21
139.038285
31
0.0
0
LINE
8
ductPlan
62
4
5
11d
100
AcDbEntity
100
AcDbLine
10
97.323666
20
139.038285
30
0.0
11
96.372791
21
131.772516
31
0.0
0
LINE
8
ductPlan
62
4
5
11e
100
AcDbEntity
100
AcDbLine
10
96.372791
20
131.772516
30
0.0
11
95.259958
21
124.825119
31
0.0
0
LINE
8
ductPlan
62
4
5
11f
100
AcDbEntity
100
AcDbLine
10
95.259958
20
124.825119
30
0.0
11
93.999989
21
118.176760
31
0.0
0
LINE
8
ductPlan
62
4
5
120
100
AcDbEntity
100
AcDbLine
10
93.999989
20
118.176760
30
0.0
11
92.607701
21
111.808104
31
0.0
0
LINE
8
ductPlan
62
4
5
121
100
AcDbEntity
100
AcDbLine
10
92.607701
20
111.808104
30
0.0
11
91.097914
21
105.699817
31
0.0
0
LINE
8
ductPlan
62
4
5
122
100
AcDbEntity
100
AcDbLine
10
91.097914
20
105.699817
30
0.0
11
89.485446
21
99.832564
31
0.0
0
LINE
8
ductPlan
62
4
5
123
100
AcDbEntity
100
AcDbLine
10
89.485446
20
99.832564
30
0.0
11
86.011747
21
88.743823
31
0.0
0
LINE
8
ductPlan
62
4
5
124
100
AcDbEntity
100
AcDbLine
10
86.011747
20
88.743823
30
0.0
11
82.305156
21
78.387205
31
0.0
0
LINE
8
ductPlan
62
4
5
125
100
AcDbEntity
100
AcDbLine
10
82.305156
20
78.387205
30
0.0
11
78.484226
21
68.608036
31
0.0
0
LINE
8
ductPlan
62
4
5
126
100
AcDbEntity
100
AcDbLine
10
78.484226
20
68.608036
30
0.0
11
70.973557
21
50.163336
31
0.0
0
LINE
8
ductPlan
62
4
5
127
100
AcDbEntity
100
AcDbLine
10
70.973557
20
50.163336
30
0.0
11
67.520923
21
41.188455
31
0.0
0
LINE
8
ductPlan
62
4
5
128
100
AcDbEntity
100
AcDbLine
10
67.520923
20
41.188455
30
0.0
11
64.428161
21
32.172319
31
0.0
0
LINE
8
ductPlan
62
4
5
129
100
AcDbEntity
100
AcDbLine
10
64.428161
20
32.172319
30
0.0
11
63.053779
21
27.600444
31
0.0
0
LINE
8
ductPlan
62
4
5
12a
100
AcDbEntity
100
AcDbLine
10
63.053779
20
27.600444
30
0.0
11
61.813822
21
22.960252
31
0.0
0
LINE
8
ductPlan
62
4
5
12b
100
AcDbEntity
100
AcDbLine
10
61.813822
20
22.960252
30
0.0
11
60.723108
21
18.232408
31
0.0
0
LINE
8
ductPlan
62
4
5
12c
100
AcDbEntity
100
AcDbLine
10
60.723108
20
18.232408
30
0.0
11
59.796458
21
13.397577
31
0.0
0
LINE
8
ductPlan
62
4
5
12d
100
AcDbEntity
100
AcDbLine
10
59.796458
20
13.397577
30
0.0
11
59.048690
21
8.436427
31
0.0
0
LINE
8
ductPlan
62
4
5
12e
100
AcDbEntity
100
AcDbLine
10
59.048690
20
8.436427
30
0.0
11
58.494624
21
3.329621
31
0.0
0
LINE
8
ductPlan
62
4
5
12f
100
AcDbEntity
100
AcDbLine
10
58.494624
20
3.329621
30
0.0
11
58.149077
21
-1.942175
31
0.0
0
LINE
8
ductPlan
62
4
5
130
100
AcDbEntity
100
AcDbLine
10
58.149077
20
-1.942175
30
0.0
11
58.026870
21
-7.398295
31
0.0
0
LINE
8
ductPlan
62
4
5
131
100
AcDbEntity
100
AcDbLine
10
58.026870
20
-7.398295
30
0.0
11
151.623923
21
-7.398295
31
0.0
0
LINE
8
ductPlanPad
62
4
5
132
100
AcDbEntity
100
AcDbLine
10
41.336736
20
210.652586
30
0.0
11
39.351846
21
210.453300
31
0.0
0
LINE
8
ductPlanPad
62
4
5
133
100
AcDbEntity
100
AcDbLine
10
39.351846
20
210.453300
30
0.0
11
37.502320
21
209.881134
31
0.0
0
LINE
8
ductPlanPad
62
4
5
134
100
AcDbEntity
100
AcDbLine
10
37.502320
20
209.881134
30
0.0
11
35.827645
21
208.975397
31
0.0
0
LINE
8
ductPlanPad
62
4
5
135
100
AcDbEntity
100
AcDbLine
10
35.827645
20
208.975397
30
0.0
11
34.367303
21
207.775395
31
0.0
0
LINE
8
ductPlanPad
62
4
5
136
100
AcDbEntity
100
AcDbLine
10
34.367303
20
207.775395
30
0.0
11
33.160780
21
206.320437
31
0.0
0
LINE
8
ductPlanPad
62
4
5
137
100
AcDbEntity
100
AcDbLine
10
33.160780
20
206.320437
30
0.0
11
32.247558
21
204.649831
31
0.0
0
LINE
8
ductPlanPad
62
4
5
138
100
AcDbEntity
100
AcDbLine
10
32.247558
20
204.649831
30
0.0
11
31.667123
21
202.802884
31
0.0
0
LINE
8
ductPlanPad
62
4
5
139
100
AcDbEntity
100
AcDbLine
10
31.667123
20
202.802884
30
0.0
11
31.458958
21
200.818905
31
0.0
0
LINE
8
ductPlanPad
62
4
5
13a
100
AcDbEntity
100
AcDbLine
10
31.458958
20
200.818905
30
0.0
11
31.311544
21
192.354230
31
0.0
0
LINE
8
ductPlanPad
62
4
5
13b
100
AcDbEntity
100
AcDbLine
10
31.311544
20
192.354230
30
0.0
11
30.954523
21
184.293438
31
0.0
0
LINE
8
ductPlanPad
62
4
5
13c
100
AcDbEntity
100
AcDbLine
10
30.954523
20
184.293438
30
0.0
11
30.401288
21
176.614293
31
0.0
0
LINE
8
ductPlanPad
62
4
5
13d
100
AcDbEntity
100
AcDbLine
10
30.401288
20
176.614293
30
0.0
11
29.665233
21
169.294558
31
0.0
0
LINE
8
ductPlanPad
62
4
5
13e
100
AcDbEntity
100
AcDbLine
10
29.665233
20
169.294558
30
0.0
11
28.759751
21
162.311994
31
0.0
0
LINE
8
ductPlanPad
62
4
5
13f
100
AcDbEntity
100
AcDbLine
10
28.759751
20
162.311994
30
0.0
11
27.698234
21
155.644366
31
0.0
0
LINE
8
ductPlanPad
62
4
5
140
100
AcDbEntity
100
AcDbLine
10
27.698234
20
155.644366
30
0.0
11
26.494076
21
149.269436
31
0.0
0
LINE
8
ductPlanPad
62
4
5
141
100
AcDbEntity
100
AcDbLine
10
26.494076
20
149.269436
30
0.0
11
25.160669
21
143.164966
31
0.0
0
LINE
8
ductPlanPad
62
4
5
142
100
AcDbEntity
100
AcDbLine
10
25.160669
20
143.164966
30
0.0
11
23.711407
21
137.308719
31
0.0
0
LINE
8
ductPlanPad
62
4
5
143
100
AcDbEntity
100
AcDbLine
10
23.711407
20
137.308719
30
0.0
11
22.159683
21
131.678458
31
0.0
0
LINE
8
ductPlanPad
62
4
5
144
100
AcDbEntity
100
AcDbLine
10
22.159683
20
131.678458
30
0.0
11
18.802420
21
121.006944
31
0.0
0
LINE
8
ductPlanPad
62
4
5
145
100
AcDbEntity
100
AcDbLine
10
18.802420
20
121.006944
30
0.0
11
15.196024
21
110.972527
31
0.0
0
LINE
8
ductPlanPad
62
4
5
146
100
AcDbEntity
100
AcDbLine
10
15.196024
20
110.972527
30
0.0
11
11.447639
21
101.397308
31
0.0
0
LINE
8
ductPlanPad
62
4
5
147
100
AcDbEntity
100
AcDbLine
10
11.447639
20
101.397308
30
0.0
11
3.886865
21
82.850099
31
0.0
0
LINE
8
ductPlanPad
62
4
5
148
100
AcDbEntity
100
AcDbLine
10
3.886865
20
82.850099
30
0.0
11
0.322073
21
73.570816
31
0.0
0
LINE
8
ductPlanPad
62
4
5
149
100
AcDbEntity
100
AcDbLine
10
0.322073
20
73.570816
30
0.0
11
-2.911719
21
64.107615
31
0.0
0
LINE
8
ductPlanPad
62
4
5
14a
100
AcDbEntity
100
AcDbLine
10
-2.911719
20
64.107615
30
0.0
11
-4.360599
21
59.264827
31
0.0
0
LINE
8
ductPlanPad
62
4
5
14b
100
AcDbEntity
100
AcDbLine
10
-4.360599
20
59.264827
30
0.0
11
-5.674060
21
54.325396
31
0.0
0
LINE
8
ductPlanPad
62
4
5
14c
100
AcDbEntity
100
AcDbLine
10
-5.674060
20
54.325396
30
0.0
11
-6.834544
21
49.272436
31
0.0
0
LINE
8
ductPlanPad
62
4
5
14d
100
AcDbEntity
100
AcDbLine
10
-6.834544
20
49.272436
30
0.0
11
-7.824496
21
44.089058
31
0.0
0
LINE
8
ductPlanPad
62
4
5
14e
100
AcDbEntity
100
AcDbLine
10
-7.824496
20
44.089058
30
0.0
11
-8.626359
21
38.758376
31
0.0
0
LINE
8
ductPlanPad
62
4
5
14f
100
AcDbEntity
100
AcDbLine
10
-8.626359
20
38.758376
30
0.0
11
-9.222576
21
33.263502
31
0.0
0
LINE
8
ductPlanPad
62
4
5
150
100
AcDbEntity
100
AcDbLine
10
-9.222576
20
33.263502
30
0.0
11
-9.595591
21
27.587548
31
0.0
0
LINE
8
ductPlanPad
62
4
5
151
100
AcDbEntity
100
AcDbLine
10
-9.595591
20
27.587548
30
0.0
11
-9.727847
21
21.713627
31
0.0
0
LINE
8
ductPlanPad
62
4
5
152
100
AcDbEntity
100
AcDbLine
10
-9.727847
20
21.713627
30
0.0
11
-9.537996
21
19.776220
31
0.0
0
LINE
8
ductPlanPad
62
4
5
153
100
AcDbEntity
100
AcDbLine
10
-9.537996
20
19.776220
30
0.0
11
-8.978787
21
17.930678
31
0.0
0
LINE
8
ductPlanPad
62
4
5
154
100
AcDbEntity
100
AcDbLine
10
-8.978787
20
17.930678
30
0.0
11
-8.071689
21
16.228940
31
0.0
0
LINE
8
ductPlanPad
62
4
5
155
100
AcDbEntity
100
AcDbLine
10
-8.071689
20
16.228940
30
0.0
11
-6.838171
21
14.722944
31
0.0
0
LINE
8
ductPlanPad
62
4
5
156
100
AcDbEntity
100
AcDbLine
10
-6.838171
20
14.722944
30
0.0
11
-5.333276
21
13.488082
31
0.0
0
LINE
8
ductPlanPad
62
4
5
157
100
AcDbEntity
100
AcDbLine
10
-5.333276
20
13.488082
30
0.0
11
-3.632349
21
12.579466
31
0.0
0
LINE
8
ductPlanPad
62
4
5
158
100
AcDbEntity
100
AcDbLine
10
-3.632349
20
12.579466
30
0.0
11
-1.787307
21
12.018610
31
0.0
0
LINE
8
ductPlanPad
62
4
5
159
100
AcDbEntity
100
AcDbLine
10
-1.787307
20
12.018610
30
0.0
11
0.149931
21
11.827030
31
0.0
0
LINE
8
ductPlanPad
62
4
5
15a
100
AcDbEntity
100
AcDbLine
10
0.149931
20
11.827030
30
0.0
11
93.750694
21
11.827030
31
0.0
0
LINE
8
ductPlanPad
62
4
5
15b
100
AcDbEntity
100
AcDbLine
10
93.750694
20
11.827030
30
0.0
11
95.687932
21
12.018610
31
0.0
0
LINE
8
ductPlanPad
62
4
5
15c
100
AcDbEntity
100
AcDbLine
10
95.687932
20
12.018610
30
0.0
11
97.532974
21
12.579466
31
0.0
0
LINE
8
ductPlanPad
62
4
5
15d
100
AcDbEntity
100
AcDbLine
10
97.532974
20
12.579466
30
0.0
11
99.233901
21
13.488082
31
0.0
0
LINE
8
ductPlanPad
62
4
5
15e
100
AcDbEntity
100
AcDbLine
10
99.233901
20
13.488082
30
0.0
11
100.738796
21
14.722944
31
0.0
0
LINE
8
ductPlanPad
62
4
5
15f
100
AcDbEntity
100
AcDbLine
10
100.738796
20
14.722944
30
0.0
11
101.972314
21
16.228940
31
0.0
0
LINE
8
ductPlanPad
62
4
5
160
100
AcDbEntity
100
AcDbLine
10
101.972314
20
16.228940
30
0.0
11
102.879412
21
17.930678
31
0.0
0
LINE
8
ductPlanPad
62
4
5
161
100
AcDbEntity
100
AcDbLine
10
102.879412
20
17.930678
30
0.0
11
103.438621
21
19.776220
31
0.0
0
LINE
8
ductPlanPad
62
4
5
162
100
AcDbEntity
100
AcDbLine
10
103.438621
20
19.776220
30
0.0
11
103.628472
21
21.713627
31
0.0
0
LINE
8
ductPlanPad
62
4
5
163
100
AcDbEntity
100
AcDbLine
10
103.628472
20
21.713627
30
0.0
11
103.496216
21
27.587548
31
0.0
0
LINE
8
ductPlanPad
62
4
5
164
100
AcDbEntity
100
AcDbLine
10
103.496216
20
27.587548
30
0.0
11
103.123200
21
33.263502
31
0.0
0
LINE
8
ductPlanPad
62
4
5
165
100
AcDbEntity
100
AcDbLine
10
103.123200
20
33.263502
30
0.0
11
102.526983
21
38.758376
31
0.0
0
LINE
8
ductPlanPad
62
4
5
166
100
AcDbEntity
100
AcDbLine
10
102.526983
20
38.758376
30
0.0
11
101.725120
21
44.089058
31
0.0
0
LINE
8
ductPlanPad
62
4
5
167
100
AcDbEntity
100
AcDbLine
10
101.725120
20
44.089058
30
0.0
11
100.735168
21
49.272436
31
0.0
0
LINE
8
ductPlanPad
62
4
5
168
100
AcDbEntity
100
AcDbLine
10
100.735168
20
49.272436
30
0.0
11
99.574684
21
54.325396
31
0.0
0
LINE
8
ductPlanPad
62
4
5
169
100
AcDbEntity
100
AcDbLine
10
99.574684
20
54.325396
30
0.0
11
98.261223
21
59.264827
31
0.0
0
LINE
8
ductPlanPad
62
4
5
16a
100
AcDbEntity
100
AcDbLine
10
98.261223
20
59.264827
30
0.0
11
96.812343
21
64.107615
31
0.0
0
LINE
8
ductPlanPad
62
4
5
16b
100
AcDbEntity
100
AcDbLine
10
96.812343
20
64.107615
30
0.0
11
93.578551
21
73.570816
31
0.0
0
LINE
8
ductPlanPad
62
4
5
16c
100
AcDbEntity
100
AcDbLine
10
93.578551
20
73.570816
30
0.0
11
90.013759
21
82.850099
31
0.0
0
LINE
8
ductPlanPad
62
4
5
16d
100
AcDbEntity
100
AcDbLine
10
90.013759
20
82.850099
30
0.0
11
82.452986
21
101.397308
31
0.0
0
LINE
8
ductPlanPad
62
4
5
16e
100
AcDbEntity
100
AcDbLine
10
82.452986
20
101.397308
30
0.0
11
78.704601
21
110.972527
31
0.0
0
LINE
8
ductPlanPad
62
4
5
16f
100
AcDbEntity
100
AcDbLine
10
78.704601
20
110.972527
30
0.0
11
75.098205
21
121.006944
31
0.0
0
LINE
8
ductPlanPad
62
4
5
170
100
AcDbEntity
100
AcDbLine
10
75.098205
20
121.006944
30
0.0
11
71.740942
21
131.678458
31
0.0
0
LINE
8
ductPlanPad
62
4
5
171
100
AcDbEntity
100
AcDbLine
10
71.740942
20
131.678458
30
0.0
11
70.189218
21
137.308719
31
0.0
0
LINE
8
ductPlanPad
62
4
5
172
100
AcDbEntity
100
AcDbLine
10
70.189218
20
137.308719
30
0.0
11
68.739956
21
143.164966
31
0.0
0
LINE
8
ductPlanPad
62
4
5
173
100
AcDbEntity
100
AcDbLine
10
68.739956
20
143.164966
30
0.0
11
67.406550
21
149.269436
31
0.0
0
LINE
8
ductPlanPad
62
4
5
174
100
AcDbEntity
100
AcDbLine
10
67.406550
20
149.269436
30
0.0
11
66.202391
21
155.644366
31
0.0
0
LINE
8
ductPlanPad
62
4
5
175
100
AcDbEntity
100
AcDbLine
10
66.202391
20
155.644366
30
0.0
11
65.140875
21
162.311994
31
0.0
0
LINE
8
ductPlanPad
62
4
5
176
100
AcDbEntity
100
AcDbLine
10
65.140875
20
162.311994
30
0.0
11
64.235392
21
169.294558
31
0.0
0
LINE
8
ductPlanPad
62
4
5
177
100
AcDbEntity
100
AcDbLine
10
64.235392
20
169.294558
30
0.0
11
63.499337
21
176.614293
31
0.0
0
LINE
8
ductPlanPad
62
4
5
178
100
AcDbEntity
100
AcDbLine
10
63.499337
20
176.614293
30
0.0
11
62.946102
21
184.293438
31
0.0
0
LINE
8
ductPlanPad
62
4
5
179
100
AcDbEntity
100
AcDbLine
10
62.946102
20
184.293438
30
0.0
11
62.589081
21
192.354230
31
0.0
0
LINE
8
ductPlanPad
62
4
5
17a
100
AcDbEntity
100
AcDbLine
10
62.589081
20
192.354230
30
0.0
11
62.441667
21
200.818905
31
0.0
0
LINE
8
ductPlanPad
62
4
5
17b
100
AcDbEntity
100
AcDbLine
10
62.441667
20
200.818905
30
0.0
11
62.233502
21
202.802884
31
0.0
0
LINE
8
ductPlanPad
62
4
5
17c
100
AcDbEntity
100
AcDbLine
10
62.233502
20
202.802884
30
0.0
11
61.653067
21
204.649831
31
0.0
0
LINE
8
ductPlanPad
62
4
5
17d
100
AcDbEntity
100
AcDbLine
10
61.653067
20
204.649831
30
0.0
11
60.739845
21
206.320437
31
0.0
0
LINE
8
ductPlanPad
62
4
5
17e
100
AcDbEntity
100
AcDbLine
10
60.739845
20
206.320437
30
0.0
11
59.533322
21
207.775395
31
0.0
0
LINE
8
ductPlanPad
62
4
5
17f
100
AcDbEntity
100
AcDbLine
10
59.533322
20
207.775395
30
0.0
11
58.072980
21
208.975397
31
0.0
0
LINE
8
ductPlanPad
62
4
5
180
100
AcDbEntity
100
AcDbLine
10
58.072980
20
208.975397
30
0.0
11
56.398305
21
209.881134
31
0.0
0
LINE
8
ductPlanPad
62
4
5
181
100
AcDbEntity
100
AcDbLine
10
56.398305
20
209.881134
30
0.0
11
54.548779
21
210.453300
31
0.0
0
LINE
8
ductPlanPad
62
4
5
182
100
AcDbEntity
100
AcDbLine
10
54.548779
20
210.453300
30
0.0
11
52.563889
21
210.652586
31
0.0
0
LINE
8
ductPlanPad
62
4
5
183
100
AcDbEntity
100
AcDbLine
10
52.563889
20
210.652586
30
0.0
11
41.336736
21
210.652586
31
0.0
0
LINE
8
ductPlanPad
62
4
5
184
100
AcDbEntity
100
AcDbLine
10
41.336736
20
210.652586
30
0.0
11
41.336736
21
210.652586
31
0.0
0
LINE
8
ductlipElev
62
4
5
185
100
AcDbEntity
100
AcDbLine
10
12.872531
20
198.215699
30
0.0
11
41.749780
21
55.188381
31
0.0
0
LINE
8
ductlipElev
62
4
5
186
100
AcDbEntity
100
AcDbLine
10
41.749780
20
55.188381
30
0.0
11
42.001703
21
54.396066
31
0.0
0
LINE
8
ductlipElev
62
4
5
187
100
AcDbEntity
100
AcDbLine
10
42.001703
20
54.396066
30
0.0
11
42.413210
21
53.700092
31
0.0
0
LINE
8
ductlipElev
62
4
5
188
100
AcDbEntity
100
AcDbLine
10
42.413210
20
53.700092
30
0.0
11
42.976899
21
53.100900
31
0.0
0
LINE
8
ductlipElev
62
4
5
189
100
AcDbEntity
100
AcDbLine
10
42.976899
20
53.100900
30
0.0
11
43.685368
21
52.598933
31
0.0
0
LINE
8
ductlipElev
62
4
5
18a
100
AcDbEntity
100
AcDbLine
10
43.685368
20
52.598933
30
0.0
11
45.507039
21
51.888442
31
0.0
0
LINE
8
ductlipElev
62
4
5
18b
100
AcDbEntity
100
AcDbLine
10
45.507039
20
51.888442
30
0.0
11
47.819009
21
51.572154
31
0.0
0
LINE
8
ductlipElev
62
4
5
18c
100
AcDbEntity
100
AcDbLine
10
47.819009
20
51.572154
30
0.0
11
50.562064
21
51.653608
31
0.0
0
LINE
8
ductlipElev
62
4
5
18d
100
AcDbEntity
100
AcDbLine
10
50.562064
20
51.653608
30
0.0
11
53.676988
21
52.136340
31
0.0
0
LINE
8
ductlipElev
62
4
5
18e
100
AcDbEntity
100
AcDbLine
10
53.676988
20
52.136340
30
0.0
11
57.104568
21
53.023888
31
0.0
0
LINE
8
ductlipElev
62
4
5
18f
100
AcDbEntity
100
AcDbLine
10
57.104568
20
53.023888
30
0.0
11
60.785590
21
54.319788
31
0.0
0
LINE
8
ductlipElev
62
4
5
190
100
AcDbEntity
100
AcDbLine
10
60.785590
20
54.319788
30
0.0
11
64.660838
21
56.027578
31
0.0
0
LINE
8
ductlipElev
62
4
5
191
100
AcDbEntity
100
AcDbLine
10
64.660838
20
56.027578
30
0.0
11
68.671099
21
58.150795
31
0.0
0
LINE
8
ductlipElev
62
4
5
192
100
AcDbEntity
100
AcDbLine
10
68.671099
20
58.150795
30
0.0
11
72.757158
21
60.692976
31
0.0
0
LINE
8
ductlipElev
62
4
5
193
100
AcDbEntity
100
AcDbLine
10
72.757158
20
60.692976
30
0.0
11
76.859802
21
63.657657
31
0.0
0
LINE
8
ductlipElev
62
4
5
194
100
AcDbEntity
100
AcDbLine
10
76.859802
20
63.657657
30
0.0
11
80.919814
21
67.048377
31
0.0
0
LINE
8
ductlipElev
62
4
5
195
100
AcDbEntity
100
AcDbLine
10
80.919814
20
67.048377
30
0.0
11
84.877982
21
70.868672
31
0.0
0
LINE
8
ductlipElev
62
4
5
196
100
AcDbEntity
100
AcDbLine
10
84.877982
20
70.868672
30
0.0
11
88.675090
21
75.122080
31
0.0
0
LINE
8
ductlipElev
62
4
5
197
100
AcDbEntity
100
AcDbLine
10
88.675090
20
75.122080
30
0.0
11
92.251925
21
79.812137
31
0.0
0
LINE
8
ductlipElev
62
4
5
198
100
AcDbEntity
100
AcDbLine
10
92.251925
20
79.812137
30
0.0
11
110.544418
21
62.216659
31
0.0
0
LINE
8
ductlipElev
62
4
5
199
100
AcDbEntity
100
AcDbLine
10
110.544418
20
62.216659
30
0.0
11
106.711806
21
57.154632
31
0.0
0
LINE
8
ductlipElev
62
4
5
19a
100
AcDbEntity
100
AcDbLine
10
106.711806
20
57.154632
30
0.0
11
102.928808
21
52.492988
31
0.0
0
LINE
8
ductlipElev
62
4
5
19b
100
AcDbEntity
100
AcDbLine
10
102.928808
20
52.492988
30
0.0
11
99.199254
21
48.217456
31
0.0
0
LINE
8
ductlipElev
62
4
5
19c
100
AcDbEntity
100
AcDbLine
10
99.199254
20
48.217456
30
0.0
11
95.526973
21
44.313766
31
0.0
0
LINE
8
ductlipElev
62
4
5
19d
100
AcDbEntity
100
AcDbLine
10
95.526973
20
44.313766
30
0.0
11
91.915798
21
40.767649
31
0.0
0
LINE
8
ductlipElev
62
4
5
19e
100
AcDbEntity
100
AcDbLine
10
91.915798
20
40.767649
30
0.0
11
88.369558
21
37.564834
31
0.0
0
LINE
8
ductlipElev
62
4
5
19f
100
AcDbEntity
100
AcDbLine
10
88.369558
20
37.564834
30
0.0
11
84.892083
21
34.691052
31
0.0
0
LINE
8
ductlipElev
62
4
5
1a0
100
AcDbEntity
100
AcDbLine
10
84.892083
20
34.691052
30
0.0
11
81.487204
21
32.132032
31
0.0
0
LINE
8
ductlipElev
62
4
5
1a1
100
AcDbEntity
100
AcDbLine
10
81.487204
20
32.132032
30
0.0
11
78.158751
21
29.873505
31
0.0
0
LINE
8
ductlipElev
62
4
5
1a2
100
AcDbEntity
100
AcDbLine
10
78.158751
20
29.873505
30
0.0
11
74.910554
21
27.901201
31
0.0
0
LINE
8
ductlipElev
62
4
5
1a3
100
AcDbEntity
100
AcDbLine
10
74.910554
20
27.901201
30
0.0
11
71.746445
21
26.200850
31
0.0
0
LINE
8
ductlipElev
62
4
5
1a4
100
AcDbEntity
100
AcDbLine
10
71.746445
20
26.200850
30
0.0
11
68.670253
21
24.758181
31
0.0
0
LINE
8
ductlipElev
62
4
5
1a5
100
AcDbEntity
100
AcDbLine
10
68.670253
20
24.758181
30
0.0
11
65.685809
21
23.558926
31
0.0
0
LINE
8
ductlipElev
62
4
5
1a6
100
AcDbEntity
100
AcDbLine
10
65.685809
20
23.558926
30
0.0
11
62.796944
21
22.588813
31
0.0
0
LINE
8
ductlipElev
62
4
5
1a7
100
AcDbEntity
100
AcDbLine
10
62.796944
20
22.588813
30
0.0
11
60.007487
21
21.833573
31
0.0
0
LINE
8
ductlipElev
62
4
5
1a8
100
AcDbEntity
100
AcDbLine
10
60.007487
20
21.833573
30
0.0
11
57.321268
21
21.278936
31
0.0
0
LINE
8
ductlipElev
62
4
5
1a9
100
AcDbEntity
100
AcDbLine
10
57.321268
20
21.278936
30
0.0
11
54.742119
21
20.910633
31
0.0
0
LINE
8
ductlipElev
62
4
5
1aa
100
AcDbEntity
100
AcDbLine
10
54.742119
20
20.910633
30
0.0
11
52.273870
21
20.714392
31
0.0
0
LINE
8
ductlipElev
62
4
5
1ab
100
AcDbEntity
100
AcDbLine
10
52.273870
20
20.714392
30
0.0
11
47.685393
21
20.781021
31
0.0
0
LINE
8
ductlipElev
62
4
5
1ac
100
AcDbEntity
100
AcDbLine
10
47.685393
20
20.781021
30
0.0
11
43.586480
21
21.364663
31
0.0
0
LINE
8
ductlipElev
62
4
5
1ad
100
AcDbEntity
100
AcDbLine
10
43.586480
20
21.364663
30
0.0
11
40.007773
21
22.351158
31
0.0
0
LINE
8
ductlipElev
62
4
5
1ae
100
AcDbEntity
100
AcDbLine
10
40.007773
20
22.351158
30
0.0
11
36.979917
21
23.626347
31
0.0
0
LINE
8
ductlipElev
62
4
5
1af
100
AcDbEntity
100
AcDbLine
10
36.979917
20
23.626347
30
0.0
11
34.533553
21
25.076071
31
0.0
0
LINE
8
ductlipElev
62
4
5
1b0
100
AcDbEntity
100
AcDbLine
10
34.533553
20
25.076071
30
0.0
11
32.699326
21
26.586170
31
0.0
0
LINE
8
ductlipElev
62
4
5
1b1
100
AcDbEntity
100
AcDbLine
10
32.699326
20
26.586170
30
0.0
11
31.507879
21
28.042483
31
0.0
0
LINE
8
ductlipElev
62
4
5
1b2
100
AcDbEntity
100
AcDbLine
10
31.507879
20
28.042483
30
0.0
11
29.764749
21
30.619188
31
0.0
0
LINE
8
ductlipElev
62
4
5
1b3
100
AcDbEntity
100
AcDbLine
10
29.764749
20
30.619188
30
0.0
11
27.944575
21
32.714638
31
0.0
0
LINE
8
ductlipElev
62
4
5
1b4
100
AcDbEntity
100
AcDbLine
10
27.944575
20
32.714638
30
0.0
11
26.991462
21
33.549458
31
0.0
0
LINE
8
ductlipElev
62
4
5
1b5
100
AcDbEntity
100
AcDbLine
10
26.991462
20
33.549458
30
0.0
11
26.002125
21
34.225042
31
0.0
0
LINE
8
ductlipElev
62
4
5
1b6
100
AcDbEntity
100
AcDbLine
10
26.002125
20
34.225042
30
0.0
11
24.970911
21
34.728417
31
0.0
0
LINE
8
ductlipElev
62
4
5
1b7
100
AcDbEntity
100
AcDbLine
10
24.970911
20
34.728417
30
0.0
11
23.892164
21
35.046610
31
0.0
0
LINE
8
ductlipElev
62
4
5
1b8
100
AcDbEntity
100
AcDbLine
10
23.892164
20
35.046610
30
0.0
11
22.760231
21
35.166646
31
0.0
0
LINE
8
ductlipElev
62
4
5
1b9
100
AcDbEntity
100
AcDbLine
10
22.760231
20
35.166646
30
0.0
11
21.569458
21
35.075552
31
0.0
0
LINE
8
ductlipElev
62
4
5
1ba
100
AcDbEntity
100
AcDbLine
10
21.569458
20
35.075552
30
0.0
11
20.314190
21
34.760354
31
0.0
0
LINE
8
ductlipElev
62
4
5
1bb
100
AcDbEntity
100
AcDbLine
10
20.314190
20
34.760354
30
0.0
11
18.988773
21
34.208078
31
0.0
0
LINE
8
ductlipElev
62
4
5
1bc
100
AcDbEntity
100
AcDbLine
10
18.988773
20
34.208078
30
0.0
11
17.587553
21
33.405751
31
0.0
0
LINE
8
ductlipElev
62
4
5
1bd
100
AcDbEntity
100
AcDbLine
10
17.587553
20
33.405751
30
0.0
11
16.104876
21
32.340398
31
0.0
0
LINE
8
ductlipElev
62
4
5
1be
100
AcDbEntity
100
AcDbLine
10
16.104876
20
32.340398
30
0.0
11
14.535086
21
30.999046
31
0.0
0
LINE
8
ductlipElev
62
4
5
1bf
100
AcDbEntity
100
AcDbLine
10
14.535086
20
30.999046
30
0.0
11
12.872531
21
29.368722
31
0.0
0
LINE
8
ductlipElev
62
4
5
1c0
100
AcDbEntity
100
AcDbLine
10
12.872531
20
29.368722
30
0.0
11
12.872531
21
198.215699
31
0.0
0
LINE
8
ductLipElevPad
62
4
5
1c1
100
AcDbEntity
100
AcDbLine
10
21.380357
20
209.090350
30
0.0
11
21.380357
21
18.343248
31
0.0
0
LINE
8
ductLipElevPad
62
4
5
1c2
100
AcDbEntity
100
AcDbLine
10
21.380357
20
18.343248
30
0.0
11
23.993794
21
16.587522
31
0.0
0
LINE
8
ductLipElevPad
62
4
5
1c3
100
AcDbEntity
100
AcDbLine
10
23.993794
20
16.587522
30
0.0
11
26.878426
21
15.102158
31
0.0
0
LINE
8
ductLipElevPad
62
4
5
1c4
100
AcDbEntity
100
AcDbLine
10
26.878426
20
15.102158
30
0.0
11
29.965613
21
13.865800
31
0.0
0
LINE
8
ductLipElevPad
62
4
5
1c5
100
AcDbEntity
100
AcDbLine
10
29.965613
20
13.865800
30
0.0
11
33.186716
21
12.857094
31
0.0
0
LINE
8
ductLipElevPad
62
4
5
1c6
100
AcDbEntity
100
AcDbLine
10
33.186716
20
12.857094
30
0.0
11
36.473096
21
12.054684
31
0.0
0
LINE
8
ductLipElevPad
62
4
5
1c7
100
AcDbEntity
100
AcDbLine
10
36.473096
20
12.054684
30
0.0
11
39.756113
21
11.437216
31
0.0
0
LINE
8
ductLipElevPad
62
4
5
1c8
100
AcDbEntity
100
AcDbLine
10
39.756113
20
11.437216
30
0.0
11
46.037500
21
10.671683
31
0.0
0
LINE
8
ductLipElevPad
62
4
5
1c9
100
AcDbEntity
100
AcDbLine
10
46.037500
20
10.671683
30
0.0
11
51.231732
21
10.268667
31
0.0
0
LINE
8
ductLipElevPad
62
4
5
1ca
100
AcDbEntity
100
AcDbLine
10
51.231732
20
10.268667
30
0.0
11
58.088707
21
10.061543
31
0.0
0
LINE
8
ductLipElevPad
62
4
5
1cb
100
AcDbEntity
100
AcDbLine
10
58.088707
20
10.061543
30
0.0
11
62.020730
21
10.185901
31
0.0
0
LINE
8
ductLipElevPad
62
4
5
1cc
100
AcDbEntity
100
AcDbLine
10
62.020730
20
10.185901
30
0.0
11
66.224448
21
10.544583
31
0.0
0
LINE
8
ductLipElevPad
62
4
5
1cd
100
AcDbEntity
100
AcDbLine
10
66.224448
20
10.544583
30
0.0
11
70.651863
21
11.199375
31
0.0
0
LINE
8
ductLipElevPad
62
4
5
1ce
100
AcDbEntity
100
AcDbLine
10
70.651863
20
11.199375
30
0.0
11
75.254979
21
12.212059
31
0.0
0
LINE
8
ductLipElevPad
62
4
5
1cf
100
AcDbEntity
100
AcDbLine
10
75.254979
20
12.212059
30
0.0
11
79.985798
21
13.644420
31
0.0
0
LINE
8
ductLipElevPad
62
4
5
1d0
100
AcDbEntity
100
AcDbLine
10
79.985798
20
13.644420
30
0.0
11
84.796322
21
15.558242
31
0.0
0
LINE
8
ductLipElevPad
62
4
5
1d1
100
AcDbEntity
100
AcDbLine
10
84.796322
20
15.558242
30
0.0
11
89.638556
21
18.015308
31
0.0
0
LINE
8
ductLipElevPad
62
4
5
1d2
100
AcDbEntity
100
AcDbLine
10
89.638556
20
18.015308
30
0.0
11
94.464501
21
21.077403
31
0.0
0
LINE
8
ductLipElevPad
62
4
5
1d3
100
AcDbEntity
100
AcDbLine
10
94.464501
20
21.077403
30
0.0
11
96.856367
21
22.854644
31
0.0
0
LINE
8
ductLipElevPad
62
4
5
1d4
100
AcDbEntity
100
AcDbLine
10
96.856367
20
22.854644
30
0.0
11
99.226161
21
24.806311
31
0.0
0
LINE
8
ductLipElevPad
62
4
5
1d5
100
AcDbEntity
100
AcDbLine
10
99.226161
20
24.806311
30
0.0
11
101.567885
21
26.940127
31
0.0
0
LINE
8
ductLipElevPad
62
4
5
1d6
100
AcDbEntity
100
AcDbLine
10
101.567885
20
26.940127
30
0.0
11
103.875539
21
29.263815
31
0.0
0
LINE
8
ductLipElevPad
62
4
5
1d7
100
AcDbEntity
100
AcDbLine
10
103.875539
20
29.263815
30
0.0
11
106.143122
21
31.785099
31
0.0
0
LINE
8
ductLipElevPad
62
4
5
1d8
100
AcDbEntity
100
AcDbLine
10
106.143122
20
31.785099
30
0.0
11
108.364637
21
34.511700
31
0.0
0
LINE
8
ductLipElevPad
62
4
5
1d9
100
AcDbEntity
100
AcDbLine
10
108.364637
20
34.511700
30
0.0
11
110.534082
21
37.451343
31
0.0
0
LINE
8
ductLipElevPad
62
4
5
1da
100
AcDbEntity
100
AcDbLine
10
110.534082
20
37.451343
30
0.0
11
112.645458
21
40.611750
31
0.0
0
LINE
8
ductLipElevPad
62
4
5
1db
100
AcDbEntity
100
AcDbLine
10
112.645458
20
40.611750
30
0.0
11
100.196640
21
61.325876
31
0.0
0
LINE
8
ductLipElevPad
62
4
5
1dc
100
AcDbEntity
100
AcDbLine
10
100.196640
20
61.325876
30
0.0
11
88.962079
21
81.059150
31
0.0
0
LINE
8
ductLipElevPad
62
4
5
1dd
100
AcDbEntity
100
AcDbLine
10
88.962079
20
81.059150
30
0.0
11
78.693844
21
100.199899
31
0.0
0
LINE
8
ductLipElevPad
62
4
5
1de
100
AcDbEntity
100
AcDbLine
10
78.693844
20
100.199899
30
0.0
11
69.144003
21
119.136452
31
0.0
0
LINE
8
ductLipElevPad
62
4
5
1df
100
AcDbEntity
100
AcDbLine
10
69.144003
20
119.136452
30
0.0
11
60.064623
21
138.257135
31
0.0
0
LINE
8
ductLipElevPad
62
4
5
1e0
100
AcDbEntity
100
AcDbLine
10
60.064623
20
138.257135
30
0.0
11
51.207772
21
157.950275
31
0.0
0
LINE
8
ductLipElevPad
62
4
5
1e1
100
AcDbEntity
100
AcDbLine
10
51.207772
20
157.950275
30
0.0
11
42.325519
21
178.604201
31
0.0
0
LINE
8
ductLipElevPad
62
4
5
1e2
100
AcDbEntity
100
AcDbLine
10
42.325519
20
178.604201
30
0.0
11
33.169931
21
200.607239
31
0.0
0
LINE
8
ductLipElevPad
62
4
5
1e3
100
AcDbEntity
100
AcDbLine
10
33.169931
20
200.607239
30
0.0
11
32.567444
21
202.626809
31
0.0
0
LINE
8
ductLipElevPad
62
4
5
1e4
100
AcDbEntity
100
AcDbLine
10
32.567444
20
202.626809
30
0.0
11
31.623104
21
204.511495
31
0.0
0
LINE
8
ductLipElevPad
62
4
5
1e5
100
AcDbEntity
100
AcDbLine
10
31.623104
20
204.511495
30
0.0
11
30.370309
21
206.206878
31
0.0
0
LINE
8
ductLipElevPad
62
4
5
1e6
100
AcDbEntity
100
AcDbLine
10
30.370309
20
206.206878
30
0.0
11
28.842456
21
207.658540
31
0.0
0
LINE
8
ductLipElevPad
62
4
5
1e7
100
AcDbEntity
100
AcDbLine
10
28.842456
20
207.658540
30
0.0
11
28.003956
21
208.225590
31
0.0
0
LINE
8
ductLipElevPad
62
4
5
1e8
100
AcDbEntity
100
AcDbLine
10
28.003956
20
208.225590
30
0.0
11
27.141658
21
208.631750
31
0.0
0
LINE
8
ductLipElevPad
62
4
5
1e9
100
AcDbEntity
100
AcDbLine
10
27.141658
20
208.631750
30
0.0
11
25.339402
21
209.061424
31
0.0
0
LINE
8
ductLipElevPad
62
4
5
1ea
100
AcDbEntity
100
AcDbLine
10
25.339402
20
209.061424
30
0.0
11
23.423148
21
209.147608
31
0.0
0
LINE
8
ductLipElevPad
62
4
5
1eb
100
AcDbEntity
100
AcDbLine
10
23.423148
20
209.147608
30
0.0
11
21.380357
21
209.090350
31
0.0
0
LINE
8
ductLipElevPad
62
4
5
1ec
100
AcDbEntity
100
AcDbLine
10
21.380357
20
209.090350
30
0.0
11
21.380357
21
209.090350
31
0.0
  0
ENDSEC
  0
SECTION
  2
OBJECTS
  0
DICTIONARY
  5
C
330
0
100
AcDbDictionary
  3
ACAD_GROUP
350
D
  3
ACAD_MLINESTYLE
350
17
  0
DICTIONARY
  5
D
330
C
100
AcDbDictionary
  0
DICTIONARY
  5
1A
330
C
100
AcDbDictionary
  0
DICTIONARY
  5
17
330
C
100
AcDbDictionary
  3
STANDARD
350
18
  0
DICTIONARY
  5
19
330
C
100
AcDbDictionary
  0
ENDSEC
  0
EOF
