<?xml version="1.0" encoding="UTF-8" standalone="no"?>
<!-- Created with Inkscape (http://www.inkscape.org/) -->

<svg
   xmlns:dc="http://purl.org/dc/elements/1.1/"
   xmlns:cc="http://creativecommons.org/ns#"
   xmlns:rdf="http://www.w3.org/1999/02/22-rdf-syntax-ns#"
   xmlns:svg="http://www.w3.org/2000/svg"
   xmlns="http://www.w3.org/2000/svg"
   xmlns:sodipodi="http://sodipodi.sourceforge.net/DTD/sodipodi-0.dtd"
   xmlns:inkscape="http://www.inkscape.org/namespaces/inkscape"
   width="434.81177"
   height="711.9693"
   id="svg2"
   version="1.1"
   inkscape:version="0.48.4 r9939"
   sodipodi:docname="nacaDuctProfile.svg">
  <defs
     id="defs4" />
  <sodipodi:namedview
     id="base"
     pagecolor="#ffffff"
     bordercolor="#666666"
     borderopacity="1.0"
     inkscape:pageopacity="0.0"
     inkscape:pageshadow="2"
     inkscape:zoom="0.74233284"
     inkscape:cx="201.37729"
     inkscape:cy="356.33369"
     inkscape:document-units="px"
     inkscape:current-layer="layer2"
     showgrid="false"
     fit-margin-top="0"
     fit-margin-left="0"
     fit-margin-right="0"
     fit-margin-bottom="0"
     inkscape:window-width="1366"
     inkscape:window-height="715"
     inkscape:window-x="-8"
     inkscape:window-y="-8"
     inkscape:window-maximized="1"
     showguides="true"
     inkscape:guide-bbox="true" />
  <metadata
     id="metadata7">
    <rdf:RDF>
      <cc:Work
         rdf:about="">
        <dc:format>image/svg+xml</dc:format>
        <dc:type
           rdf:resource="http://purl.org/dc/dcmitype/StillImage" />
        <dc:title></dc:title>
      </cc:Work>
    </rdf:RDF>
  </metadata>
  <g
     inkscape:label="ductPlan"
     inkscape:groupmode="layer"
     id="layer1"
     transform="translate(-170.04458,-68.138352)"
     style="display:inline">
    <path
       id="path3757"
       style="color:#000000;fill:#84ab8e;fill-opacity:1;stroke:#000000;stroke-width:1.09829497;stroke-linecap:butt;stroke-linejoin:miter;stroke-miterlimit:4;stroke-opacity:1;stroke-dasharray:none;stroke-dashoffset:0;marker:none;visibility:visible;display:inline;overflow:visible;enable-background:accumulate"
       d="M 537.25012,738.18373 C 537.03855,528.24131 392.80678,441.45618 391.32131,103.68349 l -39.78548,0 C 350.05036,441.45618 205.81859,528.24131 205.60702,738.18373 z"
       inkscape:connector-curvature="0"
       sodipodi:nodetypes="ccccc" />
  </g>
  <g
     inkscape:groupmode="layer"
     id="layer4"
     inkscape:label="ductPlanPad"
     transform="translate(35.017915,34.986648)">
    <path
       style="color:#000000;fill:#84ab8e;fill-opacity:0.52040818;stroke:#000000;stroke-width:1.09829497;stroke-linecap:butt;stroke-linejoin:miter;stroke-miterlimit:4;stroke-opacity:1;stroke-dashoffset:0;marker:none;visibility:visible;display:inline;overflow:visible;enable-background:accumulate"
       d="m 146.46875,-34.4375 a 34.995923,34.995923 0 0 0 -35,34.84375 C 110.74786,164.32493 76.313663,263.82212 40.5625,352.6875 4.8113367,441.55288 -34.354894,522.05109 -34.46875,635.03125 a 34.995923,34.995923 0 0 0 35,35.03125 l 331.65625,0 a 34.995923,34.995923 0 0 0 35,-35.03125 C 367.07364,522.05109 327.90741,441.55288 292.15625,352.6875 256.40509,263.82212 221.97089,164.32493 221.25,0.40625 a 34.995923,34.995923 0 0 0 -35,-34.84375 l -39.78125,0 z"
       id="path3832"
       inkscape:connector-curvature="0" />
  </g>
  <g
     inkscape:groupmode="layer"
     id="layer2"
     inkscape:label="ductlipElev"
     style="display:inline"
     transform="translate(35.017915,34.986648)">
    <path
       style="color:#000000;fill:#e40000;fill-opacity:1;fill-rule:nonzero;stroke:#5d0000;stroke-width:1.31281173;stroke-linecap:butt;stroke-linejoin:miter;stroke-miterlimit:4;stroke-opacity:1;stroke-dasharray:none;stroke-dashoffset:0;marker:none;visibility:visible;display:inline;overflow:visible;enable-background:accumulate"
       d="M 45.611331,9.6302088 147.93229,516.41992 c 6.41251,31.76078 113.80521,5.52957 178.94461,-87.24953 l 64.81592,62.34618 C 245.94888,690.58333 127.8911,638.89974 111.64209,612.60617 95.393082,586.3126 77.941842,574.28544 45.611331,607.9069 z"
       id="path3767"
       inkscape:connector-curvature="0"
       sodipodi:nodetypes="cscczcc" />
  </g>
  <g
     inkscape:groupmode="layer"
     id="layer3"
     inkscape:label="ductLipElevPad"
     transform="translate(35.017915,34.986648)">
    <path
       style="color:#000000;fill:#e40000;fill-opacity:0.52352941;fill-rule:nonzero;stroke:#5d0000;stroke-width:1.31281173;stroke-linecap:butt;stroke-linejoin:miter;stroke-miterlimit:4;stroke-opacity:1;stroke-dashoffset:0;marker:none;visibility:visible;display:inline;overflow:visible;enable-background:accumulate"
       d="m 75.757169,-28.90202 0,675.87556 C 98.95364,664.90763 134.99424,671.81622 163.125,674.15625 203.1395,677.33299 320.51035,691.78706 399.13745,568.0694 274.99328,366.48835 206.11298,216.65581 117.53125,1.15625 c -1.98627,-9.7742039 -7.51822,-18.788103 -15.33357,-24.984925 -7.81535,-6.196822 -16.470871,-5.367661 -26.440511,-5.073345 z"
       id="path3040"
       inkscape:connector-curvature="0"
       sodipodi:nodetypes="cccccsc" />
  </g>
</svg>
