999
Inkscape export via "Better DXF Output" (bob@bobcookdev.com)
  0
SECTION
  2
HEADER
  9
$ACADVER
  1
AC1014
  9
$HANDSEED
  5
FFFF
  0
ENDSEC
  0
SECTION
  2
TABLES
  0
TABLE
  2
VPORT
  5
8
330
0
100
AcDbSymbolTable
 70
     4
  0
VPORT
  5
2E
330
8
100
AcDbSymbolTableRecord
100
AcDbViewportTableRecord
  2
*ACTIVE
 70
     0
 10
0.0
 20
0.0
 11
1.0
 21
1.0
 12
4.25
 22
5.5
 13
0.0
 23
0.0
 14
10.0
 24
10.0
 15
10.0
 25
10.0
 16
0.0
 26
0.0
 36
1.0
 17
0.0
 27
0.0
 37
0.0
 40
11
 41
1.24
 42
50.0
 43
0.0
 44
0.0
 50
0.0
 51
0.0
 71
     0
 72
   100
 73
     1
 74
     3
 75
     0
 76
     0
 77
     0
 78
     0
  0
ENDTAB
  0
TABLE
  2
LTYPE
  5
5
330
0
100
AcDbSymbolTable
 70
     1
  0
LTYPE
  5
14
330
5
100
AcDbSymbolTableRecord
100
AcDbLinetypeTableRecord
  2
BYBLOCK
 70
     0
  3

 72
    65
 73
     0
 40
0.0
  0
LTYPE
  5
15
330
5
100
AcDbSymbolTableRecord
100
AcDbLinetypeTableRecord
  2
BYLAYER
 70
     0
  3

 72
    65
 73
     0
 40
0.0
  0
LTYPE
  5
16
330
5
100
AcDbSymbolTableRecord
100
AcDbLinetypeTableRecord
  2
CONTINUOUS
 70
     0
  3
Solid line
 72
    65
 73
     0
 40
0.0
  0
ENDTAB
  0
TABLE
  2
LAYER
  5
2
330
0
100
AcDbSymbolTable
 70
1
  0
LAYER
  5
10
330
2
100
AcDbSymbolTableRecord
100
AcDbLayerTableRecord
  2
0
 70
     0
 62
     7
  6
CONTINUOUS
  0
ENDTAB
  0
TABLE
  2
STYLE
  5
3
330
0
100
AcDbSymbolTable
 70
     1
  0
STYLE
  5
11
330
3
100
AcDbSymbolTableRecord
100
AcDbTextStyleTableRecord
  2
STANDARD
 70
     0
 40
0.0
 41
1.0
 50
0.0
 71
     0
 42
2.5
  3
txt
  4

  0
ENDTAB
  0
TABLE
  2
VIEW
  5
6
330
0
100
AcDbSymbolTable
 70
     0
  0
ENDTAB
  0
TABLE
  2
UCS
  5
7
330
0
100
AcDbSymbolTable
 70
     0
  0
ENDTAB
  0
TABLE
  2
APPID
  5
9
330
0
100
AcDbSymbolTable
 70
     2
  0
APPID
  5
12
330
9
100
AcDbSymbolTableRecord
100
AcDbRegAppTableRecord
  2
ACAD
 70
     0
  0
ENDTAB
  0
TABLE
  2
DIMSTYLE
  5
A
330
0
100
AcDbSymbolTable
 70
     1
  0
DIMSTYLE
105
27
330
A
100
AcDbSymbolTableRecord
100
AcDbDimStyleTableRecord
  2
ISO-25
 70
     0
  3

  4

  5

  6

  7

 40
1.0
 41
2.5
 42
0.625
 43
3.75
 44
1.25
 45
0.0
 46
0.0
 47
0.0
 48
0.0
140
2.5
141
2.5
142
0.0
143
0.03937007874016
144
1.0
145
0.0
146
1.0
147
0.625
 71
     0
 72
     0
 73
     0
 74
     0
 75
     0
 76
     0
 77
     1
 78
     8
170
     0
171
     3
172
     1
173
     0
174
     0
175
     0
176
     0
177
     0
178
     0
270
     2
271
     2
272
     2
273
     2
274
     3
340
11
275
     0
280
     0
281
     0
282
     0
283
     0
284
     8
285
     0
286
     0
287
     3
288
     0
  0
ENDTAB
  0
TABLE
  2
BLOCK_RECORD
  5
1
330
0
100
AcDbSymbolTable
 70
     1
  0
BLOCK_RECORD
  5
1F
330
1
100
AcDbSymbolTableRecord
100
AcDbBlockTableRecord
  2
*MODEL_SPACE
  0
BLOCK_RECORD
  5
1B
330
1
100
AcDbSymbolTableRecord
100
AcDbBlockTableRecord
  2
*PAPER_SPACE
  0
ENDTAB
  0
ENDSEC
  0
SECTION
  2
BLOCKS
  0
BLOCK
  5
20
330
1F
100
AcDbEntity
  8
0
100
AcDbBlockBegin
  2
*MODEL_SPACE
 70
     0
 10
0.0
 20
0.0
 30
0.0
  3
*MODEL_SPACE
  1

  0
ENDBLK
  5
21
330
1F
100
AcDbEntity
  8
0
100
AcDbBlockEnd
  0
BLOCK
  5
1C
330
1B
100
AcDbEntity
 67
     1
  8
0
100
AcDbBlockBegin
  2
*PAPER_SPACE
  1

  0
ENDBLK
  5
1D
330
1B
100
AcDbEntity
 67
     1
  8
0
100
AcDbBlockEnd
  0
ENDSEC
  0
SECTION
  2
ENTITIES
0
LINE
8
ductPlan
62
4
5
100
100
AcDbEntity
100
AcDbLine
10
151.623923
20
-28.953172
30
0.0
11
151.501716
21
-23.497052
31
0.0
0
LINE
8
ductPlan
62
4
5
101
100
AcDbEntity
100
AcDbLine
10
151.501716
20
-23.497052
30
0.0
11
151.156169
21
-18.225257
31
0.0
0
LINE
8
ductPlan
62
4
5
102
100
AcDbEntity
100
AcDbLine
10
151.156169
20
-18.225257
30
0.0
11
150.602102
21
-13.118451
31
0.0
0
LINE
8
ductPlan
62
4
5
103
100
AcDbEntity
100
AcDbLine
10
150.602102
20
-13.118451
30
0.0
11
149.854334
21
-8.157300
31
0.0
0
LINE
8
ductPlan
62
4
5
104
100
AcDbEntity
100
AcDbLine
10
149.854334
20
-8.157300
30
0.0
11
148.927684
21
-3.322470
31
0.0
0
LINE
8
ductPlan
62
4
5
105
100
AcDbEntity
100
AcDbLine
10
148.927684
20
-3.322470
30
0.0
11
147.836971
21
1.405374
31
0.0
0
LINE
8
ductPlan
62
4
5
106
100
AcDbEntity
100
AcDbLine
10
147.836971
20
1.405374
30
0.0
11
146.597014
21
6.045567
31
0.0
0
LINE
8
ductPlan
62
4
5
107
100
AcDbEntity
100
AcDbLine
10
146.597014
20
6.045567
30
0.0
11
145.222632
21
10.617442
31
0.0
0
LINE
8
ductPlan
62
4
5
108
100
AcDbEntity
100
AcDbLine
10
145.222632
20
10.617442
30
0.0
11
142.129870
21
19.633578
31
0.0
0
LINE
8
ductPlan
62
4
5
109
100
AcDbEntity
100
AcDbLine
10
142.129870
20
19.633578
30
0.0
11
138.677236
21
28.608459
31
0.0
0
LINE
8
ductPlan
62
4
5
10a
100
AcDbEntity
100
AcDbLine
10
138.677236
20
28.608459
30
0.0
11
131.166567
21
47.053158
31
0.0
0
LINE
8
ductPlan
62
4
5
10b
100
AcDbEntity
100
AcDbLine
10
131.166567
20
47.053158
30
0.0
11
127.345637
21
56.832328
31
0.0
0
LINE
8
ductPlan
62
4
5
10c
100
AcDbEntity
100
AcDbLine
10
127.345637
20
56.832328
30
0.0
11
123.639046
21
67.188945
31
0.0
0
LINE
8
ductPlan
62
4
5
10d
100
AcDbEntity
100
AcDbLine
10
123.639046
20
67.188945
30
0.0
11
120.165347
21
78.277686
31
0.0
0
LINE
8
ductPlan
62
4
5
10e
100
AcDbEntity
100
AcDbLine
10
120.165347
20
78.277686
30
0.0
11
118.552879
21
84.144939
31
0.0
0
LINE
8
ductPlan
62
4
5
10f
100
AcDbEntity
100
AcDbLine
10
118.552879
20
84.144939
30
0.0
11
117.043092
21
90.253226
31
0.0
0
LINE
8
ductPlan
62
4
5
110
100
AcDbEntity
100
AcDbLine
10
117.043092
20
90.253226
30
0.0
11
115.650804
21
96.621882
31
0.0
0
LINE
8
ductPlan
62
4
5
111
100
AcDbEntity
100
AcDbLine
10
115.650804
20
96.621882
30
0.0
11
114.390834
21
103.270242
31
0.0
0
LINE
8
ductPlan
62
4
5
112
100
AcDbEntity
100
AcDbLine
10
114.390834
20
103.270242
30
0.0
11
113.278002
21
110.217639
31
0.0
0
LINE
8
ductPlan
62
4
5
113
100
AcDbEntity
100
AcDbLine
10
113.278002
20
110.217639
30
0.0
11
112.327126
21
117.483408
31
0.0
0
LINE
8
ductPlan
62
4
5
114
100
AcDbEntity
100
AcDbLine
10
112.327126
20
117.483408
30
0.0
11
111.553026
21
125.086884
31
0.0
0
LINE
8
ductPlan
62
4
5
115
100
AcDbEntity
100
AcDbLine
10
111.553026
20
125.086884
30
0.0
11
110.970521
21
133.047401
31
0.0
0
LINE
8
ductPlan
62
4
5
116
100
AcDbEntity
100
AcDbLine
10
110.970521
20
133.047401
30
0.0
11
110.594429
21
141.384293
31
0.0
0
LINE
8
ductPlan
62
4
5
117
100
AcDbEntity
100
AcDbLine
10
110.594429
20
141.384293
30
0.0
11
110.439570
21
150.116896
31
0.0
0
LINE
8
ductPlan
62
4
5
118
100
AcDbEntity
100
AcDbLine
10
110.439570
20
150.116896
30
0.0
11
99.211223
21
150.116896
31
0.0
0
LINE
8
ductPlan
62
4
5
119
100
AcDbEntity
100
AcDbLine
10
99.211223
20
150.116896
30
0.0
11
99.056364
21
141.384293
31
0.0
0
LINE
8
ductPlan
62
4
5
11a
100
AcDbEntity
100
AcDbLine
10
99.056364
20
141.384293
30
0.0
11
98.680272
21
133.047401
31
0.0
0
LINE
8
ductPlan
62
4
5
11b
100
AcDbEntity
100
AcDbLine
10
98.680272
20
133.047401
30
0.0
11
98.097767
21
125.086884
31
0.0
0
LINE
8
ductPlan
62
4
5
11c
100
AcDbEntity
100
AcDbLine
10
98.097767
20
125.086884
30
0.0
11
97.323666
21
117.483408
31
0.0
0
LINE
8
ductPlan
62
4
5
11d
100
AcDbEntity
100
AcDbLine
10
97.323666
20
117.483408
30
0.0
11
96.372791
21
110.217639
31
0.0
0
LINE
8
ductPlan
62
4
5
11e
100
AcDbEntity
100
AcDbLine
10
96.372791
20
110.217639
30
0.0
11
95.259958
21
103.270242
31
0.0
0
LINE
8
ductPlan
62
4
5
11f
100
AcDbEntity
100
AcDbLine
10
95.259958
20
103.270242
30
0.0
11
93.999989
21
96.621882
31
0.0
0
LINE
8
ductPlan
62
4
5
120
100
AcDbEntity
100
AcDbLine
10
93.999989
20
96.621882
30
0.0
11
92.607701
21
90.253226
31
0.0
0
LINE
8
ductPlan
62
4
5
121
100
AcDbEntity
100
AcDbLine
10
92.607701
20
90.253226
30
0.0
11
91.097914
21
84.144939
31
0.0
0
LINE
8
ductPlan
62
4
5
122
100
AcDbEntity
100
AcDbLine
10
91.097914
20
84.144939
30
0.0
11
89.485446
21
78.277686
31
0.0
0
LINE
8
ductPlan
62
4
5
123
100
AcDbEntity
100
AcDbLine
10
89.485446
20
78.277686
30
0.0
11
86.011747
21
67.188945
31
0.0
0
LINE
8
ductPlan
62
4
5
124
100
AcDbEntity
100
AcDbLine
10
86.011747
20
67.188945
30
0.0
11
82.305156
21
56.832328
31
0.0
0
LINE
8
ductPlan
62
4
5
125
100
AcDbEntity
100
AcDbLine
10
82.305156
20
56.832328
30
0.0
11
78.484226
21
47.053158
31
0.0
0
LINE
8
ductPlan
62
4
5
126
100
AcDbEntity
100
AcDbLine
10
78.484226
20
47.053158
30
0.0
11
70.973557
21
28.608459
31
0.0
0
LINE
8
ductPlan
62
4
5
127
100
AcDbEntity
100
AcDbLine
10
70.973557
20
28.608459
30
0.0
11
67.520923
21
19.633578
31
0.0
0
LINE
8
ductPlan
62
4
5
128
100
AcDbEntity
100
AcDbLine
10
67.520923
20
19.633578
30
0.0
11
64.428161
21
10.617442
31
0.0
0
LINE
8
ductPlan
62
4
5
129
100
AcDbEntity
100
AcDbLine
10
64.428161
20
10.617442
30
0.0
11
63.053779
21
6.045567
31
0.0
0
LINE
8
ductPlan
62
4
5
12a
100
AcDbEntity
100
AcDbLine
10
63.053779
20
6.045567
30
0.0
11
61.813822
21
1.405374
31
0.0
0
LINE
8
ductPlan
62
4
5
12b
100
AcDbEntity
100
AcDbLine
10
61.813822
20
1.405374
30
0.0
11
60.723108
21
-3.322470
31
0.0
0
LINE
8
ductPlan
62
4
5
12c
100
AcDbEntity
100
AcDbLine
10
60.723108
20
-3.322470
30
0.0
11
59.796458
21
-8.157300
31
0.0
0
LINE
8
ductPlan
62
4
5
12d
100
AcDbEntity
100
AcDbLine
10
59.796458
20
-8.157300
30
0.0
11
59.048690
21
-13.118451
31
0.0
0
LINE
8
ductPlan
62
4
5
12e
100
AcDbEntity
100
AcDbLine
10
59.048690
20
-13.118451
30
0.0
11
58.494624
21
-18.225257
31
0.0
0
LINE
8
ductPlan
62
4
5
12f
100
AcDbEntity
100
AcDbLine
10
58.494624
20
-18.225257
30
0.0
11
58.149077
21
-23.497052
31
0.0
0
LINE
8
ductPlan
62
4
5
130
100
AcDbEntity
100
AcDbLine
10
58.149077
20
-23.497052
30
0.0
11
58.026870
21
-28.953172
31
0.0
0
LINE
8
ductPlan
62
4
5
131
100
AcDbEntity
100
AcDbLine
10
58.026870
20
-28.953172
30
0.0
11
151.623923
21
-28.953172
31
0.0
0
LINE
8
ductlipElev
62
4
5
132
100
AcDbEntity
100
AcDbLine
10
12.872531
20
176.660822
30
0.0
11
41.749780
21
33.633503
31
0.0
0
LINE
8
ductlipElev
62
4
5
133
100
AcDbEntity
100
AcDbLine
10
41.749780
20
33.633503
30
0.0
11
42.364177
21
32.063124
31
0.0
0
LINE
8
ductlipElev
62
4
5
134
100
AcDbEntity
100
AcDbLine
10
42.364177
20
32.063124
30
0.0
11
43.496417
21
30.705565
31
0.0
0
LINE
8
ductlipElev
62
4
5
135
100
AcDbEntity
100
AcDbLine
10
43.496417
20
30.705565
30
0.0
11
45.098060
21
29.549170
31
0.0
0
LINE
8
ductlipElev
62
4
5
136
100
AcDbEntity
100
AcDbLine
10
45.098060
20
29.549170
30
0.0
11
47.120665
21
28.582282
31
0.0
0
LINE
8
ductlipElev
62
4
5
137
100
AcDbEntity
100
AcDbLine
10
47.120665
20
28.582282
30
0.0
11
49.515790
21
27.793246
31
0.0
0
LINE
8
ductlipElev
62
4
5
138
100
AcDbEntity
100
AcDbLine
10
49.515790
20
27.793246
30
0.0
11
52.234995
21
27.170404
31
0.0
0
LINE
8
ductlipElev
62
4
5
139
100
AcDbEntity
100
AcDbLine
10
52.234995
20
27.170404
30
0.0
11
55.229839
21
26.702101
31
0.0
0
LINE
8
ductlipElev
62
4
5
13a
100
AcDbEntity
100
AcDbLine
10
55.229839
20
26.702101
30
0.0
11
58.451882
21
26.376680
31
0.0
0
LINE
8
ductlipElev
62
4
5
13b
100
AcDbEntity
100
AcDbLine
10
58.451882
20
26.376680
30
0.0
11
65.383797
21
26.107860
31
0.0
0
LINE
8
ductlipElev
62
4
5
13c
100
AcDbEntity
100
AcDbLine
10
65.383797
20
26.107860
30
0.0
11
72.643215
21
26.270694
31
0.0
0
LINE
8
ductlipElev
62
4
5
13d
100
AcDbEntity
100
AcDbLine
10
72.643215
20
26.270694
30
0.0
11
79.842608
21
26.771931
31
0.0
0
LINE
8
ductlipElev
62
4
5
13e
100
AcDbEntity
100
AcDbLine
10
79.842608
20
26.771931
30
0.0
11
86.594450
21
27.518320
31
0.0
0
LINE
8
ductlipElev
62
4
5
13f
100
AcDbEntity
100
AcDbLine
10
86.594450
20
27.518320
30
0.0
11
86.594450
21
4.076787
31
0.0
0
LINE
8
ductlipElev
62
4
5
140
100
AcDbEntity
100
AcDbLine
10
86.594450
20
4.076787
30
0.0
11
70.481441
21
2.321784
31
0.0
0
LINE
8
ductlipElev
62
4
5
141
100
AcDbEntity
100
AcDbLine
10
70.481441
20
2.321784
30
0.0
11
57.307869
21
1.267782
31
0.0
0
LINE
8
ductlipElev
62
4
5
142
100
AcDbEntity
100
AcDbLine
10
57.307869
20
1.267782
30
0.0
11
46.759251
21
0.885201
31
0.0
0
LINE
8
ductlipElev
62
4
5
143
100
AcDbEntity
100
AcDbLine
10
46.759251
20
0.885201
30
0.0
11
42.371023
21
0.936450
31
0.0
0
LINE
8
ductlipElev
62
4
5
144
100
AcDbEntity
100
AcDbLine
10
42.371023
20
0.936450
30
0.0
11
38.521101
21
1.144463
31
0.0
0
LINE
8
ductlipElev
62
4
5
145
100
AcDbEntity
100
AcDbLine
10
38.521101
20
1.144463
30
0.0
11
35.170175
21
1.505540
31
0.0
0
LINE
8
ductlipElev
62
4
5
146
100
AcDbEntity
100
AcDbLine
10
35.170175
20
1.505540
30
0.0
11
32.278934
21
2.015987
31
0.0
0
LINE
8
ductlipElev
62
4
5
147
100
AcDbEntity
100
AcDbLine
10
32.278934
20
2.015987
30
0.0
11
29.808069
21
2.672103
31
0.0
0
LINE
8
ductlipElev
62
4
5
148
100
AcDbEntity
100
AcDbLine
10
29.808069
20
2.672103
30
0.0
11
27.718267
21
3.470193
31
0.0
0
LINE
8
ductlipElev
62
4
5
149
100
AcDbEntity
100
AcDbLine
10
27.718267
20
3.470193
30
0.0
11
25.970219
21
4.406559
31
0.0
0
LINE
8
ductlipElev
62
4
5
14a
100
AcDbEntity
100
AcDbLine
10
25.970219
20
4.406559
30
0.0
11
24.524614
21
5.477504
31
0.0
0
LINE
8
ductlipElev
62
4
5
14b
100
AcDbEntity
100
AcDbLine
10
24.524614
20
5.477504
30
0.0
11
23.342141
21
6.679329
31
0.0
0
LINE
8
ductlipElev
62
4
5
14c
100
AcDbEntity
100
AcDbLine
10
23.342141
20
6.679329
30
0.0
11
22.383491
21
8.008338
31
0.0
0
LINE
8
ductlipElev
62
4
5
14d
100
AcDbEntity
100
AcDbLine
10
22.383491
20
8.008338
30
0.0
11
20.658181
21
10.519699
31
0.0
0
LINE
8
ductlipElev
62
4
5
14e
100
AcDbEntity
100
AcDbLine
10
20.658181
20
10.519699
30
0.0
11
18.962755
21
12.442878
31
0.0
0
LINE
8
ductlipElev
62
4
5
14f
100
AcDbEntity
100
AcDbLine
10
18.962755
20
12.442878
30
0.0
11
17.358906
21
13.709727
31
0.0
0
LINE
8
ductlipElev
62
4
5
150
100
AcDbEntity
100
AcDbLine
10
17.358906
20
13.709727
30
0.0
11
16.610600
21
14.075732
31
0.0
0
LINE
8
ductlipElev
62
4
5
151
100
AcDbEntity
100
AcDbLine
10
16.610600
20
14.075732
30
0.0
11
15.908324
21
14.252098
31
0.0
0
LINE
8
ductlipElev
62
4
5
152
100
AcDbEntity
100
AcDbLine
10
15.908324
20
14.252098
30
0.0
11
15.259788
21
14.230309
31
0.0
0
LINE
8
ductlipElev
62
4
5
153
100
AcDbEntity
100
AcDbLine
10
15.259788
20
14.230309
30
0.0
11
14.672703
21
14.001844
31
0.0
0
LINE
8
ductlipElev
62
4
5
154
100
AcDbEntity
100
AcDbLine
10
14.672703
20
14.001844
30
0.0
11
14.154782
21
13.558185
31
0.0
0
LINE
8
ductlipElev
62
4
5
155
100
AcDbEntity
100
AcDbLine
10
14.154782
20
13.558185
30
0.0
11
13.713736
21
12.890815
31
0.0
0
LINE
8
ductlipElev
62
4
5
156
100
AcDbEntity
100
AcDbLine
10
13.713736
20
12.890815
30
0.0
11
13.357276
21
11.991214
31
0.0
0
LINE
8
ductlipElev
62
4
5
157
100
AcDbEntity
100
AcDbLine
10
13.357276
20
11.991214
30
0.0
11
13.093114
21
10.850865
31
0.0
0
LINE
8
ductlipElev
62
4
5
158
100
AcDbEntity
100
AcDbLine
10
13.093114
20
10.850865
30
0.0
11
12.872531
21
7.813844
31
0.0
0
LINE
8
ductlipElev
62
4
5
159
100
AcDbEntity
100
AcDbLine
10
12.872531
20
7.813844
30
0.0
11
12.872531
21
176.660822
31
0.0
  0
ENDSEC
  0
SECTION
  2
OBJECTS
  0
DICTIONARY
  5
C
330
0
100
AcDbDictionary
  3
ACAD_GROUP
350
D
  3
ACAD_MLINESTYLE
350
17
  0
DICTIONARY
  5
D
330
C
100
AcDbDictionary
  0
DICTIONARY
  5
1A
330
C
100
AcDbDictionary
  0
DICTIONARY
  5
17
330
C
100
AcDbDictionary
  3
STANDARD
350
18
  0
DICTIONARY
  5
19
330
C
100
AcDbDictionary
  0
ENDSEC
  0
EOF
