<?xml version="1.0" encoding="UTF-8" standalone="no"?>
<!-- Created with Inkscape (http://www.inkscape.org/) -->

<svg
   xmlns:dc="http://purl.org/dc/elements/1.1/"
   xmlns:cc="http://creativecommons.org/ns#"
   xmlns:rdf="http://www.w3.org/1999/02/22-rdf-syntax-ns#"
   xmlns:svg="http://www.w3.org/2000/svg"
   xmlns="http://www.w3.org/2000/svg"
   xmlns:sodipodi="http://sodipodi.sourceforge.net/DTD/sodipodi-0.dtd"
   xmlns:inkscape="http://www.inkscape.org/namespaces/inkscape"
   width="744.09448819"
   height="1052.3622047"
   id="svg2"
   version="1.1"
   inkscape:version="0.48.4 r9939"
   sodipodi:docname="turboProfileConv.svg">
  <sodipodi:namedview
     id="base"
     pagecolor="#ffffff"
     bordercolor="#666666"
     borderopacity="1.0"
     inkscape:pageopacity="0.0"
     inkscape:pageshadow="2"
     inkscape:zoom="0.50172841"
     inkscape:cx="372.04724"
     inkscape:cy="526.18109"
     inkscape:document-units="px"
     inkscape:current-layer="layer7"
     showgrid="false"
     showguides="true"
     inkscape:guide-bbox="true"
     inkscape:window-width="1366"
     inkscape:window-height="715"
     inkscape:window-x="-8"
     inkscape:window-y="-8"
     inkscape:window-maximized="1"
     inkscape:snap-global="false">
    <sodipodi:guide
       orientation="1,0"
       position="0,898.01498"
       id="guide3148" />
    <sodipodi:guide
       orientation="1,0"
       position="253.12499,1104.183"
       id="guide3002" />
    <sodipodi:guide
       orientation="1,0"
       position="188.1111,678.22368"
       id="guide3004" />
  </sodipodi:namedview>
  <defs
     id="defs4" />
  <metadata
     id="metadata7">
    <rdf:RDF>
      <cc:Work
         rdf:about="">
        <dc:format>image/svg+xml</dc:format>
        <dc:type
           rdf:resource="http://purl.org/dc/dcmitype/StillImage" />
        <dc:title />
      </cc:Work>
    </rdf:RDF>
  </metadata>
  <g
     style="display:inline"
     inkscape:label="base"
     id="layer2"
     inkscape:groupmode="layer">
    <path
       sodipodi:nodetypes="cccccc"
       inkscape:connector-curvature="0"
       id="path3793"
       d="m 0.65640587,306.027 175.92147413,0 72.23908,0 4.66477,0.53544 4.1219,1.56434 3.60491,2.53028 3.11381,3.43325 2.6486,4.27326 2.20928,5.0503 1.79585,5.76439 1.40832,6.4155 1.04667,7.00366 0.71091,7.52884 0.40104,7.99107 0.11706,8.39033 -0.51424,17.72659 -1.33947,18.56807 -1.95757,18.90583 -2.36856,18.73988 -5.14159,34.96708 -4.30006,28.25873 -1.31666,10.35446 -0.48491,7.16624 -4.9741,-4.27672 -4.93942,-3.65327 -4.90496,-3.04765 -4.87068,-2.45985 -4.8366,-1.88988 -4.80272,-1.33774 -4.76903,-0.80342 -4.73553,-0.28693 -4.70223,0.21173 -4.66913,0.69257 -4.63622,1.15558 -4.6035,1.60077 -4.57098,2.02812 -4.53866,2.43766 -4.50653,2.82935 -4.47459,3.20324 -8.85416,7.4568 -8.72875,8.73839 -8.60492,9.87737 -8.48263,10.87373 -8.36191,11.72749 -8.24275,12.43863 -8.12514,13.00716 -8.0091,13.43307 -15.676309,27.57344 -15.23085,27.56574 -14.79787,26.41715 -7.240466,12.42132 -7.1369,11.70634 -7.034894,10.84873 -6.934446,9.84852 -6.83556,8.7057 -6.738232,7.42025 -6.642464,5.99221 -3.285807,2.41602 -3.26245,2.00552 -3.239287,1.57721 -3.2163202,1.13106 -3.1935481,0.66709 -3.17097083,0.18529 0,-455.60533"
       style="color:#000000;fill:#e40000;fill-opacity:1;fill-rule:nonzero;stroke:#5d0000;stroke-width:1.31281173;stroke-linecap:butt;stroke-linejoin:miter;stroke-miterlimit:4;stroke-opacity:1;stroke-dasharray:none;stroke-dashoffset:0;marker:none;visibility:visible;display:inline;overflow:visible;enable-background:accumulate" />
  </g>
  <g
     style="display:inline"
     inkscape:label="shroud"
     id="layer3"
     inkscape:groupmode="layer">
    <path
       sodipodi:nodetypes="ccscccccccccccccccccccccccccccccccccccccccccccccccc"
       inkscape:connector-curvature="0"
       id="path3775"
       d="M285.39497 94.642738L103.74012 94.642738L100.275054326 97.9825240312L97.2868428594 101.52694025L94.7731115566 105.275914844L92.731486375 109.229376L91.1595932715 113.387251906L90.0550582031 117.74947075L89.415507127 122.315960719L89.238566 127.08665L89.8763705408 138.031549377L91.5255598887 149.554356113L94.1393514446 161.481308113L97.6709626094 173.638643281L102.073610784 185.852599524L107.300513369 197.949414746L113.304887766 209.755326853L120.039951375 221.09657375L127.458921597 231.799393342L135.515015834 241.690023535L144.161451486 250.594702234L148.69142778 254.623009118L153.351445953 258.339667344L158.135658181 261.722956648L163.038216637 264.75115677L168.053273499 267.402547447L173.174980939 269.655408418L178.397491135 271.48801942L183.71495626 272.878660193L189.12152849 273.805610473L194.61136 274.24715L204.78097 275.68966L214.99641 276.48499L227.05792 276.53499L232.07726 276.37365L237.1659 276.49951L242.24466 277.00345L247.23434 277.97636L252.05578 279.50912L256.6298 281.69263L260.87721 284.61776L264.71883 288.37541L267.27305 291.6276L269.55151 295.04487L271.5698 298.61225L273.34349 302.31478L276.21933 310.06549L278.30361 318.1773L279.72092 326.53054L280.59582 335.00554L281.0529 343.48262L281.21674 351.84209L280.74983 366.37748L279.66879 380.8776L285.91942 358.15467L292.4141 332.84954L295.42397 319.85284L298.10007 306.95965L300.31082 294.41963L301.9246 282.48246L304.56966 258.84389L307.1604 233.24484L308.23357 220.02353L309.05095 206.68819L309.53181 193.36418L309.59541 180.17686L309.16103 167.25159L308.14793 154.71374L306.47536 142.68867L304.06261 131.30173L300.82893 120.6783L298.87901 115.69207L296.69358 110.94373L294.26255 106.44895L291.57583 102.2234L288.62333 98.282738L285.39496 94.642648L285.39496 94.642648"
       style="color:#000000;fill:#e46600;fill-opacity:1;fill-rule:nonzero;stroke:#5d0000;stroke-width:1.25489175;stroke-linecap:butt;stroke-linejoin:miter;stroke-miterlimit:4;stroke-opacity:1;stroke-dasharray:none;stroke-dashoffset:0;marker:none;visibility:visible;display:inline;overflow:visible;enable-background:accumulate" />
  </g>
  <g
     style="display:inline"
     inkscape:label="turboBlades"
     id="layer5"
     inkscape:groupmode="layer">
    <path
       sodipodi:nodetypes="cccccccccccccccccccccccccccc"
       inkscape:connector-curvature="0"
       id="path2987"
       d="m 0,302.9375 181.74866,0 0,-24.34375 -7.888,-2.22393 -6.91098,-2.64984 -7.65959,-4.16608 -10.13384,-6.77265 -5.6875,-4.78125 -5.4375,-5.15625 -5.1875,-5.40625 -4.96875,-5.5625 -8.90625,-11.59375 -8.15625,-12.3125 -7.3125,-12.9375 -3.3125,-6.6875 -3.03125,-6.84375 -2.8125,-6.9375 -2.5,-7.09375 -2.21875,-7.15625 -1.9375,-7.28125 -1.59375,-7.375 -1.28125,-7.46875 -0.9375,-7.53125 -0.5625,-7.59375 -0.28125,-5.59375 0.0625,-0.625 -83.09375,0 z"
       style="color:#000000;fill:#e46600;fill-opacity:1;fill-rule:nonzero;stroke:#5d0000;stroke-width:1.31281173;stroke-linecap:butt;stroke-linejoin:miter;stroke-miterlimit:4;stroke-opacity:1;stroke-dasharray:none;stroke-dashoffset:0;marker:none;visibility:visible;display:inline;overflow:visible;enable-background:accumulate" />
  </g>
  <g
     style="display:inline"
     inkscape:label="turboCore"
     id="layer4"
     inkscape:groupmode="layer">
    <path
       style="color:#000000;fill:#e40000;fill-opacity:1;fill-rule:nonzero;stroke:#5d0000;stroke-width:1.37808549;stroke-linecap:butt;stroke-linejoin:miter;stroke-miterlimit:4;stroke-opacity:1;stroke-dasharray:none;stroke-dashoffset:0;marker:none;visibility:visible;display:inline;overflow:visible;enable-background:accumulate"
       d="m 0.0510965,101.99457 3.6145992,0.0839 3.3827481,0.38582 3.1509572,0.66505 2.919226,0.92162 5.143502,2.52231 4.217301,3.27667 3.291583,3.84975 2.366346,4.24152 1.441591,4.45202 0.517318,4.48122 0.272964,8.65366 0.804122,8.5576 1.313131,8.44983 1.799988,8.33034 2.264697,8.19913 2.707254,8.05621 3.127662,7.90157 3.525918,7.73521 3.902023,7.55714 4.25598,7.36735 4.587786,7.16584 4.897439,6.95262 5.184945,6.72768 5.450298,6.49102 5.693503,6.24266 5.914554,5.98256 6.113458,5.71075 6.290211,5.42724 6.444809,5.13199 6.57727,4.82504 6.68756,4.50636 6.77572,4.17599 6.84172,3.83386 6.88556,3.48005 6.90726,3.11452 6.90682,2.73726 6.88421,2.34828 6.83947,1.94761 6.77255,1.53519 9.02003,2.01399 0,4.85689 -181.05613726,0 L 0.0510965,101.99457"
       id="path2999"
       inkscape:connector-curvature="0"
       sodipodi:nodetypes="cccccccccccccccccccccccccccccccccccccccccccc" />
  </g>
  <g
     inkscape:groupmode="layer"
     id="layer6"
     inkscape:label="guideVane"
     style="display:none">
    <path
       style="color:#000000;fill:#e40000;fill-opacity:1;fill-rule:nonzero;stroke:#5d0000;stroke-width:1.28644252;stroke-linecap:butt;stroke-linejoin:miter;stroke-miterlimit:4;stroke-opacity:1;stroke-dasharray:none;stroke-dashoffset:0;marker:none;visibility:visible;display:inline;overflow:visible;enable-background:accumulate"
       d="m 200.36385,218.46282 1.64533,-13.8567 1.26576,-13.77242 0.88908,-13.67711 0.51527,-13.57074 0.14431,-13.45333 -0.22378,-13.32488 -0.58898,-13.18538 -0.95133,-13.03483 -1.31081,-12.873235 -1.66741,-12.700601 -2.02115,-12.516919 -2.37202,-12.322191 -2.72002,-12.116418 -3.06516,-11.8996 -3.40742,-11.671736 -3.74681,-11.432826 6.76178,5.095387 6.11527,5.364294 5.49335,5.614851 4.89601,5.847056 4.32324,6.060911 3.77504,6.256413 3.25144,6.433565 2.75239,6.592366 2.27793,6.732815 1.82805,6.854914 1.40275,6.958661 1.00201,7.044058 0.62587,7.111102 0.27428,7.159793 -0.0527,7.19014 -0.35513,7.20213 -1.51921,14.36684 -2.43398,14.19458 -3.15211,13.87553 -3.67365,13.40967 -3.99855,12.79699 -4.12684,12.03751 -7.85209,21.20934 0,0"
       id="path3814"
       inkscape:connector-curvature="0"
       sodipodi:nodetypes="ccc" />
  </g>
  <g
     inkscape:label="footStand"
     id="layer8"
     inkscape:groupmode="layer"
     style="display:none">
    <path
       sodipodi:nodetypes="ssscssscs"
       inkscape:connector-curvature="0"
       d="m -117.25717,1305.2093 -2.56756,-0.9887 -2.35155,-1.7905 -2.14716,-2.5533 -1.95441,-3.2768 -1.7733,-3.9615 -1.60382,-4.6068 -2.74577,-10.9936 -2.20748,-13.1061 -1.7623,-14.9058 -1.4102,-16.3928 -1.15119,-17.5669 -1.89768,-37.4049 -1.97868,-38.3479 -1.25243,-18.7455 -1.55193,-18.0429 -1.94454,-17.0273 -2.43022,-15.6991 -1.53985,-7.445 -1.89594,-7.4098 -2.22004,-7.3683 -2.51213,-7.3206 -5.7726,-14.4721 -6.55705,-14.2047 -7.08556,-13.88623 -7.35811,-13.517 -14.51,-25.72284 -6.63998,-12.10415 -5.88868,-11.5315 -4.88144,-10.90801 -3.61821,-10.23365 -1.25542,-4.84805 -0.84363,-4.6604 -0.39985,-4.46639 0.0759,-4.26601 0.5837,-4.0593 1.12348,-3.84621 1.69523,-3.62677 2.29899,-3.40098 2.43197,-2.44395 2.92344,-1.86923 3.39411,-1.32686 3.84398,-0.81683 4.27306,-0.33915 4.68133,0.10616 5.0688,0.51913 5.43547,0.89976 11.88775,2.81196 13.10483,3.94623 14.15549,4.82169 15.03976,5.43835 32.066686,11.69142 16.694122,5.73547 16.912768,5.31689 16.965009,4.63951 16.850845,3.70332 8.33061,1.41971 8.239667,1.08861 8.1279234,0.72516 7.9953796,0.32936 7.9953804,-0.32936 8.1279246,-0.72516 8.239667,-1.08861 8.33061,-1.41971 16.850846,-3.70332 16.96501,-4.63951 16.912768,-5.31689 16.694124,-5.73547 32.06669,-11.69142 15.03976,-5.43835 14.15549,-4.82169 13.10482,-3.94623 11.88775,-2.81196 5.43547,-0.89976 5.0688,-0.51913 4.68133,-0.10616 4.27306,0.33915 3.84399,0.81683 3.39411,1.32686 2.92344,1.86923 2.43197,2.44395 2.29899,3.40098 1.69523,3.62677 1.12348,3.84621 0.5837,4.0593 0.0759,4.26601 -0.39985,4.46639 -0.84363,4.6604 -1.25542,4.84805 -3.61822,10.23365 -4.88143,10.90801 -5.88869,11.5315 -6.63998,12.10415 -14.51,25.72284 -7.3581,13.517 -7.08557,13.88623 -6.55705,14.2047 -5.7726,14.4721 -2.51213,7.3206 -2.22004,7.3683 -1.89594,7.4098 -1.53985,7.445 -2.43022,15.6991 -1.94454,17.0273 -1.55193,18.0429 -1.25243,18.7455 -1.97868,38.3479 -1.89768,37.4049 -1.15119,17.5669 -1.41019,16.3928 -1.7623,14.9058 -2.20749,13.1061 -2.74576,10.9936 -1.60382,4.6068 -1.7733,3.9615 -1.95441,3.2768 -2.14716,2.5533 -2.35155,1.7905 -2.56756,0.9887 -2.76044,0.1558 -2.76626,-0.6798 -2.77757,-1.4609 -2.79438,-2.1877 -2.8167,-2.8598 -2.84451,-3.4776 -5.794436,-8.59 -5.971664,-10.4068 -6.192877,-11.7875 -13.225341,-25.9733 -7.12044,-13.3137 -7.517605,-12.9504 -7.958757,-12.1512 -4.158557,-5.6396 -4.285341,-5.2763 -4.417622,-4.8585 -4.555403,-4.3862 -4.698682,-3.8594 -4.84746,-3.2781 -5.001736,-2.6422 -5.16151,-1.952 -5.3267839,-1.2071 -5.4975551,-0.4079 -5.4975542,0.4079 -5.3267827,1.2071 -5.1615101,1.952 -5.001735,2.6422 -4.847459,3.2781 -4.698681,3.8594 -4.555403,4.3862 -4.417622,4.8585 -4.28534,5.2763 -4.158556,5.6396 -7.958756,12.1512 -7.517605,12.9504 -7.12044,13.3137 -13.22534,25.9733 -6.192876,11.7875 -5.971664,10.4068 -5.794436,8.59 -2.84451,3.4776 -2.8167,2.8598 -2.79438,2.1877 -2.77757,1.4609 -2.76626,0.6798 -2.76044,-0.1558 0,0"
       style="color:#000000;fill:#e40000;fill-opacity:1;fill-rule:nonzero;stroke:#5d0000;stroke-width:1.17539811;stroke-linecap:butt;stroke-linejoin:miter;stroke-miterlimit:4;stroke-opacity:1;stroke-dasharray:none;stroke-dashoffset:0;marker:none;visibility:visible;display:inline;overflow:visible;enable-background:accumulate"
       id="path3030" />
  </g>
  <g
     inkscape:label="stand"
     id="layer7"
     inkscape:groupmode="layer"
     style="display:inline">
    <path
       id="path3119"
       style="fill:#ff7f2a;fill-opacity:0.74705882;stroke:#000000;stroke-width:0.64290679;stroke-linejoin:round;stroke-miterlimit:4;stroke-opacity:1;display:inline"
       d="M376.84184 171.31761L376.375239258 175.94619418L375.037006562 180.257272188L372.919496211 184.158489727L370.1150625 187.5574925L366.716059727 190.361926211L362.814842188 192.479436563L358.50376418 193.817669258L353.87518 194.28427L349.246595391 193.817669258L344.93551625 192.479436563L341.034297109 190.361926211L337.6352925 187.5574925L334.830856953 184.158489727L332.713345 180.257272188L331.375111172 175.94619418L330.90851 171.31761L331.375111172 166.68902582L332.713345 162.377947813L334.830856953 158.476730273L337.6352925 155.0777275L341.034297109 152.273293789L344.93551625 150.155783437L349.246595391 148.817550742L353.87518 148.35095L358.50376418 148.817550742L362.814842188 150.155783437L366.716059727 152.273293789L370.1150625 155.0777275L372.919496211 158.476730273L375.037006562 162.377947813L376.375239258 166.68902582L376.84184 171.31761L376.84184 171.31761M385.25622 238.14353L384.709389961 243.567974277L383.141055937 248.620318594L380.65945207 253.192328926L377.3728125 257.17577125L373.389371367 260.462411543L368.817362812 262.944015781L363.765020977 264.512349941L358.34058 265.05918L352.916138594 264.512349941L347.863795625 262.944015781L343.291785469 260.462411543L339.3083425 257.17577125L336.021701094 253.192328926L333.540095625 248.620318594L331.971760469 243.567974277L331.42493 238.14353L331.971760469 232.719089023L333.540095625 227.666747187L336.021701094 223.094738633L339.3083425 219.1112975L343.291785469 215.82465793L347.863795625 213.343054062L352.916138594 211.774720039L358.34058 211.22789L363.765020977 211.774720039L368.817362813 213.343054062L373.389371367 215.82465793L377.3728125 219.1112975L380.65945207 223.094738633L383.141055938 227.666747187L384.709389961 232.719089023L385.25622 238.14353L385.25622 238.14353M394.36574 297.57687L394.067624336 300.534113926L393.212614687 303.288500781L391.85971707 305.781024434L390.0679375 307.95267875L387.896281992 309.744457598L385.403756562 311.097354844L382.649367227 311.952364355L379.69212 312.25048L376.734875645 311.952364355L373.980487656 311.097354844L371.487962402 309.744457598L369.31630625 307.95267875L367.524525566 305.781024434L366.171626719 303.288500781L365.316616074 300.534113926L365.0185 297.57687L365.316616074 294.619622344L366.171626719 291.865231875L367.524525566 289.372704844L369.31630625 287.2010475L371.487962402 285.409266094L373.980487656 284.056366875L376.734875645 283.201356094L379.69212 282.90324L382.649367227 283.201356094L385.403756562 284.056366875L387.896281992 285.409266094L390.0679375 287.2010475L391.85971707 289.372704844L393.212614687 291.865231875L394.067624336 294.619622344L394.36574 297.57687L394.36574 297.57687M351.91182 606.939L351.566294687 610.366541934L350.575311875 613.558966719L349.00726125 616.447884082L346.9305325 618.96490375L344.413515312 621.041635449L341.524599375 622.609688906L338.332174375 623.600673848L334.90463 623.9462L331.477091367 623.600673848L328.284669063 622.609688906L325.395753477 621.041635449L322.878735 618.96490375L320.802004023 616.447884082L319.233950938 613.558966719L318.242966133 610.366541934L317.89744 606.939L318.242966133 603.511460937L319.233950938 600.3190375L320.802004023 597.430120313L322.878735 594.9131L325.395753477 592.836367187L328.284669063 591.2683125L331.477091367 590.277326562L334.90463 589.9318L338.332174375 590.277326562L341.524599375 591.2683125L344.413515313 592.836367187L346.9305325 594.9131L349.00726125 597.430120313L350.575311875 600.3190375L351.566294687 603.511460937L351.91182 606.939L351.91182 606.939M401.79905 352.80587L401.423255742 356.533674434L400.345460312 360.005762969L398.640044727 363.147754707L396.38139 365.88526875L393.643877148 368.143924199L390.501887187 369.849340156L387.029801133 370.927135723L383.302 371.30293L379.574198437 370.927135723L376.10211125 369.849340156L372.960119687 368.143924199L370.222605 365.88526875L367.963948437 363.147754707L366.25853125 360.005762969L365.180734687 356.533674434L364.80494 352.80587L365.180734687 349.078068437L366.25853125 345.60598125L367.963948437 342.463989687L370.222605 339.726475L372.960119687 337.467818438L376.10211125 335.76240125L379.574198437 334.684604687L383.302 334.30881L387.029801133 334.684604687L390.501887187 335.76240125L393.643877148 337.467818438L396.38139 339.726475L398.640044727 342.463989687L400.345460312 345.60598125L401.423255742 349.078068437L401.79905 352.80587L401.79905 352.80587M410.33968 411.57799L409.873079258 416.20657418L408.534846562 420.517652188L406.417336211 424.418869727L403.6129025 427.8178725L400.213899727 430.622306211L396.312682188 432.739816562L392.00160418 434.078049258L387.37302 434.54465L382.744438691 434.078049258L378.433362031 432.739816562L374.532144668 430.622306211L371.13314125 427.8178725L368.328706426 424.418869727L366.211194844 420.517652188L364.872961152 416.20657418L364.40636 411.57799L364.872961152 406.949405391L366.211194844 402.63832625L368.328706426 398.737107109L371.13314125 395.3381025L374.532144668 392.533666953L378.433362031 390.416155L382.744438691 389.077921172L387.37302 388.61132L392.00160418 389.077921172L396.312682188 390.416155L400.213899727 392.533666953L403.6129025 395.3381025L406.417336211 398.737107109L408.534846562 402.63832625L409.873079258 406.949405391L410.33968 411.57799L410.33968 411.57799M418.75406 483.02431L418.207229961 488.448749688L416.638895937 493.501088125L414.15729207 498.073091875L410.8706525 502.0565275L406.887211367 505.343161563L402.315202812 507.824760625L397.262860977 509.39309125L391.83842 509.93992L386.413978594 509.39309125L381.361635625 507.824760625L376.789625469 505.343161563L372.8061825 502.0565275L369.519541094 498.073091875L367.037935625 493.501088125L365.469600469 488.448749688L364.92277 483.02431L365.469600469 477.599867305L367.037935625 472.547520938L369.519541094 467.975505977L372.8061825 463.9920575L376.789625469 460.705410586L381.361635625 458.223800312L386.413978594 456.655461758L391.83842 456.10863L397.262860977 456.655461758L402.315202813 458.223800312L406.887211367 460.705410586L410.8706525 463.9920575L414.15729207 467.975505977L416.638895938 472.547520938L418.207229961 477.599867305L418.75406 483.02431L418.75406 483.02431M430.93784 564.25693L430.763445293 567.710587207L430.251580469 571.064479531L429.419224473 574.301628027L428.28335625 577.40505375L426.860954746 580.357777754L425.168998906 583.142821094L423.224467676 585.743204824L421.04434 588.14195L418.645594824 590.322077676L416.045211094 592.266608906L413.260167754 593.958564746L410.30744375 595.38096625L407.204018027 596.516834473L403.966869531 597.349190469L400.612977207 597.861055293L397.15932 598.03545L393.705664441 597.861055293L390.35177334 597.349190469L387.114625686 596.516834473L384.011200469 595.38096625L381.058476677 593.958564746L378.273433301 592.266608906L375.673049329 590.322077676L373.27430375 588.14195L371.094175554 585.743204824L369.14964373 583.142821094L367.457687268 580.357777754L366.035285156 577.40505375L364.899416384 574.301628027L364.067059941 571.064479531L363.555194817 567.710587207L363.3808 564.25693L363.555194817 560.803274553L364.067059941 557.44938377L364.899416384 554.212236609L366.035285156 551.108812031L367.457687268 548.156088997L369.14964373 545.371046465L371.094175554 542.770663396L373.27430375 540.37191875L375.673049329 538.191791487L378.273433301 536.247260566L381.058476677 534.555304949L384.011200469 533.132903594L387.114625686 531.997035461L390.35177334 531.164679512L393.705664441 530.652814705L397.15932 530.47842L400.612977207 530.652814705L403.966869531 531.164679512L407.204018027 531.997035461L410.30744375 533.132903594L413.260167754 534.555304949L416.045211094 536.247260566L418.645594824 538.191791487L421.04434 540.37191875L423.224467676 542.770663396L425.168998906 545.371046465L426.860954746 548.156088997L428.28335625 551.108812031L429.419224473 554.212236609L430.251580469 557.44938377L430.763445293 560.803274553L430.93784 564.25693L430.93784 564.25693M392.64271 157.4557L391.68507576 152.223143747L390.382117603 147.29938515L388.752445185 142.679266142L386.814668164 138.357628654L384.587396197 134.329314619L382.08923894 130.589165968L379.338806052 127.132024633L376.354707188 123.952732547L373.155552005 121.046131641L369.759950161 118.407063846L366.186511313 116.030371096L362.453845117 113.910895322L354.585269312 110.42296243L346.3031 107.902000625L337.756214438 106.306745363L329.093489883 105.5959321L320.463803589 105.72829629L312.016032813 106.662573391L303.89905481 108.357498856L296.261746836 110.771808143L289.252986147 113.864236705L283.02165 117.59352L292.9872 271.06299L302.008624648 273.7058675L306.693235532 275.358665391L311.410589688 277.3178125L316.098295288 279.647391172L320.693960508 282.41148375L325.135193521 285.674172578L329.3596025 289.49954L333.30479562 293.951668359L336.908381055 299.09464L340.107966978 304.992537266L342.841161563 311.7094425L345.045572983 319.309438047L346.658809414 327.85660625L347.618479028 337.415029453L347.86219 348.04879L345.69814 527.38263L345.467450534 533.09782307L344.923942936 538.484897932L344.077525435 543.55182853L342.938106262 548.306588809L341.515593646 552.757152713L339.819895818 556.911494187L337.860921006 560.777587176L335.648577441 564.363405625L333.192773354 567.676923478L330.503416973 570.72611468L327.590416529 573.518953176L324.463680251 576.06341291L321.133116371 578.367467827L317.608633116 580.439091873L310.017541406 583.916943125L301.769670961 586.560758225L292.94428762 588.43432873L283.620657221 589.601446199L273.878045605 590.125902188L263.795718611 590.071488254L253.452942078 589.501995957L242.928981844 588.481216853L232.30310375 587.0729425L211.062657336 583.349074277L190.365729551 578.84072375L170.846447107 574.058223379L153.138936719 569.511905625L137.8773251 565.712102949L125.695738965 563.169147813L120.958120052 562.528466965L117.228305027 562.393372676L114.58555973 562.827656501L113.696608804 563.278250069L113.10915 563.89511L100.71479 583.98903L99.2469448866 587.330780763L98.9481776477 590.629675479L99.7557362163 593.880011224L101.606868525 597.076085078L104.438822508 600.212194117L108.188846097 603.28263542L112.794187226 606.281706063L118.192093828 609.203703125L124.319813836 612.042923683L131.114595182 614.793664814L146.454333623 620.006897109L163.709292616 624.797776631L182.377455625 629.12068L201.956806115 632.929983838L221.945327549 636.180064766L241.841003392 638.825299404L261.141817109 640.820064375L279.345752164 642.118736299L295.950792021 642.675691797L310.454920145 642.44530749L322.35612 641.38196L336.631886445 639.403748418L356.065829688 636.237210469L366.992167095 634.038280886L378.338108086 631.338223848L389.813672456 628.069024065L401.12888 624.16266625L411.993750513 619.551135115L422.118303789 614.166415371L426.81234265 611.162854994L431.212559624 607.940491731L435.282707187 604.490823672L438.986537813 600.805348906L442.287803975 596.875565522L445.150258149 592.692971609L447.537652809 588.249065255L449.41374043 583.535344551L450.742273484 578.543307584L451.487004448 573.264452444L451.611685795 567.69027722L451.08007 561.81228L392.64271 157.4557"
       inkscape:connector-curvature="0" />
  </g>
  <g
     inkscape:groupmode="layer"
     id="layer9"
     inkscape:label="stand2"
     style="display:inline">
    <path
       id="path3997"
       style="fill:#ff7f2a;fill-opacity:0.74705882;stroke:#000000;stroke-width:0.64290679;stroke-linejoin:round;stroke-miterlimit:4;stroke-opacity:1;display:inline"
       d="M125.18589 604.47847L133.86352 607.5917L148.66862 612.76822L165.56128 617.49814L184.0 621.5L188.439340864 621.941443982L192.175498164 621.546750918L195.24046646 620.419855793L197.666240313 618.664693594L199.484814282 616.385199304L200.72818293 613.68530791L201.428340815 610.668954397L201.6172825 607.44007375L201.327002544 604.102600955L200.589495508 600.760470996L199.436755952 597.51761886L197.900778437 594.477979531L196.013557524 591.745487996L193.807087773 589.424079238L191.313363745 587.617688245L188.56438 586.43025L178.617988281 583.699841094L168.98258875 581.32772125L151.1875 577.0625L143.25192 575.05273L135.06463125 588.074155L125.18589 604.47847L125.18589 604.47847M328.72335 116.76844L324.007228906 116.769385312L319.34828875 117.06644L310.34948 118.46505L312.586629082 126.959744688L314.815376406 135.02826875L316.78447209 144.304980938L318.24266625 156.42424L318.938709004 173.020404687L318.621350469 195.72783375L317.039340762 226.180885937L313.94143 266.01392L319.275490156 268.982882187L325.79171625 272.95364L332.218904219 277.354102813L337.28585 281.61218L342.034678203 286.994736465L346.31982875 293.156896719L350.083129297 300.128538301L353.2664075 307.93953875L355.811491016 316.619775605L357.6602075 326.199126406L358.754384609 336.707468691L359.03585 348.17468L356.8796 527.51843L356.613266648 533.829629199L355.990823496 539.761049375L355.041688401 545.31878627L353.795279219 550.508935625L352.281013806 555.337593184L350.52831002 559.810854688L348.566585715 563.934815879L346.42525875 567.7155725L344.13374698 571.159220293L341.721468262 574.271855L336.652281406 579.528468125L331.453041035 583.534177812L326.35909 586.33775L323.452457148 587.852294707L320.544065312 589.857727656L317.79673082 592.37120709L315.37327 595.40989125L313.43649918 598.990938379L312.149234687 603.131506719L311.674292852 607.848754512L312.17449 613.15984L313.55973834 617.485063594L315.862620469 621.119860625L318.907170801 624.077710469L322.51742375 626.3720925L326.51741373 628.016486094L330.731175156 629.024370625L334.982742441 629.409225469L339.09615 629.18453L350.64838 627.415010469L363.3748625 624.67266125L378.47035125 620.316583906L397.1296 613.70588L407.182297813 609.419065L416.3191875 604.541865L424.267533437 599.1216725L427.710772617 596.222764219L430.7546 593.20588L433.397857539 590.103992031L435.650650312 586.91549875L437.495781055 583.594463594L438.9160525 580.09495L439.894267383 576.371021406L440.413228437 572.37674125L440.455738398 568.066172969L440.0046 563.39338L381.5671 159.04969L380.53247873 153.600964531L379.093239844 148.647309375L377.271928223 144.155962656L375.09108875 140.0941625L372.573266309 136.429147031L369.741005781 133.128154375L366.616852051 130.158422656L363.22335 127.48719L359.563954922 125.104248359L355.64980875 123.020756875L351.514986328 121.236004453L347.1935625 119.74928L342.719612109 118.559872422L338.12721 117.667070625L328.72335 116.76844L328.72335 116.76844"
       inkscape:connector-curvature="0" />
  </g>
  <g
     id="layer1"
     inkscape:groupmode="layer"
     inkscape:label="refAndJunk"
     style="display:none">
    <path
       transform="matrix(1.0582116,0,0,1.0582116,-2.2265625e-6,-3.7127362)"
       sodipodi:type="arc"
       style="fill:none;stroke:#000000;stroke-width:1;stroke-linejoin:round;stroke-miterlimit:4;stroke-opacity:1;stroke-dasharray:none;display:inline"
       id="path3006"
       sodipodi:cx="0"
       sodipodi:cy="63.779526"
       sodipodi:rx="239.17322"
       sodipodi:ry="239.17322"
       d="m 239.17322,63.779526 a 239.17322,239.17322 0 1 1 -478.34644,0 239.17322,239.17322 0 1 1 478.34644,0 z" />
    <path
       d="m 239.17322,63.779526 a 239.17322,239.17322 0 1 1 -478.34644,0 239.17322,239.17322 0 1 1 478.34644,0 z"
       sodipodi:ry="239.17322"
       sodipodi:rx="239.17322"
       sodipodi:cy="63.779526"
       sodipodi:cx="0"
       id="path3812"
       style="fill:none;stroke:#000000;stroke-width:1;stroke-linejoin:round;stroke-miterlimit:4;stroke-opacity:1;stroke-dasharray:none;display:inline"
       sodipodi:type="arc"
       transform="matrix(0.78794331,0,0,0.78794331,-2.2265625e-6,13.52485)" />
    <path
       d="m 239.17322,63.779526 a 239.17322,239.17322 0 1 1 -478.34644,0 239.17322,239.17322 0 1 1 478.34644,0 z"
       sodipodi:ry="239.17322"
       sodipodi:rx="239.17322"
       sodipodi:cy="63.779526"
       sodipodi:cx="0"
       id="path3028"
       style="fill:none;stroke:#000000;stroke-width:1;stroke-linejoin:round;stroke-miterlimit:4;stroke-opacity:1;stroke-dasharray:none;display:inline"
       sodipodi:type="arc"
       transform="matrix(1.2949326,0,0,1.2949326,274.83328,298.52833)" />
    <path
       style="color:#000000;fill:#e40000;fill-opacity:1;fill-rule:nonzero;stroke:#5d0000;stroke-width:1.14288485;stroke-linecap:butt;stroke-linejoin:miter;stroke-miterlimit:4;stroke-opacity:1;stroke-dasharray:none;stroke-dashoffset:0;marker:none;visibility:visible;display:inline;overflow:visible;enable-background:accumulate"
       d="m 366.35724,85.76021 74.53692,554.13345"
       id="path3081"
       inkscape:connector-curvature="0"
       sodipodi:nodetypes="cc" />
    <path
       sodipodi:nodetypes="cc"
       inkscape:connector-curvature="0"
       id="path3115"
       d="m 366.35724,85.76021 -3.03845,554.13345"
       style="color:#000000;fill:#e40000;fill-opacity:1;fill-rule:nonzero;stroke:#5d0000;stroke-width:1.14288485;stroke-linecap:butt;stroke-linejoin:miter;stroke-miterlimit:4;stroke-opacity:1;stroke-dasharray:none;stroke-dashoffset:0;marker:none;visibility:visible;display:inline;overflow:visible;enable-background:accumulate" />
  </g>
</svg>
