999
Inkscape export via "Better DXF Output" (bob@bobcookdev.com)
  0
SECTION
  2
HEADER
  9
$ACADVER
  1
AC1014
  9
$HANDSEED
  5
FFFF
  0
ENDSEC
  0
SECTION
  2
TABLES
  0
TABLE
  2
VPORT
  5
8
330
0
100
AcDbSymbolTable
 70
     4
  0
VPORT
  5
2E
330
8
100
AcDbSymbolTableRecord
100
AcDbViewportTableRecord
  2
*ACTIVE
 70
     0
 10
0.0
 20
0.0
 11
1.0
 21
1.0
 12
4.25
 22
5.5
 13
0.0
 23
0.0
 14
10.0
 24
10.0
 15
10.0
 25
10.0
 16
0.0
 26
0.0
 36
1.0
 17
0.0
 27
0.0
 37
0.0
 40
11
 41
1.24
 42
50.0
 43
0.0
 44
0.0
 50
0.0
 51
0.0
 71
     0
 72
   100
 73
     1
 74
     3
 75
     0
 76
     0
 77
     0
 78
     0
  0
ENDTAB
  0
TABLE
  2
LTYPE
  5
5
330
0
100
AcDbSymbolTable
 70
     1
  0
LTYPE
  5
14
330
5
100
AcDbSymbolTableRecord
100
AcDbLinetypeTableRecord
  2
BYBLOCK
 70
     0
  3

 72
    65
 73
     0
 40
0.0
  0
LTYPE
  5
15
330
5
100
AcDbSymbolTableRecord
100
AcDbLinetypeTableRecord
  2
BYLAYER
 70
     0
  3

 72
    65
 73
     0
 40
0.0
  0
LTYPE
  5
16
330
5
100
AcDbSymbolTableRecord
100
AcDbLinetypeTableRecord
  2
CONTINUOUS
 70
     0
  3
Solid line
 72
    65
 73
     0
 40
0.0
  0
ENDTAB
  0
TABLE
  2
LAYER
  5
2
330
0
100
AcDbSymbolTable
 70
1
  0
LAYER
  5
10
330
2
100
AcDbSymbolTableRecord
100
AcDbLayerTableRecord
  2
0
 70
     0
 62
     7
  6
CONTINUOUS
  0
ENDTAB
  0
TABLE
  2
STYLE
  5
3
330
0
100
AcDbSymbolTable
 70
     1
  0
STYLE
  5
11
330
3
100
AcDbSymbolTableRecord
100
AcDbTextStyleTableRecord
  2
STANDARD
 70
     0
 40
0.0
 41
1.0
 50
0.0
 71
     0
 42
2.5
  3
txt
  4

  0
ENDTAB
  0
TABLE
  2
VIEW
  5
6
330
0
100
AcDbSymbolTable
 70
     0
  0
ENDTAB
  0
TABLE
  2
UCS
  5
7
330
0
100
AcDbSymbolTable
 70
     0
  0
ENDTAB
  0
TABLE
  2
APPID
  5
9
330
0
100
AcDbSymbolTable
 70
     2
  0
APPID
  5
12
330
9
100
AcDbSymbolTableRecord
100
AcDbRegAppTableRecord
  2
ACAD
 70
     0
  0
ENDTAB
  0
TABLE
  2
DIMSTYLE
  5
A
330
0
100
AcDbSymbolTable
 70
     1
  0
DIMSTYLE
105
27
330
A
100
AcDbSymbolTableRecord
100
AcDbDimStyleTableRecord
  2
ISO-25
 70
     0
  3

  4

  5

  6

  7

 40
1.0
 41
2.5
 42
0.625
 43
3.75
 44
1.25
 45
0.0
 46
0.0
 47
0.0
 48
0.0
140
2.5
141
2.5
142
0.0
143
0.03937007874016
144
1.0
145
0.0
146
1.0
147
0.625
 71
     0
 72
     0
 73
     0
 74
     0
 75
     0
 76
     0
 77
     1
 78
     8
170
     0
171
     3
172
     1
173
     0
174
     0
175
     0
176
     0
177
     0
178
     0
270
     2
271
     2
272
     2
273
     2
274
     3
340
11
275
     0
280
     0
281
     0
282
     0
283
     0
284
     8
285
     0
286
     0
287
     3
288
     0
  0
ENDTAB
  0
TABLE
  2
BLOCK_RECORD
  5
1
330
0
100
AcDbSymbolTable
 70
     1
  0
BLOCK_RECORD
  5
1F
330
1
100
AcDbSymbolTableRecord
100
AcDbBlockTableRecord
  2
*MODEL_SPACE
  0
BLOCK_RECORD
  5
1B
330
1
100
AcDbSymbolTableRecord
100
AcDbBlockTableRecord
  2
*PAPER_SPACE
  0
ENDTAB
  0
ENDSEC
  0
SECTION
  2
BLOCKS
  0
BLOCK
  5
20
330
1F
100
AcDbEntity
  8
0
100
AcDbBlockBegin
  2
*MODEL_SPACE
 70
     0
 10
0.0
 20
0.0
 30
0.0
  3
*MODEL_SPACE
  1

  0
ENDBLK
  5
21
330
1F
100
AcDbEntity
  8
0
100
AcDbBlockEnd
  0
BLOCK
  5
1C
330
1B
100
AcDbEntity
 67
     1
  8
0
100
AcDbBlockBegin
  2
*PAPER_SPACE
  1

  0
ENDBLK
  5
1D
330
1B
100
AcDbEntity
 67
     1
  8
0
100
AcDbBlockEnd
  0
ENDSEC
  0
SECTION
  2
ENTITIES
0
LINE
8
base
62
4
5
100
100
AcDbEntity
100
AcDbLine
10
0.185252
20
210.632380
30
0.0
11
49.834202
21
210.632380
31
0.0
0
LINE
8
base
62
4
5
101
100
AcDbEntity
100
AcDbLine
10
49.834202
20
210.632380
30
0.0
11
70.221675
21
210.632380
31
0.0
0
LINE
8
base
62
4
5
102
100
AcDbEntity
100
AcDbLine
10
70.221675
20
210.632380
30
0.0
11
71.538177
21
210.481267
31
0.0
0
LINE
8
base
62
4
5
103
100
AcDbEntity
100
AcDbLine
10
71.538177
20
210.481267
30
0.0
11
72.701469
21
210.039775
31
0.0
0
LINE
8
base
62
4
5
104
100
AcDbEntity
100
AcDbLine
10
72.701469
20
210.039775
30
0.0
11
73.718855
21
209.325674
31
0.0
0
LINE
8
base
62
4
5
105
100
AcDbEntity
100
AcDbLine
10
73.718855
20
209.325674
30
0.0
11
74.597641
21
208.356735
31
0.0
0
LINE
8
base
62
4
5
106
100
AcDbEntity
100
AcDbLine
10
74.597641
20
208.356735
30
0.0
11
75.345135
21
207.150726
31
0.0
0
LINE
8
base
62
4
5
107
100
AcDbEntity
100
AcDbLine
10
75.345135
20
207.150726
30
0.0
11
75.968643
21
205.725419
31
0.0
0
LINE
8
base
62
4
5
108
100
AcDbEntity
100
AcDbLine
10
75.968643
20
205.725419
30
0.0
11
76.475471
21
204.098580
31
0.0
0
LINE
8
base
62
4
5
109
100
AcDbEntity
100
AcDbLine
10
76.475471
20
204.098580
30
0.0
11
76.872931
21
202.287983
31
0.0
0
LINE
8
base
62
4
5
10a
100
AcDbEntity
100
AcDbLine
10
76.872931
20
202.287983
30
0.0
11
77.168324
21
200.311395
31
0.0
0
LINE
8
base
62
4
5
10b
100
AcDbEntity
100
AcDbLine
10
77.168324
20
200.311395
30
0.0
11
77.368959
21
198.186589
31
0.0
0
LINE
8
base
62
4
5
10c
100
AcDbEntity
100
AcDbLine
10
77.368959
20
198.186589
30
0.0
11
77.482141
21
195.931331
31
0.0
0
LINE
8
base
62
4
5
10d
100
AcDbEntity
100
AcDbLine
10
77.482141
20
195.931331
30
0.0
11
77.515178
21
193.563394
31
0.0
0
LINE
8
base
62
4
5
10e
100
AcDbEntity
100
AcDbLine
10
77.515178
20
193.563394
30
0.0
11
77.370048
21
188.560556
31
0.0
0
LINE
8
base
62
4
5
10f
100
AcDbEntity
100
AcDbLine
10
77.370048
20
188.560556
30
0.0
11
76.992020
21
183.320234
31
0.0
0
LINE
8
base
62
4
5
110
100
AcDbEntity
100
AcDbLine
10
76.992020
20
183.320234
30
0.0
11
76.439550
21
177.984589
31
0.0
0
LINE
8
base
62
4
5
111
100
AcDbEntity
100
AcDbLine
10
76.439550
20
177.984589
30
0.0
11
75.771090
21
172.695778
31
0.0
0
LINE
8
base
62
4
5
112
100
AcDbEntity
100
AcDbLine
10
75.771090
20
172.695778
30
0.0
11
74.320019
21
162.827291
31
0.0
0
LINE
8
base
62
4
5
113
100
AcDbEntity
100
AcDbLine
10
74.320019
20
162.827291
30
0.0
11
73.106447
21
154.852050
31
0.0
0
LINE
8
base
62
4
5
114
100
AcDbEntity
100
AcDbLine
10
73.106447
20
154.852050
30
0.0
11
72.734856
21
151.929791
31
0.0
0
LINE
8
base
62
4
5
115
100
AcDbEntity
100
AcDbLine
10
72.734856
20
151.929791
30
0.0
11
72.598003
21
149.907319
31
0.0
0
LINE
8
base
62
4
5
116
100
AcDbEntity
100
AcDbLine
10
72.598003
20
149.907319
30
0.0
11
71.194202
21
151.114304
31
0.0
0
LINE
8
base
62
4
5
117
100
AcDbEntity
100
AcDbLine
10
71.194202
20
151.114304
30
0.0
11
69.800188
21
152.145338
31
0.0
0
LINE
8
base
62
4
5
118
100
AcDbEntity
100
AcDbLine
10
69.800188
20
152.145338
30
0.0
11
68.415899
21
153.005453
31
0.0
0
LINE
8
base
62
4
5
119
100
AcDbEntity
100
AcDbLine
10
68.415899
20
153.005453
30
0.0
11
67.041285
21
153.699677
31
0.0
0
LINE
8
base
62
4
5
11a
100
AcDbEntity
100
AcDbLine
10
67.041285
20
153.699677
30
0.0
11
65.676289
21
154.233043
31
0.0
0
LINE
8
base
62
4
5
11b
100
AcDbEntity
100
AcDbLine
10
65.676289
20
154.233043
30
0.0
11
64.320855
21
154.610583
31
0.0
0
LINE
8
base
62
4
5
11c
100
AcDbEntity
100
AcDbLine
10
64.320855
20
154.610583
30
0.0
11
62.974928
21
154.837326
31
0.0
0
LINE
8
base
62
4
5
11d
100
AcDbEntity
100
AcDbLine
10
62.974928
20
154.837326
30
0.0
11
61.638457
21
154.918304
31
0.0
0
LINE
8
base
62
4
5
11e
100
AcDbEntity
100
AcDbLine
10
61.638457
20
154.918304
30
0.0
11
60.311383
21
154.858549
31
0.0
0
LINE
8
base
62
4
5
11f
100
AcDbEntity
100
AcDbLine
10
60.311383
20
154.858549
30
0.0
11
58.993651
21
154.663091
31
0.0
0
LINE
8
base
62
4
5
120
100
AcDbEntity
100
AcDbLine
10
58.993651
20
154.663091
30
0.0
11
57.685206
21
154.336960
31
0.0
0
LINE
8
base
62
4
5
121
100
AcDbEntity
100
AcDbLine
10
57.685206
20
154.336960
30
0.0
11
56.385996
21
153.885187
31
0.0
0
LINE
8
base
62
4
5
122
100
AcDbEntity
100
AcDbLine
10
56.385996
20
153.885187
30
0.0
11
55.095964
21
153.312807
31
0.0
0
LINE
8
base
62
4
5
123
100
AcDbEntity
100
AcDbLine
10
55.095964
20
153.312807
30
0.0
11
53.815053
21
152.624845
31
0.0
0
LINE
8
base
62
4
5
124
100
AcDbEntity
100
AcDbLine
10
53.815053
20
152.624845
30
0.0
11
52.543210
21
151.826340
31
0.0
0
LINE
8
base
62
4
5
125
100
AcDbEntity
100
AcDbLine
10
52.543210
20
151.826340
30
0.0
11
51.280382
21
150.922314
31
0.0
0
LINE
8
base
62
4
5
126
100
AcDbEntity
100
AcDbLine
10
51.280382
20
150.922314
30
0.0
11
48.781541
21
148.817839
31
0.0
0
LINE
8
base
62
4
5
127
100
AcDbEntity
100
AcDbLine
10
48.781541
20
148.817839
30
0.0
11
46.318094
21
146.351671
31
0.0
0
LINE
8
base
62
4
5
128
100
AcDbEntity
100
AcDbLine
10
46.318094
20
146.351671
30
0.0
11
43.889594
21
143.564058
31
0.0
0
LINE
8
base
62
4
5
129
100
AcDbEntity
100
AcDbLine
10
43.889594
20
143.564058
30
0.0
11
41.495607
21
140.495250
31
0.0
0
LINE
8
base
62
4
5
12a
100
AcDbEntity
100
AcDbLine
10
41.495607
20
140.495250
30
0.0
11
39.135691
21
137.185492
31
0.0
0
LINE
8
base
62
4
5
12b
100
AcDbEntity
100
AcDbLine
10
39.135691
20
137.185492
30
0.0
11
36.809403
21
133.675034
31
0.0
0
LINE
8
base
62
4
5
12c
100
AcDbEntity
100
AcDbLine
10
36.809403
20
133.675034
30
0.0
11
34.516308
21
130.004124
31
0.0
0
LINE
8
base
62
4
5
12d
100
AcDbEntity
100
AcDbLine
10
34.516308
20
130.004124
30
0.0
11
32.255962
21
126.213013
31
0.0
0
LINE
8
base
62
4
5
12e
100
AcDbEntity
100
AcDbLine
10
32.255962
20
126.213013
30
0.0
11
27.831760
21
118.431176
31
0.0
0
LINE
8
base
62
4
5
12f
100
AcDbEntity
100
AcDbLine
10
27.831760
20
118.431176
30
0.0
11
23.533275
21
110.651511
31
0.0
0
LINE
8
base
62
4
5
130
100
AcDbEntity
100
AcDbLine
10
23.533275
20
110.651511
30
0.0
11
19.356988
21
103.196005
31
0.0
0
LINE
8
base
62
4
5
131
100
AcDbEntity
100
AcDbLine
10
19.356988
20
103.196005
30
0.0
11
17.313567
21
99.690432
31
0.0
0
LINE
8
base
62
4
5
132
100
AcDbEntity
100
AcDbLine
10
17.313567
20
99.690432
30
0.0
11
15.299375
21
96.386643
31
0.0
0
LINE
8
base
62
4
5
133
100
AcDbEntity
100
AcDbLine
10
15.299375
20
96.386643
30
0.0
11
13.313972
21
93.324890
31
0.0
0
LINE
8
base
62
4
5
134
100
AcDbEntity
100
AcDbLine
10
13.313972
20
93.324890
30
0.0
11
11.356917
21
90.545419
31
0.0
0
LINE
8
base
62
4
5
135
100
AcDbEntity
100
AcDbLine
10
11.356917
20
90.545419
30
0.0
11
9.427770
21
88.088477
31
0.0
0
LINE
8
base
62
4
5
136
100
AcDbEntity
100
AcDbLine
10
9.427770
20
88.088477
30
0.0
11
7.526091
21
85.994318
31
0.0
0
LINE
8
base
62
4
5
137
100
AcDbEntity
100
AcDbLine
10
7.526091
20
85.994318
30
0.0
11
5.651440
21
84.303183
31
0.0
0
LINE
8
base
62
4
5
138
100
AcDbEntity
100
AcDbLine
10
5.651440
20
84.303183
30
0.0
11
4.724113
21
83.621328
31
0.0
0
LINE
8
base
62
4
5
139
100
AcDbEntity
100
AcDbLine
10
4.724113
20
83.621328
30
0.0
11
3.803377
21
83.055326
31
0.0
0
LINE
8
base
62
4
5
13a
100
AcDbEntity
100
AcDbLine
10
3.803377
20
83.055326
30
0.0
11
2.889178
21
82.610202
31
0.0
0
LINE
8
base
62
4
5
13b
100
AcDbEntity
100
AcDbLine
10
2.889178
20
82.610202
30
0.0
11
1.981461
21
82.290992
31
0.0
0
LINE
8
base
62
4
5
13c
100
AcDbEntity
100
AcDbLine
10
1.981461
20
82.290992
30
0.0
11
1.080171
21
82.102724
31
0.0
0
LINE
8
base
62
4
5
13d
100
AcDbEntity
100
AcDbLine
10
1.080171
20
82.102724
30
0.0
11
0.185252
21
82.050431
31
0.0
0
LINE
8
base
62
4
5
13e
100
AcDbEntity
100
AcDbLine
10
0.185252
20
82.050431
30
0.0
11
0.185252
21
210.632380
31
0.0
0
LINE
8
shroud
62
4
5
13f
100
AcDbEntity
100
AcDbLine
10
80.544803
20
270.289716
30
0.0
11
29.277767
21
270.289716
31
0.0
0
LINE
8
shroud
62
4
5
140
100
AcDbEntity
100
AcDbLine
10
29.277767
20
270.289716
30
0.0
11
28.299849
21
269.347154
31
0.0
0
LINE
8
shroud
62
4
5
141
100
AcDbEntity
100
AcDbLine
10
28.299849
20
269.347154
30
0.0
11
27.456509
21
268.346841
31
0.0
0
LINE
8
shroud
62
4
5
142
100
AcDbEntity
100
AcDbLine
10
27.456509
20
268.346841
30
0.0
11
26.747078
21
267.288797
31
0.0
0
LINE
8
shroud
62
4
5
143
100
AcDbEntity
100
AcDbLine
10
26.747078
20
267.288797
30
0.0
11
26.170886
21
266.173043
31
0.0
0
LINE
8
shroud
62
4
5
144
100
AcDbEntity
100
AcDbLine
10
26.170886
20
266.173043
30
0.0
11
25.727263
21
264.999598
31
0.0
0
LINE
8
shroud
62
4
5
145
100
AcDbEntity
100
AcDbLine
10
25.727263
20
264.999598
30
0.0
11
25.415539
21
263.768483
31
0.0
0
LINE
8
shroud
62
4
5
146
100
AcDbEntity
100
AcDbLine
10
25.415539
20
263.768483
30
0.0
11
25.235043
21
262.479718
31
0.0
0
LINE
8
shroud
62
4
5
147
100
AcDbEntity
100
AcDbLine
10
25.235043
20
262.479718
30
0.0
11
25.185106
21
261.133323
31
0.0
0
LINE
8
shroud
62
4
5
148
100
AcDbEntity
100
AcDbLine
10
25.185106
20
261.133323
30
0.0
11
25.365109
21
258.044429
31
0.0
0
LINE
8
shroud
62
4
5
149
100
AcDbEntity
100
AcDbLine
10
25.365109
20
258.044429
30
0.0
11
25.830547
21
254.792437
31
0.0
0
LINE
8
shroud
62
4
5
14a
100
AcDbEntity
100
AcDbLine
10
25.830547
20
254.792437
30
0.0
11
26.568217
21
251.426386
31
0.0
0
LINE
8
shroud
62
4
5
14b
100
AcDbEntity
100
AcDbLine
10
26.568217
20
251.426386
30
0.0
11
27.564916
21
247.995316
31
0.0
0
LINE
8
shroud
62
4
5
14c
100
AcDbEntity
100
AcDbLine
10
27.564916
20
247.995316
30
0.0
11
28.807441
21
244.548266
31
0.0
0
LINE
8
shroud
62
4
5
14d
100
AcDbEntity
100
AcDbLine
10
28.807441
20
244.548266
30
0.0
11
30.282589
21
241.134276
31
0.0
0
LINE
8
shroud
62
4
5
14e
100
AcDbEntity
100
AcDbLine
10
30.282589
20
241.134276
30
0.0
11
31.977157
21
237.802386
31
0.0
0
LINE
8
shroud
62
4
5
14f
100
AcDbEntity
100
AcDbLine
10
31.977157
20
237.802386
30
0.0
11
33.877942
21
234.601634
31
0.0
0
LINE
8
shroud
62
4
5
150
100
AcDbEntity
100
AcDbLine
10
33.877942
20
234.601634
30
0.0
11
35.971740
21
231.581060
31
0.0
0
LINE
8
shroud
62
4
5
151
100
AcDbEntity
100
AcDbLine
10
35.971740
20
231.581060
30
0.0
11
38.245349
21
228.789704
31
0.0
0
LINE
8
shroud
62
4
5
152
100
AcDbEntity
100
AcDbLine
10
38.245349
20
228.789704
30
0.0
11
40.685565
21
226.276606
31
0.0
0
LINE
8
shroud
62
4
5
153
100
AcDbEntity
100
AcDbLine
10
40.685565
20
226.276606
30
0.0
11
41.964025
21
225.139729
31
0.0
0
LINE
8
shroud
62
4
5
154
100
AcDbEntity
100
AcDbLine
10
41.964025
20
225.139729
30
0.0
11
43.279186
21
224.090805
31
0.0
0
LINE
8
shroud
62
4
5
155
100
AcDbEntity
100
AcDbLine
10
43.279186
20
224.090805
30
0.0
11
44.629397
21
223.135966
31
0.0
0
LINE
8
shroud
62
4
5
156
100
AcDbEntity
100
AcDbLine
10
44.629397
20
223.135966
30
0.0
11
46.013008
21
222.281340
31
0.0
0
LINE
8
shroud
62
4
5
157
100
AcDbEntity
100
AcDbLine
10
46.013008
20
222.281340
30
0.0
11
47.428368
21
221.533059
31
0.0
0
LINE
8
shroud
62
4
5
158
100
AcDbEntity
100
AcDbLine
10
47.428368
20
221.533059
30
0.0
11
48.873828
21
220.897251
31
0.0
0
LINE
8
shroud
62
4
5
159
100
AcDbEntity
100
AcDbLine
10
48.873828
20
220.897251
30
0.0
11
50.347736
21
220.380048
31
0.0
0
LINE
8
shroud
62
4
5
15a
100
AcDbEntity
100
AcDbLine
10
50.347736
20
220.380048
30
0.0
11
51.848443
21
219.987578
31
0.0
0
LINE
8
shroud
62
4
5
15b
100
AcDbEntity
100
AcDbLine
10
51.848443
20
219.987578
30
0.0
11
53.374298
21
219.725972
31
0.0
0
LINE
8
shroud
62
4
5
15c
100
AcDbEntity
100
AcDbLine
10
53.374298
20
219.725972
30
0.0
11
54.923650
21
219.601360
31
0.0
0
LINE
8
shroud
62
4
5
15d
100
AcDbEntity
100
AcDbLine
10
54.923650
20
219.601360
30
0.0
11
57.793740
21
219.194252
31
0.0
0
LINE
8
shroud
62
4
5
15e
100
AcDbEntity
100
AcDbLine
10
57.793740
20
219.194252
30
0.0
11
60.676765
21
218.969792
31
0.0
0
LINE
8
shroud
62
4
5
15f
100
AcDbEntity
100
AcDbLine
10
60.676765
20
218.969792
30
0.0
11
64.080791
21
218.955681
31
0.0
0
LINE
8
shroud
62
4
5
160
100
AcDbEntity
100
AcDbLine
10
64.080791
20
218.955681
30
0.0
11
65.497360
21
219.001214
31
0.0
0
LINE
8
shroud
62
4
5
161
100
AcDbEntity
100
AcDbLine
10
65.497360
20
219.001214
30
0.0
11
66.933487
21
218.965694
31
0.0
0
LINE
8
shroud
62
4
5
162
100
AcDbEntity
100
AcDbLine
10
66.933487
20
218.965694
30
0.0
11
68.366826
21
218.823471
31
0.0
0
LINE
8
shroud
62
4
5
163
100
AcDbEntity
100
AcDbLine
10
68.366826
20
218.823471
30
0.0
11
69.775025
21
218.548894
31
0.0
0
LINE
8
shroud
62
4
5
164
100
AcDbEntity
100
AcDbLine
10
69.775025
20
218.548894
30
0.0
11
71.135742
21
218.116315
31
0.0
0
LINE
8
shroud
62
4
5
165
100
AcDbEntity
100
AcDbLine
10
71.135742
20
218.116315
30
0.0
11
72.426632
21
217.500080
31
0.0
0
LINE
8
shroud
62
4
5
166
100
AcDbEntity
100
AcDbLine
10
72.426632
20
217.500080
30
0.0
11
73.625346
21
216.674543
31
0.0
0
LINE
8
shroud
62
4
5
167
100
AcDbEntity
100
AcDbLine
10
73.625346
20
216.674543
30
0.0
11
74.709536
21
215.614051
31
0.0
0
LINE
8
shroud
62
4
5
168
100
AcDbEntity
100
AcDbLine
10
74.709536
20
215.614051
30
0.0
11
75.430394
21
214.696211
31
0.0
0
LINE
8
shroud
62
4
5
169
100
AcDbEntity
100
AcDbLine
10
75.430394
20
214.696211
30
0.0
11
76.073426
21
213.731781
31
0.0
0
LINE
8
shroud
62
4
5
16a
100
AcDbEntity
100
AcDbLine
10
76.073426
20
213.731781
30
0.0
11
76.643032
21
212.724987
31
0.0
0
LINE
8
shroud
62
4
5
16b
100
AcDbEntity
100
AcDbLine
10
76.643032
20
212.724987
30
0.0
11
77.143607
21
211.680051
31
0.0
0
LINE
8
shroud
62
4
5
16c
100
AcDbEntity
100
AcDbLine
10
77.143607
20
211.680051
30
0.0
11
77.955233
21
209.492628
31
0.0
0
LINE
8
shroud
62
4
5
16d
100
AcDbEntity
100
AcDbLine
10
77.955233
20
209.492628
30
0.0
11
78.543463
21
207.203295
31
0.0
0
LINE
8
shroud
62
4
5
16e
100
AcDbEntity
100
AcDbLine
10
78.543463
20
207.203295
30
0.0
11
78.943460
21
204.845825
31
0.0
0
LINE
8
shroud
62
4
5
16f
100
AcDbEntity
100
AcDbLine
10
78.943460
20
204.845825
30
0.0
11
79.190376
21
202.453992
31
0.0
0
LINE
8
shroud
62
4
5
170
100
AcDbEntity
100
AcDbLine
10
79.190376
20
202.453992
30
0.0
11
79.319374
21
200.061572
31
0.0
0
LINE
8
shroud
62
4
5
171
100
AcDbEntity
100
AcDbLine
10
79.319374
20
200.061572
30
0.0
11
79.365613
21
197.702343
31
0.0
0
LINE
8
shroud
62
4
5
172
100
AcDbEntity
100
AcDbLine
10
79.365613
20
197.702343
30
0.0
11
79.233841
21
193.600133
31
0.0
0
LINE
8
shroud
62
4
5
173
100
AcDbEntity
100
AcDbLine
10
79.233841
20
193.600133
30
0.0
11
78.928747
21
189.507877
31
0.0
0
LINE
8
shroud
62
4
5
174
100
AcDbEntity
100
AcDbLine
10
78.928747
20
189.507877
30
0.0
11
80.692814
21
195.920793
31
0.0
0
LINE
8
shroud
62
4
5
175
100
AcDbEntity
100
AcDbLine
10
80.692814
20
195.920793
30
0.0
11
82.525757
21
203.062463
31
0.0
0
LINE
8
shroud
62
4
5
176
100
AcDbEntity
100
AcDbLine
10
82.525757
20
203.062463
30
0.0
11
83.375209
21
206.730421
31
0.0
0
LINE
8
shroud
62
4
5
177
100
AcDbEntity
100
AcDbLine
10
83.375209
20
206.730421
30
0.0
11
84.130464
21
210.369165
31
0.0
0
LINE
8
shroud
62
4
5
178
100
AcDbEntity
100
AcDbLine
10
84.130464
20
210.369165
30
0.0
11
84.754387
21
213.908238
31
0.0
0
LINE
8
shroud
62
4
5
179
100
AcDbEntity
100
AcDbLine
10
84.754387
20
213.908238
30
0.0
11
85.209832
21
217.277172
31
0.0
0
LINE
8
shroud
62
4
5
17a
100
AcDbEntity
100
AcDbLine
10
85.209832
20
217.277172
30
0.0
11
85.956326
21
223.948502
31
0.0
0
LINE
8
shroud
62
4
5
17b
100
AcDbEntity
100
AcDbLine
10
85.956326
20
223.948502
30
0.0
11
86.687491
21
231.173123
31
0.0
0
LINE
8
shroud
62
4
5
17c
100
AcDbEntity
100
AcDbLine
10
86.687491
20
231.173123
30
0.0
11
86.990363
21
234.904470
31
0.0
0
LINE
8
shroud
62
4
5
17d
100
AcDbEntity
100
AcDbLine
10
86.990363
20
234.904470
30
0.0
11
87.221046
21
238.668000
31
0.0
0
LINE
8
shroud
62
4
5
17e
100
AcDbEntity
100
AcDbLine
10
87.221046
20
238.668000
30
0.0
11
87.356755
21
242.428331
31
0.0
0
LINE
8
shroud
62
4
5
17f
100
AcDbEntity
100
AcDbLine
10
87.356755
20
242.428331
30
0.0
11
87.374705
21
246.150086
31
0.0
0
LINE
8
shroud
62
4
5
180
100
AcDbEntity
100
AcDbLine
10
87.374705
20
246.150086
30
0.0
11
87.252113
21
249.797885
31
0.0
0
LINE
8
shroud
62
4
5
181
100
AcDbEntity
100
AcDbLine
10
87.252113
20
249.797885
30
0.0
11
86.966194
21
253.336344
31
0.0
0
LINE
8
shroud
62
4
5
182
100
AcDbEntity
100
AcDbLine
10
86.966194
20
253.336344
30
0.0
11
86.494157
21
256.730086
31
0.0
0
LINE
8
shroud
62
4
5
183
100
AcDbEntity
100
AcDbLine
10
86.494157
20
256.730086
30
0.0
11
85.813225
21
259.943734
31
0.0
0
LINE
8
shroud
62
4
5
184
100
AcDbEntity
100
AcDbLine
10
85.813225
20
259.943734
30
0.0
11
84.900609
21
262.941902
31
0.0
0
LINE
8
shroud
62
4
5
185
100
AcDbEntity
100
AcDbLine
10
84.900609
20
262.941902
30
0.0
11
84.350298
21
264.349127
31
0.0
0
LINE
8
shroud
62
4
5
186
100
AcDbEntity
100
AcDbLine
10
84.350298
20
264.349127
30
0.0
11
83.733521
21
265.689214
31
0.0
0
LINE
8
shroud
62
4
5
187
100
AcDbEntity
100
AcDbLine
10
83.733521
20
265.689214
30
0.0
11
83.047431
21
266.957741
31
0.0
0
LINE
8
shroud
62
4
5
188
100
AcDbEntity
100
AcDbLine
10
83.047431
20
266.957741
30
0.0
11
82.289179
21
268.150285
31
0.0
0
LINE
8
shroud
62
4
5
189
100
AcDbEntity
100
AcDbLine
10
82.289179
20
268.150285
30
0.0
11
81.455918
21
269.262427
31
0.0
0
LINE
8
shroud
62
4
5
18a
100
AcDbEntity
100
AcDbLine
10
81.455918
20
269.262427
30
0.0
11
80.544800
21
270.289742
31
0.0
0
LINE
8
shroud
62
4
5
18b
100
AcDbEntity
100
AcDbLine
10
80.544800
20
270.289742
30
0.0
11
80.544800
21
270.289742
31
0.0
0
LINE
8
turboBlades
62
4
5
18c
100
AcDbEntity
100
AcDbLine
10
0.000000
20
211.504306
30
0.0
11
51.293511
21
211.504306
31
0.0
0
LINE
8
turboBlades
62
4
5
18d
100
AcDbEntity
100
AcDbLine
10
51.293511
20
211.504306
30
0.0
11
51.293511
21
218.374653
31
0.0
0
LINE
8
turboBlades
62
4
5
18e
100
AcDbEntity
100
AcDbLine
10
51.293511
20
218.374653
30
0.0
11
49.067342
21
219.002295
31
0.0
0
LINE
8
turboBlades
62
4
5
18f
100
AcDbEntity
100
AcDbLine
10
49.067342
20
219.002295
30
0.0
11
47.116910
21
219.750139
31
0.0
0
LINE
8
turboBlades
62
4
5
190
100
AcDbEntity
100
AcDbLine
10
47.116910
20
219.750139
30
0.0
11
44.955203
21
220.925899
31
0.0
0
LINE
8
turboBlades
62
4
5
191
100
AcDbEntity
100
AcDbLine
10
44.955203
20
220.925899
30
0.0
11
42.095208
21
222.837292
31
0.0
0
LINE
8
turboBlades
62
4
5
192
100
AcDbEntity
100
AcDbLine
10
42.095208
20
222.837292
30
0.0
11
40.490069
21
224.186667
31
0.0
0
LINE
8
turboBlades
62
4
5
193
100
AcDbEntity
100
AcDbLine
10
40.490069
20
224.186667
30
0.0
11
38.955486
21
225.641875
31
0.0
0
LINE
8
turboBlades
62
4
5
194
100
AcDbEntity
100
AcDbLine
10
38.955486
20
225.641875
30
0.0
11
37.491458
21
227.167639
31
0.0
0
LINE
8
turboBlades
62
4
5
195
100
AcDbEntity
100
AcDbLine
10
37.491458
20
227.167639
30
0.0
11
36.089167
21
228.737500
31
0.0
0
LINE
8
turboBlades
62
4
5
196
100
AcDbEntity
100
AcDbLine
10
36.089167
20
228.737500
30
0.0
11
33.575625
21
232.009514
31
0.0
0
LINE
8
turboBlades
62
4
5
197
100
AcDbEntity
100
AcDbLine
10
33.575625
20
232.009514
30
0.0
11
31.273750
21
235.484375
31
0.0
0
LINE
8
turboBlades
62
4
5
198
100
AcDbEntity
100
AcDbLine
10
31.273750
20
235.484375
30
0.0
11
29.210000
21
239.135625
31
0.0
0
LINE
8
turboBlades
62
4
5
199
100
AcDbEntity
100
AcDbLine
10
29.210000
20
239.135625
30
0.0
11
28.275139
21
241.022986
31
0.0
0
LINE
8
turboBlades
62
4
5
19a
100
AcDbEntity
100
AcDbLine
10
28.275139
20
241.022986
30
0.0
11
27.419653
21
242.954444
31
0.0
0
LINE
8
turboBlades
62
4
5
19b
100
AcDbEntity
100
AcDbLine
10
27.419653
20
242.954444
30
0.0
11
26.625903
21
244.912361
31
0.0
0
LINE
8
turboBlades
62
4
5
19c
100
AcDbEntity
100
AcDbLine
10
26.625903
20
244.912361
30
0.0
11
25.920347
21
246.914375
31
0.0
0
LINE
8
turboBlades
62
4
5
19d
100
AcDbEntity
100
AcDbLine
10
25.920347
20
246.914375
30
0.0
11
25.294167
21
248.934028
31
0.0
0
LINE
8
turboBlades
62
4
5
19e
100
AcDbEntity
100
AcDbLine
10
25.294167
20
248.934028
30
0.0
11
24.747361
21
250.988958
31
0.0
0
LINE
8
turboBlades
62
4
5
19f
100
AcDbEntity
100
AcDbLine
10
24.747361
20
250.988958
30
0.0
11
24.297569
21
253.070347
31
0.0
0
LINE
8
turboBlades
62
4
5
1a0
100
AcDbEntity
100
AcDbLine
10
24.297569
20
253.070347
30
0.0
11
23.935972
21
255.178194
31
0.0
0
LINE
8
turboBlades
62
4
5
1a1
100
AcDbEntity
100
AcDbLine
10
23.935972
20
255.178194
30
0.0
11
23.671389
21
257.303681
31
0.0
0
LINE
8
turboBlades
62
4
5
1a2
100
AcDbEntity
100
AcDbLine
10
23.671389
20
257.303681
30
0.0
11
23.512639
21
259.446806
31
0.0
0
LINE
8
turboBlades
62
4
5
1a3
100
AcDbEntity
100
AcDbLine
10
23.512639
20
259.446806
30
0.0
11
23.433264
21
261.025486
31
0.0
0
LINE
8
turboBlades
62
4
5
1a4
100
AcDbEntity
100
AcDbLine
10
23.433264
20
261.025486
30
0.0
11
23.450903
21
261.201875
31
0.0
0
LINE
8
turboBlades
62
4
5
1a5
100
AcDbEntity
100
AcDbLine
10
23.450903
20
261.201875
30
0.0
11
0.000000
21
261.201875
31
0.0
0
LINE
8
turboBlades
62
4
5
1a6
100
AcDbEntity
100
AcDbLine
10
0.000000
20
261.201875
30
0.0
11
0.000000
21
211.504306
31
0.0
0
LINE
8
turboCore
62
4
5
1a7
100
AcDbEntity
100
AcDbLine
10
0.014421
20
268.214866
30
0.0
11
1.034541
21
268.191187
31
0.0
0
LINE
8
turboCore
62
4
5
1a8
100
AcDbEntity
100
AcDbLine
10
1.034541
20
268.191187
30
0.0
11
1.989227
21
268.082300
31
0.0
0
LINE
8
turboCore
62
4
5
1a9
100
AcDbEntity
100
AcDbLine
10
1.989227
20
268.082300
30
0.0
11
2.878498
21
267.894608
31
0.0
0
LINE
8
turboCore
62
4
5
1aa
100
AcDbEntity
100
AcDbLine
10
2.878498
20
267.894608
30
0.0
11
3.702368
21
267.634507
31
0.0
0
LINE
8
turboCore
62
4
5
1ab
100
AcDbEntity
100
AcDbLine
10
3.702368
20
267.634507
30
0.0
11
5.153979
21
266.922655
31
0.0
0
LINE
8
turboCore
62
4
5
1ac
100
AcDbEntity
100
AcDbLine
10
5.153979
20
266.922655
30
0.0
11
6.344195
21
265.997906
31
0.0
0
LINE
8
turboCore
62
4
5
1ad
100
AcDbEntity
100
AcDbLine
10
6.344195
20
265.997906
30
0.0
11
7.273153
21
264.911421
31
0.0
0
LINE
8
turboCore
62
4
5
1ae
100
AcDbEntity
100
AcDbLine
10
7.273153
20
264.911421
30
0.0
11
7.940988
21
263.714370
31
0.0
0
LINE
8
turboCore
62
4
5
1af
100
AcDbEntity
100
AcDbLine
10
7.940988
20
263.714370
30
0.0
11
8.347837
21
262.457911
31
0.0
0
LINE
8
turboCore
62
4
5
1b0
100
AcDbEntity
100
AcDbLine
10
8.347837
20
262.457911
30
0.0
11
8.493836
21
261.193211
31
0.0
0
LINE
8
turboCore
62
4
5
1b1
100
AcDbEntity
100
AcDbLine
10
8.493836
20
261.193211
30
0.0
11
8.570872
21
258.750956
31
0.0
0
LINE
8
turboCore
62
4
5
1b2
100
AcDbEntity
100
AcDbLine
10
8.570872
20
258.750956
30
0.0
11
8.797813
21
256.335811
31
0.0
0
LINE
8
turboCore
62
4
5
1b3
100
AcDbEntity
100
AcDbLine
10
8.797813
20
256.335811
30
0.0
11
9.168408
21
253.951081
31
0.0
0
LINE
8
turboCore
62
4
5
1b4
100
AcDbEntity
100
AcDbLine
10
9.168408
20
253.951081
30
0.0
11
9.676405
21
251.600074
31
0.0
0
LINE
8
turboCore
62
4
5
1b5
100
AcDbEntity
100
AcDbLine
10
9.676405
20
251.600074
30
0.0
11
10.315552
21
249.286097
31
0.0
0
LINE
8
turboCore
62
4
5
1b6
100
AcDbEntity
100
AcDbLine
10
10.315552
20
249.286097
30
0.0
11
11.079600
21
247.012456
31
0.0
0
LINE
8
turboCore
62
4
5
1b7
100
AcDbEntity
100
AcDbLine
10
11.079600
20
247.012456
30
0.0
11
11.962295
21
244.782457
31
0.0
0
LINE
8
turboCore
62
4
5
1b8
100
AcDbEntity
100
AcDbLine
10
11.962295
20
244.782457
30
0.0
11
12.957388
21
242.599409
31
0.0
0
LINE
8
turboCore
62
4
5
1b9
100
AcDbEntity
100
AcDbLine
10
12.957388
20
242.599409
30
0.0
11
14.058625
21
240.466616
31
0.0
0
LINE
8
turboCore
62
4
5
1ba
100
AcDbEntity
100
AcDbLine
10
14.058625
20
240.466616
30
0.0
11
15.259758
21
238.387386
31
0.0
0
LINE
8
turboCore
62
4
5
1bb
100
AcDbEntity
100
AcDbLine
10
15.259758
20
238.387386
30
0.0
11
16.554533
21
236.365027
31
0.0
0
LINE
8
turboCore
62
4
5
1bc
100
AcDbEntity
100
AcDbLine
10
16.554533
20
236.365027
30
0.0
11
17.936699
21
234.402843
31
0.0
0
LINE
8
turboCore
62
4
5
1bd
100
AcDbEntity
100
AcDbLine
10
17.936699
20
234.402843
30
0.0
11
19.400006
21
232.504142
31
0.0
0
LINE
8
turboCore
62
4
5
1be
100
AcDbEntity
100
AcDbLine
10
19.400006
20
232.504142
30
0.0
11
20.938201
21
230.672232
31
0.0
0
LINE
8
turboCore
62
4
5
1bf
100
AcDbEntity
100
AcDbLine
10
20.938201
20
230.672232
30
0.0
11
22.545034
21
228.910415
31
0.0
0
LINE
8
turboCore
62
4
5
1c0
100
AcDbEntity
100
AcDbLine
10
22.545034
20
228.910415
30
0.0
11
24.214252
21
227.222003
31
0.0
0
LINE
8
turboCore
62
4
5
1c1
100
AcDbEntity
100
AcDbLine
10
24.214252
20
227.222003
30
0.0
11
25.939606
21
225.610303
31
0.0
0
LINE
8
turboCore
62
4
5
1c2
100
AcDbEntity
100
AcDbLine
10
25.939606
20
225.610303
30
0.0
11
27.714843
21
224.078615
31
0.0
0
LINE
8
turboCore
62
4
5
1c3
100
AcDbEntity
100
AcDbLine
10
27.714843
20
224.078615
30
0.0
11
29.533712
21
222.630253
31
0.0
0
LINE
8
turboCore
62
4
5
1c4
100
AcDbEntity
100
AcDbLine
10
29.533712
20
222.630253
30
0.0
11
31.389963
21
221.268520
31
0.0
0
LINE
8
turboCore
62
4
5
1c5
100
AcDbEntity
100
AcDbLine
10
31.389963
20
221.268520
30
0.0
11
33.277342
21
219.996725
31
0.0
0
LINE
8
turboCore
62
4
5
1c6
100
AcDbEntity
100
AcDbLine
10
33.277342
20
219.996725
30
0.0
11
35.189600
21
218.818168
31
0.0
0
LINE
8
turboCore
62
4
5
1c7
100
AcDbEntity
100
AcDbLine
10
35.189600
20
218.818168
30
0.0
11
37.120486
21
217.736167
31
0.0
0
LINE
8
turboCore
62
4
5
1c8
100
AcDbEntity
100
AcDbLine
10
37.120486
20
217.736167
30
0.0
11
39.063744
21
216.754020
31
0.0
0
LINE
8
turboCore
62
4
5
1c9
100
AcDbEntity
100
AcDbLine
10
39.063744
20
216.754020
30
0.0
11
41.013126
21
215.875033
31
0.0
0
LINE
8
turboCore
62
4
5
1ca
100
AcDbEntity
100
AcDbLine
10
41.013126
20
215.875033
30
0.0
11
42.962384
21
215.102518
31
0.0
0
LINE
8
turboCore
62
4
5
1cb
100
AcDbEntity
100
AcDbLine
10
42.962384
20
215.102518
30
0.0
11
44.905261
21
214.439781
31
0.0
0
LINE
8
turboCore
62
4
5
1cc
100
AcDbEntity
100
AcDbLine
10
44.905261
20
214.439781
30
0.0
11
46.835512
21
213.890122
31
0.0
0
LINE
8
turboCore
62
4
5
1cd
100
AcDbEntity
100
AcDbLine
10
46.835512
20
213.890122
30
0.0
11
48.746876
21
213.456857
31
0.0
0
LINE
8
turboCore
62
4
5
1ce
100
AcDbEntity
100
AcDbLine
10
48.746876
20
213.456857
30
0.0
11
51.292529
21
212.888464
31
0.0
0
LINE
8
turboCore
62
4
5
1cf
100
AcDbEntity
100
AcDbLine
10
51.292529
20
212.888464
30
0.0
11
51.292529
21
211.517742
31
0.0
0
LINE
8
turboCore
62
4
5
1d0
100
AcDbEntity
100
AcDbLine
10
51.292529
20
211.517742
30
0.0
11
0.194463
21
211.517742
31
0.0
0
LINE
8
turboCore
62
4
5
1d1
100
AcDbEntity
100
AcDbLine
10
0.194463
20
211.517742
30
0.0
11
0.014421
21
268.214866
31
0.0
0
LINE
8
guideVane
62
4
5
1d2
100
AcDbEntity
100
AcDbLine
10
56.547131
20
235.344937
30
0.0
11
57.011480
21
239.255606
31
0.0
0
LINE
8
guideVane
62
4
5
1d3
100
AcDbEntity
100
AcDbLine
10
57.011480
20
239.255606
30
0.0
11
57.368705
21
243.142489
31
0.0
0
LINE
8
guideVane
62
4
5
1d4
100
AcDbEntity
100
AcDbLine
10
57.368705
20
243.142489
30
0.0
11
57.619623
21
247.002473
31
0.0
0
LINE
8
guideVane
62
4
5
1d5
100
AcDbEntity
100
AcDbLine
10
57.619623
20
247.002473
30
0.0
11
57.765044
21
250.832438
31
0.0
0
LINE
8
guideVane
62
4
5
1d6
100
AcDbEntity
100
AcDbLine
10
57.765044
20
250.832438
30
0.0
11
57.805772
21
254.629267
31
0.0
0
LINE
8
guideVane
62
4
5
1d7
100
AcDbEntity
100
AcDbLine
10
57.805772
20
254.629267
30
0.0
11
57.742616
21
258.389844
31
0.0
0
LINE
8
guideVane
62
4
5
1d8
100
AcDbEntity
100
AcDbLine
10
57.742616
20
258.389844
30
0.0
11
57.576393
21
262.111051
31
0.0
0
LINE
8
guideVane
62
4
5
1d9
100
AcDbEntity
100
AcDbLine
10
57.576393
20
262.111051
30
0.0
11
57.307906
21
265.789770
31
0.0
0
LINE
8
guideVane
62
4
5
1da
100
AcDbEntity
100
AcDbLine
10
57.307906
20
265.789770
30
0.0
11
56.937966
21
269.422883
31
0.0
0
LINE
8
guideVane
62
4
5
1db
100
AcDbEntity
100
AcDbLine
10
56.937966
20
269.422883
30
0.0
11
56.467386
21
273.007275
31
0.0
0
LINE
8
guideVane
62
4
5
1dc
100
AcDbEntity
100
AcDbLine
10
56.467386
20
273.007275
30
0.0
11
55.896973
21
276.539827
31
0.0
0
LINE
8
guideVane
62
4
5
1dd
100
AcDbEntity
100
AcDbLine
10
55.896973
20
276.539827
30
0.0
11
55.227536
21
280.017423
31
0.0
0
LINE
8
guideVane
62
4
5
1de
100
AcDbEntity
100
AcDbLine
10
55.227536
20
280.017423
30
0.0
11
54.459886
21
283.436946
31
0.0
0
LINE
8
guideVane
62
4
5
1df
100
AcDbEntity
100
AcDbLine
10
54.459886
20
283.436946
30
0.0
11
53.594830
21
286.795277
31
0.0
0
LINE
8
guideVane
62
4
5
1e0
100
AcDbEntity
100
AcDbLine
10
53.594830
20
286.795277
30
0.0
11
52.633180
21
290.089301
31
0.0
0
LINE
8
guideVane
62
4
5
1e1
100
AcDbEntity
100
AcDbLine
10
52.633180
20
290.089301
30
0.0
11
51.575747
21
293.315898
31
0.0
0
LINE
8
guideVane
62
4
5
1e2
100
AcDbEntity
100
AcDbLine
10
51.575747
20
293.315898
30
0.0
11
53.484072
21
291.877867
31
0.0
0
LINE
8
guideVane
62
4
5
1e3
100
AcDbEntity
100
AcDbLine
10
53.484072
20
291.877867
30
0.0
11
55.209937
21
290.363944
31
0.0
0
LINE
8
guideVane
62
4
5
1e4
100
AcDbEntity
100
AcDbLine
10
55.209937
20
290.363944
30
0.0
11
56.760282
21
288.779308
31
0.0
0
LINE
8
guideVane
62
4
5
1e5
100
AcDbEntity
100
AcDbLine
10
56.760282
20
288.779308
30
0.0
11
58.142045
21
287.129139
31
0.0
0
LINE
8
guideVane
62
4
5
1e6
100
AcDbEntity
100
AcDbLine
10
58.142045
20
287.129139
30
0.0
11
59.362159
21
285.418615
31
0.0
0
LINE
8
guideVane
62
4
5
1e7
100
AcDbEntity
100
AcDbLine
10
59.362159
20
285.418615
30
0.0
11
60.427560
21
283.652916
31
0.0
0
LINE
8
guideVane
62
4
5
1e8
100
AcDbEntity
100
AcDbLine
10
60.427560
20
283.652916
30
0.0
11
61.345188
21
281.837221
31
0.0
0
LINE
8
guideVane
62
4
5
1e9
100
AcDbEntity
100
AcDbLine
10
61.345188
20
281.837221
30
0.0
11
62.121974
21
279.976709
31
0.0
0
LINE
8
guideVane
62
4
5
1ea
100
AcDbEntity
100
AcDbLine
10
62.121974
20
279.976709
30
0.0
11
62.764856
21
278.076559
31
0.0
0
LINE
8
guideVane
62
4
5
1eb
100
AcDbEntity
100
AcDbLine
10
62.764856
20
278.076559
30
0.0
11
63.280773
21
276.141950
31
0.0
0
LINE
8
guideVane
62
4
5
1ec
100
AcDbEntity
100
AcDbLine
10
63.280773
20
276.141950
30
0.0
11
63.676660
21
274.178061
31
0.0
0
LINE
8
guideVane
62
4
5
1ed
100
AcDbEntity
100
AcDbLine
10
63.676660
20
274.178061
30
0.0
11
63.959449
21
272.190072
31
0.0
0
LINE
8
guideVane
62
4
5
1ee
100
AcDbEntity
100
AcDbLine
10
63.959449
20
272.190072
30
0.0
11
64.136084
21
270.183161
31
0.0
0
LINE
8
guideVane
62
4
5
1ef
100
AcDbEntity
100
AcDbLine
10
64.136084
20
270.183161
30
0.0
11
64.213492
21
268.162508
31
0.0
0
LINE
8
guideVane
62
4
5
1f0
100
AcDbEntity
100
AcDbLine
10
64.213492
20
268.162508
30
0.0
11
64.198619
21
266.133291
31
0.0
0
LINE
8
guideVane
62
4
5
1f1
100
AcDbEntity
100
AcDbLine
10
64.198619
20
266.133291
30
0.0
11
64.098393
21
264.100690
31
0.0
0
LINE
8
guideVane
62
4
5
1f2
100
AcDbEntity
100
AcDbLine
10
64.098393
20
264.100690
30
0.0
11
63.669638
21
260.046048
31
0.0
0
LINE
8
guideVane
62
4
5
1f3
100
AcDbEntity
100
AcDbLine
10
63.669638
20
260.046048
30
0.0
11
62.982715
21
256.040022
31
0.0
0
LINE
8
guideVane
62
4
5
1f4
100
AcDbEntity
100
AcDbLine
10
62.982715
20
256.040022
30
0.0
11
62.093119
21
252.124039
31
0.0
0
LINE
8
guideVane
62
4
5
1f5
100
AcDbEntity
100
AcDbLine
10
62.093119
20
252.124039
30
0.0
11
61.056334
21
248.339532
31
0.0
0
LINE
8
guideVane
62
4
5
1f6
100
AcDbEntity
100
AcDbLine
10
61.056334
20
248.339532
30
0.0
11
59.927854
21
244.727937
31
0.0
0
LINE
8
guideVane
62
4
5
1f7
100
AcDbEntity
100
AcDbLine
10
59.927854
20
244.727937
30
0.0
11
58.763168
21
241.330685
31
0.0
0
LINE
8
guideVane
62
4
5
1f8
100
AcDbEntity
100
AcDbLine
10
58.763168
20
241.330685
30
0.0
11
56.547134
21
235.344937
31
0.0
0
LINE
8
guideVane
62
4
5
1f9
100
AcDbEntity
100
AcDbLine
10
56.547134
20
235.344937
30
0.0
11
56.547134
21
235.344937
31
0.0
0
LINE
8
footStand
62
4
5
1fa
100
AcDbEntity
100
AcDbLine
10
-33.092579
20
-71.359069
30
0.0
11
-33.817202
21
-71.080036
31
0.0
0
LINE
8
footStand
62
4
5
1fb
100
AcDbEntity
100
AcDbLine
10
-33.817202
20
-71.080036
30
0.0
11
-34.480861
21
-70.574717
31
0.0
0
LINE
8
footStand
62
4
5
1fc
100
AcDbEntity
100
AcDbLine
10
-34.480861
20
-70.574717
30
0.0
11
-35.086838
21
-69.854119
31
0.0
0
LINE
8
footStand
62
4
5
1fd
100
AcDbEntity
100
AcDbLine
10
-35.086838
20
-69.854119
30
0.0
11
-35.638415
21
-68.929333
31
0.0
0
LINE
8
footStand
62
4
5
1fe
100
AcDbEntity
100
AcDbLine
10
-35.638415
20
-68.929333
30
0.0
11
-36.138880
21
-67.811310
31
0.0
0
LINE
8
footStand
62
4
5
1ff
100
AcDbEntity
100
AcDbLine
10
-36.138880
20
-67.811310
30
0.0
11
-36.591514
21
-66.511169
31
0.0
0
LINE
8
footStand
62
4
5
200
100
AcDbEntity
100
AcDbLine
10
-36.591514
20
-66.511169
30
0.0
11
-37.366431
21
-63.408530
31
0.0
0
LINE
8
footStand
62
4
5
201
100
AcDbEntity
100
AcDbLine
10
-37.366431
20
-63.408530
30
0.0
11
-37.989431
21
-59.709698
31
0.0
0
LINE
8
footStand
62
4
5
202
100
AcDbEntity
100
AcDbLine
10
-37.989431
20
-59.709698
30
0.0
11
-38.486791
21
-55.502950
31
0.0
0
LINE
8
footStand
62
4
5
203
100
AcDbEntity
100
AcDbLine
10
-38.486791
20
-55.502950
30
0.0
11
-38.884781
21
-50.876537
31
0.0
0
LINE
8
footStand
62
4
5
204
100
AcDbEntity
100
AcDbLine
10
-38.884781
20
-50.876537
30
0.0
11
-39.209672
21
-45.918768
31
0.0
0
LINE
8
footStand
62
4
5
205
100
AcDbEntity
100
AcDbLine
10
-39.209672
20
-45.918768
30
0.0
11
-39.745240
21
-35.362274
31
0.0
0
LINE
8
footStand
62
4
5
206
100
AcDbEntity
100
AcDbLine
10
-39.745240
20
-35.362274
30
0.0
11
-40.303667
21
-24.539644
31
0.0
0
LINE
8
footStand
62
4
5
207
100
AcDbEntity
100
AcDbLine
10
-40.303667
20
-24.539644
30
0.0
11
-40.657131
21
-19.249248
31
0.0
0
LINE
8
footStand
62
4
5
208
100
AcDbEntity
100
AcDbLine
10
-40.657131
20
-19.249248
30
0.0
11
-41.095120
21
-14.157140
31
0.0
0
LINE
8
footStand
62
4
5
209
100
AcDbEntity
100
AcDbLine
10
-41.095120
20
-14.157140
30
0.0
11
-41.643912
21
-9.351658
31
0.0
0
LINE
8
footStand
62
4
5
20a
100
AcDbEntity
100
AcDbLine
10
-41.643912
20
-9.351658
30
0.0
11
-42.329775
21
-4.921023
31
0.0
0
LINE
8
footStand
62
4
5
20b
100
AcDbEntity
100
AcDbLine
10
-42.329775
20
-4.921023
30
0.0
11
-42.764354
21
-2.819878
31
0.0
0
LINE
8
footStand
62
4
5
20c
100
AcDbEntity
100
AcDbLine
10
-42.764354
20
-2.819878
30
0.0
11
-43.299431
21
-0.728668
31
0.0
0
LINE
8
footStand
62
4
5
20d
100
AcDbEntity
100
AcDbLine
10
-43.299431
20
-0.728668
30
0.0
11
-43.925975
21
1.350830
31
0.0
0
LINE
8
footStand
62
4
5
20e
100
AcDbEntity
100
AcDbLine
10
-43.925975
20
1.350830
30
0.0
11
-44.634954
21
3.416866
31
0.0
0
LINE
8
footStand
62
4
5
20f
100
AcDbEntity
100
AcDbLine
10
-44.634954
20
3.416866
30
0.0
11
-46.264110
21
7.501214
31
0.0
0
LINE
8
footStand
62
4
5
210
100
AcDbEntity
100
AcDbLine
10
-46.264110
20
7.501214
30
0.0
11
-48.114656
21
11.510096
31
0.0
0
LINE
8
footStand
62
4
5
211
100
AcDbEntity
100
AcDbLine
10
-48.114656
20
11.510096
30
0.0
11
-50.114358
21
15.429099
31
0.0
0
LINE
8
footStand
62
4
5
212
100
AcDbEntity
100
AcDbLine
10
-50.114358
20
15.429099
30
0.0
11
-52.190980
21
19.243896
31
0.0
0
LINE
8
footStand
62
4
5
213
100
AcDbEntity
100
AcDbLine
10
-52.190980
20
19.243896
30
0.0
11
-56.286025
21
26.503454
31
0.0
0
LINE
8
footStand
62
4
5
214
100
AcDbEntity
100
AcDbLine
10
-56.286025
20
26.503454
30
0.0
11
-58.159975
21
29.919514
31
0.0
0
LINE
8
footStand
62
4
5
215
100
AcDbEntity
100
AcDbLine
10
-58.159975
20
29.919514
30
0.0
11
-59.821891
21
33.173959
31
0.0
0
LINE
8
footStand
62
4
5
216
100
AcDbEntity
100
AcDbLine
10
-59.821891
20
33.173959
30
0.0
11
-61.199542
21
36.252442
31
0.0
0
LINE
8
footStand
62
4
5
217
100
AcDbEntity
100
AcDbLine
10
-61.199542
20
36.252442
30
0.0
11
-62.220681
21
39.140605
31
0.0
0
LINE
8
footStand
62
4
5
218
100
AcDbEntity
100
AcDbLine
10
-62.220681
20
39.140605
30
0.0
11
-62.574988
21
40.508833
31
0.0
0
LINE
8
footStand
62
4
5
219
100
AcDbEntity
100
AcDbLine
10
-62.574988
20
40.508833
30
0.0
11
-62.813080
21
41.824101
31
0.0
0
LINE
8
footStand
62
4
5
21a
100
AcDbEntity
100
AcDbLine
10
-62.813080
20
41.824101
30
0.0
11
-62.925926
21
43.084616
31
0.0
0
LINE
8
footStand
62
4
5
21b
100
AcDbEntity
100
AcDbLine
10
-62.925926
20
43.084616
30
0.0
11
-62.904505
21
44.288579
31
0.0
0
LINE
8
footStand
62
4
5
21c
100
AcDbEntity
100
AcDbLine
10
-62.904505
20
44.288579
30
0.0
11
-62.739772
21
45.434203
31
0.0
0
LINE
8
footStand
62
4
5
21d
100
AcDbEntity
100
AcDbLine
10
-62.739772
20
45.434203
30
0.0
11
-62.422701
21
46.519689
31
0.0
0
LINE
8
footStand
62
4
5
21e
100
AcDbEntity
100
AcDbLine
10
-62.422701
20
46.519689
30
0.0
11
-61.944270
21
47.543244
31
0.0
0
LINE
8
footStand
62
4
5
21f
100
AcDbEntity
100
AcDbLine
10
-61.944270
20
47.543244
30
0.0
11
-61.295444
21
48.503077
31
0.0
0
LINE
8
footStand
62
4
5
220
100
AcDbEntity
100
AcDbLine
10
-61.295444
20
48.503077
30
0.0
11
-60.609088
21
49.192814
31
0.0
0
LINE
8
footStand
62
4
5
221
100
AcDbEntity
100
AcDbLine
10
-60.609088
20
49.192814
30
0.0
11
-59.784028
21
49.720352
31
0.0
0
LINE
8
footStand
62
4
5
222
100
AcDbEntity
100
AcDbLine
10
-59.784028
20
49.720352
30
0.0
11
-58.826135
21
50.094821
31
0.0
0
LINE
8
footStand
62
4
5
223
100
AcDbEntity
100
AcDbLine
10
-58.826135
20
50.094821
30
0.0
11
-57.741278
21
50.325349
31
0.0
0
LINE
8
footStand
62
4
5
224
100
AcDbEntity
100
AcDbLine
10
-57.741278
20
50.325349
30
0.0
11
-56.535326
21
50.421064
31
0.0
0
LINE
8
footStand
62
4
5
225
100
AcDbEntity
100
AcDbLine
10
-56.535326
20
50.421064
30
0.0
11
-55.214150
21
50.391104
31
0.0
0
LINE
8
footStand
62
4
5
226
100
AcDbEntity
100
AcDbLine
10
-55.214150
20
50.391104
30
0.0
11
-53.783622
21
50.244594
31
0.0
0
LINE
8
footStand
62
4
5
227
100
AcDbEntity
100
AcDbLine
10
-53.783622
20
50.244594
30
0.0
11
-52.249612
21
49.990661
31
0.0
0
LINE
8
footStand
62
4
5
228
100
AcDbEntity
100
AcDbLine
10
-52.249612
20
49.990661
30
0.0
11
-48.894625
21
49.197064
31
0.0
0
LINE
8
footStand
62
4
5
229
100
AcDbEntity
100
AcDbLine
10
-48.894625
20
49.197064
30
0.0
11
-45.196150
21
48.083350
31
0.0
0
LINE
8
footStand
62
4
5
22a
100
AcDbEntity
100
AcDbLine
10
-45.196150
20
48.083350
30
0.0
11
-41.201157
21
46.722562
31
0.0
0
LINE
8
footStand
62
4
5
22b
100
AcDbEntity
100
AcDbLine
10
-41.201157
20
46.722562
30
0.0
11
-36.956602
21
45.187739
31
0.0
0
LINE
8
footStand
62
4
5
22c
100
AcDbEntity
100
AcDbLine
10
-36.956602
20
45.187739
30
0.0
11
-27.906671
21
41.888160
31
0.0
0
LINE
8
footStand
62
4
5
22d
100
AcDbEntity
100
AcDbLine
10
-27.906671
20
41.888160
30
0.0
11
-23.195218
21
40.269483
31
0.0
0
LINE
8
footStand
62
4
5
22e
100
AcDbEntity
100
AcDbLine
10
-23.195218
20
40.269483
30
0.0
11
-18.422060
21
38.768939
31
0.0
0
LINE
8
footStand
62
4
5
22f
100
AcDbEntity
100
AcDbLine
10
-18.422060
20
38.768939
30
0.0
11
-13.634157
21
37.459566
31
0.0
0
LINE
8
footStand
62
4
5
230
100
AcDbEntity
100
AcDbLine
10
-13.634157
20
37.459566
30
0.0
11
-8.878474
21
36.414407
31
0.0
0
LINE
8
footStand
62
4
5
231
100
AcDbEntity
100
AcDbLine
10
-8.878474
20
36.414407
30
0.0
11
-6.527391
21
36.013733
31
0.0
0
LINE
8
footStand
62
4
5
232
100
AcDbEntity
100
AcDbLine
10
-6.527391
20
36.013733
30
0.0
11
-4.201974
21
35.706503
31
0.0
0
LINE
8
footStand
62
4
5
233
100
AcDbEntity
100
AcDbLine
10
-4.201974
20
35.706503
30
0.0
11
-1.908093
21
35.501847
31
0.0
0
LINE
8
footStand
62
4
5
234
100
AcDbEntity
100
AcDbLine
10
-1.908093
20
35.501847
30
0.0
11
0.348381
21
35.408894
31
0.0
0
LINE
8
footStand
62
4
5
235
100
AcDbEntity
100
AcDbLine
10
0.348381
20
35.408894
30
0.0
11
2.604855
21
35.501847
31
0.0
0
LINE
8
footStand
62
4
5
236
100
AcDbEntity
100
AcDbLine
10
2.604855
20
35.501847
30
0.0
11
4.898736
21
35.706503
31
0.0
0
LINE
8
footStand
62
4
5
237
100
AcDbEntity
100
AcDbLine
10
4.898736
20
35.706503
30
0.0
11
7.224153
21
36.013733
31
0.0
0
LINE
8
footStand
62
4
5
238
100
AcDbEntity
100
AcDbLine
10
7.224153
20
36.013733
30
0.0
11
9.575236
21
36.414407
31
0.0
0
LINE
8
footStand
62
4
5
239
100
AcDbEntity
100
AcDbLine
10
9.575236
20
36.414407
30
0.0
11
14.330919
21
37.459566
31
0.0
0
LINE
8
footStand
62
4
5
23a
100
AcDbEntity
100
AcDbLine
10
14.330919
20
37.459566
30
0.0
11
19.118822
21
38.768939
31
0.0
0
LINE
8
footStand
62
4
5
23b
100
AcDbEntity
100
AcDbLine
10
19.118822
20
38.768939
30
0.0
11
23.891981
21
40.269483
31
0.0
0
LINE
8
footStand
62
4
5
23c
100
AcDbEntity
100
AcDbLine
10
23.891981
20
40.269483
30
0.0
11
28.603434
21
41.888160
31
0.0
0
LINE
8
footStand
62
4
5
23d
100
AcDbEntity
100
AcDbLine
10
28.603434
20
41.888160
30
0.0
11
37.653366
21
45.187739
31
0.0
0
LINE
8
footStand
62
4
5
23e
100
AcDbEntity
100
AcDbLine
10
37.653366
20
45.187739
30
0.0
11
41.897921
21
46.722562
31
0.0
0
LINE
8
footStand
62
4
5
23f
100
AcDbEntity
100
AcDbLine
10
41.897921
20
46.722562
30
0.0
11
45.892915
21
48.083350
31
0.0
0
LINE
8
footStand
62
4
5
240
100
AcDbEntity
100
AcDbLine
10
45.892915
20
48.083350
30
0.0
11
49.591386
21
49.197064
31
0.0
0
LINE
8
footStand
62
4
5
241
100
AcDbEntity
100
AcDbLine
10
49.591386
20
49.197064
30
0.0
11
52.946373
21
49.990661
31
0.0
0
LINE
8
footStand
62
4
5
242
100
AcDbEntity
100
AcDbLine
10
52.946373
20
49.990661
30
0.0
11
54.480384
21
50.244594
31
0.0
0
LINE
8
footStand
62
4
5
243
100
AcDbEntity
100
AcDbLine
10
54.480384
20
50.244594
30
0.0
11
55.910912
21
50.391104
31
0.0
0
LINE
8
footStand
62
4
5
244
100
AcDbEntity
100
AcDbLine
10
55.910912
20
50.391104
30
0.0
11
57.232087
21
50.421064
31
0.0
0
LINE
8
footStand
62
4
5
245
100
AcDbEntity
100
AcDbLine
10
57.232087
20
50.421064
30
0.0
11
58.438040
21
50.325349
31
0.0
0
LINE
8
footStand
62
4
5
246
100
AcDbEntity
100
AcDbLine
10
58.438040
20
50.325349
30
0.0
11
59.522899
21
50.094821
31
0.0
0
LINE
8
footStand
62
4
5
247
100
AcDbEntity
100
AcDbLine
10
59.522899
20
50.094821
30
0.0
11
60.480792
21
49.720352
31
0.0
0
LINE
8
footStand
62
4
5
248
100
AcDbEntity
100
AcDbLine
10
60.480792
20
49.720352
30
0.0
11
61.305852
21
49.192814
31
0.0
0
LINE
8
footStand
62
4
5
249
100
AcDbEntity
100
AcDbLine
10
61.305852
20
49.192814
30
0.0
11
61.992208
21
48.503077
31
0.0
0
LINE
8
footStand
62
4
5
24a
100
AcDbEntity
100
AcDbLine
10
61.992208
20
48.503077
30
0.0
11
62.641034
21
47.543244
31
0.0
0
LINE
8
footStand
62
4
5
24b
100
AcDbEntity
100
AcDbLine
10
62.641034
20
47.543244
30
0.0
11
63.119466
21
46.519689
31
0.0
0
LINE
8
footStand
62
4
5
24c
100
AcDbEntity
100
AcDbLine
10
63.119466
20
46.519689
30
0.0
11
63.436537
21
45.434203
31
0.0
0
LINE
8
footStand
62
4
5
24d
100
AcDbEntity
100
AcDbLine
10
63.436537
20
45.434203
30
0.0
11
63.601270
21
44.288579
31
0.0
0
LINE
8
footStand
62
4
5
24e
100
AcDbEntity
100
AcDbLine
10
63.601270
20
44.288579
30
0.0
11
63.622690
21
43.084616
31
0.0
0
LINE
8
footStand
62
4
5
24f
100
AcDbEntity
100
AcDbLine
10
63.622690
20
43.084616
30
0.0
11
63.509844
21
41.824101
31
0.0
0
LINE
8
footStand
62
4
5
250
100
AcDbEntity
100
AcDbLine
10
63.509844
20
41.824101
30
0.0
11
63.271753
21
40.508833
31
0.0
0
LINE
8
footStand
62
4
5
251
100
AcDbEntity
100
AcDbLine
10
63.271753
20
40.508833
30
0.0
11
62.917445
21
39.140605
31
0.0
0
LINE
8
footStand
62
4
5
252
100
AcDbEntity
100
AcDbLine
10
62.917445
20
39.140605
30
0.0
11
61.896303
21
36.252442
31
0.0
0
LINE
8
footStand
62
4
5
253
100
AcDbEntity
100
AcDbLine
10
61.896303
20
36.252442
30
0.0
11
60.518655
21
33.173959
31
0.0
0
LINE
8
footStand
62
4
5
254
100
AcDbEntity
100
AcDbLine
10
60.518655
20
33.173959
30
0.0
11
58.856736
21
29.919514
31
0.0
0
LINE
8
footStand
62
4
5
255
100
AcDbEntity
100
AcDbLine
10
58.856736
20
29.919514
30
0.0
11
56.982786
21
26.503454
31
0.0
0
LINE
8
footStand
62
4
5
256
100
AcDbEntity
100
AcDbLine
10
56.982786
20
26.503454
30
0.0
11
52.887742
21
19.243896
31
0.0
0
LINE
8
footStand
62
4
5
257
100
AcDbEntity
100
AcDbLine
10
52.887742
20
19.243896
30
0.0
11
50.811122
21
15.429099
31
0.0
0
LINE
8
footStand
62
4
5
258
100
AcDbEntity
100
AcDbLine
10
50.811122
20
15.429099
30
0.0
11
48.811417
21
11.510096
31
0.0
0
LINE
8
footStand
62
4
5
259
100
AcDbEntity
100
AcDbLine
10
48.811417
20
11.510096
30
0.0
11
46.960872
21
7.501214
31
0.0
0
LINE
8
footStand
62
4
5
25a
100
AcDbEntity
100
AcDbLine
10
46.960872
20
7.501214
30
0.0
11
45.331716
21
3.416866
31
0.0
0
LINE
8
footStand
62
4
5
25b
100
AcDbEntity
100
AcDbLine
10
45.331716
20
3.416866
30
0.0
11
44.622737
21
1.350830
31
0.0
0
LINE
8
footStand
62
4
5
25c
100
AcDbEntity
100
AcDbLine
10
44.622737
20
1.350830
30
0.0
11
43.996192
21
-0.728668
31
0.0
0
LINE
8
footStand
62
4
5
25d
100
AcDbEntity
100
AcDbLine
10
43.996192
20
-0.728668
30
0.0
11
43.461116
21
-2.819878
31
0.0
0
LINE
8
footStand
62
4
5
25e
100
AcDbEntity
100
AcDbLine
10
43.461116
20
-2.819878
30
0.0
11
43.026536
21
-4.921023
31
0.0
0
LINE
8
footStand
62
4
5
25f
100
AcDbEntity
100
AcDbLine
10
43.026536
20
-4.921023
30
0.0
11
42.340674
21
-9.351658
31
0.0
0
LINE
8
footStand
62
4
5
260
100
AcDbEntity
100
AcDbLine
10
42.340674
20
-9.351658
30
0.0
11
41.791882
21
-14.157140
31
0.0
0
LINE
8
footStand
62
4
5
261
100
AcDbEntity
100
AcDbLine
10
41.791882
20
-14.157140
30
0.0
11
41.353892
21
-19.249248
31
0.0
0
LINE
8
footStand
62
4
5
262
100
AcDbEntity
100
AcDbLine
10
41.353892
20
-19.249248
30
0.0
11
41.000429
21
-24.539644
31
0.0
0
LINE
8
footStand
62
4
5
263
100
AcDbEntity
100
AcDbLine
10
41.000429
20
-24.539644
30
0.0
11
40.442001
21
-35.362274
31
0.0
0
LINE
8
footStand
62
4
5
264
100
AcDbEntity
100
AcDbLine
10
40.442001
20
-35.362274
30
0.0
11
39.906434
21
-45.918768
31
0.0
0
LINE
8
footStand
62
4
5
265
100
AcDbEntity
100
AcDbLine
10
39.906434
20
-45.918768
30
0.0
11
39.581542
21
-50.876537
31
0.0
0
LINE
8
footStand
62
4
5
266
100
AcDbEntity
100
AcDbLine
10
39.581542
20
-50.876537
30
0.0
11
39.183556
21
-55.502950
31
0.0
0
LINE
8
footStand
62
4
5
267
100
AcDbEntity
100
AcDbLine
10
39.183556
20
-55.502950
30
0.0
11
38.686195
21
-59.709698
31
0.0
0
LINE
8
footStand
62
4
5
268
100
AcDbEntity
100
AcDbLine
10
38.686195
20
-59.709698
30
0.0
11
38.063193
21
-63.408530
31
0.0
0
LINE
8
footStand
62
4
5
269
100
AcDbEntity
100
AcDbLine
10
38.063193
20
-63.408530
30
0.0
11
37.288278
21
-66.511169
31
0.0
0
LINE
8
footStand
62
4
5
26a
100
AcDbEntity
100
AcDbLine
10
37.288278
20
-66.511169
30
0.0
11
36.835644
21
-67.811310
31
0.0
0
LINE
8
footStand
62
4
5
26b
100
AcDbEntity
100
AcDbLine
10
36.835644
20
-67.811310
30
0.0
11
36.335180
21
-68.929333
31
0.0
0
LINE
8
footStand
62
4
5
26c
100
AcDbEntity
100
AcDbLine
10
36.335180
20
-68.929333
30
0.0
11
35.783602
21
-69.854119
31
0.0
0
LINE
8
footStand
62
4
5
26d
100
AcDbEntity
100
AcDbLine
10
35.783602
20
-69.854119
30
0.0
11
35.177626
21
-70.574717
31
0.0
0
LINE
8
footStand
62
4
5
26e
100
AcDbEntity
100
AcDbLine
10
35.177626
20
-70.574717
30
0.0
11
34.513966
21
-71.080036
31
0.0
0
LINE
8
footStand
62
4
5
26f
100
AcDbEntity
100
AcDbLine
10
34.513966
20
-71.080036
30
0.0
11
33.789343
21
-71.359069
31
0.0
0
LINE
8
footStand
62
4
5
270
100
AcDbEntity
100
AcDbLine
10
33.789343
20
-71.359069
30
0.0
11
33.010286
21
-71.403039
31
0.0
0
LINE
8
footStand
62
4
5
271
100
AcDbEntity
100
AcDbLine
10
33.010286
20
-71.403039
30
0.0
11
32.229586
21
-71.211185
31
0.0
0
LINE
8
footStand
62
4
5
272
100
AcDbEntity
100
AcDbLine
10
32.229586
20
-71.211185
30
0.0
11
31.445694
21
-70.798886
31
0.0
0
LINE
8
footStand
62
4
5
273
100
AcDbEntity
100
AcDbLine
10
31.445694
20
-70.798886
30
0.0
11
30.657058
21
-70.181469
31
0.0
0
LINE
8
footStand
62
4
5
274
100
AcDbEntity
100
AcDbLine
10
30.657058
20
-70.181469
30
0.0
11
29.862122
21
-69.374370
31
0.0
0
LINE
8
footStand
62
4
5
275
100
AcDbEntity
100
AcDbLine
10
29.862122
20
-69.374370
30
0.0
11
29.059338
21
-68.392914
31
0.0
0
LINE
8
footStand
62
4
5
276
100
AcDbEntity
100
AcDbLine
10
29.059338
20
-68.392914
30
0.0
11
27.424020
21
-65.968625
31
0.0
0
LINE
8
footStand
62
4
5
277
100
AcDbEntity
100
AcDbLine
10
27.424020
20
-65.968625
30
0.0
11
25.738684
21
-63.031594
31
0.0
0
LINE
8
footStand
62
4
5
278
100
AcDbEntity
100
AcDbLine
10
25.738684
20
-63.031594
30
0.0
11
23.990916
21
-59.704900
31
0.0
0
LINE
8
footStand
62
4
5
279
100
AcDbEntity
100
AcDbLine
10
23.990916
20
-59.704900
30
0.0
11
20.258431
21
-52.374658
31
0.0
0
LINE
8
footStand
62
4
5
27a
100
AcDbEntity
100
AcDbLine
10
20.258431
20
-52.374658
30
0.0
11
18.248885
21
-48.617236
31
0.0
0
LINE
8
footStand
62
4
5
27b
100
AcDbEntity
100
AcDbLine
10
18.248885
20
-48.617236
30
0.0
11
16.127249
21
-44.962345
31
0.0
0
LINE
8
footStand
62
4
5
27c
100
AcDbEntity
100
AcDbLine
10
16.127249
20
-44.962345
30
0.0
11
13.881111
21
-41.533006
31
0.0
0
LINE
8
footStand
62
4
5
27d
100
AcDbEntity
100
AcDbLine
10
13.881111
20
-41.533006
30
0.0
11
12.707474
21
-39.941386
31
0.0
0
LINE
8
footStand
62
4
5
27e
100
AcDbEntity
100
AcDbLine
10
12.707474
20
-39.941386
30
0.0
11
11.498056
21
-38.452297
31
0.0
0
LINE
8
footStand
62
4
5
27f
100
AcDbEntity
100
AcDbLine
10
11.498056
20
-38.452297
30
0.0
11
10.251305
21
-37.081120
31
0.0
0
LINE
8
footStand
62
4
5
280
100
AcDbEntity
100
AcDbLine
10
10.251305
20
-37.081120
30
0.0
11
8.965669
21
-35.843237
31
0.0
0
LINE
8
footStand
62
4
5
281
100
AcDbEntity
100
AcDbLine
10
8.965669
20
-35.843237
30
0.0
11
7.639596
21
-34.754028
31
0.0
0
LINE
8
footStand
62
4
5
282
100
AcDbEntity
100
AcDbLine
10
7.639596
20
-34.754028
30
0.0
11
6.271535
21
-33.828876
31
0.0
0
LINE
8
footStand
62
4
5
283
100
AcDbEntity
100
AcDbLine
10
6.271535
20
-33.828876
30
0.0
11
4.859934
21
-33.083188
31
0.0
0
LINE
8
footStand
62
4
5
284
100
AcDbEntity
100
AcDbLine
10
4.859934
20
-33.083188
30
0.0
11
3.403241
21
-32.532290
31
0.0
0
LINE
8
footStand
62
4
5
285
100
AcDbEntity
100
AcDbLine
10
3.403241
20
-32.532290
30
0.0
11
1.899905
21
-32.191620
31
0.0
0
LINE
8
footStand
62
4
5
286
100
AcDbEntity
100
AcDbLine
10
1.899905
20
-32.191620
30
0.0
11
0.348372
21
-32.076502
31
0.0
0
LINE
8
footStand
62
4
5
287
100
AcDbEntity
100
AcDbLine
10
0.348372
20
-32.076502
30
0.0
11
-1.203160
21
-32.191620
31
0.0
0
LINE
8
footStand
62
4
5
288
100
AcDbEntity
100
AcDbLine
10
-1.203160
20
-32.191620
30
0.0
11
-2.706496
21
-32.532290
31
0.0
0
LINE
8
footStand
62
4
5
289
100
AcDbEntity
100
AcDbLine
10
-2.706496
20
-32.532290
30
0.0
11
-4.163189
21
-33.083188
31
0.0
0
LINE
8
footStand
62
4
5
28a
100
AcDbEntity
100
AcDbLine
10
-4.163189
20
-33.083188
30
0.0
11
-5.574790
21
-33.828876
31
0.0
0
LINE
8
footStand
62
4
5
28b
100
AcDbEntity
100
AcDbLine
10
-5.574790
20
-33.828876
30
0.0
11
-6.942850
21
-34.754028
31
0.0
0
LINE
8
footStand
62
4
5
28c
100
AcDbEntity
100
AcDbLine
10
-6.942850
20
-34.754028
30
0.0
11
-8.268923
21
-35.843237
31
0.0
0
LINE
8
footStand
62
4
5
28d
100
AcDbEntity
100
AcDbLine
10
-8.268923
20
-35.843237
30
0.0
11
-9.554559
21
-37.081120
31
0.0
0
LINE
8
footStand
62
4
5
28e
100
AcDbEntity
100
AcDbLine
10
-9.554559
20
-37.081120
30
0.0
11
-10.801310
21
-38.452297
31
0.0
0
LINE
8
footStand
62
4
5
28f
100
AcDbEntity
100
AcDbLine
10
-10.801310
20
-38.452297
30
0.0
11
-12.010728
21
-39.941386
31
0.0
0
LINE
8
footStand
62
4
5
290
100
AcDbEntity
100
AcDbLine
10
-12.010728
20
-39.941386
30
0.0
11
-13.184365
21
-41.533006
31
0.0
0
LINE
8
footStand
62
4
5
291
100
AcDbEntity
100
AcDbLine
10
-13.184365
20
-41.533006
30
0.0
11
-15.430503
21
-44.962345
31
0.0
0
LINE
8
footStand
62
4
5
292
100
AcDbEntity
100
AcDbLine
10
-15.430503
20
-44.962345
30
0.0
11
-17.552138
21
-48.617236
31
0.0
0
LINE
8
footStand
62
4
5
293
100
AcDbEntity
100
AcDbLine
10
-17.552138
20
-48.617236
30
0.0
11
-19.561684
21
-52.374658
31
0.0
0
LINE
8
footStand
62
4
5
294
100
AcDbEntity
100
AcDbLine
10
-19.561684
20
-52.374658
30
0.0
11
-23.294169
21
-59.704900
31
0.0
0
LINE
8
footStand
62
4
5
295
100
AcDbEntity
100
AcDbLine
10
-23.294169
20
-59.704900
30
0.0
11
-25.041936
21
-63.031594
31
0.0
0
LINE
8
footStand
62
4
5
296
100
AcDbEntity
100
AcDbLine
10
-25.041936
20
-63.031594
30
0.0
11
-26.727272
21
-65.968625
31
0.0
0
LINE
8
footStand
62
4
5
297
100
AcDbEntity
100
AcDbLine
10
-26.727272
20
-65.968625
30
0.0
11
-28.362591
21
-68.392914
31
0.0
0
LINE
8
footStand
62
4
5
298
100
AcDbEntity
100
AcDbLine
10
-28.362591
20
-68.392914
30
0.0
11
-29.165375
21
-69.374370
31
0.0
0
LINE
8
footStand
62
4
5
299
100
AcDbEntity
100
AcDbLine
10
-29.165375
20
-69.374370
30
0.0
11
-29.960310
21
-70.181469
31
0.0
0
LINE
8
footStand
62
4
5
29a
100
AcDbEntity
100
AcDbLine
10
-29.960310
20
-70.181469
30
0.0
11
-30.748946
21
-70.798886
31
0.0
0
LINE
8
footStand
62
4
5
29b
100
AcDbEntity
100
AcDbLine
10
-30.748946
20
-70.798886
30
0.0
11
-31.532838
21
-71.211185
31
0.0
0
LINE
8
footStand
62
4
5
29c
100
AcDbEntity
100
AcDbLine
10
-31.532838
20
-71.211185
30
0.0
11
-32.313539
21
-71.403039
31
0.0
0
LINE
8
footStand
62
4
5
29d
100
AcDbEntity
100
AcDbLine
10
-32.313539
20
-71.403039
30
0.0
11
-33.092596
21
-71.359069
31
0.0
0
LINE
8
footStand
62
4
5
29e
100
AcDbEntity
100
AcDbLine
10
-33.092596
20
-71.359069
30
0.0
11
-33.092596
21
-71.359069
31
0.0
0
LINE
8
stand
62
4
5
29f
100
AcDbEntity
100
AcDbLine
10
106.353142
20
248.650363
30
0.0
11
106.221456
21
247.344074
31
0.0
0
LINE
8
stand
62
4
5
2a0
100
AcDbEntity
100
AcDbLine
10
106.221456
20
247.344074
30
0.0
11
105.843777
21
246.127392
31
0.0
0
LINE
8
stand
62
4
5
2a1
100
AcDbEntity
100
AcDbLine
10
105.843777
20
246.127392
30
0.0
11
105.246169
21
245.026382
31
0.0
0
LINE
8
stand
62
4
5
2a2
100
AcDbEntity
100
AcDbLine
10
105.246169
20
245.026382
30
0.0
11
104.454695
21
244.067108
31
0.0
0
LINE
8
stand
62
4
5
2a3
100
AcDbEntity
100
AcDbLine
10
104.454695
20
244.067108
30
0.0
11
103.495421
21
243.275634
31
0.0
0
LINE
8
stand
62
4
5
2a4
100
AcDbEntity
100
AcDbLine
10
103.495421
20
243.275634
30
0.0
11
102.394411
21
242.678026
31
0.0
0
LINE
8
stand
62
4
5
2a5
100
AcDbEntity
100
AcDbLine
10
102.394411
20
242.678026
30
0.0
11
101.177729
21
242.300347
31
0.0
0
LINE
8
stand
62
4
5
2a6
100
AcDbEntity
100
AcDbLine
10
101.177729
20
242.300347
30
0.0
11
99.871440
21
242.168662
31
0.0
0
LINE
8
stand
62
4
5
2a7
100
AcDbEntity
100
AcDbLine
10
99.871440
20
242.168662
30
0.0
11
98.565150
21
242.300347
31
0.0
0
LINE
8
stand
62
4
5
2a8
100
AcDbEntity
100
AcDbLine
10
98.565150
20
242.300347
30
0.0
11
97.348468
21
242.678026
31
0.0
0
LINE
8
stand
62
4
5
2a9
100
AcDbEntity
100
AcDbLine
10
97.348468
20
242.678026
30
0.0
11
96.247457
21
243.275634
31
0.0
0
LINE
8
stand
62
4
5
2aa
100
AcDbEntity
100
AcDbLine
10
96.247457
20
243.275634
30
0.0
11
95.288183
21
244.067108
31
0.0
0
LINE
8
stand
62
4
5
2ab
100
AcDbEntity
100
AcDbLine
10
95.288183
20
244.067108
30
0.0
11
94.496709
21
245.026382
31
0.0
0
LINE
8
stand
62
4
5
2ac
100
AcDbEntity
100
AcDbLine
10
94.496709
20
245.026382
30
0.0
11
93.899100
21
246.127392
31
0.0
0
LINE
8
stand
62
4
5
2ad
100
AcDbEntity
100
AcDbLine
10
93.899100
20
246.127392
30
0.0
11
93.521420
21
247.344074
31
0.0
0
LINE
8
stand
62
4
5
2ae
100
AcDbEntity
100
AcDbLine
10
93.521420
20
247.344074
30
0.0
11
93.389735
21
248.650363
31
0.0
0
LINE
8
stand
62
4
5
2af
100
AcDbEntity
100
AcDbLine
10
93.389735
20
248.650363
30
0.0
11
93.521420
21
249.956653
31
0.0
0
LINE
8
stand
62
4
5
2b0
100
AcDbEntity
100
AcDbLine
10
93.521420
20
249.956653
30
0.0
11
93.899100
21
251.173335
31
0.0
0
LINE
8
stand
62
4
5
2b1
100
AcDbEntity
100
AcDbLine
10
93.899100
20
251.173335
30
0.0
11
94.496709
21
252.274345
31
0.0
0
LINE
8
stand
62
4
5
2b2
100
AcDbEntity
100
AcDbLine
10
94.496709
20
252.274345
30
0.0
11
95.288183
21
253.233619
31
0.0
0
LINE
8
stand
62
4
5
2b3
100
AcDbEntity
100
AcDbLine
10
95.288183
20
253.233619
30
0.0
11
96.247457
21
254.025093
31
0.0
0
LINE
8
stand
62
4
5
2b4
100
AcDbEntity
100
AcDbLine
10
96.247457
20
254.025093
30
0.0
11
97.348468
21
254.622701
31
0.0
0
LINE
8
stand
62
4
5
2b5
100
AcDbEntity
100
AcDbLine
10
97.348468
20
254.622701
30
0.0
11
98.565150
21
255.000380
31
0.0
0
LINE
8
stand
62
4
5
2b6
100
AcDbEntity
100
AcDbLine
10
98.565150
20
255.000380
30
0.0
11
99.871440
21
255.132065
31
0.0
0
LINE
8
stand
62
4
5
2b7
100
AcDbEntity
100
AcDbLine
10
99.871440
20
255.132065
30
0.0
11
101.177729
21
255.000380
31
0.0
0
LINE
8
stand
62
4
5
2b8
100
AcDbEntity
100
AcDbLine
10
101.177729
20
255.000380
30
0.0
11
102.394411
21
254.622701
31
0.0
0
LINE
8
stand
62
4
5
2b9
100
AcDbEntity
100
AcDbLine
10
102.394411
20
254.622701
30
0.0
11
103.495421
21
254.025093
31
0.0
0
LINE
8
stand
62
4
5
2ba
100
AcDbEntity
100
AcDbLine
10
103.495421
20
254.025093
30
0.0
11
104.454695
21
253.233619
31
0.0
0
LINE
8
stand
62
4
5
2bb
100
AcDbEntity
100
AcDbLine
10
104.454695
20
253.233619
30
0.0
11
105.246169
21
252.274345
31
0.0
0
LINE
8
stand
62
4
5
2bc
100
AcDbEntity
100
AcDbLine
10
105.246169
20
252.274345
30
0.0
11
105.843777
21
251.173335
31
0.0
0
LINE
8
stand
62
4
5
2bd
100
AcDbEntity
100
AcDbLine
10
105.843777
20
251.173335
30
0.0
11
106.221456
21
249.956653
31
0.0
0
LINE
8
stand
62
4
5
2be
100
AcDbEntity
100
AcDbLine
10
106.221456
20
249.956653
30
0.0
11
106.353142
21
248.650363
31
0.0
0
LINE
8
stand
62
4
5
2bf
100
AcDbEntity
100
AcDbLine
10
106.353142
20
248.650363
30
0.0
11
106.353142
21
248.650363
31
0.0
0
LINE
8
stand
62
4
5
2c0
100
AcDbEntity
100
AcDbLine
10
108.727867
20
229.790604
30
0.0
11
108.573539
21
228.259705
31
0.0
0
LINE
8
stand
62
4
5
2c1
100
AcDbEntity
100
AcDbLine
10
108.573539
20
228.259705
30
0.0
11
108.130920
21
226.833821
31
0.0
0
LINE
8
stand
62
4
5
2c2
100
AcDbEntity
100
AcDbLine
10
108.130920
20
226.833821
30
0.0
11
107.430556
21
225.543498
31
0.0
0
LINE
8
stand
62
4
5
2c3
100
AcDbEntity
100
AcDbLine
10
107.430556
20
225.543498
30
0.0
11
106.502994
21
224.419282
31
0.0
0
LINE
8
stand
62
4
5
2c4
100
AcDbEntity
100
AcDbLine
10
106.502994
20
224.419282
30
0.0
11
105.378778
21
223.491719
31
0.0
0
LINE
8
stand
62
4
5
2c5
100
AcDbEntity
100
AcDbLine
10
105.378778
20
223.491719
30
0.0
11
104.088456
21
222.791356
31
0.0
0
LINE
8
stand
62
4
5
2c6
100
AcDbEntity
100
AcDbLine
10
104.088456
20
222.791356
30
0.0
11
102.662573
21
222.348737
31
0.0
0
LINE
8
stand
62
4
5
2c7
100
AcDbEntity
100
AcDbLine
10
102.662573
20
222.348737
30
0.0
11
101.131675
21
222.194409
31
0.0
0
LINE
8
stand
62
4
5
2c8
100
AcDbEntity
100
AcDbLine
10
101.131675
20
222.194409
30
0.0
11
99.600777
21
222.348737
31
0.0
0
LINE
8
stand
62
4
5
2c9
100
AcDbEntity
100
AcDbLine
10
99.600777
20
222.348737
30
0.0
11
98.174893
21
222.791356
31
0.0
0
LINE
8
stand
62
4
5
2ca
100
AcDbEntity
100
AcDbLine
10
98.174893
20
222.791356
30
0.0
11
96.884571
21
223.491719
31
0.0
0
LINE
8
stand
62
4
5
2cb
100
AcDbEntity
100
AcDbLine
10
96.884571
20
223.491719
30
0.0
11
95.760354
21
224.419282
31
0.0
0
LINE
8
stand
62
4
5
2cc
100
AcDbEntity
100
AcDbLine
10
95.760354
20
224.419282
30
0.0
11
94.832791
21
225.543498
31
0.0
0
LINE
8
stand
62
4
5
2cd
100
AcDbEntity
100
AcDbLine
10
94.832791
20
225.543498
30
0.0
11
94.132427
21
226.833821
31
0.0
0
LINE
8
stand
62
4
5
2ce
100
AcDbEntity
100
AcDbLine
10
94.132427
20
226.833821
30
0.0
11
93.689808
21
228.259705
31
0.0
0
LINE
8
stand
62
4
5
2cf
100
AcDbEntity
100
AcDbLine
10
93.689808
20
228.259705
30
0.0
11
93.535480
21
229.790604
31
0.0
0
LINE
8
stand
62
4
5
2d0
100
AcDbEntity
100
AcDbLine
10
93.535480
20
229.790604
30
0.0
11
93.689808
21
231.321502
31
0.0
0
LINE
8
stand
62
4
5
2d1
100
AcDbEntity
100
AcDbLine
10
93.689808
20
231.321502
30
0.0
11
94.132427
21
232.747385
31
0.0
0
LINE
8
stand
62
4
5
2d2
100
AcDbEntity
100
AcDbLine
10
94.132427
20
232.747385
30
0.0
11
94.832791
21
234.037707
31
0.0
0
LINE
8
stand
62
4
5
2d3
100
AcDbEntity
100
AcDbLine
10
94.832791
20
234.037707
30
0.0
11
95.760354
21
235.161923
31
0.0
0
LINE
8
stand
62
4
5
2d4
100
AcDbEntity
100
AcDbLine
10
95.760354
20
235.161923
30
0.0
11
96.884571
21
236.089485
31
0.0
0
LINE
8
stand
62
4
5
2d5
100
AcDbEntity
100
AcDbLine
10
96.884571
20
236.089485
30
0.0
11
98.174893
21
236.789849
31
0.0
0
LINE
8
stand
62
4
5
2d6
100
AcDbEntity
100
AcDbLine
10
98.174893
20
236.789849
30
0.0
11
99.600777
21
237.232468
31
0.0
0
LINE
8
stand
62
4
5
2d7
100
AcDbEntity
100
AcDbLine
10
99.600777
20
237.232468
30
0.0
11
101.131675
21
237.386795
31
0.0
0
LINE
8
stand
62
4
5
2d8
100
AcDbEntity
100
AcDbLine
10
101.131675
20
237.386795
30
0.0
11
102.662573
21
237.232468
31
0.0
0
LINE
8
stand
62
4
5
2d9
100
AcDbEntity
100
AcDbLine
10
102.662573
20
237.232468
30
0.0
11
104.088456
21
236.789849
31
0.0
0
LINE
8
stand
62
4
5
2da
100
AcDbEntity
100
AcDbLine
10
104.088456
20
236.789849
30
0.0
11
105.378778
21
236.089485
31
0.0
0
LINE
8
stand
62
4
5
2db
100
AcDbEntity
100
AcDbLine
10
105.378778
20
236.089485
30
0.0
11
106.502994
21
235.161923
31
0.0
0
LINE
8
stand
62
4
5
2dc
100
AcDbEntity
100
AcDbLine
10
106.502994
20
235.161923
30
0.0
11
107.430556
21
234.037707
31
0.0
0
LINE
8
stand
62
4
5
2dd
100
AcDbEntity
100
AcDbLine
10
107.430556
20
234.037707
30
0.0
11
108.130920
21
232.747385
31
0.0
0
LINE
8
stand
62
4
5
2de
100
AcDbEntity
100
AcDbLine
10
108.130920
20
232.747385
30
0.0
11
108.573539
21
231.321502
31
0.0
0
LINE
8
stand
62
4
5
2df
100
AcDbEntity
100
AcDbLine
10
108.573539
20
231.321502
30
0.0
11
108.727867
21
229.790604
31
0.0
0
LINE
8
stand
62
4
5
2e0
100
AcDbEntity
100
AcDbLine
10
108.727867
20
229.790604
30
0.0
11
108.727867
21
229.790604
31
0.0
0
LINE
8
stand
62
4
5
2e1
100
AcDbEntity
100
AcDbLine
10
111.298776
20
213.017194
30
0.0
11
111.214641
21
212.182595
31
0.0
0
LINE
8
stand
62
4
5
2e2
100
AcDbEntity
100
AcDbLine
10
111.214641
20
212.182595
30
0.0
11
110.973338
21
211.405245
31
0.0
0
LINE
8
stand
62
4
5
2e3
100
AcDbEntity
100
AcDbLine
10
110.973338
20
211.405245
30
0.0
11
110.591520
21
210.701800
31
0.0
0
LINE
8
stand
62
4
5
2e4
100
AcDbEntity
100
AcDbLine
10
110.591520
20
210.701800
30
0.0
11
110.085840
21
210.088911
31
0.0
0
LINE
8
stand
62
4
5
2e5
100
AcDbEntity
100
AcDbLine
10
110.085840
20
210.088911
30
0.0
11
109.472951
21
209.583231
31
0.0
0
LINE
8
stand
62
4
5
2e6
100
AcDbEntity
100
AcDbLine
10
109.472951
20
209.583231
30
0.0
11
108.769505
21
209.201413
31
0.0
0
LINE
8
stand
62
4
5
2e7
100
AcDbEntity
100
AcDbLine
10
108.769505
20
209.201413
30
0.0
11
107.992155
21
208.960110
31
0.0
0
LINE
8
stand
62
4
5
2e8
100
AcDbEntity
100
AcDbLine
10
107.992155
20
208.960110
30
0.0
11
107.157554
21
208.875976
31
0.0
0
LINE
8
stand
62
4
5
2e9
100
AcDbEntity
100
AcDbLine
10
107.157554
20
208.875976
30
0.0
11
106.322954
21
208.960110
31
0.0
0
LINE
8
stand
62
4
5
2ea
100
AcDbEntity
100
AcDbLine
10
106.322954
20
208.960110
30
0.0
11
105.545604
21
209.201413
31
0.0
0
LINE
8
stand
62
4
5
2eb
100
AcDbEntity
100
AcDbLine
10
105.545604
20
209.201413
30
0.0
11
104.842158
21
209.583231
31
0.0
0
LINE
8
stand
62
4
5
2ec
100
AcDbEntity
100
AcDbLine
10
104.842158
20
209.583231
30
0.0
11
104.229269
21
210.088911
31
0.0
0
LINE
8
stand
62
4
5
2ed
100
AcDbEntity
100
AcDbLine
10
104.229269
20
210.088911
30
0.0
11
103.723588
21
210.701800
31
0.0
0
LINE
8
stand
62
4
5
2ee
100
AcDbEntity
100
AcDbLine
10
103.723588
20
210.701800
30
0.0
11
103.341770
21
211.405245
31
0.0
0
LINE
8
stand
62
4
5
2ef
100
AcDbEntity
100
AcDbLine
10
103.341770
20
211.405245
30
0.0
11
103.100467
21
212.182595
31
0.0
0
LINE
8
stand
62
4
5
2f0
100
AcDbEntity
100
AcDbLine
10
103.100467
20
212.182595
30
0.0
11
103.016332
21
213.017194
31
0.0
0
LINE
8
stand
62
4
5
2f1
100
AcDbEntity
100
AcDbLine
10
103.016332
20
213.017194
30
0.0
11
103.100467
21
213.851795
31
0.0
0
LINE
8
stand
62
4
5
2f2
100
AcDbEntity
100
AcDbLine
10
103.100467
20
213.851795
30
0.0
11
103.341770
21
214.629146
31
0.0
0
LINE
8
stand
62
4
5
2f3
100
AcDbEntity
100
AcDbLine
10
103.341770
20
214.629146
30
0.0
11
103.723588
21
215.332592
31
0.0
0
LINE
8
stand
62
4
5
2f4
100
AcDbEntity
100
AcDbLine
10
103.723588
20
215.332592
30
0.0
11
104.229269
21
215.945482
31
0.0
0
LINE
8
stand
62
4
5
2f5
100
AcDbEntity
100
AcDbLine
10
104.229269
20
215.945482
30
0.0
11
104.842158
21
216.451163
31
0.0
0
LINE
8
stand
62
4
5
2f6
100
AcDbEntity
100
AcDbLine
10
104.842158
20
216.451163
30
0.0
11
105.545604
21
216.832981
31
0.0
0
LINE
8
stand
62
4
5
2f7
100
AcDbEntity
100
AcDbLine
10
105.545604
20
216.832981
30
0.0
11
106.322954
21
217.074284
31
0.0
0
LINE
8
stand
62
4
5
2f8
100
AcDbEntity
100
AcDbLine
10
106.322954
20
217.074284
30
0.0
11
107.157554
21
217.158419
31
0.0
0
LINE
8
stand
62
4
5
2f9
100
AcDbEntity
100
AcDbLine
10
107.157554
20
217.158419
30
0.0
11
107.992155
21
217.074284
31
0.0
0
LINE
8
stand
62
4
5
2fa
100
AcDbEntity
100
AcDbLine
10
107.992155
20
217.074284
30
0.0
11
108.769505
21
216.832981
31
0.0
0
LINE
8
stand
62
4
5
2fb
100
AcDbEntity
100
AcDbLine
10
108.769505
20
216.832981
30
0.0
11
109.472951
21
216.451163
31
0.0
0
LINE
8
stand
62
4
5
2fc
100
AcDbEntity
100
AcDbLine
10
109.472951
20
216.451163
30
0.0
11
110.085840
21
215.945482
31
0.0
0
LINE
8
stand
62
4
5
2fd
100
AcDbEntity
100
AcDbLine
10
110.085840
20
215.945482
30
0.0
11
110.591520
21
215.332592
31
0.0
0
LINE
8
stand
62
4
5
2fe
100
AcDbEntity
100
AcDbLine
10
110.591520
20
215.332592
30
0.0
11
110.973338
21
214.629146
31
0.0
0
LINE
8
stand
62
4
5
2ff
100
AcDbEntity
100
AcDbLine
10
110.973338
20
214.629146
30
0.0
11
111.214641
21
213.851795
31
0.0
0
LINE
8
stand
62
4
5
300
100
AcDbEntity
100
AcDbLine
10
111.214641
20
213.851795
30
0.0
11
111.298776
21
213.017194
31
0.0
0
LINE
8
stand
62
4
5
301
100
AcDbEntity
100
AcDbLine
10
111.298776
20
213.017194
30
0.0
11
111.298776
21
213.017194
31
0.0
0
LINE
8
stand
62
4
5
302
100
AcDbEntity
100
AcDbLine
10
99.317336
20
125.708327
30
0.0
11
99.219821
21
124.740998
31
0.0
0
LINE
8
stand
62
4
5
303
100
AcDbEntity
100
AcDbLine
10
99.219821
20
124.740998
30
0.0
11
98.940144
21
123.840025
31
0.0
0
LINE
8
stand
62
4
5
304
100
AcDbEntity
100
AcDbLine
10
98.940144
20
123.840025
30
0.0
11
98.497605
21
123.024708
31
0.0
0
LINE
8
stand
62
4
5
305
100
AcDbEntity
100
AcDbLine
10
98.497605
20
123.024708
30
0.0
11
97.911506
21
122.314349
31
0.0
0
LINE
8
stand
62
4
5
306
100
AcDbEntity
100
AcDbLine
10
97.911506
20
122.314349
30
0.0
11
97.201148
21
121.728250
31
0.0
0
LINE
8
stand
62
4
5
307
100
AcDbEntity
100
AcDbLine
10
97.201148
20
121.728250
30
0.0
11
96.385831
21
121.285710
31
0.0
0
LINE
8
stand
62
4
5
308
100
AcDbEntity
100
AcDbLine
10
96.385831
20
121.285710
30
0.0
11
95.484858
21
121.006032
31
0.0
0
LINE
8
stand
62
4
5
309
100
AcDbEntity
100
AcDbLine
10
95.484858
20
121.006032
30
0.0
11
94.517529
21
120.908517
31
0.0
0
LINE
8
stand
62
4
5
30a
100
AcDbEntity
100
AcDbLine
10
94.517529
20
120.908517
30
0.0
11
93.550201
21
121.006032
31
0.0
0
LINE
8
stand
62
4
5
30b
100
AcDbEntity
100
AcDbLine
10
93.550201
20
121.006032
30
0.0
11
92.649229
21
121.285710
31
0.0
0
LINE
8
stand
62
4
5
30c
100
AcDbEntity
100
AcDbLine
10
92.649229
20
121.285710
30
0.0
11
91.833913
21
121.728250
31
0.0
0
LINE
8
stand
62
4
5
30d
100
AcDbEntity
100
AcDbLine
10
91.833913
20
121.728250
30
0.0
11
91.123554
21
122.314349
31
0.0
0
LINE
8
stand
62
4
5
30e
100
AcDbEntity
100
AcDbLine
10
91.123554
20
122.314349
30
0.0
11
90.537454
21
123.024708
31
0.0
0
LINE
8
stand
62
4
5
30f
100
AcDbEntity
100
AcDbLine
10
90.537454
20
123.024708
30
0.0
11
90.094915
21
123.840025
31
0.0
0
LINE
8
stand
62
4
5
310
100
AcDbEntity
100
AcDbLine
10
90.094915
20
123.840025
30
0.0
11
89.815237
21
124.740998
31
0.0
0
LINE
8
stand
62
4
5
311
100
AcDbEntity
100
AcDbLine
10
89.815237
20
124.740998
30
0.0
11
89.717722
21
125.708327
31
0.0
0
LINE
8
stand
62
4
5
312
100
AcDbEntity
100
AcDbLine
10
89.717722
20
125.708327
30
0.0
11
89.815237
21
126.675654
31
0.0
0
LINE
8
stand
62
4
5
313
100
AcDbEntity
100
AcDbLine
10
89.815237
20
126.675654
30
0.0
11
90.094915
21
127.576627
31
0.0
0
LINE
8
stand
62
4
5
314
100
AcDbEntity
100
AcDbLine
10
90.094915
20
127.576627
30
0.0
11
90.537454
21
128.391944
31
0.0
0
LINE
8
stand
62
4
5
315
100
AcDbEntity
100
AcDbLine
10
90.537454
20
128.391944
30
0.0
11
91.123554
21
129.102303
31
0.0
0
LINE
8
stand
62
4
5
316
100
AcDbEntity
100
AcDbLine
10
91.123554
20
129.102303
30
0.0
11
91.833913
21
129.688403
31
0.0
0
LINE
8
stand
62
4
5
317
100
AcDbEntity
100
AcDbLine
10
91.833913
20
129.688403
30
0.0
11
92.649229
21
130.130943
31
0.0
0
LINE
8
stand
62
4
5
318
100
AcDbEntity
100
AcDbLine
10
92.649229
20
130.130943
30
0.0
11
93.550201
21
130.410621
31
0.0
0
LINE
8
stand
62
4
5
319
100
AcDbEntity
100
AcDbLine
10
93.550201
20
130.410621
30
0.0
11
94.517529
21
130.508136
31
0.0
0
LINE
8
stand
62
4
5
31a
100
AcDbEntity
100
AcDbLine
10
94.517529
20
130.508136
30
0.0
11
95.484858
21
130.410621
31
0.0
0
LINE
8
stand
62
4
5
31b
100
AcDbEntity
100
AcDbLine
10
95.484858
20
130.410621
30
0.0
11
96.385831
21
130.130943
31
0.0
0
LINE
8
stand
62
4
5
31c
100
AcDbEntity
100
AcDbLine
10
96.385831
20
130.130943
30
0.0
11
97.201148
21
129.688403
31
0.0
0
LINE
8
stand
62
4
5
31d
100
AcDbEntity
100
AcDbLine
10
97.201148
20
129.688403
30
0.0
11
97.911506
21
129.102303
31
0.0
0
LINE
8
stand
62
4
5
31e
100
AcDbEntity
100
AcDbLine
10
97.911506
20
129.102303
30
0.0
11
98.497605
21
128.391944
31
0.0
0
LINE
8
stand
62
4
5
31f
100
AcDbEntity
100
AcDbLine
10
98.497605
20
128.391944
30
0.0
11
98.940144
21
127.576627
31
0.0
0
LINE
8
stand
62
4
5
320
100
AcDbEntity
100
AcDbLine
10
98.940144
20
127.576627
30
0.0
11
99.219821
21
126.675654
31
0.0
0
LINE
8
stand
62
4
5
321
100
AcDbEntity
100
AcDbLine
10
99.219821
20
126.675654
30
0.0
11
99.317336
21
125.708327
31
0.0
0
LINE
8
stand
62
4
5
322
100
AcDbEntity
100
AcDbLine
10
99.317336
20
125.708327
30
0.0
11
99.317336
21
125.708327
31
0.0
0
LINE
8
stand
62
4
5
323
100
AcDbEntity
100
AcDbLine
10
113.396621
20
197.430343
30
0.0
11
113.290563
21
196.378274
31
0.0
0
LINE
8
stand
62
4
5
324
100
AcDbEntity
100
AcDbLine
10
113.290563
20
196.378274
30
0.0
11
112.986385
21
195.398374
31
0.0
0
LINE
8
stand
62
4
5
325
100
AcDbEntity
100
AcDbLine
10
112.986385
20
195.398374
30
0.0
11
112.505079
21
194.511634
31
0.0
0
LINE
8
stand
62
4
5
326
100
AcDbEntity
100
AcDbLine
10
112.505079
20
194.511634
30
0.0
11
111.867637
21
193.739046
31
0.0
0
LINE
8
stand
62
4
5
327
100
AcDbEntity
100
AcDbLine
10
111.867637
20
193.739046
30
0.0
11
111.095050
21
193.101604
31
0.0
0
LINE
8
stand
62
4
5
328
100
AcDbEntity
100
AcDbLine
10
111.095050
20
193.101604
30
0.0
11
110.208310
21
192.620297
31
0.0
0
LINE
8
stand
62
4
5
329
100
AcDbEntity
100
AcDbLine
10
110.208310
20
192.620297
30
0.0
11
109.228411
21
192.316119
31
0.0
0
LINE
8
stand
62
4
5
32a
100
AcDbEntity
100
AcDbLine
10
109.228411
20
192.316119
30
0.0
11
108.176342
21
192.210062
31
0.0
0
LINE
8
stand
62
4
5
32b
100
AcDbEntity
100
AcDbLine
10
108.176342
20
192.210062
30
0.0
11
107.124274
21
192.316119
31
0.0
0
LINE
8
stand
62
4
5
32c
100
AcDbEntity
100
AcDbLine
10
107.124274
20
192.316119
30
0.0
11
106.144374
21
192.620297
31
0.0
0
LINE
8
stand
62
4
5
32d
100
AcDbEntity
100
AcDbLine
10
106.144374
20
192.620297
30
0.0
11
105.257634
21
193.101604
31
0.0
0
LINE
8
stand
62
4
5
32e
100
AcDbEntity
100
AcDbLine
10
105.257634
20
193.101604
30
0.0
11
104.485046
21
193.739046
31
0.0
0
LINE
8
stand
62
4
5
32f
100
AcDbEntity
100
AcDbLine
10
104.485046
20
193.739046
30
0.0
11
103.847603
21
194.511634
31
0.0
0
LINE
8
stand
62
4
5
330
100
AcDbEntity
100
AcDbLine
10
103.847603
20
194.511634
30
0.0
11
103.366297
21
195.398374
31
0.0
0
LINE
8
stand
62
4
5
331
100
AcDbEntity
100
AcDbLine
10
103.366297
20
195.398374
30
0.0
11
103.062118
21
196.378274
31
0.0
0
LINE
8
stand
62
4
5
332
100
AcDbEntity
100
AcDbLine
10
103.062118
20
196.378274
30
0.0
11
102.956061
21
197.430343
31
0.0
0
LINE
8
stand
62
4
5
333
100
AcDbEntity
100
AcDbLine
10
102.956061
20
197.430343
30
0.0
11
103.062118
21
198.482412
31
0.0
0
LINE
8
stand
62
4
5
334
100
AcDbEntity
100
AcDbLine
10
103.062118
20
198.482412
30
0.0
11
103.366297
21
199.462312
31
0.0
0
LINE
8
stand
62
4
5
335
100
AcDbEntity
100
AcDbLine
10
103.366297
20
199.462312
30
0.0
11
103.847603
21
200.349052
31
0.0
0
LINE
8
stand
62
4
5
336
100
AcDbEntity
100
AcDbLine
10
103.847603
20
200.349052
30
0.0
11
104.485046
21
201.121639
31
0.0
0
LINE
8
stand
62
4
5
337
100
AcDbEntity
100
AcDbLine
10
104.485046
20
201.121639
30
0.0
11
105.257634
21
201.759082
31
0.0
0
LINE
8
stand
62
4
5
338
100
AcDbEntity
100
AcDbLine
10
105.257634
20
201.759082
30
0.0
11
106.144374
21
202.240389
31
0.0
0
LINE
8
stand
62
4
5
339
100
AcDbEntity
100
AcDbLine
10
106.144374
20
202.240389
30
0.0
11
107.124274
21
202.544567
31
0.0
0
LINE
8
stand
62
4
5
33a
100
AcDbEntity
100
AcDbLine
10
107.124274
20
202.544567
30
0.0
11
108.176342
21
202.650625
31
0.0
0
LINE
8
stand
62
4
5
33b
100
AcDbEntity
100
AcDbLine
10
108.176342
20
202.650625
30
0.0
11
109.228411
21
202.544567
31
0.0
0
LINE
8
stand
62
4
5
33c
100
AcDbEntity
100
AcDbLine
10
109.228411
20
202.544567
30
0.0
11
110.208310
21
202.240389
31
0.0
0
LINE
8
stand
62
4
5
33d
100
AcDbEntity
100
AcDbLine
10
110.208310
20
202.240389
30
0.0
11
111.095050
21
201.759082
31
0.0
0
LINE
8
stand
62
4
5
33e
100
AcDbEntity
100
AcDbLine
10
111.095050
20
201.759082
30
0.0
11
111.867637
21
201.121639
31
0.0
0
LINE
8
stand
62
4
5
33f
100
AcDbEntity
100
AcDbLine
10
111.867637
20
201.121639
30
0.0
11
112.505079
21
200.349052
31
0.0
0
LINE
8
stand
62
4
5
340
100
AcDbEntity
100
AcDbLine
10
112.505079
20
200.349052
30
0.0
11
112.986385
21
199.462312
31
0.0
0
LINE
8
stand
62
4
5
341
100
AcDbEntity
100
AcDbLine
10
112.986385
20
199.462312
30
0.0
11
113.290563
21
198.482412
31
0.0
0
LINE
8
stand
62
4
5
342
100
AcDbEntity
100
AcDbLine
10
113.290563
20
198.482412
30
0.0
11
113.396621
21
197.430343
31
0.0
0
LINE
8
stand
62
4
5
343
100
AcDbEntity
100
AcDbLine
10
113.396621
20
197.430343
30
0.0
11
113.396621
21
197.430343
31
0.0
0
LINE
8
stand
62
4
5
344
100
AcDbEntity
100
AcDbLine
10
115.806976
20
180.843545
30
0.0
11
115.675291
21
179.537256
31
0.0
0
LINE
8
stand
62
4
5
345
100
AcDbEntity
100
AcDbLine
10
115.675291
20
179.537256
30
0.0
11
115.297612
21
178.320574
31
0.0
0
LINE
8
stand
62
4
5
346
100
AcDbEntity
100
AcDbLine
10
115.297612
20
178.320574
30
0.0
11
114.700004
21
177.219563
31
0.0
0
LINE
8
stand
62
4
5
347
100
AcDbEntity
100
AcDbLine
10
114.700004
20
177.219563
30
0.0
11
113.908530
21
176.260289
31
0.0
0
LINE
8
stand
62
4
5
348
100
AcDbEntity
100
AcDbLine
10
113.908530
20
176.260289
30
0.0
11
112.949256
21
175.468816
31
0.0
0
LINE
8
stand
62
4
5
349
100
AcDbEntity
100
AcDbLine
10
112.949256
20
175.468816
30
0.0
11
111.848246
21
174.871207
31
0.0
0
LINE
8
stand
62
4
5
34a
100
AcDbEntity
100
AcDbLine
10
111.848246
20
174.871207
30
0.0
11
110.631564
21
174.493528
31
0.0
0
LINE
8
stand
62
4
5
34b
100
AcDbEntity
100
AcDbLine
10
110.631564
20
174.493528
30
0.0
11
109.325275
21
174.361843
31
0.0
0
LINE
8
stand
62
4
5
34c
100
AcDbEntity
100
AcDbLine
10
109.325275
20
174.361843
30
0.0
11
108.018986
21
174.493528
31
0.0
0
LINE
8
stand
62
4
5
34d
100
AcDbEntity
100
AcDbLine
10
108.018986
20
174.493528
30
0.0
11
106.802304
21
174.871207
31
0.0
0
LINE
8
stand
62
4
5
34e
100
AcDbEntity
100
AcDbLine
10
106.802304
20
174.871207
30
0.0
11
105.701294
21
175.468816
31
0.0
0
LINE
8
stand
62
4
5
34f
100
AcDbEntity
100
AcDbLine
10
105.701294
20
175.468816
30
0.0
11
104.742020
21
176.260289
31
0.0
0
LINE
8
stand
62
4
5
350
100
AcDbEntity
100
AcDbLine
10
104.742020
20
176.260289
30
0.0
11
103.950546
21
177.219563
31
0.0
0
LINE
8
stand
62
4
5
351
100
AcDbEntity
100
AcDbLine
10
103.950546
20
177.219563
30
0.0
11
103.352937
21
178.320574
31
0.0
0
LINE
8
stand
62
4
5
352
100
AcDbEntity
100
AcDbLine
10
103.352937
20
178.320574
30
0.0
11
102.975258
21
179.537256
31
0.0
0
LINE
8
stand
62
4
5
353
100
AcDbEntity
100
AcDbLine
10
102.975258
20
179.537256
30
0.0
11
102.843573
21
180.843545
31
0.0
0
LINE
8
stand
62
4
5
354
100
AcDbEntity
100
AcDbLine
10
102.843573
20
180.843545
30
0.0
11
102.975258
21
182.149834
31
0.0
0
LINE
8
stand
62
4
5
355
100
AcDbEntity
100
AcDbLine
10
102.975258
20
182.149834
30
0.0
11
103.352937
21
183.366517
31
0.0
0
LINE
8
stand
62
4
5
356
100
AcDbEntity
100
AcDbLine
10
103.352937
20
183.366517
30
0.0
11
103.950546
21
184.467528
31
0.0
0
LINE
8
stand
62
4
5
357
100
AcDbEntity
100
AcDbLine
10
103.950546
20
184.467528
30
0.0
11
104.742020
21
185.426802
31
0.0
0
LINE
8
stand
62
4
5
358
100
AcDbEntity
100
AcDbLine
10
104.742020
20
185.426802
30
0.0
11
105.701294
21
186.218276
31
0.0
0
LINE
8
stand
62
4
5
359
100
AcDbEntity
100
AcDbLine
10
105.701294
20
186.218276
30
0.0
11
106.802304
21
186.815885
31
0.0
0
LINE
8
stand
62
4
5
35a
100
AcDbEntity
100
AcDbLine
10
106.802304
20
186.815885
30
0.0
11
108.018986
21
187.193564
31
0.0
0
LINE
8
stand
62
4
5
35b
100
AcDbEntity
100
AcDbLine
10
108.018986
20
187.193564
30
0.0
11
109.325275
21
187.325250
31
0.0
0
LINE
8
stand
62
4
5
35c
100
AcDbEntity
100
AcDbLine
10
109.325275
20
187.325250
30
0.0
11
110.631564
21
187.193564
31
0.0
0
LINE
8
stand
62
4
5
35d
100
AcDbEntity
100
AcDbLine
10
110.631564
20
187.193564
30
0.0
11
111.848246
21
186.815885
31
0.0
0
LINE
8
stand
62
4
5
35e
100
AcDbEntity
100
AcDbLine
10
111.848246
20
186.815885
30
0.0
11
112.949256
21
186.218276
31
0.0
0
LINE
8
stand
62
4
5
35f
100
AcDbEntity
100
AcDbLine
10
112.949256
20
186.218276
30
0.0
11
113.908530
21
185.426802
31
0.0
0
LINE
8
stand
62
4
5
360
100
AcDbEntity
100
AcDbLine
10
113.908530
20
185.426802
30
0.0
11
114.700004
21
184.467528
31
0.0
0
LINE
8
stand
62
4
5
361
100
AcDbEntity
100
AcDbLine
10
114.700004
20
184.467528
30
0.0
11
115.297612
21
183.366517
31
0.0
0
LINE
8
stand
62
4
5
362
100
AcDbEntity
100
AcDbLine
10
115.297612
20
183.366517
30
0.0
11
115.675291
21
182.149834
31
0.0
0
LINE
8
stand
62
4
5
363
100
AcDbEntity
100
AcDbLine
10
115.675291
20
182.149834
30
0.0
11
115.806976
21
180.843545
31
0.0
0
LINE
8
stand
62
4
5
364
100
AcDbEntity
100
AcDbLine
10
115.806976
20
180.843545
30
0.0
11
115.806976
21
180.843545
31
0.0
0
LINE
8
stand
62
4
5
365
100
AcDbEntity
100
AcDbLine
10
118.181701
20
160.679806
30
0.0
11
118.027374
21
159.148908
31
0.0
0
LINE
8
stand
62
4
5
366
100
AcDbEntity
100
AcDbLine
10
118.027374
20
159.148908
30
0.0
11
117.584755
21
157.723026
31
0.0
0
LINE
8
stand
62
4
5
367
100
AcDbEntity
100
AcDbLine
10
117.584755
20
157.723026
30
0.0
11
116.884391
21
156.432705
31
0.0
0
LINE
8
stand
62
4
5
368
100
AcDbEntity
100
AcDbLine
10
116.884391
20
156.432705
30
0.0
11
115.956829
21
155.308491
31
0.0
0
LINE
8
stand
62
4
5
369
100
AcDbEntity
100
AcDbLine
10
115.956829
20
155.308491
30
0.0
11
114.832613
21
154.380930
31
0.0
0
LINE
8
stand
62
4
5
36a
100
AcDbEntity
100
AcDbLine
10
114.832613
20
154.380930
30
0.0
11
113.542291
21
153.680568
31
0.0
0
LINE
8
stand
62
4
5
36b
100
AcDbEntity
100
AcDbLine
10
113.542291
20
153.680568
30
0.0
11
112.116407
21
153.237950
31
0.0
0
LINE
8
stand
62
4
5
36c
100
AcDbEntity
100
AcDbLine
10
112.116407
20
153.237950
30
0.0
11
110.585510
21
153.083623
31
0.0
0
LINE
8
stand
62
4
5
36d
100
AcDbEntity
100
AcDbLine
10
110.585510
20
153.083623
30
0.0
11
109.054612
21
153.237950
31
0.0
0
LINE
8
stand
62
4
5
36e
100
AcDbEntity
100
AcDbLine
10
109.054612
20
153.237950
30
0.0
11
107.628728
21
153.680568
31
0.0
0
LINE
8
stand
62
4
5
36f
100
AcDbEntity
100
AcDbLine
10
107.628728
20
153.680568
30
0.0
11
106.338405
21
154.380930
31
0.0
0
LINE
8
stand
62
4
5
370
100
AcDbEntity
100
AcDbLine
10
106.338405
20
154.380930
30
0.0
11
105.214189
21
155.308491
31
0.0
0
LINE
8
stand
62
4
5
371
100
AcDbEntity
100
AcDbLine
10
105.214189
20
155.308491
30
0.0
11
104.286626
21
156.432705
31
0.0
0
LINE
8
stand
62
4
5
372
100
AcDbEntity
100
AcDbLine
10
104.286626
20
156.432705
30
0.0
11
103.586262
21
157.723026
31
0.0
0
LINE
8
stand
62
4
5
373
100
AcDbEntity
100
AcDbLine
10
103.586262
20
157.723026
30
0.0
11
103.143643
21
159.148908
31
0.0
0
LINE
8
stand
62
4
5
374
100
AcDbEntity
100
AcDbLine
10
103.143643
20
159.148908
30
0.0
11
102.989315
21
160.679806
31
0.0
0
LINE
8
stand
62
4
5
375
100
AcDbEntity
100
AcDbLine
10
102.989315
20
160.679806
30
0.0
11
103.143643
21
162.210704
31
0.0
0
LINE
8
stand
62
4
5
376
100
AcDbEntity
100
AcDbLine
10
103.143643
20
162.210704
30
0.0
11
103.586262
21
163.636589
31
0.0
0
LINE
8
stand
62
4
5
377
100
AcDbEntity
100
AcDbLine
10
103.586262
20
163.636589
30
0.0
11
104.286626
21
164.926913
31
0.0
0
LINE
8
stand
62
4
5
378
100
AcDbEntity
100
AcDbLine
10
104.286626
20
164.926913
30
0.0
11
105.214189
21
166.051130
31
0.0
0
LINE
8
stand
62
4
5
379
100
AcDbEntity
100
AcDbLine
10
105.214189
20
166.051130
30
0.0
11
106.338405
21
166.978695
31
0.0
0
LINE
8
stand
62
4
5
37a
100
AcDbEntity
100
AcDbLine
10
106.338405
20
166.978695
30
0.0
11
107.628728
21
167.679061
31
0.0
0
LINE
8
stand
62
4
5
37b
100
AcDbEntity
100
AcDbLine
10
107.628728
20
167.679061
30
0.0
11
109.054612
21
168.121681
31
0.0
0
LINE
8
stand
62
4
5
37c
100
AcDbEntity
100
AcDbLine
10
109.054612
20
168.121681
30
0.0
11
110.585510
21
168.276009
31
0.0
0
LINE
8
stand
62
4
5
37d
100
AcDbEntity
100
AcDbLine
10
110.585510
20
168.276009
30
0.0
11
112.116407
21
168.121681
31
0.0
0
LINE
8
stand
62
4
5
37e
100
AcDbEntity
100
AcDbLine
10
112.116407
20
168.121681
30
0.0
11
113.542291
21
167.679061
31
0.0
0
LINE
8
stand
62
4
5
37f
100
AcDbEntity
100
AcDbLine
10
113.542291
20
167.679061
30
0.0
11
114.832613
21
166.978695
31
0.0
0
LINE
8
stand
62
4
5
380
100
AcDbEntity
100
AcDbLine
10
114.832613
20
166.978695
30
0.0
11
115.956829
21
166.051130
31
0.0
0
LINE
8
stand
62
4
5
381
100
AcDbEntity
100
AcDbLine
10
115.956829
20
166.051130
30
0.0
11
116.884391
21
164.926913
31
0.0
0
LINE
8
stand
62
4
5
382
100
AcDbEntity
100
AcDbLine
10
116.884391
20
164.926913
30
0.0
11
117.584755
21
163.636589
31
0.0
0
LINE
8
stand
62
4
5
383
100
AcDbEntity
100
AcDbLine
10
117.584755
20
163.636589
30
0.0
11
118.027374
21
162.210704
31
0.0
0
LINE
8
stand
62
4
5
384
100
AcDbEntity
100
AcDbLine
10
118.027374
20
162.210704
30
0.0
11
118.181701
21
160.679806
31
0.0
0
LINE
8
stand
62
4
5
385
100
AcDbEntity
100
AcDbLine
10
118.181701
20
160.679806
30
0.0
11
118.181701
21
160.679806
31
0.0
0
LINE
8
stand
62
4
5
386
100
AcDbEntity
100
AcDbLine
10
121.620235
20
137.754155
30
0.0
11
121.571017
21
136.779456
31
0.0
0
LINE
8
stand
62
4
5
387
100
AcDbEntity
100
AcDbLine
10
121.571017
20
136.779456
30
0.0
11
121.426557
21
135.832914
31
0.0
0
LINE
8
stand
62
4
5
388
100
AcDbEntity
100
AcDbLine
10
121.426557
20
135.832914
30
0.0
11
121.191648
21
134.919318
31
0.0
0
LINE
8
stand
62
4
5
389
100
AcDbEntity
100
AcDbLine
10
121.191648
20
134.919318
30
0.0
11
120.871081
21
134.043463
31
0.0
0
LINE
8
stand
62
4
5
38a
100
AcDbEntity
100
AcDbLine
10
120.871081
20
134.043463
30
0.0
11
120.469647
21
133.210138
31
0.0
0
LINE
8
stand
62
4
5
38b
100
AcDbEntity
100
AcDbLine
10
120.469647
20
133.210138
30
0.0
11
119.992140
21
132.424137
31
0.0
0
LINE
8
stand
62
4
5
38c
100
AcDbEntity
100
AcDbLine
10
119.992140
20
132.424137
30
0.0
11
119.443350
21
131.690251
31
0.0
0
LINE
8
stand
62
4
5
38d
100
AcDbEntity
100
AcDbLine
10
119.443350
20
131.690251
30
0.0
11
118.828069
21
131.013272
31
0.0
0
LINE
8
stand
62
4
5
38e
100
AcDbEntity
100
AcDbLine
10
118.828069
20
131.013272
30
0.0
11
118.151090
21
130.397991
31
0.0
0
LINE
8
stand
62
4
5
38f
100
AcDbEntity
100
AcDbLine
10
118.151090
20
130.397991
30
0.0
11
117.417204
21
129.849201
31
0.0
0
LINE
8
stand
62
4
5
390
100
AcDbEntity
100
AcDbLine
10
117.417204
20
129.849201
30
0.0
11
116.631203
21
129.371694
31
0.0
0
LINE
8
stand
62
4
5
391
100
AcDbEntity
100
AcDbLine
10
116.631203
20
129.371694
30
0.0
11
115.797879
21
128.970261
31
0.0
0
LINE
8
stand
62
4
5
392
100
AcDbEntity
100
AcDbLine
10
115.797879
20
128.970261
30
0.0
11
114.922023
21
128.649693
31
0.0
0
LINE
8
stand
62
4
5
393
100
AcDbEntity
100
AcDbLine
10
114.922023
20
128.649693
30
0.0
11
114.008428
21
128.414784
31
0.0
0
LINE
8
stand
62
4
5
394
100
AcDbEntity
100
AcDbLine
10
114.008428
20
128.414784
30
0.0
11
113.061885
21
128.270324
31
0.0
0
LINE
8
stand
62
4
5
395
100
AcDbEntity
100
AcDbLine
10
113.061885
20
128.270324
30
0.0
11
112.087186
21
128.221106
31
0.0
0
LINE
8
stand
62
4
5
396
100
AcDbEntity
100
AcDbLine
10
112.087186
20
128.221106
30
0.0
11
111.112488
21
128.270324
31
0.0
0
LINE
8
stand
62
4
5
397
100
AcDbEntity
100
AcDbLine
10
111.112488
20
128.270324
30
0.0
11
110.165945
21
128.414784
31
0.0
0
LINE
8
stand
62
4
5
398
100
AcDbEntity
100
AcDbLine
10
110.165945
20
128.414784
30
0.0
11
109.252350
21
128.649693
31
0.0
0
LINE
8
stand
62
4
5
399
100
AcDbEntity
100
AcDbLine
10
109.252350
20
128.649693
30
0.0
11
108.376494
21
128.970261
31
0.0
0
LINE
8
stand
62
4
5
39a
100
AcDbEntity
100
AcDbLine
10
108.376494
20
128.970261
30
0.0
11
107.543170
21
129.371694
31
0.0
0
LINE
8
stand
62
4
5
39b
100
AcDbEntity
100
AcDbLine
10
107.543170
20
129.371694
30
0.0
11
106.757169
21
129.849201
31
0.0
0
LINE
8
stand
62
4
5
39c
100
AcDbEntity
100
AcDbLine
10
106.757169
20
129.849201
30
0.0
11
106.023283
21
130.397991
31
0.0
0
LINE
8
stand
62
4
5
39d
100
AcDbEntity
100
AcDbLine
10
106.023283
20
130.397991
30
0.0
11
105.346304
21
131.013272
31
0.0
0
LINE
8
stand
62
4
5
39e
100
AcDbEntity
100
AcDbLine
10
105.346304
20
131.013272
30
0.0
11
104.731023
21
131.690251
31
0.0
0
LINE
8
stand
62
4
5
39f
100
AcDbEntity
100
AcDbLine
10
104.731023
20
131.690251
30
0.0
11
104.182233
21
132.424137
31
0.0
0
LINE
8
stand
62
4
5
3a0
100
AcDbEntity
100
AcDbLine
10
104.182233
20
132.424137
30
0.0
11
103.704725
21
133.210138
31
0.0
0
LINE
8
stand
62
4
5
3a1
100
AcDbEntity
100
AcDbLine
10
103.704725
20
133.210138
30
0.0
11
103.303292
21
134.043463
31
0.0
0
LINE
8
stand
62
4
5
3a2
100
AcDbEntity
100
AcDbLine
10
103.303292
20
134.043463
30
0.0
11
102.982724
21
134.919318
31
0.0
0
LINE
8
stand
62
4
5
3a3
100
AcDbEntity
100
AcDbLine
10
102.982724
20
134.919318
30
0.0
11
102.747815
21
135.832914
31
0.0
0
LINE
8
stand
62
4
5
3a4
100
AcDbEntity
100
AcDbLine
10
102.747815
20
135.832914
30
0.0
11
102.603355
21
136.779456
31
0.0
0
LINE
8
stand
62
4
5
3a5
100
AcDbEntity
100
AcDbLine
10
102.603355
20
136.779456
30
0.0
11
102.554137
21
137.754155
31
0.0
0
LINE
8
stand
62
4
5
3a6
100
AcDbEntity
100
AcDbLine
10
102.554137
20
137.754155
30
0.0
11
102.603355
21
138.728854
31
0.0
0
LINE
8
stand
62
4
5
3a7
100
AcDbEntity
100
AcDbLine
10
102.603355
20
138.728854
30
0.0
11
102.747815
21
139.675396
31
0.0
0
LINE
8
stand
62
4
5
3a8
100
AcDbEntity
100
AcDbLine
10
102.747815
20
139.675396
30
0.0
11
102.982724
21
140.588991
31
0.0
0
LINE
8
stand
62
4
5
3a9
100
AcDbEntity
100
AcDbLine
10
102.982724
20
140.588991
30
0.0
11
103.303292
21
141.464846
31
0.0
0
LINE
8
stand
62
4
5
3aa
100
AcDbEntity
100
AcDbLine
10
103.303292
20
141.464846
30
0.0
11
103.704725
21
142.298170
31
0.0
0
LINE
8
stand
62
4
5
3ab
100
AcDbEntity
100
AcDbLine
10
103.704725
20
142.298170
30
0.0
11
104.182233
21
143.084171
31
0.0
0
LINE
8
stand
62
4
5
3ac
100
AcDbEntity
100
AcDbLine
10
104.182233
20
143.084171
30
0.0
11
104.731023
21
143.818057
31
0.0
0
LINE
8
stand
62
4
5
3ad
100
AcDbEntity
100
AcDbLine
10
104.731023
20
143.818057
30
0.0
11
105.346304
21
144.495036
31
0.0
0
LINE
8
stand
62
4
5
3ae
100
AcDbEntity
100
AcDbLine
10
105.346304
20
144.495036
30
0.0
11
106.023283
21
145.110317
31
0.0
0
LINE
8
stand
62
4
5
3af
100
AcDbEntity
100
AcDbLine
10
106.023283
20
145.110317
30
0.0
11
106.757169
21
145.659106
31
0.0
0
LINE
8
stand
62
4
5
3b0
100
AcDbEntity
100
AcDbLine
10
106.757169
20
145.659106
30
0.0
11
107.543170
21
146.136614
31
0.0
0
LINE
8
stand
62
4
5
3b1
100
AcDbEntity
100
AcDbLine
10
107.543170
20
146.136614
30
0.0
11
108.376494
21
146.538047
31
0.0
0
LINE
8
stand
62
4
5
3b2
100
AcDbEntity
100
AcDbLine
10
108.376494
20
146.538047
30
0.0
11
109.252350
21
146.858614
31
0.0
0
LINE
8
stand
62
4
5
3b3
100
AcDbEntity
100
AcDbLine
10
109.252350
20
146.858614
30
0.0
11
110.165945
21
147.093524
31
0.0
0
LINE
8
stand
62
4
5
3b4
100
AcDbEntity
100
AcDbLine
10
110.165945
20
147.093524
30
0.0
11
111.112488
21
147.237983
31
0.0
0
LINE
8
stand
62
4
5
3b5
100
AcDbEntity
100
AcDbLine
10
111.112488
20
147.237983
30
0.0
11
112.087186
21
147.287201
31
0.0
0
LINE
8
stand
62
4
5
3b6
100
AcDbEntity
100
AcDbLine
10
112.087186
20
147.287201
30
0.0
11
113.061885
21
147.237983
31
0.0
0
LINE
8
stand
62
4
5
3b7
100
AcDbEntity
100
AcDbLine
10
113.061885
20
147.237983
30
0.0
11
114.008428
21
147.093524
31
0.0
0
LINE
8
stand
62
4
5
3b8
100
AcDbEntity
100
AcDbLine
10
114.008428
20
147.093524
30
0.0
11
114.922023
21
146.858614
31
0.0
0
LINE
8
stand
62
4
5
3b9
100
AcDbEntity
100
AcDbLine
10
114.922023
20
146.858614
30
0.0
11
115.797879
21
146.538047
31
0.0
0
LINE
8
stand
62
4
5
3ba
100
AcDbEntity
100
AcDbLine
10
115.797879
20
146.538047
30
0.0
11
116.631203
21
146.136614
31
0.0
0
LINE
8
stand
62
4
5
3bb
100
AcDbEntity
100
AcDbLine
10
116.631203
20
146.136614
30
0.0
11
117.417204
21
145.659106
31
0.0
0
LINE
8
stand
62
4
5
3bc
100
AcDbEntity
100
AcDbLine
10
117.417204
20
145.659106
30
0.0
11
118.151090
21
145.110317
31
0.0
0
LINE
8
stand
62
4
5
3bd
100
AcDbEntity
100
AcDbLine
10
118.151090
20
145.110317
30
0.0
11
118.828069
21
144.495036
31
0.0
0
LINE
8
stand
62
4
5
3be
100
AcDbEntity
100
AcDbLine
10
118.828069
20
144.495036
30
0.0
11
119.443350
21
143.818057
31
0.0
0
LINE
8
stand
62
4
5
3bf
100
AcDbEntity
100
AcDbLine
10
119.443350
20
143.818057
30
0.0
11
119.992140
21
143.084171
31
0.0
0
LINE
8
stand
62
4
5
3c0
100
AcDbEntity
100
AcDbLine
10
119.992140
20
143.084171
30
0.0
11
120.469647
21
142.298170
31
0.0
0
LINE
8
stand
62
4
5
3c1
100
AcDbEntity
100
AcDbLine
10
120.469647
20
142.298170
30
0.0
11
120.871081
21
141.464846
31
0.0
0
LINE
8
stand
62
4
5
3c2
100
AcDbEntity
100
AcDbLine
10
120.871081
20
141.464846
30
0.0
11
121.191648
21
140.588991
31
0.0
0
LINE
8
stand
62
4
5
3c3
100
AcDbEntity
100
AcDbLine
10
121.191648
20
140.588991
30
0.0
11
121.426557
21
139.675396
31
0.0
0
LINE
8
stand
62
4
5
3c4
100
AcDbEntity
100
AcDbLine
10
121.426557
20
139.675396
30
0.0
11
121.571017
21
138.728854
31
0.0
0
LINE
8
stand
62
4
5
3c5
100
AcDbEntity
100
AcDbLine
10
121.571017
20
138.728854
30
0.0
11
121.620235
21
137.754155
31
0.0
0
LINE
8
stand
62
4
5
3c6
100
AcDbEntity
100
AcDbLine
10
121.620235
20
137.754155
30
0.0
11
121.620235
21
137.754155
31
0.0
0
LINE
8
stand
62
4
5
3c7
100
AcDbEntity
100
AcDbLine
10
110.812498
20
252.562502
30
0.0
11
110.542232
21
254.039246
31
0.0
0
LINE
8
stand
62
4
5
3c8
100
AcDbEntity
100
AcDbLine
10
110.542232
20
254.039246
30
0.0
11
110.174509
21
255.428840
31
0.0
0
LINE
8
stand
62
4
5
3c9
100
AcDbEntity
100
AcDbLine
10
110.174509
20
255.428840
30
0.0
11
109.714579
21
256.732740
31
0.0
0
LINE
8
stand
62
4
5
3ca
100
AcDbEntity
100
AcDbLine
10
109.714579
20
256.732740
30
0.0
11
109.167695
21
257.952403
31
0.0
0
LINE
8
stand
62
4
5
3cb
100
AcDbEntity
100
AcDbLine
10
109.167695
20
257.952403
30
0.0
11
108.539110
21
259.089282
31
0.0
0
LINE
8
stand
62
4
5
3cc
100
AcDbEntity
100
AcDbLine
10
108.539110
20
259.089282
30
0.0
11
107.834074
21
260.144835
31
0.0
0
LINE
8
stand
62
4
5
3cd
100
AcDbEntity
100
AcDbLine
10
107.834074
20
260.144835
30
0.0
11
107.057841
21
261.120517
31
0.0
0
LINE
8
stand
62
4
5
3ce
100
AcDbEntity
100
AcDbLine
10
107.057841
20
261.120517
30
0.0
11
106.215662
21
262.017784
31
0.0
0
LINE
8
stand
62
4
5
3cf
100
AcDbEntity
100
AcDbLine
10
106.215662
20
262.017784
30
0.0
11
105.312789
21
262.838092
31
0.0
0
LINE
8
stand
62
4
5
3d0
100
AcDbEntity
100
AcDbLine
10
105.312789
20
262.838092
30
0.0
11
104.354475
21
263.582895
31
0.0
0
LINE
8
stand
62
4
5
3d1
100
AcDbEntity
100
AcDbLine
10
104.354475
20
263.582895
30
0.0
11
103.345971
21
264.253651
31
0.0
0
LINE
8
stand
62
4
5
3d2
100
AcDbEntity
100
AcDbLine
10
103.345971
20
264.253651
30
0.0
11
102.292530
21
264.851814
31
0.0
0
LINE
8
stand
62
4
5
3d3
100
AcDbEntity
100
AcDbLine
10
102.292530
20
264.851814
30
0.0
11
100.071843
21
265.836186
31
0.0
0
LINE
8
stand
62
4
5
3d4
100
AcDbEntity
100
AcDbLine
10
100.071843
20
265.836186
30
0.0
11
97.734430
21
266.547658
31
0.0
0
LINE
8
stand
62
4
5
3d5
100
AcDbEntity
100
AcDbLine
10
97.734430
20
266.547658
30
0.0
11
95.322309
21
266.997874
31
0.0
0
LINE
8
stand
62
4
5
3d6
100
AcDbEntity
100
AcDbLine
10
95.322309
20
266.997874
30
0.0
11
92.877496
21
267.198481
31
0.0
0
LINE
8
stand
62
4
5
3d7
100
AcDbEntity
100
AcDbLine
10
92.877496
20
267.198481
30
0.0
11
90.442007
21
267.161125
31
0.0
0
LINE
8
stand
62
4
5
3d8
100
AcDbEntity
100
AcDbLine
10
90.442007
20
267.161125
30
0.0
11
88.057858
21
266.897452
31
0.0
0
LINE
8
stand
62
4
5
3d9
100
AcDbEntity
100
AcDbLine
10
88.057858
20
266.897452
30
0.0
11
85.767067
21
266.419106
31
0.0
0
LINE
8
stand
62
4
5
3da
100
AcDbEntity
100
AcDbLine
10
85.767067
20
266.419106
30
0.0
11
83.611649
21
265.737734
31
0.0
0
LINE
8
stand
62
4
5
3db
100
AcDbEntity
100
AcDbLine
10
83.611649
20
265.737734
30
0.0
11
81.633621
21
264.864982
31
0.0
0
LINE
8
stand
62
4
5
3dc
100
AcDbEntity
100
AcDbLine
10
81.633621
20
264.864982
30
0.0
11
79.874999
21
263.812495
31
0.0
0
LINE
8
stand
62
4
5
3dd
100
AcDbEntity
100
AcDbLine
10
79.874999
20
263.812495
30
0.0
11
82.687499
21
220.500001
31
0.0
0
LINE
8
stand
62
4
5
3de
100
AcDbEntity
100
AcDbLine
10
82.687499
20
220.500001
30
0.0
11
85.233545
21
219.754122
31
0.0
0
LINE
8
stand
62
4
5
3df
100
AcDbEntity
100
AcDbLine
10
85.233545
20
219.754122
30
0.0
11
86.555646
21
219.287666
31
0.0
0
LINE
8
stand
62
4
5
3e0
100
AcDbEntity
100
AcDbLine
10
86.555646
20
219.287666
30
0.0
11
87.886989
21
218.734751
31
0.0
0
LINE
8
stand
62
4
5
3e1
100
AcDbEntity
100
AcDbLine
10
87.886989
20
218.734751
30
0.0
11
89.209963
21
218.077292
31
0.0
0
LINE
8
stand
62
4
5
3e2
100
AcDbEntity
100
AcDbLine
10
89.209963
20
218.077292
30
0.0
11
90.506962
21
217.297203
31
0.0
0
LINE
8
stand
62
4
5
3e3
100
AcDbEntity
100
AcDbLine
10
90.506962
20
217.297203
30
0.0
11
91.760377
21
216.376400
31
0.0
0
LINE
8
stand
62
4
5
3e4
100
AcDbEntity
100
AcDbLine
10
91.760377
20
216.376400
30
0.0
11
92.952599
21
215.296796
31
0.0
0
LINE
8
stand
62
4
5
3e5
100
AcDbEntity
100
AcDbLine
10
92.952599
20
215.296796
30
0.0
11
94.066020
21
214.040307
31
0.0
0
LINE
8
stand
62
4
5
3e6
100
AcDbEntity
100
AcDbLine
10
94.066020
20
214.040307
30
0.0
11
95.083032
21
212.588846
31
0.0
0
LINE
8
stand
62
4
5
3e7
100
AcDbEntity
100
AcDbLine
10
95.083032
20
212.588846
30
0.0
11
95.986026
21
210.924328
31
0.0
0
LINE
8
stand
62
4
5
3e8
100
AcDbEntity
100
AcDbLine
10
95.986026
20
210.924328
30
0.0
11
96.757394
21
209.028668
31
0.0
0
LINE
8
stand
62
4
5
3e9
100
AcDbEntity
100
AcDbLine
10
96.757394
20
209.028668
30
0.0
11
97.379528
21
206.883781
31
0.0
0
LINE
8
stand
62
4
5
3ea
100
AcDbEntity
100
AcDbLine
10
97.379528
20
206.883781
30
0.0
11
97.834820
21
204.471580
31
0.0
0
LINE
8
stand
62
4
5
3eb
100
AcDbEntity
100
AcDbLine
10
97.834820
20
204.471580
30
0.0
11
98.105660
21
201.773981
31
0.0
0
LINE
8
stand
62
4
5
3ec
100
AcDbEntity
100
AcDbLine
10
98.105660
20
201.773981
30
0.0
11
98.174440
21
198.772897
31
0.0
0
LINE
8
stand
62
4
5
3ed
100
AcDbEntity
100
AcDbLine
10
98.174440
20
198.772897
30
0.0
11
97.563697
21
148.160902
31
0.0
0
LINE
8
stand
62
4
5
3ee
100
AcDbEntity
100
AcDbLine
10
97.563697
20
148.160902
30
0.0
11
97.498592
21
146.547948
31
0.0
0
LINE
8
stand
62
4
5
3ef
100
AcDbEntity
100
AcDbLine
10
97.498592
20
146.547948
30
0.0
11
97.345202
21
145.027595
31
0.0
0
LINE
8
stand
62
4
5
3f0
100
AcDbEntity
100
AcDbLine
10
97.345202
20
145.027595
30
0.0
11
97.106324
21
143.597595
31
0.0
0
LINE
8
stand
62
4
5
3f1
100
AcDbEntity
100
AcDbLine
10
97.106324
20
143.597595
30
0.0
11
96.784754
21
142.255696
31
0.0
0
LINE
8
stand
62
4
5
3f2
100
AcDbEntity
100
AcDbLine
10
96.784754
20
142.255696
30
0.0
11
96.383290
21
140.999648
31
0.0
0
LINE
8
stand
62
4
5
3f3
100
AcDbEntity
100
AcDbLine
10
96.383290
20
140.999648
30
0.0
11
95.904726
21
139.827201
31
0.0
0
LINE
8
stand
62
4
5
3f4
100
AcDbEntity
100
AcDbLine
10
95.904726
20
139.827201
30
0.0
11
95.351860
21
138.736103
31
0.0
0
LINE
8
stand
62
4
5
3f5
100
AcDbEntity
100
AcDbLine
10
95.351860
20
138.736103
30
0.0
11
94.727487
21
137.724106
31
0.0
0
LINE
8
stand
62
4
5
3f6
100
AcDbEntity
100
AcDbLine
10
94.727487
20
137.724106
30
0.0
11
94.034405
21
136.788957
31
0.0
0
LINE
8
stand
62
4
5
3f7
100
AcDbEntity
100
AcDbLine
10
94.034405
20
136.788957
30
0.0
11
93.275409
21
135.928408
31
0.0
0
LINE
8
stand
62
4
5
3f8
100
AcDbEntity
100
AcDbLine
10
93.275409
20
135.928408
30
0.0
11
92.453295
21
135.140207
31
0.0
0
LINE
8
stand
62
4
5
3f9
100
AcDbEntity
100
AcDbLine
10
92.453295
20
135.140207
30
0.0
11
91.570861
21
134.422103
31
0.0
0
LINE
8
stand
62
4
5
3fa
100
AcDbEntity
100
AcDbLine
10
91.570861
20
134.422103
30
0.0
11
90.630902
21
133.771848
31
0.0
0
LINE
8
stand
62
4
5
3fb
100
AcDbEntity
100
AcDbLine
10
90.630902
20
133.771848
30
0.0
11
89.636214
21
133.187190
31
0.0
0
LINE
8
stand
62
4
5
3fc
100
AcDbEntity
100
AcDbLine
10
89.636214
20
133.187190
30
0.0
11
87.493839
21
132.205663
31
0.0
0
LINE
8
stand
62
4
5
3fd
100
AcDbEntity
100
AcDbLine
10
87.493839
20
132.205663
30
0.0
11
85.166107
21
131.459519
31
0.0
0
LINE
8
stand
62
4
5
3fe
100
AcDbEntity
100
AcDbLine
10
85.166107
20
131.459519
30
0.0
11
82.675388
21
130.930756
31
0.0
0
LINE
8
stand
62
4
5
3ff
100
AcDbEntity
100
AcDbLine
10
82.675388
20
130.930756
30
0.0
11
80.044052
21
130.601370
31
0.0
0
LINE
8
stand
62
4
5
400
100
AcDbEntity
100
AcDbLine
10
80.044052
20
130.601370
30
0.0
11
77.294471
21
130.453356
31
0.0
0
LINE
8
stand
62
4
5
401
100
AcDbEntity
100
AcDbLine
10
77.294471
20
130.453356
30
0.0
11
74.449014
21
130.468713
31
0.0
0
LINE
8
stand
62
4
5
402
100
AcDbEntity
100
AcDbLine
10
74.449014
20
130.468713
30
0.0
11
71.530053
21
130.629437
31
0.0
0
LINE
8
stand
62
4
5
403
100
AcDbEntity
100
AcDbLine
10
71.530053
20
130.629437
30
0.0
11
68.559957
21
130.917523
31
0.0
0
LINE
8
stand
62
4
5
404
100
AcDbEntity
100
AcDbLine
10
68.559957
20
130.917523
30
0.0
11
65.561098
21
131.314970
31
0.0
0
LINE
8
stand
62
4
5
405
100
AcDbEntity
100
AcDbLine
10
65.561098
20
131.314970
30
0.0
11
59.566572
21
132.365928
31
0.0
0
LINE
8
stand
62
4
5
406
100
AcDbEntity
100
AcDbLine
10
59.566572
20
132.365928
30
0.0
11
53.725439
21
133.638285
31
0.0
0
LINE
8
stand
62
4
5
407
100
AcDbEntity
100
AcDbLine
10
53.725439
20
133.638285
30
0.0
11
48.216664
21
134.988013
31
0.0
0
LINE
8
stand
62
4
5
408
100
AcDbEntity
100
AcDbLine
10
48.216664
20
134.988013
30
0.0
11
43.219211
21
136.271084
31
0.0
0
LINE
8
stand
62
4
5
409
100
AcDbEntity
100
AcDbLine
10
43.219211
20
136.271084
30
0.0
11
38.912045
21
137.343473
31
0.0
0
LINE
8
stand
62
4
5
40a
100
AcDbEntity
100
AcDbLine
10
38.912045
20
137.343473
30
0.0
11
35.474131
21
138.061152
31
0.0
0
LINE
8
stand
62
4
5
40b
100
AcDbEntity
100
AcDbLine
10
35.474131
20
138.061152
30
0.0
11
34.137069
21
138.241966
31
0.0
0
LINE
8
stand
62
4
5
40c
100
AcDbEntity
100
AcDbLine
10
34.137069
20
138.241966
30
0.0
11
33.084433
21
138.280093
31
0.0
0
LINE
8
stand
62
4
5
40d
100
AcDbEntity
100
AcDbLine
10
33.084433
20
138.280093
30
0.0
11
32.338591
21
138.157528
31
0.0
0
LINE
8
stand
62
4
5
40e
100
AcDbEntity
100
AcDbLine
10
32.338591
20
138.157528
30
0.0
11
32.087710
21
138.030361
31
0.0
0
LINE
8
stand
62
4
5
40f
100
AcDbEntity
100
AcDbLine
10
32.087710
20
138.030361
30
0.0
11
31.921916
21
137.856269
31
0.0
0
LINE
8
stand
62
4
5
410
100
AcDbEntity
100
AcDbLine
10
31.921916
20
137.856269
30
0.0
11
28.423952
21
132.185318
31
0.0
0
LINE
8
stand
62
4
5
411
100
AcDbEntity
100
AcDbLine
10
28.423952
20
132.185318
30
0.0
11
28.009693
21
131.242202
31
0.0
0
LINE
8
stand
62
4
5
412
100
AcDbEntity
100
AcDbLine
10
28.009693
20
131.242202
30
0.0
11
27.925375
21
130.311180
31
0.0
0
LINE
8
stand
62
4
5
413
100
AcDbEntity
100
AcDbLine
10
27.925375
20
130.311180
30
0.0
11
28.153286
21
129.393863
31
0.0
0
LINE
8
stand
62
4
5
414
100
AcDbEntity
100
AcDbLine
10
28.153286
20
129.393863
30
0.0
11
28.675716
21
128.491860
31
0.0
0
LINE
8
stand
62
4
5
415
100
AcDbEntity
100
AcDbLine
10
28.675716
20
128.491860
30
0.0
11
29.474957
21
127.606781
31
0.0
0
LINE
8
stand
62
4
5
416
100
AcDbEntity
100
AcDbLine
10
29.474957
20
127.606781
30
0.0
11
30.533297
21
126.740234
31
0.0
0
LINE
8
stand
62
4
5
417
100
AcDbEntity
100
AcDbLine
10
30.533297
20
126.740234
30
0.0
11
31.833026
21
125.893830
31
0.0
0
LINE
8
stand
62
4
5
418
100
AcDbEntity
100
AcDbLine
10
31.833026
20
125.893830
30
0.0
11
33.356435
21
125.069177
31
0.0
0
LINE
8
stand
62
4
5
419
100
AcDbEntity
100
AcDbLine
10
33.356435
20
125.069177
30
0.0
11
35.085814
21
124.267886
31
0.0
0
LINE
8
stand
62
4
5
41a
100
AcDbEntity
100
AcDbLine
10
35.085814
20
124.267886
30
0.0
11
37.003452
21
123.491566
31
0.0
0
LINE
8
stand
62
4
5
41b
100
AcDbEntity
100
AcDbLine
10
37.003452
20
123.491566
30
0.0
11
41.332667
21
122.020276
31
0.0
0
LINE
8
stand
62
4
5
41c
100
AcDbEntity
100
AcDbLine
10
41.332667
20
122.020276
30
0.0
11
46.202400
21
120.668183
31
0.0
0
LINE
8
stand
62
4
5
41d
100
AcDbEntity
100
AcDbLine
10
46.202400
20
120.668183
30
0.0
11
51.470971
21
119.448164
31
0.0
0
LINE
8
stand
62
4
5
41e
100
AcDbEntity
100
AcDbLine
10
51.470971
20
119.448164
30
0.0
11
56.996699
21
118.373093
31
0.0
0
LINE
8
stand
62
4
5
41f
100
AcDbEntity
100
AcDbLine
10
56.996699
20
118.373093
30
0.0
11
62.637904
21
117.455848
31
0.0
0
LINE
8
stand
62
4
5
420
100
AcDbEntity
100
AcDbLine
10
62.637904
20
117.455848
30
0.0
11
68.252905
21
116.709304
31
0.0
0
LINE
8
stand
62
4
5
421
100
AcDbEntity
100
AcDbLine
10
68.252905
20
116.709304
30
0.0
11
73.700024
21
116.146337
31
0.0
0
LINE
8
stand
62
4
5
422
100
AcDbEntity
100
AcDbLine
10
73.700024
20
116.146337
30
0.0
11
78.837579
21
115.779823
31
0.0
0
LINE
8
stand
62
4
5
423
100
AcDbEntity
100
AcDbLine
10
78.837579
20
115.779823
30
0.0
11
83.523890
21
115.622638
31
0.0
0
LINE
8
stand
62
4
5
424
100
AcDbEntity
100
AcDbLine
10
83.523890
20
115.622638
30
0.0
11
87.617277
21
115.687658
31
0.0
0
LINE
8
stand
62
4
5
425
100
AcDbEntity
100
AcDbLine
10
87.617277
20
115.687658
30
0.0
11
90.976061
21
115.987758
31
0.0
0
LINE
8
stand
62
4
5
426
100
AcDbEntity
100
AcDbLine
10
90.976061
20
115.987758
30
0.0
11
95.004999
21
116.546053
31
0.0
0
LINE
8
stand
62
4
5
427
100
AcDbEntity
100
AcDbLine
10
95.004999
20
116.546053
30
0.0
11
100.489690
21
117.439721
31
0.0
0
LINE
8
stand
62
4
5
428
100
AcDbEntity
100
AcDbLine
10
100.489690
20
117.439721
30
0.0
11
103.573345
21
118.060307
31
0.0
0
LINE
8
stand
62
4
5
429
100
AcDbEntity
100
AcDbLine
10
103.573345
20
118.060307
30
0.0
11
106.775422
21
118.822323
31
0.0
0
LINE
8
stand
62
4
5
42a
100
AcDbEntity
100
AcDbLine
10
106.775422
20
118.822323
30
0.0
11
110.014081
21
119.744964
31
0.0
0
LINE
8
stand
62
4
5
42b
100
AcDbEntity
100
AcDbLine
10
110.014081
20
119.744964
30
0.0
11
113.207484
21
120.847425
31
0.0
0
LINE
8
stand
62
4
5
42c
100
AcDbEntity
100
AcDbLine
10
113.207484
20
120.847425
30
0.0
11
116.273792
21
122.148902
31
0.0
0
LINE
8
stand
62
4
5
42d
100
AcDbEntity
100
AcDbLine
10
116.273792
20
122.148902
30
0.0
11
119.131166
21
123.668589
31
0.0
0
LINE
8
stand
62
4
5
42e
100
AcDbEntity
100
AcDbLine
10
119.131166
20
123.668589
30
0.0
11
120.455928
21
124.516261
31
0.0
0
LINE
8
stand
62
4
5
42f
100
AcDbEntity
100
AcDbLine
10
120.455928
20
124.516261
30
0.0
11
121.697767
21
125.425683
31
0.0
0
LINE
8
stand
62
4
5
430
100
AcDbEntity
100
AcDbLine
10
121.697767
20
125.425683
30
0.0
11
122.846453
21
126.399256
31
0.0
0
LINE
8
stand
62
4
5
431
100
AcDbEntity
100
AcDbLine
10
122.846453
20
126.399256
30
0.0
11
123.891756
21
127.439379
31
0.0
0
LINE
8
stand
62
4
5
432
100
AcDbEntity
100
AcDbLine
10
123.891756
20
127.439379
30
0.0
11
124.823447
21
128.548452
31
0.0
0
LINE
8
stand
62
4
5
433
100
AcDbEntity
100
AcDbLine
10
124.823447
20
128.548452
30
0.0
11
125.631295
21
129.728872
31
0.0
0
LINE
8
stand
62
4
5
434
100
AcDbEntity
100
AcDbLine
10
125.631295
20
129.728872
30
0.0
11
126.305071
21
130.983042
31
0.0
0
LINE
8
stand
62
4
5
435
100
AcDbEntity
100
AcDbLine
10
126.305071
20
130.983042
30
0.0
11
126.834545
21
132.313358
31
0.0
0
LINE
8
stand
62
4
5
436
100
AcDbEntity
100
AcDbLine
10
126.834545
20
132.313358
30
0.0
11
127.209486
21
133.722222
31
0.0
0
LINE
8
stand
62
4
5
437
100
AcDbEntity
100
AcDbLine
10
127.209486
20
133.722222
30
0.0
11
127.419666
21
135.212032
31
0.0
0
LINE
8
stand
62
4
5
438
100
AcDbEntity
100
AcDbLine
10
127.419666
20
135.212032
30
0.0
11
127.454854
21
136.785188
31
0.0
0
LINE
8
stand
62
4
5
439
100
AcDbEntity
100
AcDbLine
10
127.454854
20
136.785188
30
0.0
11
127.304820
21
138.444090
31
0.0
0
LINE
8
stand
62
4
5
43a
100
AcDbEntity
100
AcDbLine
10
127.304820
20
138.444090
30
0.0
11
110.812498
21
252.562502
31
0.0
0
LINE
8
stand2
62
4
5
43b
100
AcDbEntity
100
AcDbLine
10
35.330240
20
126.402743
30
0.0
11
37.779260
21
125.524120
31
0.0
0
LINE
8
stand2
62
4
5
43c
100
AcDbEntity
100
AcDbLine
10
37.779260
20
125.524120
30
0.0
11
41.957588
21
124.063191
31
0.0
0
LINE
8
stand2
62
4
5
43d
100
AcDbEntity
100
AcDbLine
10
41.957588
20
124.063191
30
0.0
11
46.725072
21
122.728303
31
0.0
0
LINE
8
stand2
62
4
5
43e
100
AcDbEntity
100
AcDbLine
10
46.725072
20
122.728303
30
0.0
11
51.928889
21
121.598889
31
0.0
0
LINE
8
stand2
62
4
5
43f
100
AcDbEntity
100
AcDbLine
10
51.928889
20
121.598889
30
0.0
11
53.181770
21
121.474304
31
0.0
0
LINE
8
stand2
62
4
5
440
100
AcDbEntity
100
AcDbLine
10
53.181770
20
121.474304
30
0.0
11
54.236196
21
121.585695
31
0.0
0
LINE
8
stand2
62
4
5
441
100
AcDbEntity
100
AcDbLine
10
54.236196
20
121.585695
30
0.0
11
55.101198
21
121.903730
31
0.0
0
LINE
8
stand2
62
4
5
442
100
AcDbEntity
100
AcDbLine
10
55.101198
20
121.903730
30
0.0
11
55.785806
21
122.399075
31
0.0
0
LINE
8
stand2
62
4
5
443
100
AcDbEntity
100
AcDbLine
10
55.785806
20
122.399075
30
0.0
11
56.299048
21
123.042399
31
0.0
0
LINE
8
stand2
62
4
5
444
100
AcDbEntity
100
AcDbLine
10
56.299048
20
123.042399
30
0.0
11
56.649954
21
123.804369
31
0.0
0
LINE
8
stand2
62
4
5
445
100
AcDbEntity
100
AcDbLine
10
56.649954
20
123.804369
30
0.0
11
56.847554
21
124.655651
31
0.0
0
LINE
8
stand2
62
4
5
446
100
AcDbEntity
100
AcDbLine
10
56.847554
20
124.655651
30
0.0
11
56.900878
21
125.566913
31
0.0
0
LINE
8
stand2
62
4
5
447
100
AcDbEntity
100
AcDbLine
10
56.900878
20
125.566913
30
0.0
11
56.818954
21
126.508822
31
0.0
0
LINE
8
stand2
62
4
5
448
100
AcDbEntity
100
AcDbLine
10
56.818954
20
126.508822
30
0.0
11
56.610813
21
127.452045
31
0.0
0
LINE
8
stand2
62
4
5
449
100
AcDbEntity
100
AcDbLine
10
56.610813
20
127.452045
30
0.0
11
56.285484
21
128.367250
31
0.0
0
LINE
8
stand2
62
4
5
44a
100
AcDbEntity
100
AcDbLine
10
56.285484
20
128.367250
30
0.0
11
55.851997
21
129.225104
31
0.0
0
LINE
8
stand2
62
4
5
44b
100
AcDbEntity
100
AcDbLine
10
55.851997
20
129.225104
30
0.0
11
55.319382
21
129.996273
31
0.0
0
LINE
8
stand2
62
4
5
44c
100
AcDbEntity
100
AcDbLine
10
55.319382
20
129.996273
30
0.0
11
54.696667
21
130.651427
31
0.0
0
LINE
8
stand2
62
4
5
44d
100
AcDbEntity
100
AcDbLine
10
54.696667
20
130.651427
30
0.0
11
53.992883
21
131.161230
31
0.0
0
LINE
8
stand2
62
4
5
44e
100
AcDbEntity
100
AcDbLine
10
53.992883
20
131.161230
30
0.0
11
53.217058
21
131.496352
31
0.0
0
LINE
8
stand2
62
4
5
44f
100
AcDbEntity
100
AcDbLine
10
53.217058
20
131.496352
30
0.0
11
50.409966
21
132.266934
31
0.0
0
LINE
8
stand2
62
4
5
450
100
AcDbEntity
100
AcDbLine
10
50.409966
20
132.266934
30
0.0
11
47.690642
21
132.936399
31
0.0
0
LINE
8
stand2
62
4
5
451
100
AcDbEntity
100
AcDbLine
10
47.690642
20
132.936399
30
0.0
11
42.668472
21
134.140139
31
0.0
0
LINE
8
stand2
62
4
5
452
100
AcDbEntity
100
AcDbLine
10
42.668472
20
134.140139
30
0.0
11
40.428875
21
134.707341
31
0.0
0
LINE
8
stand2
62
4
5
453
100
AcDbEntity
100
AcDbLine
10
40.428875
20
134.707341
30
0.0
11
38.118240
21
131.032405
31
0.0
0
LINE
8
stand2
62
4
5
454
100
AcDbEntity
100
AcDbLine
10
38.118240
20
131.032405
30
0.0
11
35.330240
21
126.402743
31
0.0
0
LINE
8
stand2
62
4
5
455
100
AcDbEntity
100
AcDbLine
10
35.330240
20
126.402743
30
0.0
11
35.330240
21
126.402743
31
0.0
0
LINE
8
stand2
62
4
5
456
100
AcDbEntity
100
AcDbLine
10
92.773034
20
264.045351
30
0.0
11
91.442040
21
264.045085
31
0.0
0
LINE
8
stand2
62
4
5
457
100
AcDbEntity
100
AcDbLine
10
91.442040
20
264.045085
30
0.0
11
90.127184
21
263.961249
31
0.0
0
LINE
8
stand2
62
4
5
458
100
AcDbEntity
100
AcDbLine
10
90.127184
20
263.961249
30
0.0
11
87.587520
21
263.566530
31
0.0
0
LINE
8
stand2
62
4
5
459
100
AcDbEntity
100
AcDbLine
10
87.587520
20
263.566530
30
0.0
11
88.218893
21
261.169139
31
0.0
0
LINE
8
stand2
62
4
5
45a
100
AcDbEntity
100
AcDbLine
10
88.218893
20
261.169139
30
0.0
11
88.847895
21
258.892022
31
0.0
0
LINE
8
stand2
62
4
5
45b
100
AcDbEntity
100
AcDbLine
10
88.847895
20
258.892022
30
0.0
11
89.403618
21
256.273928
31
0.0
0
LINE
8
stand2
62
4
5
45c
100
AcDbEntity
100
AcDbLine
10
89.403618
20
256.273928
30
0.0
11
89.815152
21
252.853603
31
0.0
0
LINE
8
stand2
62
4
5
45d
100
AcDbEntity
100
AcDbLine
10
89.815152
20
252.853603
30
0.0
11
90.011591
21
248.169797
31
0.0
0
LINE
8
stand2
62
4
5
45e
100
AcDbEntity
100
AcDbLine
10
90.011591
20
248.169797
30
0.0
11
89.922026
21
241.761256
31
0.0
0
LINE
8
stand2
62
4
5
45f
100
AcDbEntity
100
AcDbLine
10
89.922026
20
241.761256
30
0.0
11
89.475547
21
233.166728
31
0.0
0
LINE
8
stand2
62
4
5
460
100
AcDbEntity
100
AcDbLine
10
89.475547
20
233.166728
30
0.0
11
88.601248
21
221.924960
31
0.0
0
LINE
8
stand2
62
4
5
461
100
AcDbEntity
100
AcDbLine
10
88.601248
20
221.924960
30
0.0
11
90.106638
21
221.087053
31
0.0
0
LINE
8
stand2
62
4
5
462
100
AcDbEntity
100
AcDbLine
10
90.106638
20
221.087053
30
0.0
11
91.945662
21
219.966417
31
0.0
0
LINE
8
stand2
62
4
5
463
100
AcDbEntity
100
AcDbLine
10
91.945662
20
219.966417
30
0.0
11
93.759557
21
218.724509
31
0.0
0
LINE
8
stand2
62
4
5
464
100
AcDbEntity
100
AcDbLine
10
93.759557
20
218.724509
30
0.0
11
95.189562
21
217.522785
31
0.0
0
LINE
8
stand2
62
4
5
465
100
AcDbEntity
100
AcDbLine
10
95.189562
20
217.522785
30
0.0
11
96.529787
21
216.003708
31
0.0
0
LINE
8
stand2
62
4
5
466
100
AcDbEntity
100
AcDbLine
10
96.529787
20
216.003708
30
0.0
11
97.739152
21
214.264609
31
0.0
0
LINE
8
stand2
62
4
5
467
100
AcDbEntity
100
AcDbLine
10
97.739152
20
214.264609
30
0.0
11
98.801239
21
212.297057
31
0.0
0
LINE
8
stand2
62
4
5
468
100
AcDbEntity
100
AcDbLine
10
98.801239
20
212.297057
30
0.0
11
99.699631
21
210.092619
31
0.0
0
LINE
8
stand2
62
4
5
469
100
AcDbEntity
100
AcDbLine
10
99.699631
20
210.092619
30
0.0
11
100.417910
21
207.642863
31
0.0
0
LINE
8
stand2
62
4
5
46a
100
AcDbEntity
100
AcDbLine
10
100.417910
20
207.642863
30
0.0
11
100.939659
21
204.939358
31
0.0
0
LINE
8
stand2
62
4
5
46b
100
AcDbEntity
100
AcDbLine
10
100.939659
20
204.939358
30
0.0
11
101.248460
21
201.973670
31
0.0
0
LINE
8
stand2
62
4
5
46c
100
AcDbEntity
100
AcDbLine
10
101.248460
20
201.973670
30
0.0
11
101.327895
21
198.737368
31
0.0
0
LINE
8
stand2
62
4
5
46d
100
AcDbEntity
100
AcDbLine
10
101.327895
20
198.737368
30
0.0
11
100.719354
21
148.122576
31
0.0
0
LINE
8
stand2
62
4
5
46e
100
AcDbEntity
100
AcDbLine
10
100.719354
20
148.122576
30
0.0
11
100.644189
21
146.341416
31
0.0
0
LINE
8
stand2
62
4
5
46f
100
AcDbEntity
100
AcDbLine
10
100.644189
20
146.341416
30
0.0
11
100.468521
21
144.667437
31
0.0
0
LINE
8
stand2
62
4
5
470
100
AcDbEntity
100
AcDbLine
10
100.468521
20
144.667437
30
0.0
11
100.200654
21
143.098920
31
0.0
0
LINE
8
stand2
62
4
5
471
100
AcDbEntity
100
AcDbLine
10
100.200654
20
143.098920
30
0.0
11
99.848890
21
141.634145
31
0.0
0
LINE
8
stand2
62
4
5
472
100
AcDbEntity
100
AcDbLine
10
99.848890
20
141.634145
30
0.0
11
99.421531
21
140.271390
31
0.0
0
LINE
8
stand2
62
4
5
473
100
AcDbEntity
100
AcDbLine
10
99.421531
20
140.271390
30
0.0
11
98.926879
21
139.008937
31
0.0
0
LINE
8
stand2
62
4
5
474
100
AcDbEntity
100
AcDbLine
10
98.926879
20
139.008937
30
0.0
11
98.373236
21
137.845063
31
0.0
0
LINE
8
stand2
62
4
5
475
100
AcDbEntity
100
AcDbLine
10
98.373236
20
137.845063
30
0.0
11
97.768906
21
136.778050
31
0.0
0
LINE
8
stand2
62
4
5
476
100
AcDbEntity
100
AcDbLine
10
97.768906
20
136.778050
30
0.0
11
97.122191
21
135.806176
31
0.0
0
LINE
8
stand2
62
4
5
477
100
AcDbEntity
100
AcDbLine
10
97.122191
20
135.806176
30
0.0
11
96.441392
21
134.927721
31
0.0
0
LINE
8
stand2
62
4
5
478
100
AcDbEntity
100
AcDbLine
10
96.441392
20
134.927721
30
0.0
11
95.010755
21
133.444188
31
0.0
0
LINE
8
stand2
62
4
5
479
100
AcDbEntity
100
AcDbLine
10
95.010755
20
133.444188
30
0.0
11
93.543414
21
132.313688
31
0.0
0
LINE
8
stand2
62
4
5
47a
100
AcDbEntity
100
AcDbLine
10
93.543414
20
132.313688
30
0.0
11
92.105788
21
131.522457
31
0.0
0
LINE
8
stand2
62
4
5
47b
100
AcDbEntity
100
AcDbLine
10
92.105788
20
131.522457
30
0.0
11
91.285471
21
131.095019
31
0.0
0
LINE
8
stand2
62
4
5
47c
100
AcDbEntity
100
AcDbLine
10
91.285471
20
131.095019
30
0.0
11
90.464658
21
130.529041
31
0.0
0
LINE
8
stand2
62
4
5
47d
100
AcDbEntity
100
AcDbLine
10
90.464658
20
130.529041
30
0.0
11
89.689300
21
129.819682
31
0.0
0
LINE
8
stand2
62
4
5
47e
100
AcDbEntity
100
AcDbLine
10
89.689300
20
129.819682
30
0.0
11
89.005345
21
128.962097
31
0.0
0
LINE
8
stand2
62
4
5
47f
100
AcDbEntity
100
AcDbLine
10
89.005345
20
128.962097
30
0.0
11
88.458745
21
127.951446
31
0.0
0
LINE
8
stand2
62
4
5
480
100
AcDbEntity
100
AcDbLine
10
88.458745
20
127.951446
30
0.0
11
88.095451
21
126.782886
31
0.0
0
LINE
8
stand2
62
4
5
481
100
AcDbEntity
100
AcDbLine
10
88.095451
20
126.782886
30
0.0
11
87.961412
21
125.451574
31
0.0
0
LINE
8
stand2
62
4
5
482
100
AcDbEntity
100
AcDbLine
10
87.961412
20
125.451574
30
0.0
11
88.102578
21
123.952667
31
0.0
0
LINE
8
stand2
62
4
5
483
100
AcDbEntity
100
AcDbLine
10
88.102578
20
123.952667
30
0.0
11
88.493526
21
122.731993
31
0.0
0
LINE
8
stand2
62
4
5
484
100
AcDbEntity
100
AcDbLine
10
88.493526
20
122.731993
30
0.0
11
89.143451
21
121.706173
31
0.0
0
LINE
8
stand2
62
4
5
485
100
AcDbEntity
100
AcDbLine
10
89.143451
20
121.706173
30
0.0
11
90.002690
21
120.871402
31
0.0
0
LINE
8
stand2
62
4
5
486
100
AcDbEntity
100
AcDbLine
10
90.002690
20
120.871402
30
0.0
11
91.021584
21
120.223876
31
0.0
0
LINE
8
stand2
62
4
5
487
100
AcDbEntity
100
AcDbLine
10
91.021584
20
120.223876
30
0.0
11
92.150470
21
119.759792
31
0.0
0
LINE
8
stand2
62
4
5
488
100
AcDbEntity
100
AcDbLine
10
92.150470
20
119.759792
30
0.0
11
93.339687
21
119.475344
31
0.0
0
LINE
8
stand2
62
4
5
489
100
AcDbEntity
100
AcDbLine
10
93.339687
20
119.475344
30
0.0
11
94.539574
21
119.366730
31
0.0
0
LINE
8
stand2
62
4
5
48a
100
AcDbEntity
100
AcDbLine
10
94.539574
20
119.366730
30
0.0
11
95.700469
21
119.430144
31
0.0
0
LINE
8
stand2
62
4
5
48b
100
AcDbEntity
100
AcDbLine
10
95.700469
20
119.430144
30
0.0
11
98.960765
21
119.929541
31
0.0
0
LINE
8
stand2
62
4
5
48c
100
AcDbEntity
100
AcDbLine
10
98.960765
20
119.929541
30
0.0
11
102.552461
21
120.703493
31
0.0
0
LINE
8
stand2
62
4
5
48d
100
AcDbEntity
100
AcDbLine
10
102.552461
20
120.703493
30
0.0
11
106.812744
21
121.932875
31
0.0
0
LINE
8
stand2
62
4
5
48e
100
AcDbEntity
100
AcDbLine
10
106.812744
20
121.932875
30
0.0
11
112.078798
21
123.798563
31
0.0
0
LINE
8
stand2
62
4
5
48f
100
AcDbEntity
100
AcDbLine
10
112.078798
20
123.798563
30
0.0
11
114.915893
21
125.008397
31
0.0
0
LINE
8
stand2
62
4
5
490
100
AcDbEntity
100
AcDbLine
10
114.915893
20
125.008397
30
0.0
11
117.494526
21
126.384851
31
0.0
0
LINE
8
stand2
62
4
5
491
100
AcDbEntity
100
AcDbLine
10
117.494526
20
126.384851
30
0.0
11
119.737726
21
127.914550
31
0.0
0
LINE
8
stand2
62
4
5
492
100
AcDbEntity
100
AcDbLine
10
119.737726
20
127.914550
30
0.0
11
120.709485
21
128.732687
31
0.0
0
LINE
8
stand2
62
4
5
493
100
AcDbEntity
100
AcDbLine
10
120.709485
20
128.732687
30
0.0
11
121.568520
21
129.584118
31
0.0
0
LINE
8
stand2
62
4
5
494
100
AcDbEntity
100
AcDbLine
10
121.568520
20
129.584118
30
0.0
11
122.314506
21
130.459540
31
0.0
0
LINE
8
stand2
62
4
5
495
100
AcDbEntity
100
AcDbLine
10
122.314506
20
130.459540
30
0.0
11
122.950295
21
131.359404
31
0.0
0
LINE
8
stand2
62
4
5
496
100
AcDbEntity
100
AcDbLine
10
122.950295
20
131.359404
30
0.0
11
123.471032
21
132.296674
31
0.0
0
LINE
8
stand2
62
4
5
497
100
AcDbEntity
100
AcDbLine
10
123.471032
20
132.296674
30
0.0
11
123.871864
21
133.284314
31
0.0
0
LINE
8
stand2
62
4
5
498
100
AcDbEntity
100
AcDbLine
10
123.871864
20
133.284314
30
0.0
11
124.147938
21
134.335290
31
0.0
0
LINE
8
stand2
62
4
5
499
100
AcDbEntity
100
AcDbLine
10
124.147938
20
134.335290
30
0.0
11
124.294400
21
135.462564
31
0.0
0
LINE
8
stand2
62
4
5
49a
100
AcDbEntity
100
AcDbLine
10
124.294400
20
135.462564
30
0.0
11
124.306397
21
136.679102
31
0.0
0
LINE
8
stand2
62
4
5
49b
100
AcDbEntity
100
AcDbLine
10
124.306397
20
136.679102
30
0.0
11
124.179076
21
137.997868
31
0.0
0
LINE
8
stand2
62
4
5
49c
100
AcDbEntity
100
AcDbLine
10
124.179076
20
137.997868
30
0.0
11
107.686715
21
252.112643
31
0.0
0
LINE
8
stand2
62
4
5
49d
100
AcDbEntity
100
AcDbLine
10
107.686715
20
252.112643
30
0.0
11
107.394722
21
253.650394
31
0.0
0
LINE
8
stand2
62
4
5
49e
100
AcDbEntity
100
AcDbLine
10
107.394722
20
253.650394
30
0.0
11
106.988537
21
255.048426
31
0.0
0
LINE
8
stand2
62
4
5
49f
100
AcDbEntity
100
AcDbLine
10
106.988537
20
255.048426
30
0.0
11
106.474522
21
256.315984
31
0.0
0
LINE
8
stand2
62
4
5
4a0
100
AcDbEntity
100
AcDbLine
10
106.474522
20
256.315984
30
0.0
11
105.859041
21
257.462314
31
0.0
0
LINE
8
stand2
62
4
5
4a1
100
AcDbEntity
100
AcDbLine
10
105.859041
20
257.462314
30
0.0
11
105.148455
21
258.496663
31
0.0
0
LINE
8
stand2
62
4
5
4a2
100
AcDbEntity
100
AcDbLine
10
105.148455
20
258.496663
30
0.0
11
104.349128
21
259.428276
31
0.0
0
LINE
8
stand2
62
4
5
4a3
100
AcDbEntity
100
AcDbLine
10
104.349128
20
259.428276
30
0.0
11
103.467423
21
260.266401
31
0.0
0
LINE
8
stand2
62
4
5
4a4
100
AcDbEntity
100
AcDbLine
10
103.467423
20
260.266401
30
0.0
11
102.509701
21
261.020282
31
0.0
0
LINE
8
stand2
62
4
5
4a5
100
AcDbEntity
100
AcDbLine
10
102.509701
20
261.020282
30
0.0
11
101.476938
21
261.692801
31
0.0
0
LINE
8
stand2
62
4
5
4a6
100
AcDbEntity
100
AcDbLine
10
101.476938
20
261.692801
30
0.0
11
100.372279
21
262.280809
31
0.0
0
LINE
8
stand2
62
4
5
4a7
100
AcDbEntity
100
AcDbLine
10
100.372279
20
262.280809
30
0.0
11
99.205341
21
262.784505
31
0.0
0
LINE
8
stand2
62
4
5
4a8
100
AcDbEntity
100
AcDbLine
10
99.205341
20
262.784505
30
0.0
11
97.985739
21
263.204092
31
0.0
0
LINE
8
stand2
62
4
5
4a9
100
AcDbEntity
100
AcDbLine
10
97.985739
20
263.204092
30
0.0
11
96.723091
21
263.539769
31
0.0
0
LINE
8
stand2
62
4
5
4aa
100
AcDbEntity
100
AcDbLine
10
96.723091
20
263.539769
30
0.0
11
95.427013
21
263.791738
31
0.0
0
LINE
8
stand2
62
4
5
4ab
100
AcDbEntity
100
AcDbLine
10
95.427013
20
263.791738
30
0.0
11
92.773034
21
264.045351
31
0.0
0
LINE
8
stand2
62
4
5
4ac
100
AcDbEntity
100
AcDbLine
10
92.773034
20
264.045351
30
0.0
11
92.773034
21
264.045351
31
0.0
0
LINE
8
refAndJunk
62
4
5
4ad
100
AcDbEntity
100
AcDbLine
10
71.429280
20
279.000008
30
0.0
11
71.270989
21
274.240039
31
0.0
0
LINE
8
refAndJunk
62
4
5
4ae
100
AcDbEntity
100
AcDbLine
10
71.270989
20
274.240039
30
0.0
11
70.801124
21
269.538515
31
0.0
0
LINE
8
refAndJunk
62
4
5
4af
100
AcDbEntity
100
AcDbLine
10
70.801124
20
269.538515
30
0.0
11
70.027197
21
264.908447
31
0.0
0
LINE
8
refAndJunk
62
4
5
4b0
100
AcDbEntity
100
AcDbLine
10
70.027197
20
264.908447
30
0.0
11
68.956722
21
260.362848
31
0.0
0
LINE
8
refAndJunk
62
4
5
4b1
100
AcDbEntity
100
AcDbLine
10
68.956722
20
260.362848
30
0.0
11
67.597209
21
255.914729
31
0.0
0
LINE
8
refAndJunk
62
4
5
4b2
100
AcDbEntity
100
AcDbLine
10
67.597209
20
255.914729
30
0.0
11
65.956171
21
251.577101
31
0.0
0
LINE
8
refAndJunk
62
4
5
4b3
100
AcDbEntity
100
AcDbLine
10
65.956171
20
251.577101
30
0.0
11
64.041121
21
247.362977
31
0.0
0
LINE
8
refAndJunk
62
4
5
4b4
100
AcDbEntity
100
AcDbLine
10
64.041121
20
247.362977
30
0.0
11
61.859571
21
243.285368
31
0.0
0
LINE
8
refAndJunk
62
4
5
4b5
100
AcDbEntity
100
AcDbLine
10
61.859571
20
243.285368
30
0.0
11
59.419033
21
239.357286
31
0.0
0
LINE
8
refAndJunk
62
4
5
4b6
100
AcDbEntity
100
AcDbLine
10
59.419033
20
239.357286
30
0.0
11
56.727019
21
235.591742
31
0.0
0
LINE
8
refAndJunk
62
4
5
4b7
100
AcDbEntity
100
AcDbLine
10
56.727019
20
235.591742
30
0.0
11
53.791042
21
232.001748
31
0.0
0
LINE
8
refAndJunk
62
4
5
4b8
100
AcDbEntity
100
AcDbLine
10
53.791042
20
232.001748
30
0.0
11
50.618615
21
228.600315
31
0.0
0
LINE
8
refAndJunk
62
4
5
4b9
100
AcDbEntity
100
AcDbLine
10
50.618615
20
228.600315
30
0.0
11
47.217248
21
225.400456
31
0.0
0
LINE
8
refAndJunk
62
4
5
4ba
100
AcDbEntity
100
AcDbLine
10
47.217248
20
225.400456
30
0.0
11
43.594455
21
222.415183
31
0.0
0
LINE
8
refAndJunk
62
4
5
4bb
100
AcDbEntity
100
AcDbLine
10
43.594455
20
222.415183
30
0.0
11
39.757748
21
219.657506
31
0.0
0
LINE
8
refAndJunk
62
4
5
4bc
100
AcDbEntity
100
AcDbLine
10
39.757748
20
219.657506
30
0.0
11
35.714640
21
217.140437
31
0.0
0
LINE
8
refAndJunk
62
4
5
4bd
100
AcDbEntity
100
AcDbLine
10
35.714640
20
217.140437
30
0.0
11
31.513240
21
214.897536
31
0.0
0
LINE
8
refAndJunk
62
4
5
4be
100
AcDbEntity
100
AcDbLine
10
31.513240
20
214.897536
30
0.0
11
27.206668
21
212.953689
31
0.0
0
LINE
8
refAndJunk
62
4
5
4bf
100
AcDbEntity
100
AcDbLine
10
27.206668
20
212.953689
30
0.0
11
22.809949
21
211.308895
31
0.0
0
LINE
8
refAndJunk
62
4
5
4c0
100
AcDbEntity
100
AcDbLine
10
22.809949
20
211.308895
30
0.0
11
18.338106
21
209.963155
31
0.0
0
LINE
8
refAndJunk
62
4
5
4c1
100
AcDbEntity
100
AcDbLine
10
18.338106
20
209.963155
30
0.0
11
13.806166
21
208.916468
31
0.0
0
LINE
8
refAndJunk
62
4
5
4c2
100
AcDbEntity
100
AcDbLine
10
13.806166
20
208.916468
30
0.0
11
9.229151
21
208.168835
31
0.0
0
LINE
8
refAndJunk
62
4
5
4c3
100
AcDbEntity
100
AcDbLine
10
9.229151
20
208.168835
30
0.0
11
4.622088
21
207.720255
31
0.0
0
LINE
8
refAndJunk
62
4
5
4c4
100
AcDbEntity
100
AcDbLine
10
4.622088
20
207.720255
30
0.0
11
-0.000001
21
207.570728
31
0.0
0
LINE
8
refAndJunk
62
4
5
4c5
100
AcDbEntity
100
AcDbLine
10
-0.000001
20
207.570728
30
0.0
11
-4.622089
21
207.720255
31
0.0
0
LINE
8
refAndJunk
62
4
5
4c6
100
AcDbEntity
100
AcDbLine
10
-4.622089
20
207.720255
30
0.0
11
-9.229152
21
208.168835
31
0.0
0
LINE
8
refAndJunk
62
4
5
4c7
100
AcDbEntity
100
AcDbLine
10
-9.229152
20
208.168835
30
0.0
11
-13.806167
21
208.916468
31
0.0
0
LINE
8
refAndJunk
62
4
5
4c8
100
AcDbEntity
100
AcDbLine
10
-13.806167
20
208.916468
30
0.0
11
-18.338107
21
209.963155
31
0.0
0
LINE
8
refAndJunk
62
4
5
4c9
100
AcDbEntity
100
AcDbLine
10
-18.338107
20
209.963155
30
0.0
11
-22.809950
21
211.308895
31
0.0
0
LINE
8
refAndJunk
62
4
5
4ca
100
AcDbEntity
100
AcDbLine
10
-22.809950
20
211.308895
30
0.0
11
-27.206669
21
212.953689
31
0.0
0
LINE
8
refAndJunk
62
4
5
4cb
100
AcDbEntity
100
AcDbLine
10
-27.206669
20
212.953689
30
0.0
11
-31.513241
21
214.897536
31
0.0
0
LINE
8
refAndJunk
62
4
5
4cc
100
AcDbEntity
100
AcDbLine
10
-31.513241
20
214.897536
30
0.0
11
-35.714641
21
217.140437
31
0.0
0
LINE
8
refAndJunk
62
4
5
4cd
100
AcDbEntity
100
AcDbLine
10
-35.714641
20
217.140437
30
0.0
11
-39.757750
21
219.657506
31
0.0
0
LINE
8
refAndJunk
62
4
5
4ce
100
AcDbEntity
100
AcDbLine
10
-39.757750
20
219.657506
30
0.0
11
-43.594457
21
222.415183
31
0.0
0
LINE
8
refAndJunk
62
4
5
4cf
100
AcDbEntity
100
AcDbLine
10
-43.594457
20
222.415183
30
0.0
11
-47.217249
21
225.400456
31
0.0
0
LINE
8
refAndJunk
62
4
5
4d0
100
AcDbEntity
100
AcDbLine
10
-47.217249
20
225.400456
30
0.0
11
-50.618616
21
228.600315
31
0.0
0
LINE
8
refAndJunk
62
4
5
4d1
100
AcDbEntity
100
AcDbLine
10
-50.618616
20
228.600315
30
0.0
11
-53.791044
21
232.001748
31
0.0
0
LINE
8
refAndJunk
62
4
5
4d2
100
AcDbEntity
100
AcDbLine
10
-53.791044
20
232.001748
30
0.0
11
-56.727021
21
235.591742
31
0.0
0
LINE
8
refAndJunk
62
4
5
4d3
100
AcDbEntity
100
AcDbLine
10
-56.727021
20
235.591742
30
0.0
11
-59.419034
21
239.357286
31
0.0
0
LINE
8
refAndJunk
62
4
5
4d4
100
AcDbEntity
100
AcDbLine
10
-59.419034
20
239.357286
30
0.0
11
-61.859572
21
243.285368
31
0.0
0
LINE
8
refAndJunk
62
4
5
4d5
100
AcDbEntity
100
AcDbLine
10
-61.859572
20
243.285368
30
0.0
11
-64.041122
21
247.362977
31
0.0
0
LINE
8
refAndJunk
62
4
5
4d6
100
AcDbEntity
100
AcDbLine
10
-64.041122
20
247.362977
30
0.0
11
-65.956172
21
251.577101
31
0.0
0
LINE
8
refAndJunk
62
4
5
4d7
100
AcDbEntity
100
AcDbLine
10
-65.956172
20
251.577101
30
0.0
11
-67.597210
21
255.914729
31
0.0
0
LINE
8
refAndJunk
62
4
5
4d8
100
AcDbEntity
100
AcDbLine
10
-67.597210
20
255.914729
30
0.0
11
-68.956723
21
260.362848
31
0.0
0
LINE
8
refAndJunk
62
4
5
4d9
100
AcDbEntity
100
AcDbLine
10
-68.956723
20
260.362848
30
0.0
11
-70.027199
21
264.908447
31
0.0
0
LINE
8
refAndJunk
62
4
5
4da
100
AcDbEntity
100
AcDbLine
10
-70.027199
20
264.908447
30
0.0
11
-70.801125
21
269.538515
31
0.0
0
LINE
8
refAndJunk
62
4
5
4db
100
AcDbEntity
100
AcDbLine
10
-70.801125
20
269.538515
30
0.0
11
-71.270990
21
274.240039
31
0.0
0
LINE
8
refAndJunk
62
4
5
4dc
100
AcDbEntity
100
AcDbLine
10
-71.270990
20
274.240039
30
0.0
11
-71.429281
21
279.000008
31
0.0
0
LINE
8
refAndJunk
62
4
5
4dd
100
AcDbEntity
100
AcDbLine
10
-71.429281
20
279.000008
30
0.0
11
-71.270990
21
283.759978
31
0.0
0
LINE
8
refAndJunk
62
4
5
4de
100
AcDbEntity
100
AcDbLine
10
-71.270990
20
283.759978
30
0.0
11
-70.801125
21
288.461502
31
0.0
0
LINE
8
refAndJunk
62
4
5
4df
100
AcDbEntity
100
AcDbLine
10
-70.801125
20
288.461502
30
0.0
11
-70.027199
21
293.091569
31
0.0
0
LINE
8
refAndJunk
62
4
5
4e0
100
AcDbEntity
100
AcDbLine
10
-70.027199
20
293.091569
30
0.0
11
-68.956723
21
297.637169
31
0.0
0
LINE
8
refAndJunk
62
4
5
4e1
100
AcDbEntity
100
AcDbLine
10
-68.956723
20
297.637169
30
0.0
11
-67.597210
21
302.085288
31
0.0
0
LINE
8
refAndJunk
62
4
5
4e2
100
AcDbEntity
100
AcDbLine
10
-67.597210
20
302.085288
30
0.0
11
-65.956172
21
306.422915
31
0.0
0
LINE
8
refAndJunk
62
4
5
4e3
100
AcDbEntity
100
AcDbLine
10
-65.956172
20
306.422915
30
0.0
11
-64.041122
21
310.637039
31
0.0
0
LINE
8
refAndJunk
62
4
5
4e4
100
AcDbEntity
100
AcDbLine
10
-64.041122
20
310.637039
30
0.0
11
-61.859572
21
314.714649
31
0.0
0
LINE
8
refAndJunk
62
4
5
4e5
100
AcDbEntity
100
AcDbLine
10
-61.859572
20
314.714649
30
0.0
11
-59.419034
21
318.642731
31
0.0
0
LINE
8
refAndJunk
62
4
5
4e6
100
AcDbEntity
100
AcDbLine
10
-59.419034
20
318.642731
30
0.0
11
-56.727021
21
322.408275
31
0.0
0
LINE
8
refAndJunk
62
4
5
4e7
100
AcDbEntity
100
AcDbLine
10
-56.727021
20
322.408275
30
0.0
11
-53.791044
21
325.998269
31
0.0
0
LINE
8
refAndJunk
62
4
5
4e8
100
AcDbEntity
100
AcDbLine
10
-53.791044
20
325.998269
30
0.0
11
-50.618616
21
329.399701
31
0.0
0
LINE
8
refAndJunk
62
4
5
4e9
100
AcDbEntity
100
AcDbLine
10
-50.618616
20
329.399701
30
0.0
11
-47.217249
21
332.599560
31
0.0
0
LINE
8
refAndJunk
62
4
5
4ea
100
AcDbEntity
100
AcDbLine
10
-47.217249
20
332.599560
30
0.0
11
-43.594457
21
335.584834
31
0.0
0
LINE
8
refAndJunk
62
4
5
4eb
100
AcDbEntity
100
AcDbLine
10
-43.594457
20
335.584834
30
0.0
11
-39.757750
21
338.342511
31
0.0
0
LINE
8
refAndJunk
62
4
5
4ec
100
AcDbEntity
100
AcDbLine
10
-39.757750
20
338.342511
30
0.0
11
-35.714641
21
340.859580
31
0.0
0
LINE
8
refAndJunk
62
4
5
4ed
100
AcDbEntity
100
AcDbLine
10
-35.714641
20
340.859580
30
0.0
11
-31.513241
21
343.102480
31
0.0
0
LINE
8
refAndJunk
62
4
5
4ee
100
AcDbEntity
100
AcDbLine
10
-31.513241
20
343.102480
30
0.0
11
-27.206669
21
345.046328
31
0.0
0
LINE
8
refAndJunk
62
4
5
4ef
100
AcDbEntity
100
AcDbLine
10
-27.206669
20
345.046328
30
0.0
11
-22.809950
21
346.691121
31
0.0
0
LINE
8
refAndJunk
62
4
5
4f0
100
AcDbEntity
100
AcDbLine
10
-22.809950
20
346.691121
30
0.0
11
-18.338107
21
348.036862
31
0.0
0
LINE
8
refAndJunk
62
4
5
4f1
100
AcDbEntity
100
AcDbLine
10
-18.338107
20
348.036862
30
0.0
11
-13.806167
21
349.083548
31
0.0
0
LINE
8
refAndJunk
62
4
5
4f2
100
AcDbEntity
100
AcDbLine
10
-13.806167
20
349.083548
30
0.0
11
-9.229152
21
349.831182
31
0.0
0
LINE
8
refAndJunk
62
4
5
4f3
100
AcDbEntity
100
AcDbLine
10
-9.229152
20
349.831182
30
0.0
11
-4.622089
21
350.279762
31
0.0
0
LINE
8
refAndJunk
62
4
5
4f4
100
AcDbEntity
100
AcDbLine
10
-4.622089
20
350.279762
30
0.0
11
-0.000001
21
350.429289
31
0.0
0
LINE
8
refAndJunk
62
4
5
4f5
100
AcDbEntity
100
AcDbLine
10
-0.000001
20
350.429289
30
0.0
11
4.622088
21
350.279762
31
0.0
0
LINE
8
refAndJunk
62
4
5
4f6
100
AcDbEntity
100
AcDbLine
10
4.622088
20
350.279762
30
0.0
11
9.229151
21
349.831182
31
0.0
0
LINE
8
refAndJunk
62
4
5
4f7
100
AcDbEntity
100
AcDbLine
10
9.229151
20
349.831182
30
0.0
11
13.806166
21
349.083548
31
0.0
0
LINE
8
refAndJunk
62
4
5
4f8
100
AcDbEntity
100
AcDbLine
10
13.806166
20
349.083548
30
0.0
11
18.338106
21
348.036862
31
0.0
0
LINE
8
refAndJunk
62
4
5
4f9
100
AcDbEntity
100
AcDbLine
10
18.338106
20
348.036862
30
0.0
11
22.809949
21
346.691121
31
0.0
0
LINE
8
refAndJunk
62
4
5
4fa
100
AcDbEntity
100
AcDbLine
10
22.809949
20
346.691121
30
0.0
11
27.206668
21
345.046328
31
0.0
0
LINE
8
refAndJunk
62
4
5
4fb
100
AcDbEntity
100
AcDbLine
10
27.206668
20
345.046328
30
0.0
11
31.513240
21
343.102480
31
0.0
0
LINE
8
refAndJunk
62
4
5
4fc
100
AcDbEntity
100
AcDbLine
10
31.513240
20
343.102480
30
0.0
11
35.714640
21
340.859580
31
0.0
0
LINE
8
refAndJunk
62
4
5
4fd
100
AcDbEntity
100
AcDbLine
10
35.714640
20
340.859580
30
0.0
11
39.757748
21
338.342511
31
0.0
0
LINE
8
refAndJunk
62
4
5
4fe
100
AcDbEntity
100
AcDbLine
10
39.757748
20
338.342511
30
0.0
11
43.594455
21
335.584834
31
0.0
0
LINE
8
refAndJunk
62
4
5
4ff
100
AcDbEntity
100
AcDbLine
10
43.594455
20
335.584834
30
0.0
11
47.217248
21
332.599560
31
0.0
0
LINE
8
refAndJunk
62
4
5
500
100
AcDbEntity
100
AcDbLine
10
47.217248
20
332.599560
30
0.0
11
50.618615
21
329.399701
31
0.0
0
LINE
8
refAndJunk
62
4
5
501
100
AcDbEntity
100
AcDbLine
10
50.618615
20
329.399701
30
0.0
11
53.791042
21
325.998269
31
0.0
0
LINE
8
refAndJunk
62
4
5
502
100
AcDbEntity
100
AcDbLine
10
53.791042
20
325.998269
30
0.0
11
56.727019
21
322.408275
31
0.0
0
LINE
8
refAndJunk
62
4
5
503
100
AcDbEntity
100
AcDbLine
10
56.727019
20
322.408275
30
0.0
11
59.419033
21
318.642731
31
0.0
0
LINE
8
refAndJunk
62
4
5
504
100
AcDbEntity
100
AcDbLine
10
59.419033
20
318.642731
30
0.0
11
61.859571
21
314.714649
31
0.0
0
LINE
8
refAndJunk
62
4
5
505
100
AcDbEntity
100
AcDbLine
10
61.859571
20
314.714649
30
0.0
11
64.041121
21
310.637039
31
0.0
0
LINE
8
refAndJunk
62
4
5
506
100
AcDbEntity
100
AcDbLine
10
64.041121
20
310.637039
30
0.0
11
65.956171
21
306.422915
31
0.0
0
LINE
8
refAndJunk
62
4
5
507
100
AcDbEntity
100
AcDbLine
10
65.956171
20
306.422915
30
0.0
11
67.597209
21
302.085288
31
0.0
0
LINE
8
refAndJunk
62
4
5
508
100
AcDbEntity
100
AcDbLine
10
67.597209
20
302.085288
30
0.0
11
68.956722
21
297.637169
31
0.0
0
LINE
8
refAndJunk
62
4
5
509
100
AcDbEntity
100
AcDbLine
10
68.956722
20
297.637169
30
0.0
11
70.027197
21
293.091569
31
0.0
0
LINE
8
refAndJunk
62
4
5
50a
100
AcDbEntity
100
AcDbLine
10
70.027197
20
293.091569
30
0.0
11
70.801124
21
288.461502
31
0.0
0
LINE
8
refAndJunk
62
4
5
50b
100
AcDbEntity
100
AcDbLine
10
70.801124
20
288.461502
30
0.0
11
71.270989
21
283.759978
31
0.0
0
LINE
8
refAndJunk
62
4
5
50c
100
AcDbEntity
100
AcDbLine
10
71.270989
20
283.759978
30
0.0
11
71.429280
21
279.000008
31
0.0
0
LINE
8
refAndJunk
62
4
5
50d
100
AcDbEntity
100
AcDbLine
10
71.429280
20
279.000008
30
0.0
11
71.429280
21
279.000008
31
0.0
0
LINE
8
refAndJunk
62
4
5
50e
100
AcDbEntity
100
AcDbLine
10
53.186171
20
279.000008
30
0.0
11
53.068308
21
275.455739
31
0.0
0
LINE
8
refAndJunk
62
4
5
50f
100
AcDbEntity
100
AcDbLine
10
53.068308
20
275.455739
30
0.0
11
52.718447
21
271.954989
31
0.0
0
LINE
8
refAndJunk
62
4
5
510
100
AcDbEntity
100
AcDbLine
10
52.718447
20
271.954989
30
0.0
11
52.142182
21
268.507445
31
0.0
0
LINE
8
refAndJunk
62
4
5
511
100
AcDbEntity
100
AcDbLine
10
52.142182
20
268.507445
30
0.0
11
51.345106
21
265.122796
31
0.0
0
LINE
8
refAndJunk
62
4
5
512
100
AcDbEntity
100
AcDbLine
10
51.345106
20
265.122796
30
0.0
11
50.332814
21
261.810731
31
0.0
0
LINE
8
refAndJunk
62
4
5
513
100
AcDbEntity
100
AcDbLine
10
50.332814
20
261.810731
30
0.0
11
49.110900
21
258.580938
31
0.0
0
LINE
8
refAndJunk
62
4
5
514
100
AcDbEntity
100
AcDbLine
10
49.110900
20
258.580938
30
0.0
11
47.684955
21
255.443105
31
0.0
0
LINE
8
refAndJunk
62
4
5
515
100
AcDbEntity
100
AcDbLine
10
47.684955
20
255.443105
30
0.0
11
46.060575
21
252.406922
31
0.0
0
LINE
8
refAndJunk
62
4
5
516
100
AcDbEntity
100
AcDbLine
10
46.060575
20
252.406922
30
0.0
11
44.243353
21
249.482075
31
0.0
0
LINE
8
refAndJunk
62
4
5
517
100
AcDbEntity
100
AcDbLine
10
44.243353
20
249.482075
30
0.0
11
42.238882
21
246.678255
31
0.0
0
LINE
8
refAndJunk
62
4
5
518
100
AcDbEntity
100
AcDbLine
10
42.238882
20
246.678255
30
0.0
11
40.052757
21
244.005149
31
0.0
0
LINE
8
refAndJunk
62
4
5
519
100
AcDbEntity
100
AcDbLine
10
40.052757
20
244.005149
30
0.0
11
37.690570
21
241.472446
31
0.0
0
LINE
8
refAndJunk
62
4
5
51a
100
AcDbEntity
100
AcDbLine
10
37.690570
20
241.472446
30
0.0
11
35.157916
21
239.089834
31
0.0
0
LINE
8
refAndJunk
62
4
5
51b
100
AcDbEntity
100
AcDbLine
10
35.157916
20
239.089834
30
0.0
11
32.460388
21
236.867002
31
0.0
0
LINE
8
refAndJunk
62
4
5
51c
100
AcDbEntity
100
AcDbLine
10
32.460388
20
236.867002
30
0.0
11
29.603580
21
234.813639
31
0.0
0
LINE
8
refAndJunk
62
4
5
51d
100
AcDbEntity
100
AcDbLine
10
29.603580
20
234.813639
30
0.0
11
26.593085
21
232.939432
31
0.0
0
LINE
8
refAndJunk
62
4
5
51e
100
AcDbEntity
100
AcDbLine
10
26.593085
20
232.939432
30
0.0
11
23.464727
21
231.269370
31
0.0
0
LINE
8
refAndJunk
62
4
5
51f
100
AcDbEntity
100
AcDbLine
10
23.464727
20
231.269370
30
0.0
11
20.258058
21
229.821984
31
0.0
0
LINE
8
refAndJunk
62
4
5
520
100
AcDbEntity
100
AcDbLine
10
20.258058
20
229.821984
30
0.0
11
16.984265
21
228.597272
31
0.0
0
LINE
8
refAndJunk
62
4
5
521
100
AcDbEntity
100
AcDbLine
10
16.984265
20
228.597272
30
0.0
11
13.654536
21
227.595235
31
0.0
0
LINE
8
refAndJunk
62
4
5
522
100
AcDbEntity
100
AcDbLine
10
13.654536
20
227.595235
30
0.0
11
10.280057
21
226.815873
31
0.0
0
LINE
8
refAndJunk
62
4
5
523
100
AcDbEntity
100
AcDbLine
10
10.280057
20
226.815873
30
0.0
11
6.872017
21
226.259186
31
0.0
0
LINE
8
refAndJunk
62
4
5
524
100
AcDbEntity
100
AcDbLine
10
6.872017
20
226.259186
30
0.0
11
3.441602
21
225.925173
31
0.0
0
LINE
8
refAndJunk
62
4
5
525
100
AcDbEntity
100
AcDbLine
10
3.441602
20
225.925173
30
0.0
11
-0.000001
21
225.813836
31
0.0
0
LINE
8
refAndJunk
62
4
5
526
100
AcDbEntity
100
AcDbLine
10
-0.000001
20
225.813836
30
0.0
11
-3.441603
21
225.925173
31
0.0
0
LINE
8
refAndJunk
62
4
5
527
100
AcDbEntity
100
AcDbLine
10
-3.441603
20
225.925173
30
0.0
11
-6.872018
21
226.259186
31
0.0
0
LINE
8
refAndJunk
62
4
5
528
100
AcDbEntity
100
AcDbLine
10
-6.872018
20
226.259186
30
0.0
11
-10.280058
21
226.815873
31
0.0
0
LINE
8
refAndJunk
62
4
5
529
100
AcDbEntity
100
AcDbLine
10
-10.280058
20
226.815873
30
0.0
11
-13.654537
21
227.595235
31
0.0
0
LINE
8
refAndJunk
62
4
5
52a
100
AcDbEntity
100
AcDbLine
10
-13.654537
20
227.595235
30
0.0
11
-16.984266
21
228.597272
31
0.0
0
LINE
8
refAndJunk
62
4
5
52b
100
AcDbEntity
100
AcDbLine
10
-16.984266
20
228.597272
30
0.0
11
-20.258059
21
229.821984
31
0.0
0
LINE
8
refAndJunk
62
4
5
52c
100
AcDbEntity
100
AcDbLine
10
-20.258059
20
229.821984
30
0.0
11
-23.464728
21
231.269370
31
0.0
0
LINE
8
refAndJunk
62
4
5
52d
100
AcDbEntity
100
AcDbLine
10
-23.464728
20
231.269370
30
0.0
11
-26.593086
21
232.939432
31
0.0
0
LINE
8
refAndJunk
62
4
5
52e
100
AcDbEntity
100
AcDbLine
10
-26.593086
20
232.939432
30
0.0
11
-29.603581
21
234.813639
31
0.0
0
LINE
8
refAndJunk
62
4
5
52f
100
AcDbEntity
100
AcDbLine
10
-29.603581
20
234.813639
30
0.0
11
-32.460389
21
236.867002
31
0.0
0
LINE
8
refAndJunk
62
4
5
530
100
AcDbEntity
100
AcDbLine
10
-32.460389
20
236.867002
30
0.0
11
-35.157917
21
239.089834
31
0.0
0
LINE
8
refAndJunk
62
4
5
531
100
AcDbEntity
100
AcDbLine
10
-35.157917
20
239.089834
30
0.0
11
-37.690571
21
241.472446
31
0.0
0
LINE
8
refAndJunk
62
4
5
532
100
AcDbEntity
100
AcDbLine
10
-37.690571
20
241.472446
30
0.0
11
-40.052758
21
244.005149
31
0.0
0
LINE
8
refAndJunk
62
4
5
533
100
AcDbEntity
100
AcDbLine
10
-40.052758
20
244.005149
30
0.0
11
-42.238884
21
246.678255
31
0.0
0
LINE
8
refAndJunk
62
4
5
534
100
AcDbEntity
100
AcDbLine
10
-42.238884
20
246.678255
30
0.0
11
-44.243354
21
249.482075
31
0.0
0
LINE
8
refAndJunk
62
4
5
535
100
AcDbEntity
100
AcDbLine
10
-44.243354
20
249.482075
30
0.0
11
-46.060576
21
252.406922
31
0.0
0
LINE
8
refAndJunk
62
4
5
536
100
AcDbEntity
100
AcDbLine
10
-46.060576
20
252.406922
30
0.0
11
-47.684956
21
255.443105
31
0.0
0
LINE
8
refAndJunk
62
4
5
537
100
AcDbEntity
100
AcDbLine
10
-47.684956
20
255.443105
30
0.0
11
-49.110901
21
258.580938
31
0.0
0
LINE
8
refAndJunk
62
4
5
538
100
AcDbEntity
100
AcDbLine
10
-49.110901
20
258.580938
30
0.0
11
-50.332816
21
261.810731
31
0.0
0
LINE
8
refAndJunk
62
4
5
539
100
AcDbEntity
100
AcDbLine
10
-50.332816
20
261.810731
30
0.0
11
-51.345108
21
265.122796
31
0.0
0
LINE
8
refAndJunk
62
4
5
53a
100
AcDbEntity
100
AcDbLine
10
-51.345108
20
265.122796
30
0.0
11
-52.142183
21
268.507445
31
0.0
0
LINE
8
refAndJunk
62
4
5
53b
100
AcDbEntity
100
AcDbLine
10
-52.142183
20
268.507445
30
0.0
11
-52.718448
21
271.954989
31
0.0
0
LINE
8
refAndJunk
62
4
5
53c
100
AcDbEntity
100
AcDbLine
10
-52.718448
20
271.954989
30
0.0
11
-53.068309
21
275.455739
31
0.0
0
LINE
8
refAndJunk
62
4
5
53d
100
AcDbEntity
100
AcDbLine
10
-53.068309
20
275.455739
30
0.0
11
-53.186172
21
279.000008
31
0.0
0
LINE
8
refAndJunk
62
4
5
53e
100
AcDbEntity
100
AcDbLine
10
-53.186172
20
279.000008
30
0.0
11
-53.068309
21
282.544276
31
0.0
0
LINE
8
refAndJunk
62
4
5
53f
100
AcDbEntity
100
AcDbLine
10
-53.068309
20
282.544276
30
0.0
11
-52.718448
21
286.045026
31
0.0
0
LINE
8
refAndJunk
62
4
5
540
100
AcDbEntity
100
AcDbLine
10
-52.718448
20
286.045026
30
0.0
11
-52.142183
21
289.492570
31
0.0
0
LINE
8
refAndJunk
62
4
5
541
100
AcDbEntity
100
AcDbLine
10
-52.142183
20
289.492570
30
0.0
11
-51.345108
21
292.877219
31
0.0
0
LINE
8
refAndJunk
62
4
5
542
100
AcDbEntity
100
AcDbLine
10
-51.345108
20
292.877219
30
0.0
11
-50.332816
21
296.189284
31
0.0
0
LINE
8
refAndJunk
62
4
5
543
100
AcDbEntity
100
AcDbLine
10
-50.332816
20
296.189284
30
0.0
11
-49.110901
21
299.419077
31
0.0
0
LINE
8
refAndJunk
62
4
5
544
100
AcDbEntity
100
AcDbLine
10
-49.110901
20
299.419077
30
0.0
11
-47.684956
21
302.556910
31
0.0
0
LINE
8
refAndJunk
62
4
5
545
100
AcDbEntity
100
AcDbLine
10
-47.684956
20
302.556910
30
0.0
11
-46.060576
21
305.593093
31
0.0
0
LINE
8
refAndJunk
62
4
5
546
100
AcDbEntity
100
AcDbLine
10
-46.060576
20
305.593093
30
0.0
11
-44.243354
21
308.517940
31
0.0
0
LINE
8
refAndJunk
62
4
5
547
100
AcDbEntity
100
AcDbLine
10
-44.243354
20
308.517940
30
0.0
11
-42.238884
21
311.321760
31
0.0
0
LINE
8
refAndJunk
62
4
5
548
100
AcDbEntity
100
AcDbLine
10
-42.238884
20
311.321760
30
0.0
11
-40.052758
21
313.994866
31
0.0
0
LINE
8
refAndJunk
62
4
5
549
100
AcDbEntity
100
AcDbLine
10
-40.052758
20
313.994866
30
0.0
11
-37.690571
21
316.527569
31
0.0
0
LINE
8
refAndJunk
62
4
5
54a
100
AcDbEntity
100
AcDbLine
10
-37.690571
20
316.527569
30
0.0
11
-35.157917
21
318.910181
31
0.0
0
LINE
8
refAndJunk
62
4
5
54b
100
AcDbEntity
100
AcDbLine
10
-35.157917
20
318.910181
30
0.0
11
-32.460389
21
321.133013
31
0.0
0
LINE
8
refAndJunk
62
4
5
54c
100
AcDbEntity
100
AcDbLine
10
-32.460389
20
321.133013
30
0.0
11
-29.603581
21
323.186376
31
0.0
0
LINE
8
refAndJunk
62
4
5
54d
100
AcDbEntity
100
AcDbLine
10
-29.603581
20
323.186376
30
0.0
11
-26.593086
21
325.060583
31
0.0
0
LINE
8
refAndJunk
62
4
5
54e
100
AcDbEntity
100
AcDbLine
10
-26.593086
20
325.060583
30
0.0
11
-23.464728
21
326.730645
31
0.0
0
LINE
8
refAndJunk
62
4
5
54f
100
AcDbEntity
100
AcDbLine
10
-23.464728
20
326.730645
30
0.0
11
-20.258059
21
328.178031
31
0.0
0
LINE
8
refAndJunk
62
4
5
550
100
AcDbEntity
100
AcDbLine
10
-20.258059
20
328.178031
30
0.0
11
-16.984266
21
329.402743
31
0.0
0
LINE
8
refAndJunk
62
4
5
551
100
AcDbEntity
100
AcDbLine
10
-16.984266
20
329.402743
30
0.0
11
-13.654537
21
330.404780
31
0.0
0
LINE
8
refAndJunk
62
4
5
552
100
AcDbEntity
100
AcDbLine
10
-13.654537
20
330.404780
30
0.0
11
-10.280058
21
331.184142
31
0.0
0
LINE
8
refAndJunk
62
4
5
553
100
AcDbEntity
100
AcDbLine
10
-10.280058
20
331.184142
30
0.0
11
-6.872018
21
331.740829
31
0.0
0
LINE
8
refAndJunk
62
4
5
554
100
AcDbEntity
100
AcDbLine
10
-6.872018
20
331.740829
30
0.0
11
-3.441603
21
332.074842
31
0.0
0
LINE
8
refAndJunk
62
4
5
555
100
AcDbEntity
100
AcDbLine
10
-3.441603
20
332.074842
30
0.0
11
-0.000001
21
332.186179
31
0.0
0
LINE
8
refAndJunk
62
4
5
556
100
AcDbEntity
100
AcDbLine
10
-0.000001
20
332.186179
30
0.0
11
3.441602
21
332.074842
31
0.0
0
LINE
8
refAndJunk
62
4
5
557
100
AcDbEntity
100
AcDbLine
10
3.441602
20
332.074842
30
0.0
11
6.872017
21
331.740829
31
0.0
0
LINE
8
refAndJunk
62
4
5
558
100
AcDbEntity
100
AcDbLine
10
6.872017
20
331.740829
30
0.0
11
10.280057
21
331.184142
31
0.0
0
LINE
8
refAndJunk
62
4
5
559
100
AcDbEntity
100
AcDbLine
10
10.280057
20
331.184142
30
0.0
11
13.654536
21
330.404780
31
0.0
0
LINE
8
refAndJunk
62
4
5
55a
100
AcDbEntity
100
AcDbLine
10
13.654536
20
330.404780
30
0.0
11
16.984265
21
329.402743
31
0.0
0
LINE
8
refAndJunk
62
4
5
55b
100
AcDbEntity
100
AcDbLine
10
16.984265
20
329.402743
30
0.0
11
20.258058
21
328.178031
31
0.0
0
LINE
8
refAndJunk
62
4
5
55c
100
AcDbEntity
100
AcDbLine
10
20.258058
20
328.178031
30
0.0
11
23.464727
21
326.730645
31
0.0
0
LINE
8
refAndJunk
62
4
5
55d
100
AcDbEntity
100
AcDbLine
10
23.464727
20
326.730645
30
0.0
11
26.593085
21
325.060583
31
0.0
0
LINE
8
refAndJunk
62
4
5
55e
100
AcDbEntity
100
AcDbLine
10
26.593085
20
325.060583
30
0.0
11
29.603580
21
323.186376
31
0.0
0
LINE
8
refAndJunk
62
4
5
55f
100
AcDbEntity
100
AcDbLine
10
29.603580
20
323.186376
30
0.0
11
32.460388
21
321.133013
31
0.0
0
LINE
8
refAndJunk
62
4
5
560
100
AcDbEntity
100
AcDbLine
10
32.460388
20
321.133013
30
0.0
11
35.157916
21
318.910181
31
0.0
0
LINE
8
refAndJunk
62
4
5
561
100
AcDbEntity
100
AcDbLine
10
35.157916
20
318.910181
30
0.0
11
37.690570
21
316.527569
31
0.0
0
LINE
8
refAndJunk
62
4
5
562
100
AcDbEntity
100
AcDbLine
10
37.690570
20
316.527569
30
0.0
11
40.052757
21
313.994866
31
0.0
0
LINE
8
refAndJunk
62
4
5
563
100
AcDbEntity
100
AcDbLine
10
40.052757
20
313.994866
30
0.0
11
42.238882
21
311.321760
31
0.0
0
LINE
8
refAndJunk
62
4
5
564
100
AcDbEntity
100
AcDbLine
10
42.238882
20
311.321760
30
0.0
11
44.243353
21
308.517940
31
0.0
0
LINE
8
refAndJunk
62
4
5
565
100
AcDbEntity
100
AcDbLine
10
44.243353
20
308.517940
30
0.0
11
46.060575
21
305.593093
31
0.0
0
LINE
8
refAndJunk
62
4
5
566
100
AcDbEntity
100
AcDbLine
10
46.060575
20
305.593093
30
0.0
11
47.684955
21
302.556910
31
0.0
0
LINE
8
refAndJunk
62
4
5
567
100
AcDbEntity
100
AcDbLine
10
47.684955
20
302.556910
30
0.0
11
49.110900
21
299.419077
31
0.0
0
LINE
8
refAndJunk
62
4
5
568
100
AcDbEntity
100
AcDbLine
10
49.110900
20
299.419077
30
0.0
11
50.332814
21
296.189284
31
0.0
0
LINE
8
refAndJunk
62
4
5
569
100
AcDbEntity
100
AcDbLine
10
50.332814
20
296.189284
30
0.0
11
51.345106
21
292.877219
31
0.0
0
LINE
8
refAndJunk
62
4
5
56a
100
AcDbEntity
100
AcDbLine
10
51.345106
20
292.877219
30
0.0
11
52.142182
21
289.492570
31
0.0
0
LINE
8
refAndJunk
62
4
5
56b
100
AcDbEntity
100
AcDbLine
10
52.142182
20
289.492570
30
0.0
11
52.718447
21
286.045026
31
0.0
0
LINE
8
refAndJunk
62
4
5
56c
100
AcDbEntity
100
AcDbLine
10
52.718447
20
286.045026
30
0.0
11
53.068308
21
282.544276
31
0.0
0
LINE
8
refAndJunk
62
4
5
56d
100
AcDbEntity
100
AcDbLine
10
53.068308
20
282.544276
30
0.0
11
53.186171
21
279.000008
31
0.0
0
LINE
8
refAndJunk
62
4
5
56e
100
AcDbEntity
100
AcDbLine
10
53.186171
20
279.000008
30
0.0
11
53.186171
21
279.000008
31
0.0
0
LINE
8
refAndJunk
62
4
5
56f
100
AcDbEntity
100
AcDbLine
10
164.972006
20
189.439885
30
0.0
11
164.778306
21
183.615115
31
0.0
0
LINE
8
refAndJunk
62
4
5
570
100
AcDbEntity
100
AcDbLine
10
164.778306
20
183.615115
30
0.0
11
164.203333
21
177.861864
31
0.0
0
LINE
8
refAndJunk
62
4
5
571
100
AcDbEntity
100
AcDbLine
10
164.203333
20
177.861864
30
0.0
11
163.256279
21
172.196054
31
0.0
0
LINE
8
refAndJunk
62
4
5
572
100
AcDbEntity
100
AcDbLine
10
163.256279
20
172.196054
30
0.0
11
161.946339
21
166.633609
31
0.0
0
LINE
8
refAndJunk
62
4
5
573
100
AcDbEntity
100
AcDbLine
10
161.946339
20
166.633609
30
0.0
11
160.282704
21
161.190449
31
0.0
0
LINE
8
refAndJunk
62
4
5
574
100
AcDbEntity
100
AcDbLine
10
160.282704
20
161.190449
30
0.0
11
158.274568
21
155.882498
31
0.0
0
LINE
8
refAndJunk
62
4
5
575
100
AcDbEntity
100
AcDbLine
10
158.274568
20
155.882498
30
0.0
11
155.931123
21
150.725678
31
0.0
0
LINE
8
refAndJunk
62
4
5
576
100
AcDbEntity
100
AcDbLine
10
155.931123
20
150.725678
30
0.0
11
153.261562
21
145.735911
31
0.0
0
LINE
8
refAndJunk
62
4
5
577
100
AcDbEntity
100
AcDbLine
10
153.261562
20
145.735911
30
0.0
11
150.275078
21
140.929120
31
0.0
0
LINE
8
refAndJunk
62
4
5
578
100
AcDbEntity
100
AcDbLine
10
150.275078
20
140.929120
30
0.0
11
146.980863
21
136.321227
31
0.0
0
LINE
8
refAndJunk
62
4
5
579
100
AcDbEntity
100
AcDbLine
10
146.980863
20
136.321227
30
0.0
11
143.388111
21
131.928155
31
0.0
0
LINE
8
refAndJunk
62
4
5
57a
100
AcDbEntity
100
AcDbLine
10
143.388111
20
131.928155
30
0.0
11
139.506014
21
127.765825
31
0.0
0
LINE
8
refAndJunk
62
4
5
57b
100
AcDbEntity
100
AcDbLine
10
139.506014
20
127.765825
30
0.0
11
135.343765
21
123.850161
31
0.0
0
LINE
8
refAndJunk
62
4
5
57c
100
AcDbEntity
100
AcDbLine
10
135.343765
20
123.850161
30
0.0
11
130.910556
21
120.197084
31
0.0
0
LINE
8
refAndJunk
62
4
5
57d
100
AcDbEntity
100
AcDbLine
10
130.910556
20
120.197084
30
0.0
11
126.215581
21
116.822517
31
0.0
0
LINE
8
refAndJunk
62
4
5
57e
100
AcDbEntity
100
AcDbLine
10
126.215581
20
116.822517
30
0.0
11
121.268033
21
113.742382
31
0.0
0
LINE
8
refAndJunk
62
4
5
57f
100
AcDbEntity
100
AcDbLine
10
121.268033
20
113.742382
30
0.0
11
116.126784
21
110.997747
31
0.0
0
LINE
8
refAndJunk
62
4
5
580
100
AcDbEntity
100
AcDbLine
10
116.126784
20
110.997747
30
0.0
11
110.856835
21
108.619063
31
0.0
0
LINE
8
refAndJunk
62
4
5
581
100
AcDbEntity
100
AcDbLine
10
110.856835
20
108.619063
30
0.0
11
105.476574
21
106.606330
31
0.0
0
LINE
8
refAndJunk
62
4
5
582
100
AcDbEntity
100
AcDbLine
10
105.476574
20
106.606330
30
0.0
11
100.004384
21
104.959549
31
0.0
0
LINE
8
refAndJunk
62
4
5
583
100
AcDbEntity
100
AcDbLine
10
100.004384
20
104.959549
30
0.0
11
94.458652
21
103.678719
31
0.0
0
LINE
8
refAndJunk
62
4
5
584
100
AcDbEntity
100
AcDbLine
10
94.458652
20
103.678719
30
0.0
11
88.857764
21
102.763840
31
0.0
0
LINE
8
refAndJunk
62
4
5
585
100
AcDbEntity
100
AcDbLine
10
88.857764
20
102.763840
30
0.0
11
83.220104
21
102.214913
31
0.0
0
LINE
8
refAndJunk
62
4
5
586
100
AcDbEntity
100
AcDbLine
10
83.220104
20
102.214913
30
0.0
11
77.564059
21
102.031938
31
0.0
0
LINE
8
refAndJunk
62
4
5
587
100
AcDbEntity
100
AcDbLine
10
77.564059
20
102.031938
30
0.0
11
71.908014
21
102.214913
31
0.0
0
LINE
8
refAndJunk
62
4
5
588
100
AcDbEntity
100
AcDbLine
10
71.908014
20
102.214913
30
0.0
11
66.270354
21
102.763840
31
0.0
0
LINE
8
refAndJunk
62
4
5
589
100
AcDbEntity
100
AcDbLine
10
66.270354
20
102.763840
30
0.0
11
60.669466
21
103.678719
31
0.0
0
LINE
8
refAndJunk
62
4
5
58a
100
AcDbEntity
100
AcDbLine
10
60.669466
20
103.678719
30
0.0
11
55.123734
21
104.959549
31
0.0
0
LINE
8
refAndJunk
62
4
5
58b
100
AcDbEntity
100
AcDbLine
10
55.123734
20
104.959549
30
0.0
11
49.651544
21
106.606330
31
0.0
0
LINE
8
refAndJunk
62
4
5
58c
100
AcDbEntity
100
AcDbLine
10
49.651544
20
106.606330
30
0.0
11
44.271283
21
108.619063
31
0.0
0
LINE
8
refAndJunk
62
4
5
58d
100
AcDbEntity
100
AcDbLine
10
44.271283
20
108.619063
30
0.0
11
39.001335
21
110.997747
31
0.0
0
LINE
8
refAndJunk
62
4
5
58e
100
AcDbEntity
100
AcDbLine
10
39.001335
20
110.997747
30
0.0
11
33.860085
21
113.742382
31
0.0
0
LINE
8
refAndJunk
62
4
5
58f
100
AcDbEntity
100
AcDbLine
10
33.860085
20
113.742382
30
0.0
11
28.912537
21
116.822517
31
0.0
0
LINE
8
refAndJunk
62
4
5
590
100
AcDbEntity
100
AcDbLine
10
28.912537
20
116.822517
30
0.0
11
24.217562
21
120.197084
31
0.0
0
LINE
8
refAndJunk
62
4
5
591
100
AcDbEntity
100
AcDbLine
10
24.217562
20
120.197084
30
0.0
11
19.784353
21
123.850161
31
0.0
0
LINE
8
refAndJunk
62
4
5
592
100
AcDbEntity
100
AcDbLine
10
19.784353
20
123.850161
30
0.0
11
15.622104
21
127.765825
31
0.0
0
LINE
8
refAndJunk
62
4
5
593
100
AcDbEntity
100
AcDbLine
10
15.622104
20
127.765825
30
0.0
11
11.740007
21
131.928155
31
0.0
0
LINE
8
refAndJunk
62
4
5
594
100
AcDbEntity
100
AcDbLine
10
11.740007
20
131.928155
30
0.0
11
8.147255
21
136.321227
31
0.0
0
LINE
8
refAndJunk
62
4
5
595
100
AcDbEntity
100
AcDbLine
10
8.147255
20
136.321227
30
0.0
11
4.853040
21
140.929120
31
0.0
0
LINE
8
refAndJunk
62
4
5
596
100
AcDbEntity
100
AcDbLine
10
4.853040
20
140.929120
30
0.0
11
1.866556
21
145.735911
31
0.0
0
LINE
8
refAndJunk
62
4
5
597
100
AcDbEntity
100
AcDbLine
10
1.866556
20
145.735911
30
0.0
11
-0.803005
21
150.725678
31
0.0
0
LINE
8
refAndJunk
62
4
5
598
100
AcDbEntity
100
AcDbLine
10
-0.803005
20
150.725678
30
0.0
11
-3.146450
21
155.882498
31
0.0
0
LINE
8
refAndJunk
62
4
5
599
100
AcDbEntity
100
AcDbLine
10
-3.146450
20
155.882498
30
0.0
11
-5.154586
21
161.190449
31
0.0
0
LINE
8
refAndJunk
62
4
5
59a
100
AcDbEntity
100
AcDbLine
10
-5.154586
20
161.190449
30
0.0
11
-6.818221
21
166.633609
31
0.0
0
LINE
8
refAndJunk
62
4
5
59b
100
AcDbEntity
100
AcDbLine
10
-6.818221
20
166.633609
30
0.0
11
-8.128161
21
172.196054
31
0.0
0
LINE
8
refAndJunk
62
4
5
59c
100
AcDbEntity
100
AcDbLine
10
-8.128161
20
172.196054
30
0.0
11
-9.075215
21
177.861864
31
0.0
0
LINE
8
refAndJunk
62
4
5
59d
100
AcDbEntity
100
AcDbLine
10
-9.075215
20
177.861864
30
0.0
11
-9.650188
21
183.615115
31
0.0
0
LINE
8
refAndJunk
62
4
5
59e
100
AcDbEntity
100
AcDbLine
10
-9.650188
20
183.615115
30
0.0
11
-9.843888
21
189.439885
31
0.0
0
LINE
8
refAndJunk
62
4
5
59f
100
AcDbEntity
100
AcDbLine
10
-9.843888
20
189.439885
30
0.0
11
-9.650188
21
195.264655
31
0.0
0
LINE
8
refAndJunk
62
4
5
5a0
100
AcDbEntity
100
AcDbLine
10
-9.650188
20
195.264655
30
0.0
11
-9.075215
21
201.017906
31
0.0
0
LINE
8
refAndJunk
62
4
5
5a1
100
AcDbEntity
100
AcDbLine
10
-9.075215
20
201.017906
30
0.0
11
-8.128161
21
206.683716
31
0.0
0
LINE
8
refAndJunk
62
4
5
5a2
100
AcDbEntity
100
AcDbLine
10
-8.128161
20
206.683716
30
0.0
11
-6.818221
21
212.246162
31
0.0
0
LINE
8
refAndJunk
62
4
5
5a3
100
AcDbEntity
100
AcDbLine
10
-6.818221
20
212.246162
30
0.0
11
-5.154586
21
217.689321
31
0.0
0
LINE
8
refAndJunk
62
4
5
5a4
100
AcDbEntity
100
AcDbLine
10
-5.154586
20
217.689321
30
0.0
11
-3.146450
21
222.997272
31
0.0
0
LINE
8
refAndJunk
62
4
5
5a5
100
AcDbEntity
100
AcDbLine
10
-3.146450
20
222.997272
30
0.0
11
-0.803005
21
228.154092
31
0.0
0
LINE
8
refAndJunk
62
4
5
5a6
100
AcDbEntity
100
AcDbLine
10
-0.803005
20
228.154092
30
0.0
11
1.866556
21
233.143859
31
0.0
0
LINE
8
refAndJunk
62
4
5
5a7
100
AcDbEntity
100
AcDbLine
10
1.866556
20
233.143859
30
0.0
11
4.853040
21
237.950650
31
0.0
0
LINE
8
refAndJunk
62
4
5
5a8
100
AcDbEntity
100
AcDbLine
10
4.853040
20
237.950650
30
0.0
11
8.147255
21
242.558543
31
0.0
0
LINE
8
refAndJunk
62
4
5
5a9
100
AcDbEntity
100
AcDbLine
10
8.147255
20
242.558543
30
0.0
11
11.740007
21
246.951615
31
0.0
0
LINE
8
refAndJunk
62
4
5
5aa
100
AcDbEntity
100
AcDbLine
10
11.740007
20
246.951615
30
0.0
11
15.622104
21
251.113945
31
0.0
0
LINE
8
refAndJunk
62
4
5
5ab
100
AcDbEntity
100
AcDbLine
10
15.622104
20
251.113945
30
0.0
11
19.784353
21
255.029609
31
0.0
0
LINE
8
refAndJunk
62
4
5
5ac
100
AcDbEntity
100
AcDbLine
10
19.784353
20
255.029609
30
0.0
11
24.217562
21
258.682686
31
0.0
0
LINE
8
refAndJunk
62
4
5
5ad
100
AcDbEntity
100
AcDbLine
10
24.217562
20
258.682686
30
0.0
11
28.912537
21
262.057253
31
0.0
0
LINE
8
refAndJunk
62
4
5
5ae
100
AcDbEntity
100
AcDbLine
10
28.912537
20
262.057253
30
0.0
11
33.860085
21
265.137388
31
0.0
0
LINE
8
refAndJunk
62
4
5
5af
100
AcDbEntity
100
AcDbLine
10
33.860085
20
265.137388
30
0.0
11
39.001335
21
267.882023
31
0.0
0
LINE
8
refAndJunk
62
4
5
5b0
100
AcDbEntity
100
AcDbLine
10
39.001335
20
267.882023
30
0.0
11
44.271283
21
270.260708
31
0.0
0
LINE
8
refAndJunk
62
4
5
5b1
100
AcDbEntity
100
AcDbLine
10
44.271283
20
270.260708
30
0.0
11
49.651544
21
272.273440
31
0.0
0
LINE
8
refAndJunk
62
4
5
5b2
100
AcDbEntity
100
AcDbLine
10
49.651544
20
272.273440
30
0.0
11
55.123734
21
273.920221
31
0.0
0
LINE
8
refAndJunk
62
4
5
5b3
100
AcDbEntity
100
AcDbLine
10
55.123734
20
273.920221
30
0.0
11
60.669466
21
275.201051
31
0.0
0
LINE
8
refAndJunk
62
4
5
5b4
100
AcDbEntity
100
AcDbLine
10
60.669466
20
275.201051
30
0.0
11
66.270354
21
276.115930
31
0.0
0
LINE
8
refAndJunk
62
4
5
5b5
100
AcDbEntity
100
AcDbLine
10
66.270354
20
276.115930
30
0.0
11
71.908014
21
276.664857
31
0.0
0
LINE
8
refAndJunk
62
4
5
5b6
100
AcDbEntity
100
AcDbLine
10
71.908014
20
276.664857
30
0.0
11
77.564059
21
276.847833
31
0.0
0
LINE
8
refAndJunk
62
4
5
5b7
100
AcDbEntity
100
AcDbLine
10
77.564059
20
276.847833
30
0.0
11
83.220104
21
276.664857
31
0.0
0
LINE
8
refAndJunk
62
4
5
5b8
100
AcDbEntity
100
AcDbLine
10
83.220104
20
276.664857
30
0.0
11
88.857764
21
276.115930
31
0.0
0
LINE
8
refAndJunk
62
4
5
5b9
100
AcDbEntity
100
AcDbLine
10
88.857764
20
276.115930
30
0.0
11
94.458652
21
275.201051
31
0.0
0
LINE
8
refAndJunk
62
4
5
5ba
100
AcDbEntity
100
AcDbLine
10
94.458652
20
275.201051
30
0.0
11
100.004384
21
273.920221
31
0.0
0
LINE
8
refAndJunk
62
4
5
5bb
100
AcDbEntity
100
AcDbLine
10
100.004384
20
273.920221
30
0.0
11
105.476574
21
272.273440
31
0.0
0
LINE
8
refAndJunk
62
4
5
5bc
100
AcDbEntity
100
AcDbLine
10
105.476574
20
272.273440
30
0.0
11
110.856835
21
270.260708
31
0.0
0
LINE
8
refAndJunk
62
4
5
5bd
100
AcDbEntity
100
AcDbLine
10
110.856835
20
270.260708
30
0.0
11
116.126784
21
267.882023
31
0.0
0
LINE
8
refAndJunk
62
4
5
5be
100
AcDbEntity
100
AcDbLine
10
116.126784
20
267.882023
30
0.0
11
121.268033
21
265.137388
31
0.0
0
LINE
8
refAndJunk
62
4
5
5bf
100
AcDbEntity
100
AcDbLine
10
121.268033
20
265.137388
30
0.0
11
126.215581
21
262.057253
31
0.0
0
LINE
8
refAndJunk
62
4
5
5c0
100
AcDbEntity
100
AcDbLine
10
126.215581
20
262.057253
30
0.0
11
130.910556
21
258.682686
31
0.0
0
LINE
8
refAndJunk
62
4
5
5c1
100
AcDbEntity
100
AcDbLine
10
130.910556
20
258.682686
30
0.0
11
135.343765
21
255.029609
31
0.0
0
LINE
8
refAndJunk
62
4
5
5c2
100
AcDbEntity
100
AcDbLine
10
135.343765
20
255.029609
30
0.0
11
139.506014
21
251.113945
31
0.0
0
LINE
8
refAndJunk
62
4
5
5c3
100
AcDbEntity
100
AcDbLine
10
139.506014
20
251.113945
30
0.0
11
143.388111
21
246.951615
31
0.0
0
LINE
8
refAndJunk
62
4
5
5c4
100
AcDbEntity
100
AcDbLine
10
143.388111
20
246.951615
30
0.0
11
146.980863
21
242.558543
31
0.0
0
LINE
8
refAndJunk
62
4
5
5c5
100
AcDbEntity
100
AcDbLine
10
146.980863
20
242.558543
30
0.0
11
150.275078
21
237.950650
31
0.0
0
LINE
8
refAndJunk
62
4
5
5c6
100
AcDbEntity
100
AcDbLine
10
150.275078
20
237.950650
30
0.0
11
153.261562
21
233.143859
31
0.0
0
LINE
8
refAndJunk
62
4
5
5c7
100
AcDbEntity
100
AcDbLine
10
153.261562
20
233.143859
30
0.0
11
155.931123
21
228.154092
31
0.0
0
LINE
8
refAndJunk
62
4
5
5c8
100
AcDbEntity
100
AcDbLine
10
155.931123
20
228.154092
30
0.0
11
158.274568
21
222.997272
31
0.0
0
LINE
8
refAndJunk
62
4
5
5c9
100
AcDbEntity
100
AcDbLine
10
158.274568
20
222.997272
30
0.0
11
160.282704
21
217.689321
31
0.0
0
LINE
8
refAndJunk
62
4
5
5ca
100
AcDbEntity
100
AcDbLine
10
160.282704
20
217.689321
30
0.0
11
161.946339
21
212.246162
31
0.0
0
LINE
8
refAndJunk
62
4
5
5cb
100
AcDbEntity
100
AcDbLine
10
161.946339
20
212.246162
30
0.0
11
163.256279
21
206.683716
31
0.0
0
LINE
8
refAndJunk
62
4
5
5cc
100
AcDbEntity
100
AcDbLine
10
163.256279
20
206.683716
30
0.0
11
164.203333
21
201.017906
31
0.0
0
LINE
8
refAndJunk
62
4
5
5cd
100
AcDbEntity
100
AcDbLine
10
164.203333
20
201.017906
30
0.0
11
164.778306
21
195.264655
31
0.0
0
LINE
8
refAndJunk
62
4
5
5ce
100
AcDbEntity
100
AcDbLine
10
164.778306
20
195.264655
30
0.0
11
164.972006
21
189.439885
31
0.0
0
LINE
8
refAndJunk
62
4
5
5cf
100
AcDbEntity
100
AcDbLine
10
164.972006
20
189.439885
30
0.0
11
164.972006
21
189.439885
31
0.0
0
LINE
8
refAndJunk
62
4
5
5d0
100
AcDbEntity
100
AcDbLine
10
103.394154
20
272.796563
30
0.0
11
124.430130
21
116.407789
31
0.0
0
LINE
8
refAndJunk
62
4
5
5d1
100
AcDbEntity
100
AcDbLine
10
103.394154
20
272.796563
30
0.0
11
102.536636
21
116.407789
31
0.0
  0
ENDSEC
  0
SECTION
  2
OBJECTS
  0
DICTIONARY
  5
C
330
0
100
AcDbDictionary
  3
ACAD_GROUP
350
D
  3
ACAD_MLINESTYLE
350
17
  0
DICTIONARY
  5
D
330
C
100
AcDbDictionary
  0
DICTIONARY
  5
1A
330
C
100
AcDbDictionary
  0
DICTIONARY
  5
17
330
C
100
AcDbDictionary
  3
STANDARD
350
18
  0
DICTIONARY
  5
19
330
C
100
AcDbDictionary
  0
ENDSEC
  0
EOF
