999
Inkscape export via "Better DXF Output" (bob@bobcookdev.com)
  0
SECTION
  2
HEADER
  9
$ACADVER
  1
AC1014
  9
$HANDSEED
  5
FFFF
  0
ENDSEC
  0
SECTION
  2
TABLES
  0
TABLE
  2
VPORT
  5
8
330
0
100
AcDbSymbolTable
 70
     4
  0
VPORT
  5
2E
330
8
100
AcDbSymbolTableRecord
100
AcDbViewportTableRecord
  2
*ACTIVE
 70
     0
 10
0.0
 20
0.0
 11
1.0
 21
1.0
 12
4.25
 22
5.5
 13
0.0
 23
0.0
 14
10.0
 24
10.0
 15
10.0
 25
10.0
 16
0.0
 26
0.0
 36
1.0
 17
0.0
 27
0.0
 37
0.0
 40
11
 41
1.24
 42
50.0
 43
0.0
 44
0.0
 50
0.0
 51
0.0
 71
     0
 72
   100
 73
     1
 74
     3
 75
     0
 76
     0
 77
     0
 78
     0
  0
ENDTAB
  0
TABLE
  2
LTYPE
  5
5
330
0
100
AcDbSymbolTable
 70
     1
  0
LTYPE
  5
14
330
5
100
AcDbSymbolTableRecord
100
AcDbLinetypeTableRecord
  2
BYBLOCK
 70
     0
  3

 72
    65
 73
     0
 40
0.0
  0
LTYPE
  5
15
330
5
100
AcDbSymbolTableRecord
100
AcDbLinetypeTableRecord
  2
BYLAYER
 70
     0
  3

 72
    65
 73
     0
 40
0.0
  0
LTYPE
  5
16
330
5
100
AcDbSymbolTableRecord
100
AcDbLinetypeTableRecord
  2
CONTINUOUS
 70
     0
  3
Solid line
 72
    65
 73
     0
 40
0.0
  0
ENDTAB
  0
TABLE
  2
LAYER
  5
2
330
0
100
AcDbSymbolTable
 70
1
  0
LAYER
  5
10
330
2
100
AcDbSymbolTableRecord
100
AcDbLayerTableRecord
  2
0
 70
     0
 62
     7
  6
CONTINUOUS
  0
ENDTAB
  0
TABLE
  2
STYLE
  5
3
330
0
100
AcDbSymbolTable
 70
     1
  0
STYLE
  5
11
330
3
100
AcDbSymbolTableRecord
100
AcDbTextStyleTableRecord
  2
STANDARD
 70
     0
 40
0.0
 41
1.0
 50
0.0
 71
     0
 42
2.5
  3
txt
  4

  0
ENDTAB
  0
TABLE
  2
VIEW
  5
6
330
0
100
AcDbSymbolTable
 70
     0
  0
ENDTAB
  0
TABLE
  2
UCS
  5
7
330
0
100
AcDbSymbolTable
 70
     0
  0
ENDTAB
  0
TABLE
  2
APPID
  5
9
330
0
100
AcDbSymbolTable
 70
     2
  0
APPID
  5
12
330
9
100
AcDbSymbolTableRecord
100
AcDbRegAppTableRecord
  2
ACAD
 70
     0
  0
ENDTAB
  0
TABLE
  2
DIMSTYLE
  5
A
330
0
100
AcDbSymbolTable
 70
     1
  0
DIMSTYLE
105
27
330
A
100
AcDbSymbolTableRecord
100
AcDbDimStyleTableRecord
  2
ISO-25
 70
     0
  3

  4

  5

  6

  7

 40
1.0
 41
2.5
 42
0.625
 43
3.75
 44
1.25
 45
0.0
 46
0.0
 47
0.0
 48
0.0
140
2.5
141
2.5
142
0.0
143
0.03937007874016
144
1.0
145
0.0
146
1.0
147
0.625
 71
     0
 72
     0
 73
     0
 74
     0
 75
     0
 76
     0
 77
     1
 78
     8
170
     0
171
     3
172
     1
173
     0
174
     0
175
     0
176
     0
177
     0
178
     0
270
     2
271
     2
272
     2
273
     2
274
     3
340
11
275
     0
280
     0
281
     0
282
     0
283
     0
284
     8
285
     0
286
     0
287
     3
288
     0
  0
ENDTAB
  0
TABLE
  2
BLOCK_RECORD
  5
1
330
0
100
AcDbSymbolTable
 70
     1
  0
BLOCK_RECORD
  5
1F
330
1
100
AcDbSymbolTableRecord
100
AcDbBlockTableRecord
  2
*MODEL_SPACE
  0
BLOCK_RECORD
  5
1B
330
1
100
AcDbSymbolTableRecord
100
AcDbBlockTableRecord
  2
*PAPER_SPACE
  0
ENDTAB
  0
ENDSEC
  0
SECTION
  2
BLOCKS
  0
BLOCK
  5
20
330
1F
100
AcDbEntity
  8
0
100
AcDbBlockBegin
  2
*MODEL_SPACE
 70
     0
 10
0.0
 20
0.0
 30
0.0
  3
*MODEL_SPACE
  1

  0
ENDBLK
  5
21
330
1F
100
AcDbEntity
  8
0
100
AcDbBlockEnd
  0
BLOCK
  5
1C
330
1B
100
AcDbEntity
 67
     1
  8
0
100
AcDbBlockBegin
  2
*PAPER_SPACE
  1

  0
ENDBLK
  5
1D
330
1B
100
AcDbEntity
 67
     1
  8
0
100
AcDbBlockEnd
  0
ENDSEC
  0
SECTION
  2
ENTITIES
0
LINE
8
base
62
4
5
100
100
AcDbEntity
100
AcDbLine
10
0.176430
20
210.641202
30
0.0
11
45.202921
21
210.641202
31
0.0
0
LINE
8
base
62
4
5
101
100
AcDbEntity
100
AcDbLine
10
45.202921
20
210.641202
30
0.0
11
63.692264
21
210.641202
31
0.0
0
LINE
8
base
62
4
5
102
100
AcDbEntity
100
AcDbLine
10
63.692264
20
210.641202
30
0.0
11
64.886194
21
210.490069
31
0.0
0
LINE
8
base
62
4
5
103
100
AcDbEntity
100
AcDbLine
10
64.886194
20
210.490069
30
0.0
11
65.941180
21
210.048516
31
0.0
0
LINE
8
base
62
4
5
104
100
AcDbEntity
100
AcDbLine
10
65.941180
20
210.048516
30
0.0
11
66.863843
21
209.334316
31
0.0
0
LINE
8
base
62
4
5
105
100
AcDbEntity
100
AcDbLine
10
66.863843
20
209.334316
30
0.0
11
67.660814
21
208.365244
31
0.0
0
LINE
8
base
62
4
5
106
100
AcDbEntity
100
AcDbLine
10
67.660814
20
208.365244
30
0.0
11
68.338714
21
207.159071
31
0.0
0
LINE
8
base
62
4
5
107
100
AcDbEntity
100
AcDbLine
10
68.338714
20
207.159071
30
0.0
11
68.904172
21
205.733567
31
0.0
0
LINE
8
base
62
4
5
108
100
AcDbEntity
100
AcDbLine
10
68.904172
20
205.733567
30
0.0
11
69.363813
21
204.106505
31
0.0
0
LINE
8
base
62
4
5
109
100
AcDbEntity
100
AcDbLine
10
69.363813
20
204.106505
30
0.0
11
69.724267
21
202.295660
31
0.0
0
LINE
8
base
62
4
5
10a
100
AcDbEntity
100
AcDbLine
10
69.724267
20
202.295660
30
0.0
11
69.992158
21
200.318800
31
0.0
0
LINE
8
base
62
4
5
10b
100
AcDbEntity
100
AcDbLine
10
69.992158
20
200.318800
30
0.0
11
70.174112
21
198.193704
31
0.0
0
LINE
8
base
62
4
5
10c
100
AcDbEntity
100
AcDbLine
10
70.174112
20
198.193704
30
0.0
11
70.276760
21
195.938136
31
0.0
0
LINE
8
base
62
4
5
10d
100
AcDbEntity
100
AcDbLine
10
70.276760
20
195.938136
30
0.0
11
70.306720
21
193.569874
31
0.0
0
LINE
8
base
62
4
5
10e
100
AcDbEntity
100
AcDbLine
10
70.306720
20
193.569874
30
0.0
11
70.175100
21
188.566350
31
0.0
0
LINE
8
base
62
4
5
10f
100
AcDbEntity
100
AcDbLine
10
70.175100
20
188.566350
30
0.0
11
69.832268
21
183.325308
31
0.0
0
LINE
8
base
62
4
5
110
100
AcDbEntity
100
AcDbLine
10
69.832268
20
183.325308
30
0.0
11
69.331236
21
177.988932
31
0.0
0
LINE
8
base
62
4
5
111
100
AcDbEntity
100
AcDbLine
10
69.331236
20
177.988932
30
0.0
11
68.725011
21
172.699393
31
0.0
0
LINE
8
base
62
4
5
112
100
AcDbEntity
100
AcDbLine
10
68.725011
20
172.699393
30
0.0
11
67.409037
21
162.829555
31
0.0
0
LINE
8
base
62
4
5
113
100
AcDbEntity
100
AcDbLine
10
67.409037
20
162.829555
30
0.0
11
66.308453
21
154.853218
31
0.0
0
LINE
8
base
62
4
5
114
100
AcDbEntity
100
AcDbLine
10
66.308453
20
154.853218
30
0.0
11
65.971460
21
151.930559
31
0.0
0
LINE
8
base
62
4
5
115
100
AcDbEntity
100
AcDbLine
10
65.971460
20
151.930559
30
0.0
11
65.847347
21
149.907807
31
0.0
0
LINE
8
base
62
4
5
116
100
AcDbEntity
100
AcDbLine
10
65.847347
20
149.907807
30
0.0
11
64.574245
21
151.114959
31
0.0
0
LINE
8
base
62
4
5
117
100
AcDbEntity
100
AcDbLine
10
64.574245
20
151.114959
30
0.0
11
63.310016
21
152.146134
31
0.0
0
LINE
8
base
62
4
5
118
100
AcDbEntity
100
AcDbLine
10
63.310016
20
152.146134
30
0.0
11
62.054610
21
153.006367
31
0.0
0
LINE
8
base
62
4
5
119
100
AcDbEntity
100
AcDbLine
10
62.054610
20
153.006367
30
0.0
11
60.807975
21
153.700687
31
0.0
0
LINE
8
base
62
4
5
11a
100
AcDbEntity
100
AcDbLine
10
60.807975
20
153.700687
30
0.0
11
59.570064
21
154.234127
31
0.0
0
LINE
8
base
62
4
5
11b
100
AcDbEntity
100
AcDbLine
10
59.570064
20
154.234127
30
0.0
11
58.340825
21
154.611718
31
0.0
0
LINE
8
base
62
4
5
11c
100
AcDbEntity
100
AcDbLine
10
58.340825
20
154.611718
30
0.0
11
57.120209
21
154.838492
31
0.0
0
LINE
8
base
62
4
5
11d
100
AcDbEntity
100
AcDbLine
10
57.120209
20
154.838492
30
0.0
11
55.908166
21
154.919481
31
0.0
0
LINE
8
base
62
4
5
11e
100
AcDbEntity
100
AcDbLine
10
55.908166
20
154.919481
30
0.0
11
54.704646
21
154.859718
31
0.0
0
LINE
8
base
62
4
5
11f
100
AcDbEntity
100
AcDbLine
10
54.704646
20
154.859718
30
0.0
11
53.509599
21
154.664234
31
0.0
0
LINE
8
base
62
4
5
120
100
AcDbEntity
100
AcDbLine
10
53.509599
20
154.664234
30
0.0
11
52.322976
21
154.338058
31
0.0
0
LINE
8
base
62
4
5
121
100
AcDbEntity
100
AcDbLine
10
52.322976
20
154.338058
30
0.0
11
51.144726
21
153.886223
31
0.0
0
LINE
8
base
62
4
5
122
100
AcDbEntity
100
AcDbLine
10
51.144726
20
153.886223
30
0.0
11
49.974799
21
153.313764
31
0.0
0
LINE
8
base
62
4
5
123
100
AcDbEntity
100
AcDbLine
10
49.974799
20
153.313764
30
0.0
11
48.813144
21
152.625709
31
0.0
0
LINE
8
base
62
4
5
124
100
AcDbEntity
100
AcDbLine
10
48.813144
20
152.625709
30
0.0
11
47.659713
21
151.827093
31
0.0
0
LINE
8
base
62
4
5
125
100
AcDbEntity
100
AcDbLine
10
47.659713
20
151.827093
30
0.0
11
46.514458
21
150.922943
31
0.0
0
LINE
8
base
62
4
5
126
100
AcDbEntity
100
AcDbLine
10
46.514458
20
150.922943
30
0.0
11
44.248265
21
148.818178
31
0.0
0
LINE
8
base
62
4
5
127
100
AcDbEntity
100
AcDbLine
10
44.248265
20
148.818178
30
0.0
11
42.014174
21
146.351671
31
0.0
0
LINE
8
base
62
4
5
128
100
AcDbEntity
100
AcDbLine
10
42.014174
20
146.351671
30
0.0
11
39.811774
21
143.563677
31
0.0
0
LINE
8
base
62
4
5
129
100
AcDbEntity
100
AcDbLine
10
39.811774
20
143.563677
30
0.0
11
37.640672
21
140.494448
31
0.0
0
LINE
8
base
62
4
5
12a
100
AcDbEntity
100
AcDbLine
10
37.640672
20
140.494448
30
0.0
11
35.500471
21
137.184236
31
0.0
0
LINE
8
base
62
4
5
12b
100
AcDbEntity
100
AcDbLine
10
35.500471
20
137.184236
30
0.0
11
33.390769
21
133.673295
31
0.0
0
LINE
8
base
62
4
5
12c
100
AcDbEntity
100
AcDbLine
10
33.390769
20
133.673295
30
0.0
11
31.311167
21
130.001883
31
0.0
0
LINE
8
base
62
4
5
12d
100
AcDbEntity
100
AcDbLine
10
31.311167
20
130.001883
30
0.0
11
29.261266
21
126.210250
31
0.0
0
LINE
8
base
62
4
5
12e
100
AcDbEntity
100
AcDbLine
10
29.261266
20
126.210250
30
0.0
11
25.248969
21
118.427346
31
0.0
0
LINE
8
base
62
4
5
12f
100
AcDbEntity
100
AcDbLine
10
25.248969
20
118.427346
30
0.0
11
21.350685
21
110.646615
31
0.0
0
LINE
8
base
62
4
5
130
100
AcDbEntity
100
AcDbLine
10
21.350685
20
110.646615
30
0.0
11
17.563222
21
103.190084
31
0.0
0
LINE
8
base
62
4
5
131
100
AcDbEntity
100
AcDbLine
10
17.563222
20
103.190084
30
0.0
11
15.710050
21
99.684031
31
0.0
0
LINE
8
base
62
4
5
132
100
AcDbEntity
100
AcDbLine
10
15.710050
20
99.684031
30
0.0
11
13.883385
21
96.379788
31
0.0
0
LINE
8
base
62
4
5
133
100
AcDbEntity
100
AcDbLine
10
13.883385
20
96.379788
30
0.0
11
12.082829
21
93.317614
31
0.0
0
LINE
8
base
62
4
5
134
100
AcDbEntity
100
AcDbLine
10
12.082829
20
93.317614
30
0.0
11
10.307981
21
90.537762
31
0.0
0
LINE
8
base
62
4
5
135
100
AcDbEntity
100
AcDbLine
10
10.307981
20
90.537762
30
0.0
11
8.558443
21
88.080484
31
0.0
0
LINE
8
base
62
4
5
136
100
AcDbEntity
100
AcDbLine
10
8.558443
20
88.080484
30
0.0
11
6.833816
21
85.986037
31
0.0
0
LINE
8
base
62
4
5
137
100
AcDbEntity
100
AcDbLine
10
6.833816
20
85.986037
30
0.0
11
5.133700
21
84.294671
31
0.0
0
LINE
8
base
62
4
5
138
100
AcDbEntity
100
AcDbLine
10
5.133700
20
84.294671
30
0.0
11
4.292710
21
83.612720
31
0.0
0
LINE
8
base
62
4
5
139
100
AcDbEntity
100
AcDbLine
10
4.292710
20
83.612720
30
0.0
11
3.457697
21
83.046642
31
0.0
0
LINE
8
base
62
4
5
13a
100
AcDbEntity
100
AcDbLine
10
3.457697
20
83.046642
30
0.0
11
2.628613
21
82.601456
31
0.0
0
LINE
8
base
62
4
5
13b
100
AcDbEntity
100
AcDbLine
10
2.628613
20
82.601456
30
0.0
11
1.805407
21
82.282203
31
0.0
0
LINE
8
base
62
4
5
13c
100
AcDbEntity
100
AcDbLine
10
1.805407
20
82.282203
30
0.0
11
0.988029
21
82.093910
31
0.0
0
LINE
8
base
62
4
5
13d
100
AcDbEntity
100
AcDbLine
10
0.988029
20
82.093910
30
0.0
11
0.176430
21
81.950087
31
0.0
0
LINE
8
base
62
4
5
13e
100
AcDbEntity
100
AcDbLine
10
0.176430
20
81.950087
30
0.0
11
0.176430
21
207.764782
31
0.0
0
LINE
8
base
62
4
5
13f
100
AcDbEntity
100
AcDbLine
10
0.176430
20
207.764782
30
0.0
11
0.176430
21
210.641202
31
0.0
0
LINE
8
shroud
62
4
5
140
100
AcDbEntity
100
AcDbLine
10
38.813952
20
289.257815
30
0.0
11
37.597926
21
289.535101
31
0.0
0
LINE
8
shroud
62
4
5
141
100
AcDbEntity
100
AcDbLine
10
37.597926
20
289.535101
30
0.0
11
36.473464
21
289.638954
31
0.0
0
LINE
8
shroud
62
4
5
142
100
AcDbEntity
100
AcDbLine
10
36.473464
20
289.638954
30
0.0
11
35.437119
21
289.579030
31
0.0
0
LINE
8
shroud
62
4
5
143
100
AcDbEntity
100
AcDbLine
10
35.437119
20
289.579030
30
0.0
11
34.485447
21
289.364984
31
0.0
0
LINE
8
shroud
62
4
5
144
100
AcDbEntity
100
AcDbLine
10
34.485447
20
289.364984
30
0.0
11
33.615001
21
289.006470
31
0.0
0
LINE
8
shroud
62
4
5
145
100
AcDbEntity
100
AcDbLine
10
33.615001
20
289.006470
30
0.0
11
32.822335
21
288.513145
31
0.0
0
LINE
8
shroud
62
4
5
146
100
AcDbEntity
100
AcDbLine
10
32.822335
20
288.513145
30
0.0
11
31.456562
21
287.160677
31
0.0
0
LINE
8
shroud
62
4
5
147
100
AcDbEntity
100
AcDbLine
10
31.456562
20
287.160677
30
0.0
11
30.360561
21
285.384822
31
0.0
0
LINE
8
shroud
62
4
5
148
100
AcDbEntity
100
AcDbLine
10
30.360561
20
285.384822
30
0.0
11
29.506767
21
283.262820
31
0.0
0
LINE
8
shroud
62
4
5
149
100
AcDbEntity
100
AcDbLine
10
29.506767
20
283.262820
30
0.0
11
28.867613
21
280.871912
31
0.0
0
LINE
8
shroud
62
4
5
14a
100
AcDbEntity
100
AcDbLine
10
28.867613
20
280.871912
30
0.0
11
28.415534
21
278.289340
31
0.0
0
LINE
8
shroud
62
4
5
14b
100
AcDbEntity
100
AcDbLine
10
28.415534
20
278.289340
30
0.0
11
27.962335
21
272.858162
31
0.0
0
LINE
8
shroud
62
4
5
14c
100
AcDbEntity
100
AcDbLine
10
27.962335
20
272.858162
30
0.0
11
27.926640
21
267.587212
31
0.0
0
LINE
8
shroud
62
4
5
14d
100
AcDbEntity
100
AcDbLine
10
27.926640
20
267.587212
30
0.0
11
28.225648
21
259.997703
31
0.0
0
LINE
8
shroud
62
4
5
14e
100
AcDbEntity
100
AcDbLine
10
28.225648
20
259.997703
30
0.0
11
28.416702
21
256.476726
31
0.0
0
LINE
8
shroud
62
4
5
14f
100
AcDbEntity
100
AcDbLine
10
28.416702
20
256.476726
30
0.0
11
28.816552
21
252.953218
31
0.0
0
LINE
8
shroud
62
4
5
150
100
AcDbEntity
100
AcDbLine
10
28.816552
20
252.953218
30
0.0
11
29.417122
21
249.453969
31
0.0
0
LINE
8
shroud
62
4
5
151
100
AcDbEntity
100
AcDbLine
10
29.417122
20
249.453969
30
0.0
11
30.210340
21
246.005769
31
0.0
0
LINE
8
shroud
62
4
5
152
100
AcDbEntity
100
AcDbLine
10
30.210340
20
246.005769
30
0.0
11
31.188130
21
242.635410
31
0.0
0
LINE
8
shroud
62
4
5
153
100
AcDbEntity
100
AcDbLine
10
31.188130
20
242.635410
30
0.0
11
32.342418
21
239.369680
31
0.0
0
LINE
8
shroud
62
4
5
154
100
AcDbEntity
100
AcDbLine
10
32.342418
20
239.369680
30
0.0
11
33.665129
21
236.235370
31
0.0
0
LINE
8
shroud
62
4
5
155
100
AcDbEntity
100
AcDbLine
10
33.665129
20
236.235370
30
0.0
11
35.148190
21
233.259270
31
0.0
0
LINE
8
shroud
62
4
5
156
100
AcDbEntity
100
AcDbLine
10
35.148190
20
233.259270
30
0.0
11
36.783526
21
230.468170
31
0.0
0
LINE
8
shroud
62
4
5
157
100
AcDbEntity
100
AcDbLine
10
36.783526
20
230.468170
30
0.0
11
38.563062
21
227.888861
31
0.0
0
LINE
8
shroud
62
4
5
158
100
AcDbEntity
100
AcDbLine
10
38.563062
20
227.888861
30
0.0
11
40.478725
21
225.548131
31
0.0
0
LINE
8
shroud
62
4
5
159
100
AcDbEntity
100
AcDbLine
10
40.478725
20
225.548131
30
0.0
11
42.522439
21
223.472772
31
0.0
0
LINE
8
shroud
62
4
5
15a
100
AcDbEntity
100
AcDbLine
10
42.522439
20
223.472772
30
0.0
11
44.686130
21
221.689574
31
0.0
0
LINE
8
shroud
62
4
5
15b
100
AcDbEntity
100
AcDbLine
10
44.686130
20
221.689574
30
0.0
11
46.961725
21
220.225326
31
0.0
0
LINE
8
shroud
62
4
5
15c
100
AcDbEntity
100
AcDbLine
10
46.961725
20
220.225326
30
0.0
11
49.341148
21
219.106820
31
0.0
0
LINE
8
shroud
62
4
5
15d
100
AcDbEntity
100
AcDbLine
10
49.341148
20
219.106820
30
0.0
11
51.816325
21
218.360844
31
0.0
0
LINE
8
shroud
62
4
5
15e
100
AcDbEntity
100
AcDbLine
10
51.816325
20
218.360844
30
0.0
11
62.980516
21
215.921106
31
0.0
0
LINE
8
shroud
62
4
5
15f
100
AcDbEntity
100
AcDbLine
10
62.980516
20
215.921106
30
0.0
11
64.885243
21
215.236108
31
0.0
0
LINE
8
shroud
62
4
5
160
100
AcDbEntity
100
AcDbLine
10
64.885243
20
215.236108
30
0.0
11
66.374541
21
214.359750
31
0.0
0
LINE
8
shroud
62
4
5
161
100
AcDbEntity
100
AcDbLine
10
66.374541
20
214.359750
30
0.0
11
67.581296
21
213.267036
31
0.0
0
LINE
8
shroud
62
4
5
162
100
AcDbEntity
100
AcDbLine
10
67.581296
20
213.267036
30
0.0
11
68.638395
21
211.932970
31
0.0
0
LINE
8
shroud
62
4
5
163
100
AcDbEntity
100
AcDbLine
10
68.638395
20
211.932970
30
0.0
11
69.557579
21
210.380751
31
0.0
0
LINE
8
shroud
62
4
5
164
100
AcDbEntity
100
AcDbLine
10
69.557579
20
210.380751
30
0.0
11
70.273831
21
208.639881
31
0.0
0
LINE
8
shroud
62
4
5
165
100
AcDbEntity
100
AcDbLine
10
70.273831
20
208.639881
30
0.0
11
70.804900
21
206.694820
31
0.0
0
LINE
8
shroud
62
4
5
166
100
AcDbEntity
100
AcDbLine
10
70.804900
20
206.694820
30
0.0
11
71.168534
21
204.530026
31
0.0
0
LINE
8
shroud
62
4
5
167
100
AcDbEntity
100
AcDbLine
10
71.168534
20
204.530026
30
0.0
11
71.382482
21
202.129961
31
0.0
0
LINE
8
shroud
62
4
5
168
100
AcDbEntity
100
AcDbLine
10
71.382482
20
202.129961
30
0.0
11
71.464493
21
199.479082
31
0.0
0
LINE
8
shroud
62
4
5
169
100
AcDbEntity
100
AcDbLine
10
71.464493
20
199.479082
30
0.0
11
71.303698
21
193.362722
31
0.0
0
LINE
8
shroud
62
4
5
16a
100
AcDbEntity
100
AcDbLine
10
71.303698
20
193.362722
30
0.0
11
72.265018
21
193.362722
31
0.0
0
LINE
8
shroud
62
4
5
16b
100
AcDbEntity
100
AcDbLine
10
72.265018
20
193.362722
30
0.0
11
73.111086
21
198.190858
31
0.0
0
LINE
8
shroud
62
4
5
16c
100
AcDbEntity
100
AcDbLine
10
73.111086
20
198.190858
30
0.0
11
73.556595
21
202.484781
31
0.0
0
LINE
8
shroud
62
4
5
16d
100
AcDbEntity
100
AcDbLine
10
73.556595
20
202.484781
30
0.0
11
73.634851
21
206.295675
31
0.0
0
LINE
8
shroud
62
4
5
16e
100
AcDbEntity
100
AcDbLine
10
73.634851
20
206.295675
30
0.0
11
73.379163
21
209.674723
31
0.0
0
LINE
8
shroud
62
4
5
16f
100
AcDbEntity
100
AcDbLine
10
73.379163
20
209.674723
30
0.0
11
72.822838
21
212.673109
31
0.0
0
LINE
8
shroud
62
4
5
170
100
AcDbEntity
100
AcDbLine
10
72.822838
20
212.673109
30
0.0
11
71.999184
21
215.342016
31
0.0
0
LINE
8
shroud
62
4
5
171
100
AcDbEntity
100
AcDbLine
10
71.999184
20
215.342016
30
0.0
11
70.941508
21
217.732628
31
0.0
0
LINE
8
shroud
62
4
5
172
100
AcDbEntity
100
AcDbLine
10
70.941508
20
217.732628
30
0.0
11
69.683120
21
219.896128
31
0.0
0
LINE
8
shroud
62
4
5
173
100
AcDbEntity
100
AcDbLine
10
69.683120
20
219.896128
30
0.0
11
68.257325
21
221.883700
31
0.0
0
LINE
8
shroud
62
4
5
174
100
AcDbEntity
100
AcDbLine
10
68.257325
20
221.883700
30
0.0
11
66.697433
21
223.746527
31
0.0
0
LINE
8
shroud
62
4
5
175
100
AcDbEntity
100
AcDbLine
10
66.697433
20
223.746527
30
0.0
11
63.308585
21
227.302680
31
0.0
0
LINE
8
shroud
62
4
5
176
100
AcDbEntity
100
AcDbLine
10
63.308585
20
227.302680
30
0.0
11
59.783040
21
230.974056
31
0.0
0
LINE
8
shroud
62
4
5
177
100
AcDbEntity
100
AcDbLine
10
59.783040
20
230.974056
30
0.0
11
58.052274
21
232.980910
31
0.0
0
LINE
8
shroud
62
4
5
178
100
AcDbEntity
100
AcDbLine
10
58.052274
20
232.980910
30
0.0
11
56.387258
21
235.170121
31
0.0
0
LINE
8
shroud
62
4
5
179
100
AcDbEntity
100
AcDbLine
10
56.387258
20
235.170121
30
0.0
11
53.557877
21
239.228060
31
0.0
0
LINE
8
shroud
62
4
5
17a
100
AcDbEntity
100
AcDbLine
10
53.557877
20
239.228060
30
0.0
11
50.952551
21
243.183607
31
0.0
0
LINE
8
shroud
62
4
5
17b
100
AcDbEntity
100
AcDbLine
10
50.952551
20
243.183607
30
0.0
11
48.611103
21
247.159217
31
0.0
0
LINE
8
shroud
62
4
5
17c
100
AcDbEntity
100
AcDbLine
10
48.611103
20
247.159217
30
0.0
11
46.573354
21
251.277343
31
0.0
0
LINE
8
shroud
62
4
5
17d
100
AcDbEntity
100
AcDbLine
10
46.573354
20
251.277343
30
0.0
11
44.879125
21
255.660441
31
0.0
0
LINE
8
shroud
62
4
5
17e
100
AcDbEntity
100
AcDbLine
10
44.879125
20
255.660441
30
0.0
11
43.568240
21
260.430965
31
0.0
0
LINE
8
shroud
62
4
5
17f
100
AcDbEntity
100
AcDbLine
10
43.568240
20
260.430965
30
0.0
11
42.680520
21
265.711368
31
0.0
0
LINE
8
shroud
62
4
5
180
100
AcDbEntity
100
AcDbLine
10
42.680520
20
265.711368
30
0.0
11
42.255787
21
271.624107
31
0.0
0
LINE
8
shroud
62
4
5
181
100
AcDbEntity
100
AcDbLine
10
42.255787
20
271.624107
30
0.0
11
42.297154
21
275.225368
31
0.0
0
LINE
8
shroud
62
4
5
182
100
AcDbEntity
100
AcDbLine
10
42.297154
20
275.225368
30
0.0
11
42.533340
21
278.329731
31
0.0
0
LINE
8
shroud
62
4
5
183
100
AcDbEntity
100
AcDbLine
10
42.533340
20
278.329731
30
0.0
11
42.799564
21
280.986067
31
0.0
0
LINE
8
shroud
62
4
5
184
100
AcDbEntity
100
AcDbLine
10
42.799564
20
280.986067
30
0.0
11
42.931046
21
283.243247
31
0.0
0
LINE
8
shroud
62
4
5
185
100
AcDbEntity
100
AcDbLine
10
42.931046
20
283.243247
30
0.0
11
42.763006
21
285.150140
31
0.0
0
LINE
8
shroud
62
4
5
186
100
AcDbEntity
100
AcDbLine
10
42.763006
20
285.150140
30
0.0
11
42.515172
21
285.987502
31
0.0
0
LINE
8
shroud
62
4
5
187
100
AcDbEntity
100
AcDbLine
10
42.515172
20
285.987502
30
0.0
11
42.130664
21
286.755619
31
0.0
0
LINE
8
shroud
62
4
5
188
100
AcDbEntity
100
AcDbLine
10
42.130664
20
286.755619
30
0.0
11
41.588886
21
287.460600
31
0.0
0
LINE
8
shroud
62
4
5
189
100
AcDbEntity
100
AcDbLine
10
41.588886
20
287.460600
30
0.0
11
40.869240
21
288.108554
31
0.0
0
LINE
8
shroud
62
4
5
18a
100
AcDbEntity
100
AcDbLine
10
40.869240
20
288.108554
30
0.0
11
38.813952
21
289.257815
31
0.0
0
LINE
8
shroud
62
4
5
18b
100
AcDbEntity
100
AcDbLine
10
38.813952
20
289.257815
30
0.0
11
38.813952
21
289.257815
31
0.0
0
LINE
8
turboBlades
62
4
5
18c
100
AcDbEntity
100
AcDbLine
10
2.411787
20
212.090131
30
0.0
11
51.293511
21
212.090131
31
0.0
0
LINE
8
turboBlades
62
4
5
18d
100
AcDbEntity
100
AcDbLine
10
51.293511
20
212.090131
30
0.0
11
51.293511
21
217.810208
31
0.0
0
LINE
8
turboBlades
62
4
5
18e
100
AcDbEntity
100
AcDbLine
10
51.293511
20
217.810208
30
0.0
11
48.377420
21
218.823674
31
0.0
0
LINE
8
turboBlades
62
4
5
18f
100
AcDbEntity
100
AcDbLine
10
48.377420
20
218.823674
30
0.0
11
45.659771
21
220.226524
31
0.0
0
LINE
8
turboBlades
62
4
5
190
100
AcDbEntity
100
AcDbLine
10
45.659771
20
220.226524
30
0.0
11
43.138600
21
221.982527
31
0.0
0
LINE
8
turboBlades
62
4
5
191
100
AcDbEntity
100
AcDbLine
10
43.138600
20
221.982527
30
0.0
11
40.811940
21
224.055448
31
0.0
0
LINE
8
turboBlades
62
4
5
192
100
AcDbEntity
100
AcDbLine
10
40.811940
20
224.055448
30
0.0
11
38.677825
21
226.409054
31
0.0
0
LINE
8
turboBlades
62
4
5
193
100
AcDbEntity
100
AcDbLine
10
38.677825
20
226.409054
30
0.0
11
36.734290
21
229.007110
31
0.0
0
LINE
8
turboBlades
62
4
5
194
100
AcDbEntity
100
AcDbLine
10
36.734290
20
229.007110
30
0.0
11
34.979370
21
231.813383
31
0.0
0
LINE
8
turboBlades
62
4
5
195
100
AcDbEntity
100
AcDbLine
10
34.979370
20
231.813383
30
0.0
11
33.411098
21
234.791640
31
0.0
0
LINE
8
turboBlades
62
4
5
196
100
AcDbEntity
100
AcDbLine
10
33.411098
20
234.791640
30
0.0
11
32.027509
21
237.905646
31
0.0
0
LINE
8
turboBlades
62
4
5
197
100
AcDbEntity
100
AcDbLine
10
32.027509
20
237.905646
30
0.0
11
30.826637
21
241.119168
31
0.0
0
LINE
8
turboBlades
62
4
5
198
100
AcDbEntity
100
AcDbLine
10
30.826637
20
241.119168
30
0.0
11
29.806517
21
244.395972
31
0.0
0
LINE
8
turboBlades
62
4
5
199
100
AcDbEntity
100
AcDbLine
10
29.806517
20
244.395972
30
0.0
11
28.965182
21
247.699824
31
0.0
0
LINE
8
turboBlades
62
4
5
19a
100
AcDbEntity
100
AcDbLine
10
28.965182
20
247.699824
30
0.0
11
28.300668
21
250.994491
31
0.0
0
LINE
8
turboBlades
62
4
5
19b
100
AcDbEntity
100
AcDbLine
10
28.300668
20
250.994491
30
0.0
11
27.811009
21
254.243738
31
0.0
0
LINE
8
turboBlades
62
4
5
19c
100
AcDbEntity
100
AcDbLine
10
27.811009
20
254.243738
30
0.0
11
27.494239
21
257.411333
31
0.0
0
LINE
8
turboBlades
62
4
5
19d
100
AcDbEntity
100
AcDbLine
10
27.494239
20
257.411333
30
0.0
11
27.348392
21
260.461042
31
0.0
0
LINE
8
turboBlades
62
4
5
19e
100
AcDbEntity
100
AcDbLine
10
27.348392
20
260.461042
30
0.0
11
2.411787
21
260.392560
31
0.0
0
LINE
8
turboBlades
62
4
5
19f
100
AcDbEntity
100
AcDbLine
10
2.411787
20
260.392560
30
0.0
11
2.411787
21
212.090131
31
0.0
0
LINE
8
turboCore
62
4
5
1a0
100
AcDbEntity
100
AcDbLine
10
4.344246
20
260.767086
30
0.0
11
4.552303
21
256.526258
31
0.0
0
LINE
8
turboCore
62
4
5
1a1
100
AcDbEntity
100
AcDbLine
10
4.552303
20
256.526258
30
0.0
11
5.107756
21
252.303986
31
0.0
0
LINE
8
turboCore
62
4
5
1a2
100
AcDbEntity
100
AcDbLine
10
5.107756
20
252.303986
30
0.0
11
6.014055
21
248.131536
31
0.0
0
LINE
8
turboCore
62
4
5
1a3
100
AcDbEntity
100
AcDbLine
10
6.014055
20
248.131536
30
0.0
11
7.274650
21
244.040177
31
0.0
0
LINE
8
turboCore
62
4
5
1a4
100
AcDbEntity
100
AcDbLine
10
7.274650
20
244.040177
30
0.0
11
8.892991
21
240.061178
31
0.0
0
LINE
8
turboCore
62
4
5
1a5
100
AcDbEntity
100
AcDbLine
10
8.892991
20
240.061178
30
0.0
11
10.872526
21
236.225805
31
0.0
0
LINE
8
turboCore
62
4
5
1a6
100
AcDbEntity
100
AcDbLine
10
10.872526
20
236.225805
30
0.0
11
13.216706
21
232.565327
31
0.0
0
LINE
8
turboCore
62
4
5
1a7
100
AcDbEntity
100
AcDbLine
10
13.216706
20
232.565327
30
0.0
11
15.928980
21
229.111012
31
0.0
0
LINE
8
turboCore
62
4
5
1a8
100
AcDbEntity
100
AcDbLine
10
15.928980
20
229.111012
30
0.0
11
19.012798
21
225.894128
31
0.0
0
LINE
8
turboCore
62
4
5
1a9
100
AcDbEntity
100
AcDbLine
10
19.012798
20
225.894128
30
0.0
11
22.471610
21
222.945943
31
0.0
0
LINE
8
turboCore
62
4
5
1aa
100
AcDbEntity
100
AcDbLine
10
22.471610
20
222.945943
30
0.0
11
26.308865
21
220.297724
31
0.0
0
LINE
8
turboCore
62
4
5
1ab
100
AcDbEntity
100
AcDbLine
10
26.308865
20
220.297724
30
0.0
11
30.528014
21
217.980741
31
0.0
0
LINE
8
turboCore
62
4
5
1ac
100
AcDbEntity
100
AcDbLine
10
30.528014
20
217.980741
30
0.0
11
35.132504
21
216.026259
31
0.0
0
LINE
8
turboCore
62
4
5
1ad
100
AcDbEntity
100
AcDbLine
10
35.132504
20
216.026259
30
0.0
11
40.125787
21
214.465549
31
0.0
0
LINE
8
turboCore
62
4
5
1ae
100
AcDbEntity
100
AcDbLine
10
40.125787
20
214.465549
30
0.0
11
45.511312
21
213.329877
31
0.0
0
LINE
8
turboCore
62
4
5
1af
100
AcDbEntity
100
AcDbLine
10
45.511312
20
213.329877
30
0.0
11
51.292529
21
212.650512
31
0.0
0
LINE
8
turboCore
62
4
5
1b0
100
AcDbEntity
100
AcDbLine
10
51.292529
20
212.650512
30
0.0
11
51.292529
21
211.894427
31
0.0
0
LINE
8
turboCore
62
4
5
1b1
100
AcDbEntity
100
AcDbLine
10
51.292529
20
211.894427
30
0.0
11
0.194463
21
211.894427
31
0.0
0
LINE
8
turboCore
62
4
5
1b2
100
AcDbEntity
100
AcDbLine
10
0.194463
20
211.894427
30
0.0
11
0.014421
21
268.324808
31
0.0
0
LINE
8
turboCore
62
4
5
1b3
100
AcDbEntity
100
AcDbLine
10
0.014421
20
268.324808
30
0.0
11
0.759019
21
268.105129
31
0.0
0
LINE
8
turboCore
62
4
5
1b4
100
AcDbEntity
100
AcDbLine
10
0.759019
20
268.105129
30
0.0
11
1.514223
21
267.517891
31
0.0
0
LINE
8
turboCore
62
4
5
1b5
100
AcDbEntity
100
AcDbLine
10
1.514223
20
267.517891
30
0.0
11
2.245677
21
266.643296
31
0.0
0
LINE
8
turboCore
62
4
5
1b6
100
AcDbEntity
100
AcDbLine
10
2.245677
20
266.643296
30
0.0
11
2.919025
21
265.561548
31
0.0
0
LINE
8
turboCore
62
4
5
1b7
100
AcDbEntity
100
AcDbLine
10
2.919025
20
265.561548
30
0.0
11
3.953981
21
263.097405
31
0.0
0
LINE
8
turboCore
62
4
5
1b8
100
AcDbEntity
100
AcDbLine
10
3.953981
20
263.097405
30
0.0
11
4.246877
21
261.875416
31
0.0
0
LINE
8
turboCore
62
4
5
1b9
100
AcDbEntity
100
AcDbLine
10
4.246877
20
261.875416
30
0.0
11
4.344246
21
260.767086
31
0.0
0
LINE
8
turboCore
62
4
5
1ba
100
AcDbEntity
100
AcDbLine
10
4.344246
20
260.767086
30
0.0
11
4.344246
21
260.767086
31
0.0
0
LINE
8
guideVane
62
4
5
1bb
100
AcDbEntity
100
AcDbLine
10
60.223448
20
243.926025
30
0.0
11
58.685905
21
246.698652
31
0.0
0
LINE
8
guideVane
62
4
5
1bc
100
AcDbEntity
100
AcDbLine
10
58.685905
20
246.698652
30
0.0
11
57.246351
21
249.640068
31
0.0
0
LINE
8
guideVane
62
4
5
1bd
100
AcDbEntity
100
AcDbLine
10
57.246351
20
249.640068
30
0.0
11
54.754490
21
255.751352
31
0.0
0
LINE
8
guideVane
62
4
5
1be
100
AcDbEntity
100
AcDbLine
10
54.754490
20
255.751352
30
0.0
11
53.748823
21
258.782264
31
0.0
0
LINE
8
guideVane
62
4
5
1bf
100
AcDbEntity
100
AcDbLine
10
53.748823
20
258.782264
30
0.0
11
52.934425
21
261.704050
31
0.0
0
LINE
8
guideVane
62
4
5
1c0
100
AcDbEntity
100
AcDbLine
10
52.934425
20
261.704050
30
0.0
11
52.334617
21
264.447232
31
0.0
0
LINE
8
guideVane
62
4
5
1c1
100
AcDbEntity
100
AcDbLine
10
52.334617
20
264.447232
30
0.0
11
51.972718
21
266.942331
31
0.0
0
LINE
8
guideVane
62
4
5
1c2
100
AcDbEntity
100
AcDbLine
10
51.972718
20
266.942331
30
0.0
11
51.380705
21
271.210382
31
0.0
0
LINE
8
guideVane
62
4
5
1c3
100
AcDbEntity
100
AcDbLine
10
51.380705
20
271.210382
30
0.0
11
50.863035
21
274.140826
31
0.0
0
LINE
8
guideVane
62
4
5
1c4
100
AcDbEntity
100
AcDbLine
10
50.863035
20
274.140826
30
0.0
11
50.743640
21
275.251402
31
0.0
0
LINE
8
guideVane
62
4
5
1c5
100
AcDbEntity
100
AcDbLine
10
50.743640
20
275.251402
30
0.0
11
50.776705
21
276.203926
31
0.0
0
LINE
8
guideVane
62
4
5
1c6
100
AcDbEntity
100
AcDbLine
10
50.776705
20
276.203926
30
0.0
11
51.006854
21
277.057180
31
0.0
0
LINE
8
guideVane
62
4
5
1c7
100
AcDbEntity
100
AcDbLine
10
51.006854
20
277.057180
30
0.0
11
51.478711
21
277.869947
31
0.0
0
LINE
8
guideVane
62
4
5
1c8
100
AcDbEntity
100
AcDbLine
10
51.478711
20
277.869947
30
0.0
11
52.051652
21
278.139755
31
0.0
0
LINE
8
guideVane
62
4
5
1c9
100
AcDbEntity
100
AcDbLine
10
52.051652
20
278.139755
30
0.0
11
53.041047
21
278.084846
31
0.0
0
LINE
8
guideVane
62
4
5
1ca
100
AcDbEntity
100
AcDbLine
10
53.041047
20
278.084846
30
0.0
11
54.298834
21
277.673293
31
0.0
0
LINE
8
guideVane
62
4
5
1cb
100
AcDbEntity
100
AcDbLine
10
54.298834
20
277.673293
30
0.0
11
55.676955
21
276.873169
31
0.0
0
LINE
8
guideVane
62
4
5
1cc
100
AcDbEntity
100
AcDbLine
10
55.676955
20
276.873169
30
0.0
11
57.027349
21
275.652546
31
0.0
0
LINE
8
guideVane
62
4
5
1cd
100
AcDbEntity
100
AcDbLine
10
57.027349
20
275.652546
30
0.0
11
58.201956
21
273.979497
31
0.0
0
LINE
8
guideVane
62
4
5
1ce
100
AcDbEntity
100
AcDbLine
10
58.201956
20
273.979497
30
0.0
11
59.052718
21
271.822096
31
0.0
0
LINE
8
guideVane
62
4
5
1cf
100
AcDbEntity
100
AcDbLine
10
59.052718
20
271.822096
30
0.0
11
59.310389
21
270.551785
31
0.0
0
LINE
8
guideVane
62
4
5
1d0
100
AcDbEntity
100
AcDbLine
10
59.310389
20
270.551785
30
0.0
11
59.431575
21
269.148413
31
0.0
0
LINE
8
guideVane
62
4
5
1d1
100
AcDbEntity
100
AcDbLine
10
59.431575
20
269.148413
30
0.0
11
59.446375
21
263.010642
31
0.0
0
LINE
8
guideVane
62
4
5
1d2
100
AcDbEntity
100
AcDbLine
10
59.446375
20
263.010642
30
0.0
11
59.411339
21
256.286681
31
0.0
0
LINE
8
guideVane
62
4
5
1d3
100
AcDbEntity
100
AcDbLine
10
59.411339
20
256.286681
30
0.0
11
59.505034
21
252.927210
31
0.0
0
LINE
8
guideVane
62
4
5
1d4
100
AcDbEntity
100
AcDbLine
10
59.505034
20
252.927210
30
0.0
11
59.742152
21
249.687989
31
0.0
0
LINE
8
guideVane
62
4
5
1d5
100
AcDbEntity
100
AcDbLine
10
59.742152
20
249.687989
30
0.0
11
60.174654
21
246.657950
31
0.0
0
LINE
8
guideVane
62
4
5
1d6
100
AcDbEntity
100
AcDbLine
10
60.174654
20
246.657950
30
0.0
11
60.854500
21
243.926025
31
0.0
0
LINE
8
guideVane
62
4
5
1d7
100
AcDbEntity
100
AcDbLine
10
60.854500
20
243.926025
30
0.0
11
60.223448
21
243.926025
31
0.0
0
LINE
8
guard
62
4
5
1d8
100
AcDbEntity
100
AcDbLine
10
0.000000
20
288.476771
30
0.0
11
0.436234
21
288.343341
31
0.0
0
LINE
8
guard
62
4
5
1d9
100
AcDbEntity
100
AcDbLine
10
0.436234
20
288.343341
30
0.0
11
0.809142
21
287.969905
31
0.0
0
LINE
8
guard
62
4
5
1da
100
AcDbEntity
100
AcDbLine
10
0.809142
20
287.969905
30
0.0
11
1.371341
21
286.664149
31
0.0
0
LINE
8
guard
62
4
5
1db
100
AcDbEntity
100
AcDbLine
10
1.371341
20
286.664149
30
0.0
11
1.699326
21
284.881763
31
0.0
0
LINE
8
guard
62
4
5
1dc
100
AcDbEntity
100
AcDbLine
10
1.699326
20
284.881763
30
0.0
11
1.805825
21
282.945010
31
0.0
0
LINE
8
guard
62
4
5
1dd
100
AcDbEntity
100
AcDbLine
10
1.805825
20
282.945010
30
0.0
11
1.600618
21
278.462419
31
0.0
0
LINE
8
guard
62
4
5
1de
100
AcDbEntity
100
AcDbLine
10
1.600618
20
278.462419
30
0.0
11
1.149162
21
273.936264
31
0.0
0
LINE
8
guard
62
4
5
1df
100
AcDbEntity
100
AcDbLine
10
1.149162
20
273.936264
30
0.0
11
0.492498
21
269.031783
31
0.0
0
LINE
8
guard
62
4
5
1e0
100
AcDbEntity
100
AcDbLine
10
0.492498
20
269.031783
30
0.0
11
-0.492498
21
269.031783
31
0.0
0
LINE
8
guard
62
4
5
1e1
100
AcDbEntity
100
AcDbLine
10
-0.492498
20
269.031783
30
0.0
11
-1.149162
21
273.936264
31
0.0
0
LINE
8
guard
62
4
5
1e2
100
AcDbEntity
100
AcDbLine
10
-1.149162
20
273.936264
30
0.0
11
-1.600618
21
278.462419
31
0.0
0
LINE
8
guard
62
4
5
1e3
100
AcDbEntity
100
AcDbLine
10
-1.600618
20
278.462419
30
0.0
11
-1.805825
21
282.945010
31
0.0
0
LINE
8
guard
62
4
5
1e4
100
AcDbEntity
100
AcDbLine
10
-1.805825
20
282.945010
30
0.0
11
-1.699326
21
284.881763
31
0.0
0
LINE
8
guard
62
4
5
1e5
100
AcDbEntity
100
AcDbLine
10
-1.699326
20
284.881763
30
0.0
11
-1.371341
21
286.664149
31
0.0
0
LINE
8
guard
62
4
5
1e6
100
AcDbEntity
100
AcDbLine
10
-1.371341
20
286.664149
30
0.0
11
-0.809142
21
287.969905
31
0.0
0
LINE
8
guard
62
4
5
1e7
100
AcDbEntity
100
AcDbLine
10
-0.809142
20
287.969905
30
0.0
11
-0.436234
21
288.343341
31
0.0
0
LINE
8
guard
62
4
5
1e8
100
AcDbEntity
100
AcDbLine
10
-0.436234
20
288.343341
30
0.0
11
0.000000
21
288.476771
31
0.0
0
LINE
8
guard
62
4
5
1e9
100
AcDbEntity
100
AcDbLine
10
0.000000
20
288.476771
30
0.0
11
0.000000
21
288.476771
31
0.0
0
LINE
8
strainRelief
62
4
5
1ea
100
AcDbEntity
100
AcDbLine
10
63.411806
20
209.546389
30
0.0
11
55.712431
21
170.811389
31
0.0
0
LINE
8
strainRelief
62
4
5
1eb
100
AcDbEntity
100
AcDbLine
10
55.712431
20
170.811389
30
0.0
11
55.584986
21
169.458874
31
0.0
0
LINE
8
strainRelief
62
4
5
1ec
100
AcDbEntity
100
AcDbLine
10
55.584986
20
169.458874
30
0.0
11
55.737434
21
168.218244
31
0.0
0
LINE
8
strainRelief
62
4
5
1ed
100
AcDbEntity
100
AcDbLine
10
55.737434
20
168.218244
30
0.0
11
56.134164
21
167.099363
31
0.0
0
LINE
8
strainRelief
62
4
5
1ee
100
AcDbEntity
100
AcDbLine
10
56.134164
20
167.099363
30
0.0
11
56.739567
21
166.112096
31
0.0
0
LINE
8
strainRelief
62
4
5
1ef
100
AcDbEntity
100
AcDbLine
10
56.739567
20
166.112096
30
0.0
11
57.518033
21
165.266307
31
0.0
0
LINE
8
strainRelief
62
4
5
1f0
100
AcDbEntity
100
AcDbLine
10
57.518033
20
165.266307
30
0.0
11
58.433951
21
164.571861
31
0.0
0
LINE
8
strainRelief
62
4
5
1f1
100
AcDbEntity
100
AcDbLine
10
58.433951
20
164.571861
30
0.0
11
59.451712
21
164.038623
31
0.0
0
LINE
8
strainRelief
62
4
5
1f2
100
AcDbEntity
100
AcDbLine
10
59.451712
20
164.038623
30
0.0
11
60.535705
21
163.676457
31
0.0
0
LINE
8
strainRelief
62
4
5
1f3
100
AcDbEntity
100
AcDbLine
10
60.535705
20
163.676457
30
0.0
11
61.650320
21
163.495227
31
0.0
0
LINE
8
strainRelief
62
4
5
1f4
100
AcDbEntity
100
AcDbLine
10
61.650320
20
163.495227
30
0.0
11
62.759948
21
163.504798
31
0.0
0
LINE
8
strainRelief
62
4
5
1f5
100
AcDbEntity
100
AcDbLine
10
62.759948
20
163.504798
30
0.0
11
63.828979
21
163.715034
31
0.0
0
LINE
8
strainRelief
62
4
5
1f6
100
AcDbEntity
100
AcDbLine
10
63.828979
20
163.715034
30
0.0
11
64.821802
21
164.135801
31
0.0
0
LINE
8
strainRelief
62
4
5
1f7
100
AcDbEntity
100
AcDbLine
10
64.821802
20
164.135801
30
0.0
11
65.702808
21
164.776962
31
0.0
0
LINE
8
strainRelief
62
4
5
1f8
100
AcDbEntity
100
AcDbLine
10
65.702808
20
164.776962
30
0.0
11
66.436386
21
165.648382
31
0.0
0
LINE
8
strainRelief
62
4
5
1f9
100
AcDbEntity
100
AcDbLine
10
66.436386
20
165.648382
30
0.0
11
66.986926
21
166.759926
31
0.0
0
LINE
8
strainRelief
62
4
5
1fa
100
AcDbEntity
100
AcDbLine
10
66.986926
20
166.759926
30
0.0
11
67.318819
21
168.121458
31
0.0
0
LINE
8
strainRelief
62
4
5
1fb
100
AcDbEntity
100
AcDbLine
10
67.318819
20
168.121458
30
0.0
11
68.797571
21
179.660604
31
0.0
0
LINE
8
strainRelief
62
4
5
1fc
100
AcDbEntity
100
AcDbLine
10
68.797571
20
179.660604
30
0.0
11
69.251593
21
184.773137
31
0.0
0
LINE
8
strainRelief
62
4
5
1fd
100
AcDbEntity
100
AcDbLine
10
69.251593
20
184.773137
30
0.0
11
69.523681
21
189.993681
31
0.0
0
LINE
8
strainRelief
62
4
5
1fe
100
AcDbEntity
100
AcDbLine
10
69.523681
20
189.993681
30
0.0
11
69.553651
21
195.872057
31
0.0
0
LINE
8
strainRelief
62
4
5
1ff
100
AcDbEntity
100
AcDbLine
10
69.553651
20
195.872057
30
0.0
11
69.237645
21
200.450646
31
0.0
0
LINE
8
strainRelief
62
4
5
200
100
AcDbEntity
100
AcDbLine
10
69.237645
20
200.450646
30
0.0
11
68.635227
21
203.888729
31
0.0
0
LINE
8
strainRelief
62
4
5
201
100
AcDbEntity
100
AcDbLine
10
68.635227
20
203.888729
30
0.0
11
67.805965
21
206.345588
31
0.0
0
LINE
8
strainRelief
62
4
5
202
100
AcDbEntity
100
AcDbLine
10
67.805965
20
206.345588
30
0.0
11
66.809426
21
207.980502
31
0.0
0
LINE
8
strainRelief
62
4
5
203
100
AcDbEntity
100
AcDbLine
10
66.809426
20
207.980502
30
0.0
11
65.705175
21
208.952753
31
0.0
0
LINE
8
strainRelief
62
4
5
204
100
AcDbEntity
100
AcDbLine
10
65.705175
20
208.952753
30
0.0
11
64.552779
21
209.421622
31
0.0
0
LINE
8
strainRelief
62
4
5
205
100
AcDbEntity
100
AcDbLine
10
64.552779
20
209.421622
30
0.0
11
63.411806
21
209.546389
31
0.0
0
LINE
8
strainRelief
62
4
5
206
100
AcDbEntity
100
AcDbLine
10
63.411806
20
209.546389
30
0.0
11
63.411806
21
209.546389
31
0.0
0
LINE
8
strainRelief
62
4
5
207
100
AcDbEntity
100
AcDbLine
10
61.639097
20
174.206875
30
0.0
11
62.508236
21
174.119253
31
0.0
0
LINE
8
strainRelief
62
4
5
208
100
AcDbEntity
100
AcDbLine
10
62.508236
20
174.119253
30
0.0
11
63.317764
21
173.867950
31
0.0
0
LINE
8
strainRelief
62
4
5
209
100
AcDbEntity
100
AcDbLine
10
63.317764
20
173.867950
30
0.0
11
64.050339
21
173.470311
31
0.0
0
LINE
8
strainRelief
62
4
5
20a
100
AcDbEntity
100
AcDbLine
10
64.050339
20
173.470311
30
0.0
11
64.688613
21
172.943682
31
0.0
0
LINE
8
strainRelief
62
4
5
20b
100
AcDbEntity
100
AcDbLine
10
64.688613
20
172.943682
30
0.0
11
65.215242
21
172.305408
31
0.0
0
LINE
8
strainRelief
62
4
5
20c
100
AcDbEntity
100
AcDbLine
10
65.215242
20
172.305408
30
0.0
11
65.612880
21
171.572834
31
0.0
0
LINE
8
strainRelief
62
4
5
20d
100
AcDbEntity
100
AcDbLine
10
65.612880
20
171.572834
30
0.0
11
65.864183
21
170.763305
31
0.0
0
LINE
8
strainRelief
62
4
5
20e
100
AcDbEntity
100
AcDbLine
10
65.864183
20
170.763305
30
0.0
11
65.951806
21
169.894167
31
0.0
0
LINE
8
strainRelief
62
4
5
20f
100
AcDbEntity
100
AcDbLine
10
65.951806
20
169.894167
30
0.0
11
65.864183
21
169.025028
31
0.0
0
LINE
8
strainRelief
62
4
5
210
100
AcDbEntity
100
AcDbLine
10
65.864183
20
169.025028
30
0.0
11
65.612880
21
168.215499
31
0.0
0
LINE
8
strainRelief
62
4
5
211
100
AcDbEntity
100
AcDbLine
10
65.612880
20
168.215499
30
0.0
11
65.215242
21
167.482925
31
0.0
0
LINE
8
strainRelief
62
4
5
212
100
AcDbEntity
100
AcDbLine
10
65.215242
20
167.482925
30
0.0
11
64.688613
21
166.844651
31
0.0
0
LINE
8
strainRelief
62
4
5
213
100
AcDbEntity
100
AcDbLine
10
64.688613
20
166.844651
30
0.0
11
64.050339
21
166.318022
31
0.0
0
LINE
8
strainRelief
62
4
5
214
100
AcDbEntity
100
AcDbLine
10
64.050339
20
166.318022
30
0.0
11
63.317764
21
165.920383
31
0.0
0
LINE
8
strainRelief
62
4
5
215
100
AcDbEntity
100
AcDbLine
10
63.317764
20
165.920383
30
0.0
11
62.508236
21
165.669080
31
0.0
0
LINE
8
strainRelief
62
4
5
216
100
AcDbEntity
100
AcDbLine
10
62.508236
20
165.669080
30
0.0
11
61.639097
21
165.581458
31
0.0
0
LINE
8
strainRelief
62
4
5
217
100
AcDbEntity
100
AcDbLine
10
61.639097
20
165.581458
30
0.0
11
60.769959
21
165.669080
31
0.0
0
LINE
8
strainRelief
62
4
5
218
100
AcDbEntity
100
AcDbLine
10
60.769959
20
165.669080
30
0.0
11
59.960430
21
165.920383
31
0.0
0
LINE
8
strainRelief
62
4
5
219
100
AcDbEntity
100
AcDbLine
10
59.960430
20
165.920383
30
0.0
11
59.227856
21
166.318022
31
0.0
0
LINE
8
strainRelief
62
4
5
21a
100
AcDbEntity
100
AcDbLine
10
59.227856
20
166.318022
30
0.0
11
58.589582
21
166.844651
31
0.0
0
LINE
8
strainRelief
62
4
5
21b
100
AcDbEntity
100
AcDbLine
10
58.589582
20
166.844651
30
0.0
11
58.062953
21
167.482925
31
0.0
0
LINE
8
strainRelief
62
4
5
21c
100
AcDbEntity
100
AcDbLine
10
58.062953
20
167.482925
30
0.0
11
57.665314
21
168.215499
31
0.0
0
LINE
8
strainRelief
62
4
5
21d
100
AcDbEntity
100
AcDbLine
10
57.665314
20
168.215499
30
0.0
11
57.414011
21
169.025028
31
0.0
0
LINE
8
strainRelief
62
4
5
21e
100
AcDbEntity
100
AcDbLine
10
57.414011
20
169.025028
30
0.0
11
57.326389
21
169.894167
31
0.0
0
LINE
8
strainRelief
62
4
5
21f
100
AcDbEntity
100
AcDbLine
10
57.326389
20
169.894167
30
0.0
11
57.414011
21
170.763305
31
0.0
0
LINE
8
strainRelief
62
4
5
220
100
AcDbEntity
100
AcDbLine
10
57.414011
20
170.763305
30
0.0
11
57.665314
21
171.572834
31
0.0
0
LINE
8
strainRelief
62
4
5
221
100
AcDbEntity
100
AcDbLine
10
57.665314
20
171.572834
30
0.0
11
58.062953
21
172.305408
31
0.0
0
LINE
8
strainRelief
62
4
5
222
100
AcDbEntity
100
AcDbLine
10
58.062953
20
172.305408
30
0.0
11
58.589582
21
172.943682
31
0.0
0
LINE
8
strainRelief
62
4
5
223
100
AcDbEntity
100
AcDbLine
10
58.589582
20
172.943682
30
0.0
11
59.227856
21
173.470311
31
0.0
0
LINE
8
strainRelief
62
4
5
224
100
AcDbEntity
100
AcDbLine
10
59.227856
20
173.470311
30
0.0
11
59.960430
21
173.867950
31
0.0
0
LINE
8
strainRelief
62
4
5
225
100
AcDbEntity
100
AcDbLine
10
59.960430
20
173.867950
30
0.0
11
60.769959
21
174.119253
31
0.0
0
LINE
8
strainRelief
62
4
5
226
100
AcDbEntity
100
AcDbLine
10
60.769959
20
174.119253
30
0.0
11
61.639097
21
174.206875
31
0.0
0
LINE
8
strainRelief
62
4
5
227
100
AcDbEntity
100
AcDbLine
10
61.639097
20
174.206875
30
0.0
11
61.639097
21
174.206875
31
0.0
0
LINE
8
stand
62
4
5
228
100
AcDbEntity
100
AcDbLine
10
78.837014
20
236.904306
30
0.0
11
75.316233
21
236.729296
31
0.0
0
LINE
8
stand
62
4
5
229
100
AcDbEntity
100
AcDbLine
10
75.316233
20
236.729296
30
0.0
11
71.548730
21
236.324418
31
0.0
0
LINE
8
stand
62
4
5
22a
100
AcDbEntity
100
AcDbLine
10
71.548730
20
236.324418
30
0.0
11
63.279514
21
235.166875
31
0.0
0
LINE
8
stand
62
4
5
22b
100
AcDbEntity
100
AcDbLine
10
63.279514
20
235.166875
30
0.0
11
58.091880
21
234.378835
31
0.0
0
LINE
8
stand
62
4
5
22c
100
AcDbEntity
100
AcDbLine
10
58.091880
20
234.378835
30
0.0
11
52.899028
21
233.314792
31
0.0
0
LINE
8
stand
62
4
5
22d
100
AcDbEntity
100
AcDbLine
10
52.899028
20
233.314792
30
0.0
11
63.394167
21
221.046944
31
0.0
0
LINE
8
stand
62
4
5
22e
100
AcDbEntity
100
AcDbLine
10
63.394167
20
221.046944
30
0.0
11
68.738750
21
221.240972
31
0.0
0
LINE
8
stand
62
4
5
22f
100
AcDbEntity
100
AcDbLine
10
68.738750
20
221.240972
30
0.0
11
70.931545
21
221.155451
31
0.0
0
LINE
8
stand
62
4
5
230
100
AcDbEntity
100
AcDbLine
10
70.931545
20
221.155451
30
0.0
11
73.303470
21
220.735311
31
0.0
0
LINE
8
stand
62
4
5
231
100
AcDbEntity
100
AcDbLine
10
73.303470
20
220.735311
30
0.0
11
75.720855
21
220.001171
31
0.0
0
LINE
8
stand
62
4
5
232
100
AcDbEntity
100
AcDbLine
10
75.720855
20
220.001171
30
0.0
11
78.050027
21
218.973651
31
0.0
0
LINE
8
stand
62
4
5
233
100
AcDbEntity
100
AcDbLine
10
78.050027
20
218.973651
30
0.0
11
80.157317
21
217.673370
31
0.0
0
LINE
8
stand
62
4
5
234
100
AcDbEntity
100
AcDbLine
10
80.157317
20
217.673370
30
0.0
11
81.909053
21
216.120947
31
0.0
0
LINE
8
stand
62
4
5
235
100
AcDbEntity
100
AcDbLine
10
81.909053
20
216.120947
30
0.0
11
83.171565
21
214.337001
31
0.0
0
LINE
8
stand
62
4
5
236
100
AcDbEntity
100
AcDbLine
10
83.171565
20
214.337001
30
0.0
11
83.577589
21
213.364651
31
0.0
0
LINE
8
stand
62
4
5
237
100
AcDbEntity
100
AcDbLine
10
83.577589
20
213.364651
30
0.0
11
83.811181
21
212.342153
31
0.0
0
LINE
8
stand
62
4
5
238
100
AcDbEntity
100
AcDbLine
10
83.811181
20
212.342153
30
0.0
11
92.992222
21
144.608819
31
0.0
0
LINE
8
stand
62
4
5
239
100
AcDbEntity
100
AcDbLine
10
92.992222
20
144.608819
30
0.0
11
93.196559
21
141.777890
31
0.0
0
LINE
8
stand
62
4
5
23a
100
AcDbEntity
100
AcDbLine
10
93.196559
20
141.777890
30
0.0
11
93.000190
21
139.421535
31
0.0
0
LINE
8
stand
62
4
5
23b
100
AcDbEntity
100
AcDbLine
10
93.000190
20
139.421535
30
0.0
11
92.441141
21
137.502280
31
0.0
0
LINE
8
stand
62
4
5
23c
100
AcDbEntity
100
AcDbLine
10
92.441141
20
137.502280
30
0.0
11
91.557436
21
135.982652
31
0.0
0
LINE
8
stand
62
4
5
23d
100
AcDbEntity
100
AcDbLine
10
91.557436
20
135.982652
30
0.0
11
90.387100
21
134.825178
31
0.0
0
LINE
8
stand
62
4
5
23e
100
AcDbEntity
100
AcDbLine
10
90.387100
20
134.825178
30
0.0
11
88.968157
21
133.992385
31
0.0
0
LINE
8
stand
62
4
5
23f
100
AcDbEntity
100
AcDbLine
10
88.968157
20
133.992385
30
0.0
11
87.338631
21
133.446801
31
0.0
0
LINE
8
stand
62
4
5
240
100
AcDbEntity
100
AcDbLine
10
87.338631
20
133.446801
30
0.0
11
85.536549
21
133.150951
31
0.0
0
LINE
8
stand
62
4
5
241
100
AcDbEntity
100
AcDbLine
10
85.536549
20
133.150951
30
0.0
11
83.599933
21
133.067363
31
0.0
0
LINE
8
stand
62
4
5
242
100
AcDbEntity
100
AcDbLine
10
83.599933
20
133.067363
30
0.0
11
81.566809
21
133.158565
31
0.0
0
LINE
8
stand
62
4
5
243
100
AcDbEntity
100
AcDbLine
10
81.566809
20
133.158565
30
0.0
11
77.363134
21
133.715442
31
0.0
0
LINE
8
stand
62
4
5
244
100
AcDbEntity
100
AcDbLine
10
77.363134
20
133.715442
30
0.0
11
69.470764
21
135.277847
31
0.0
0
LINE
8
stand
62
4
5
245
100
AcDbEntity
100
AcDbLine
10
69.470764
20
135.277847
30
0.0
11
38.002986
21
141.001667
31
0.0
0
LINE
8
stand
62
4
5
246
100
AcDbEntity
100
AcDbLine
10
38.002986
20
141.001667
30
0.0
11
31.829375
21
142.139375
31
0.0
0
LINE
8
stand
62
4
5
247
100
AcDbEntity
100
AcDbLine
10
31.829375
20
142.139375
30
0.0
11
29.686250
21
138.832083
31
0.0
0
LINE
8
stand
62
4
5
248
100
AcDbEntity
100
AcDbLine
10
29.686250
20
138.832083
30
0.0
11
26.537708
21
132.737847
31
0.0
0
LINE
8
stand
62
4
5
249
100
AcDbEntity
100
AcDbLine
10
26.537708
20
132.737847
30
0.0
11
31.829375
21
130.912222
31
0.0
0
LINE
8
stand
62
4
5
24a
100
AcDbEntity
100
AcDbLine
10
31.829375
20
130.912222
30
0.0
11
69.470764
21
119.252917
31
0.0
0
LINE
8
stand
62
4
5
24b
100
AcDbEntity
100
AcDbLine
10
69.470764
20
119.252917
30
0.0
11
74.831483
21
117.663440
31
0.0
0
LINE
8
stand
62
4
5
24c
100
AcDbEntity
100
AcDbLine
10
74.831483
20
117.663440
30
0.0
11
80.038146
21
116.279314
31
0.0
0
LINE
8
stand
62
4
5
24d
100
AcDbEntity
100
AcDbLine
10
80.038146
20
116.279314
30
0.0
11
85.053960
21
115.133590
31
0.0
0
LINE
8
stand
62
4
5
24e
100
AcDbEntity
100
AcDbLine
10
85.053960
20
115.133590
30
0.0
11
89.842134
21
114.259316
31
0.0
0
LINE
8
stand
62
4
5
24f
100
AcDbEntity
100
AcDbLine
10
89.842134
20
114.259316
30
0.0
11
94.365876
21
113.689542
31
0.0
0
LINE
8
stand
62
4
5
250
100
AcDbEntity
100
AcDbLine
10
94.365876
20
113.689542
30
0.0
11
98.588394
21
113.457317
31
0.0
0
LINE
8
stand
62
4
5
251
100
AcDbEntity
100
AcDbLine
10
98.588394
20
113.457317
30
0.0
11
102.472896
21
113.595691
31
0.0
0
LINE
8
stand
62
4
5
252
100
AcDbEntity
100
AcDbLine
10
102.472896
20
113.595691
30
0.0
11
105.982591
21
114.137714
31
0.0
0
LINE
8
stand
62
4
5
253
100
AcDbEntity
100
AcDbLine
10
105.982591
20
114.137714
30
0.0
11
109.080688
21
115.116434
31
0.0
0
LINE
8
stand
62
4
5
254
100
AcDbEntity
100
AcDbLine
10
109.080688
20
115.116434
30
0.0
11
110.463889
21
115.779884
31
0.0
0
LINE
8
stand
62
4
5
255
100
AcDbEntity
100
AcDbLine
10
110.463889
20
115.779884
30
0.0
11
111.730393
21
116.564902
31
0.0
0
LINE
8
stand
62
4
5
256
100
AcDbEntity
100
AcDbLine
10
111.730393
20
116.564902
30
0.0
11
112.875602
21
117.475620
31
0.0
0
LINE
8
stand
62
4
5
257
100
AcDbEntity
100
AcDbLine
10
112.875602
20
117.475620
30
0.0
11
113.894916
21
118.516167
31
0.0
0
LINE
8
stand
62
4
5
258
100
AcDbEntity
100
AcDbLine
10
113.894916
20
118.516167
30
0.0
11
114.783737
21
119.690677
31
0.0
0
LINE
8
stand
62
4
5
259
100
AcDbEntity
100
AcDbLine
10
114.783737
20
119.690677
30
0.0
11
115.537465
21
121.003279
31
0.0
0
LINE
8
stand
62
4
5
25a
100
AcDbEntity
100
AcDbLine
10
115.537465
20
121.003279
30
0.0
11
116.151502
21
122.458105
31
0.0
0
LINE
8
stand
62
4
5
25b
100
AcDbEntity
100
AcDbLine
10
116.151502
20
122.458105
30
0.0
11
116.621248
21
124.059287
31
0.0
0
LINE
8
stand
62
4
5
25c
100
AcDbEntity
100
AcDbLine
10
116.621248
20
124.059287
30
0.0
11
116.942105
21
125.810954
31
0.0
0
LINE
8
stand
62
4
5
25d
100
AcDbEntity
100
AcDbLine
10
116.942105
20
125.810954
30
0.0
11
117.109473
21
127.717240
31
0.0
0
LINE
8
stand
62
4
5
25e
100
AcDbEntity
100
AcDbLine
10
117.109473
20
127.717240
30
0.0
11
117.118754
21
129.782274
31
0.0
0
LINE
8
stand
62
4
5
25f
100
AcDbEntity
100
AcDbLine
10
117.118754
20
129.782274
30
0.0
11
116.965349
21
132.010188
31
0.0
0
LINE
8
stand
62
4
5
260
100
AcDbEntity
100
AcDbLine
10
116.965349
20
132.010188
30
0.0
11
116.152083
21
136.971181
31
0.0
0
LINE
8
stand
62
4
5
261
100
AcDbEntity
100
AcDbLine
10
116.152083
20
136.971181
30
0.0
11
98.998264
21
215.437778
31
0.0
0
LINE
8
stand
62
4
5
262
100
AcDbEntity
100
AcDbLine
10
98.998264
20
215.437778
30
0.0
11
97.555864
21
221.417605
31
0.0
0
LINE
8
stand
62
4
5
263
100
AcDbEntity
100
AcDbLine
10
97.555864
20
221.417605
30
0.0
11
96.717862
21
223.962969
31
0.0
0
LINE
8
stand
62
4
5
264
100
AcDbEntity
100
AcDbLine
10
96.717862
20
223.962969
30
0.0
11
95.802264
21
226.230705
31
0.0
0
LINE
8
stand
62
4
5
265
100
AcDbEntity
100
AcDbLine
10
95.802264
20
226.230705
30
0.0
11
94.809274
21
228.234868
31
0.0
0
LINE
8
stand
62
4
5
266
100
AcDbEntity
100
AcDbLine
10
94.809274
20
228.234868
30
0.0
11
93.739098
21
229.989512
31
0.0
0
LINE
8
stand
62
4
5
267
100
AcDbEntity
100
AcDbLine
10
93.739098
20
229.989512
30
0.0
11
92.591939
21
231.508691
31
0.0
0
LINE
8
stand
62
4
5
268
100
AcDbEntity
100
AcDbLine
10
92.591939
20
231.508691
30
0.0
11
91.368001
21
232.806458
31
0.0
0
LINE
8
stand
62
4
5
269
100
AcDbEntity
100
AcDbLine
10
91.368001
20
232.806458
30
0.0
11
90.067490
21
233.896869
31
0.0
0
LINE
8
stand
62
4
5
26a
100
AcDbEntity
100
AcDbLine
10
90.067490
20
233.896869
30
0.0
11
88.690609
21
234.793978
31
0.0
0
LINE
8
stand
62
4
5
26b
100
AcDbEntity
100
AcDbLine
10
88.690609
20
234.793978
30
0.0
11
87.237564
21
235.511837
31
0.0
0
LINE
8
stand
62
4
5
26c
100
AcDbEntity
100
AcDbLine
10
87.237564
20
235.511837
30
0.0
11
85.708557
21
236.064503
31
0.0
0
LINE
8
stand
62
4
5
26d
100
AcDbEntity
100
AcDbLine
10
85.708557
20
236.064503
30
0.0
11
84.103795
21
236.466028
31
0.0
0
LINE
8
stand
62
4
5
26e
100
AcDbEntity
100
AcDbLine
10
84.103795
20
236.466028
30
0.0
11
82.423480
21
236.730468
31
0.0
0
LINE
8
stand
62
4
5
26f
100
AcDbEntity
100
AcDbLine
10
82.423480
20
236.730468
30
0.0
11
78.837014
21
236.904306
31
0.0
0
LINE
8
stand
62
4
5
270
100
AcDbEntity
100
AcDbLine
10
78.837014
20
236.904306
30
0.0
11
78.837014
21
236.904306
31
0.0
0
LINE
8
stand
62
4
5
271
100
AcDbEntity
100
AcDbLine
10
83.555417
20
232.115347
30
0.0
11
84.586728
21
232.011102
31
0.0
0
LINE
8
stand
62
4
5
272
100
AcDbEntity
100
AcDbLine
10
84.586728
20
232.011102
30
0.0
11
85.547108
21
231.712183
31
0.0
0
LINE
8
stand
62
4
5
273
100
AcDbEntity
100
AcDbLine
10
85.547108
20
231.712183
30
0.0
11
86.416036
21
231.239319
31
0.0
0
LINE
8
stand
62
4
5
274
100
AcDbEntity
100
AcDbLine
10
86.416036
20
231.239319
30
0.0
11
87.172992
21
230.613235
31
0.0
0
LINE
8
stand
62
4
5
275
100
AcDbEntity
100
AcDbLine
10
87.172992
20
230.613235
30
0.0
11
87.797457
21
229.854660
31
0.0
0
LINE
8
stand
62
4
5
276
100
AcDbEntity
100
AcDbLine
10
87.797457
20
229.854660
30
0.0
11
88.268909
21
228.984319
31
0.0
0
LINE
8
stand
62
4
5
277
100
AcDbEntity
100
AcDbLine
10
88.268909
20
228.984319
30
0.0
11
88.566828
21
228.022940
31
0.0
0
LINE
8
stand
62
4
5
278
100
AcDbEntity
100
AcDbLine
10
88.566828
20
228.022940
30
0.0
11
88.670694
21
226.991250
31
0.0
0
LINE
8
stand
62
4
5
279
100
AcDbEntity
100
AcDbLine
10
88.670694
20
226.991250
30
0.0
11
88.566828
21
225.959939
31
0.0
0
LINE
8
stand
62
4
5
27a
100
AcDbEntity
100
AcDbLine
10
88.566828
20
225.959939
30
0.0
11
88.268909
21
224.999559
31
0.0
0
LINE
8
stand
62
4
5
27b
100
AcDbEntity
100
AcDbLine
10
88.268909
20
224.999559
30
0.0
11
87.797457
21
224.130631
31
0.0
0
LINE
8
stand
62
4
5
27c
100
AcDbEntity
100
AcDbLine
10
87.797457
20
224.130631
30
0.0
11
87.172992
21
223.373674
31
0.0
0
LINE
8
stand
62
4
5
27d
100
AcDbEntity
100
AcDbLine
10
87.172992
20
223.373674
30
0.0
11
86.416036
21
222.749210
31
0.0
0
LINE
8
stand
62
4
5
27e
100
AcDbEntity
100
AcDbLine
10
86.416036
20
222.749210
30
0.0
11
85.547108
21
222.277758
31
0.0
0
LINE
8
stand
62
4
5
27f
100
AcDbEntity
100
AcDbLine
10
85.547108
20
222.277758
30
0.0
11
84.586728
21
221.979839
31
0.0
0
LINE
8
stand
62
4
5
280
100
AcDbEntity
100
AcDbLine
10
84.586728
20
221.979839
30
0.0
11
83.555417
21
221.875972
31
0.0
0
LINE
8
stand
62
4
5
281
100
AcDbEntity
100
AcDbLine
10
83.555417
20
221.875972
30
0.0
11
82.524106
21
221.979839
31
0.0
0
LINE
8
stand
62
4
5
282
100
AcDbEntity
100
AcDbLine
10
82.524106
20
221.979839
30
0.0
11
81.563726
21
222.277758
31
0.0
0
LINE
8
stand
62
4
5
283
100
AcDbEntity
100
AcDbLine
10
81.563726
20
222.277758
30
0.0
11
80.694797
21
222.749210
31
0.0
0
LINE
8
stand
62
4
5
284
100
AcDbEntity
100
AcDbLine
10
80.694797
20
222.749210
30
0.0
11
79.937841
21
223.373674
31
0.0
0
LINE
8
stand
62
4
5
285
100
AcDbEntity
100
AcDbLine
10
79.937841
20
223.373674
30
0.0
11
79.313377
21
224.130631
31
0.0
0
LINE
8
stand
62
4
5
286
100
AcDbEntity
100
AcDbLine
10
79.313377
20
224.130631
30
0.0
11
78.841925
21
224.999559
31
0.0
0
LINE
8
stand
62
4
5
287
100
AcDbEntity
100
AcDbLine
10
78.841925
20
224.999559
30
0.0
11
78.544005
21
225.959939
31
0.0
0
LINE
8
stand
62
4
5
288
100
AcDbEntity
100
AcDbLine
10
78.544005
20
225.959939
30
0.0
11
78.440139
21
226.991250
31
0.0
0
LINE
8
stand
62
4
5
289
100
AcDbEntity
100
AcDbLine
10
78.440139
20
226.991250
30
0.0
11
78.544005
21
228.022940
31
0.0
0
LINE
8
stand
62
4
5
28a
100
AcDbEntity
100
AcDbLine
10
78.544005
20
228.022940
30
0.0
11
78.841925
21
228.984319
31
0.0
0
LINE
8
stand
62
4
5
28b
100
AcDbEntity
100
AcDbLine
10
78.841925
20
228.984319
30
0.0
11
79.313377
21
229.854660
31
0.0
0
LINE
8
stand
62
4
5
28c
100
AcDbEntity
100
AcDbLine
10
79.313377
20
229.854660
30
0.0
11
79.937841
21
230.613235
31
0.0
0
LINE
8
stand
62
4
5
28d
100
AcDbEntity
100
AcDbLine
10
79.937841
20
230.613235
30
0.0
11
80.694797
21
231.239319
31
0.0
0
LINE
8
stand
62
4
5
28e
100
AcDbEntity
100
AcDbLine
10
80.694797
20
231.239319
30
0.0
11
81.563726
21
231.712183
31
0.0
0
LINE
8
stand
62
4
5
28f
100
AcDbEntity
100
AcDbLine
10
81.563726
20
231.712183
30
0.0
11
82.524106
21
232.011102
31
0.0
0
LINE
8
stand
62
4
5
290
100
AcDbEntity
100
AcDbLine
10
82.524106
20
232.011102
30
0.0
11
83.555417
21
232.115347
31
0.0
0
LINE
8
stand
62
4
5
291
100
AcDbEntity
100
AcDbLine
10
83.555417
20
232.115347
30
0.0
11
83.555417
21
232.115347
31
0.0
0
LINE
8
stand
62
4
5
292
100
AcDbEntity
100
AcDbLine
10
92.172014
20
212.545000
30
0.0
11
93.446569
21
212.288182
31
0.0
0
LINE
8
stand
62
4
5
293
100
AcDbEntity
100
AcDbLine
10
93.446569
20
212.288182
30
0.0
11
94.486512
21
211.587484
31
0.0
0
LINE
8
stand
62
4
5
294
100
AcDbEntity
100
AcDbLine
10
94.486512
20
211.587484
30
0.0
11
95.187210
21
210.547541
31
0.0
0
LINE
8
stand
62
4
5
295
100
AcDbEntity
100
AcDbLine
10
95.187210
20
210.547541
30
0.0
11
95.444028
21
209.272986
31
0.0
0
LINE
8
stand
62
4
5
296
100
AcDbEntity
100
AcDbLine
10
95.444028
20
209.272986
30
0.0
11
95.187210
21
207.997053
31
0.0
0
LINE
8
stand
62
4
5
297
100
AcDbEntity
100
AcDbLine
10
95.187210
20
207.997053
30
0.0
11
94.486512
21
206.954078
31
0.0
0
LINE
8
stand
62
4
5
298
100
AcDbEntity
100
AcDbLine
10
94.486512
20
206.954078
30
0.0
11
93.446569
21
206.250349
31
0.0
0
LINE
8
stand
62
4
5
299
100
AcDbEntity
100
AcDbLine
10
93.446569
20
206.250349
30
0.0
11
92.172014
21
205.992153
31
0.0
0
LINE
8
stand
62
4
5
29a
100
AcDbEntity
100
AcDbLine
10
92.172014
20
205.992153
30
0.0
11
90.896081
21
206.250349
31
0.0
0
LINE
8
stand
62
4
5
29b
100
AcDbEntity
100
AcDbLine
10
90.896081
20
206.250349
30
0.0
11
89.853106
21
206.954078
31
0.0
0
LINE
8
stand
62
4
5
29c
100
AcDbEntity
100
AcDbLine
10
89.853106
20
206.954078
30
0.0
11
89.149377
21
207.997053
31
0.0
0
LINE
8
stand
62
4
5
29d
100
AcDbEntity
100
AcDbLine
10
89.149377
20
207.997053
30
0.0
11
88.891181
21
209.272986
31
0.0
0
LINE
8
stand
62
4
5
29e
100
AcDbEntity
100
AcDbLine
10
88.891181
20
209.272986
30
0.0
11
89.149377
21
210.547541
31
0.0
0
LINE
8
stand
62
4
5
29f
100
AcDbEntity
100
AcDbLine
10
89.149377
20
210.547541
30
0.0
11
89.853106
21
211.587484
31
0.0
0
LINE
8
stand
62
4
5
2a0
100
AcDbEntity
100
AcDbLine
10
89.853106
20
211.587484
30
0.0
11
90.896081
21
212.288182
31
0.0
0
LINE
8
stand
62
4
5
2a1
100
AcDbEntity
100
AcDbLine
10
90.896081
20
212.288182
30
0.0
11
92.172014
21
212.545000
31
0.0
0
LINE
8
stand
62
4
5
2a2
100
AcDbEntity
100
AcDbLine
10
92.172014
20
212.545000
30
0.0
11
92.172014
21
212.545000
31
0.0
0
LINE
8
stand
62
4
5
2a3
100
AcDbEntity
100
AcDbLine
10
93.777153
20
203.919583
30
0.0
11
95.127806
21
203.646331
31
0.0
0
LINE
8
stand
62
4
5
2a4
100
AcDbEntity
100
AcDbLine
10
95.127806
20
203.646331
30
0.0
11
96.229360
21
202.901339
31
0.0
0
LINE
8
stand
62
4
5
2a5
100
AcDbEntity
100
AcDbLine
10
96.229360
20
202.901339
30
0.0
11
96.971320
21
201.796754
31
0.0
0
LINE
8
stand
62
4
5
2a6
100
AcDbEntity
100
AcDbLine
10
96.971320
20
201.796754
30
0.0
11
97.243194
21
200.444722
31
0.0
0
LINE
8
stand
62
4
5
2a7
100
AcDbEntity
100
AcDbLine
10
97.243194
20
200.444722
30
0.0
11
96.971320
21
199.092691
31
0.0
0
LINE
8
stand
62
4
5
2a8
100
AcDbEntity
100
AcDbLine
10
96.971320
20
199.092691
30
0.0
11
96.229360
21
197.988105
31
0.0
0
LINE
8
stand
62
4
5
2a9
100
AcDbEntity
100
AcDbLine
10
96.229360
20
197.988105
30
0.0
11
95.127806
21
197.243113
31
0.0
0
LINE
8
stand
62
4
5
2aa
100
AcDbEntity
100
AcDbLine
10
95.127806
20
197.243113
30
0.0
11
93.777153
21
196.969861
31
0.0
0
LINE
8
stand
62
4
5
2ab
100
AcDbEntity
100
AcDbLine
10
93.777153
20
196.969861
30
0.0
11
92.425121
21
197.243113
31
0.0
0
LINE
8
stand
62
4
5
2ac
100
AcDbEntity
100
AcDbLine
10
92.425121
20
197.243113
30
0.0
11
91.320536
21
197.988105
31
0.0
0
LINE
8
stand
62
4
5
2ad
100
AcDbEntity
100
AcDbLine
10
91.320536
20
197.988105
30
0.0
11
90.575544
21
199.092691
31
0.0
0
LINE
8
stand
62
4
5
2ae
100
AcDbEntity
100
AcDbLine
10
90.575544
20
199.092691
30
0.0
11
90.302292
21
200.444722
31
0.0
0
LINE
8
stand
62
4
5
2af
100
AcDbEntity
100
AcDbLine
10
90.302292
20
200.444722
30
0.0
11
90.575544
21
201.796754
31
0.0
0
LINE
8
stand
62
4
5
2b0
100
AcDbEntity
100
AcDbLine
10
90.575544
20
201.796754
30
0.0
11
91.320536
21
202.901339
31
0.0
0
LINE
8
stand
62
4
5
2b1
100
AcDbEntity
100
AcDbLine
10
91.320536
20
202.901339
30
0.0
11
92.425121
21
203.646331
31
0.0
0
LINE
8
stand
62
4
5
2b2
100
AcDbEntity
100
AcDbLine
10
92.425121
20
203.646331
30
0.0
11
93.777153
21
203.919583
31
0.0
0
LINE
8
stand
62
4
5
2b3
100
AcDbEntity
100
AcDbLine
10
93.777153
20
203.919583
30
0.0
11
93.777153
21
203.919583
31
0.0
0
LINE
8
stand
62
4
5
2b4
100
AcDbEntity
100
AcDbLine
10
95.479306
20
194.288750
30
0.0
11
96.238484
21
194.212271
31
0.0
0
LINE
8
stand
62
4
5
2b5
100
AcDbEntity
100
AcDbLine
10
96.238484
20
194.212271
30
0.0
11
96.945485
21
193.992913
31
0.0
0
LINE
8
stand
62
4
5
2b6
100
AcDbEntity
100
AcDbLine
10
96.945485
20
193.992913
30
0.0
11
98.142486
21
193.186027
31
0.0
0
LINE
8
stand
62
4
5
2b7
100
AcDbEntity
100
AcDbLine
10
98.142486
20
193.186027
30
0.0
11
98.949372
21
191.989027
31
0.0
0
LINE
8
stand
62
4
5
2b8
100
AcDbEntity
100
AcDbLine
10
98.949372
20
191.989027
30
0.0
11
99.168730
21
191.282026
31
0.0
0
LINE
8
stand
62
4
5
2b9
100
AcDbEntity
100
AcDbLine
10
99.168730
20
191.282026
30
0.0
11
99.245208
21
190.522847
31
0.0
0
LINE
8
stand
62
4
5
2ba
100
AcDbEntity
100
AcDbLine
10
99.245208
20
190.522847
30
0.0
11
99.168730
21
189.763289
31
0.0
0
LINE
8
stand
62
4
5
2bb
100
AcDbEntity
100
AcDbLine
10
99.168730
20
189.763289
30
0.0
11
98.949372
21
189.055290
31
0.0
0
LINE
8
stand
62
4
5
2bc
100
AcDbEntity
100
AcDbLine
10
98.949372
20
189.055290
30
0.0
11
98.142486
21
187.855257
31
0.0
0
LINE
8
stand
62
4
5
2bd
100
AcDbEntity
100
AcDbLine
10
98.142486
20
187.855257
30
0.0
11
96.945485
21
187.045340
31
0.0
0
LINE
8
stand
62
4
5
2be
100
AcDbEntity
100
AcDbLine
10
96.945485
20
187.045340
30
0.0
11
96.238484
21
186.824983
31
0.0
0
LINE
8
stand
62
4
5
2bf
100
AcDbEntity
100
AcDbLine
10
96.238484
20
186.824983
30
0.0
11
95.479306
21
186.748125
31
0.0
0
LINE
8
stand
62
4
5
2c0
100
AcDbEntity
100
AcDbLine
10
95.479306
20
186.748125
30
0.0
11
94.719748
21
186.824983
31
0.0
0
LINE
8
stand
62
4
5
2c1
100
AcDbEntity
100
AcDbLine
10
94.719748
20
186.824983
30
0.0
11
94.011748
21
187.045340
31
0.0
0
LINE
8
stand
62
4
5
2c2
100
AcDbEntity
100
AcDbLine
10
94.011748
20
187.045340
30
0.0
11
92.811716
21
187.855257
31
0.0
0
LINE
8
stand
62
4
5
2c3
100
AcDbEntity
100
AcDbLine
10
92.811716
20
187.855257
30
0.0
11
92.001798
21
189.055290
31
0.0
0
LINE
8
stand
62
4
5
2c4
100
AcDbEntity
100
AcDbLine
10
92.001798
20
189.055290
30
0.0
11
91.781441
21
189.763289
31
0.0
0
LINE
8
stand
62
4
5
2c5
100
AcDbEntity
100
AcDbLine
10
91.781441
20
189.763289
30
0.0
11
91.704583
21
190.522847
31
0.0
0
LINE
8
stand
62
4
5
2c6
100
AcDbEntity
100
AcDbLine
10
91.704583
20
190.522847
30
0.0
11
91.781441
21
191.282026
31
0.0
0
LINE
8
stand
62
4
5
2c7
100
AcDbEntity
100
AcDbLine
10
91.781441
20
191.282026
30
0.0
11
92.001798
21
191.989027
31
0.0
0
LINE
8
stand
62
4
5
2c8
100
AcDbEntity
100
AcDbLine
10
92.001798
20
191.989027
30
0.0
11
92.811716
21
193.186027
31
0.0
0
LINE
8
stand
62
4
5
2c9
100
AcDbEntity
100
AcDbLine
10
92.811716
20
193.186027
30
0.0
11
94.011748
21
193.992913
31
0.0
0
LINE
8
stand
62
4
5
2ca
100
AcDbEntity
100
AcDbLine
10
94.011748
20
193.992913
30
0.0
11
94.719748
21
194.212271
31
0.0
0
LINE
8
stand
62
4
5
2cb
100
AcDbEntity
100
AcDbLine
10
94.719748
20
194.212271
30
0.0
11
95.479306
21
194.288750
31
0.0
0
LINE
8
stand
62
4
5
2cc
100
AcDbEntity
100
AcDbLine
10
95.479306
20
194.288750
30
0.0
11
95.479306
21
194.288750
31
0.0
0
LINE
8
stand
62
4
5
2cd
100
AcDbEntity
100
AcDbLine
10
97.278472
20
184.455069
30
0.0
11
98.117018
21
184.370440
31
0.0
0
LINE
8
stand
62
4
5
2ce
100
AcDbEntity
100
AcDbLine
10
98.117018
20
184.370440
30
0.0
11
98.898227
21
184.127742
31
0.0
0
LINE
8
stand
62
4
5
2cf
100
AcDbEntity
100
AcDbLine
10
98.898227
20
184.127742
30
0.0
11
99.605311
21
183.743766
31
0.0
0
LINE
8
stand
62
4
5
2d0
100
AcDbEntity
100
AcDbLine
10
99.605311
20
183.743766
30
0.0
11
100.221480
21
183.235299
31
0.0
0
LINE
8
stand
62
4
5
2d1
100
AcDbEntity
100
AcDbLine
10
100.221480
20
183.235299
30
0.0
11
100.729947
21
182.619130
31
0.0
0
LINE
8
stand
62
4
5
2d2
100
AcDbEntity
100
AcDbLine
10
100.729947
20
182.619130
30
0.0
11
101.113923
21
181.912047
31
0.0
0
LINE
8
stand
62
4
5
2d3
100
AcDbEntity
100
AcDbLine
10
101.113923
20
181.912047
30
0.0
11
101.356620
21
181.130838
31
0.0
0
LINE
8
stand
62
4
5
2d4
100
AcDbEntity
100
AcDbLine
10
101.356620
20
181.130838
30
0.0
11
101.441250
21
180.292292
31
0.0
0
LINE
8
stand
62
4
5
2d5
100
AcDbEntity
100
AcDbLine
10
101.441250
20
180.292292
30
0.0
11
101.356620
21
179.453745
31
0.0
0
LINE
8
stand
62
4
5
2d6
100
AcDbEntity
100
AcDbLine
10
101.356620
20
179.453745
30
0.0
11
101.113923
21
178.672536
31
0.0
0
LINE
8
stand
62
4
5
2d7
100
AcDbEntity
100
AcDbLine
10
101.113923
20
178.672536
30
0.0
11
100.729947
21
177.965453
31
0.0
0
LINE
8
stand
62
4
5
2d8
100
AcDbEntity
100
AcDbLine
10
100.729947
20
177.965453
30
0.0
11
100.221480
21
177.349284
31
0.0
0
LINE
8
stand
62
4
5
2d9
100
AcDbEntity
100
AcDbLine
10
100.221480
20
177.349284
30
0.0
11
99.605311
21
176.840817
31
0.0
0
LINE
8
stand
62
4
5
2da
100
AcDbEntity
100
AcDbLine
10
99.605311
20
176.840817
30
0.0
11
98.898227
21
176.456841
31
0.0
0
LINE
8
stand
62
4
5
2db
100
AcDbEntity
100
AcDbLine
10
98.898227
20
176.456841
30
0.0
11
98.117018
21
176.214144
31
0.0
0
LINE
8
stand
62
4
5
2dc
100
AcDbEntity
100
AcDbLine
10
98.117018
20
176.214144
30
0.0
11
97.278472
21
176.129514
31
0.0
0
LINE
8
stand
62
4
5
2dd
100
AcDbEntity
100
AcDbLine
10
97.278472
20
176.129514
30
0.0
11
96.439926
21
176.214144
31
0.0
0
LINE
8
stand
62
4
5
2de
100
AcDbEntity
100
AcDbLine
10
96.439926
20
176.214144
30
0.0
11
95.658717
21
176.456841
31
0.0
0
LINE
8
stand
62
4
5
2df
100
AcDbEntity
100
AcDbLine
10
95.658717
20
176.456841
30
0.0
11
94.951634
21
176.840817
31
0.0
0
LINE
8
stand
62
4
5
2e0
100
AcDbEntity
100
AcDbLine
10
94.951634
20
176.840817
30
0.0
11
94.335465
21
177.349284
31
0.0
0
LINE
8
stand
62
4
5
2e1
100
AcDbEntity
100
AcDbLine
10
94.335465
20
177.349284
30
0.0
11
93.826998
21
177.965453
31
0.0
0
LINE
8
stand
62
4
5
2e2
100
AcDbEntity
100
AcDbLine
10
93.826998
20
177.965453
30
0.0
11
93.443021
21
178.672536
31
0.0
0
LINE
8
stand
62
4
5
2e3
100
AcDbEntity
100
AcDbLine
10
93.443021
20
178.672536
30
0.0
11
93.200324
21
179.453745
31
0.0
0
LINE
8
stand
62
4
5
2e4
100
AcDbEntity
100
AcDbLine
10
93.200324
20
179.453745
30
0.0
11
93.115694
21
180.292292
31
0.0
0
LINE
8
stand
62
4
5
2e5
100
AcDbEntity
100
AcDbLine
10
93.115694
20
180.292292
30
0.0
11
93.200324
21
181.130838
31
0.0
0
LINE
8
stand
62
4
5
2e6
100
AcDbEntity
100
AcDbLine
10
93.200324
20
181.130838
30
0.0
11
93.443021
21
181.912047
31
0.0
0
LINE
8
stand
62
4
5
2e7
100
AcDbEntity
100
AcDbLine
10
93.443021
20
181.912047
30
0.0
11
93.826998
21
182.619130
31
0.0
0
LINE
8
stand
62
4
5
2e8
100
AcDbEntity
100
AcDbLine
10
93.826998
20
182.619130
30
0.0
11
94.335465
21
183.235299
31
0.0
0
LINE
8
stand
62
4
5
2e9
100
AcDbEntity
100
AcDbLine
10
94.335465
20
183.235299
30
0.0
11
94.951634
21
183.743766
31
0.0
0
LINE
8
stand
62
4
5
2ea
100
AcDbEntity
100
AcDbLine
10
94.951634
20
183.743766
30
0.0
11
95.658717
21
184.127742
31
0.0
0
LINE
8
stand
62
4
5
2eb
100
AcDbEntity
100
AcDbLine
10
95.658717
20
184.127742
30
0.0
11
96.439926
21
184.370440
31
0.0
0
LINE
8
stand
62
4
5
2ec
100
AcDbEntity
100
AcDbLine
10
96.439926
20
184.370440
30
0.0
11
97.278472
21
184.455069
31
0.0
0
LINE
8
stand
62
4
5
2ed
100
AcDbEntity
100
AcDbLine
10
97.278472
20
184.455069
30
0.0
11
97.278472
21
184.455069
31
0.0
0
LINE
8
stand
62
4
5
2ee
100
AcDbEntity
100
AcDbLine
10
99.377500
20
173.818819
30
0.0
11
100.315160
21
173.724095
31
0.0
0
LINE
8
stand
62
4
5
2ef
100
AcDbEntity
100
AcDbLine
10
100.315160
20
173.724095
30
0.0
11
101.188879
21
173.452474
31
0.0
0
LINE
8
stand
62
4
5
2f0
100
AcDbEntity
100
AcDbLine
10
101.188879
20
173.452474
30
0.0
11
101.979830
21
173.022780
31
0.0
0
LINE
8
stand
62
4
5
2f1
100
AcDbEntity
100
AcDbLine
10
101.979830
20
173.022780
30
0.0
11
102.669189
21
172.453841
31
0.0
0
LINE
8
stand
62
4
5
2f2
100
AcDbEntity
100
AcDbLine
10
102.669189
20
172.453841
30
0.0
11
103.238127
21
171.764483
31
0.0
0
LINE
8
stand
62
4
5
2f3
100
AcDbEntity
100
AcDbLine
10
103.238127
20
171.764483
30
0.0
11
103.667821
21
170.973532
31
0.0
0
LINE
8
stand
62
4
5
2f4
100
AcDbEntity
100
AcDbLine
10
103.667821
20
170.973532
30
0.0
11
103.939443
21
170.099813
31
0.0
0
LINE
8
stand
62
4
5
2f5
100
AcDbEntity
100
AcDbLine
10
103.939443
20
170.099813
30
0.0
11
104.034167
21
169.162153
31
0.0
0
LINE
8
stand
62
4
5
2f6
100
AcDbEntity
100
AcDbLine
10
104.034167
20
169.162153
30
0.0
11
103.939443
21
168.224872
31
0.0
0
LINE
8
stand
62
4
5
2f7
100
AcDbEntity
100
AcDbLine
10
103.939443
20
168.224872
30
0.0
11
103.667821
21
167.352152
31
0.0
0
LINE
8
stand
62
4
5
2f8
100
AcDbEntity
100
AcDbLine
10
103.667821
20
167.352152
30
0.0
11
103.238127
21
166.562613
31
0.0
0
LINE
8
stand
62
4
5
2f9
100
AcDbEntity
100
AcDbLine
10
103.238127
20
166.562613
30
0.0
11
102.669189
21
165.874874
31
0.0
0
LINE
8
stand
62
4
5
2fa
100
AcDbEntity
100
AcDbLine
10
102.669189
20
165.874874
30
0.0
11
101.979830
21
165.307554
31
0.0
0
LINE
8
stand
62
4
5
2fb
100
AcDbEntity
100
AcDbLine
10
101.979830
20
165.307554
30
0.0
11
101.188879
21
164.879273
31
0.0
0
LINE
8
stand
62
4
5
2fc
100
AcDbEntity
100
AcDbLine
10
101.188879
20
164.879273
30
0.0
11
100.315160
21
164.608651
31
0.0
0
LINE
8
stand
62
4
5
2fd
100
AcDbEntity
100
AcDbLine
10
100.315160
20
164.608651
30
0.0
11
99.377500
21
164.514306
31
0.0
0
LINE
8
stand
62
4
5
2fe
100
AcDbEntity
100
AcDbLine
10
99.377500
20
164.514306
30
0.0
11
98.440219
21
164.608651
31
0.0
0
LINE
8
stand
62
4
5
2ff
100
AcDbEntity
100
AcDbLine
10
98.440219
20
164.608651
30
0.0
11
97.567499
21
164.879273
31
0.0
0
LINE
8
stand
62
4
5
300
100
AcDbEntity
100
AcDbLine
10
97.567499
20
164.879273
30
0.0
11
96.777960
21
165.307554
31
0.0
0
LINE
8
stand
62
4
5
301
100
AcDbEntity
100
AcDbLine
10
96.777960
20
165.307554
30
0.0
11
96.090221
21
165.874874
31
0.0
0
LINE
8
stand
62
4
5
302
100
AcDbEntity
100
AcDbLine
10
96.090221
20
165.874874
30
0.0
11
95.522901
21
166.562613
31
0.0
0
LINE
8
stand
62
4
5
303
100
AcDbEntity
100
AcDbLine
10
95.522901
20
166.562613
30
0.0
11
95.094621
21
167.352152
31
0.0
0
LINE
8
stand
62
4
5
304
100
AcDbEntity
100
AcDbLine
10
95.094621
20
167.352152
30
0.0
11
94.823998
21
168.224872
31
0.0
0
LINE
8
stand
62
4
5
305
100
AcDbEntity
100
AcDbLine
10
94.823998
20
168.224872
30
0.0
11
94.729653
21
169.162153
31
0.0
0
LINE
8
stand
62
4
5
306
100
AcDbEntity
100
AcDbLine
10
94.729653
20
169.162153
30
0.0
11
94.823998
21
170.099813
31
0.0
0
LINE
8
stand
62
4
5
307
100
AcDbEntity
100
AcDbLine
10
94.823998
20
170.099813
30
0.0
11
95.094621
21
170.973532
31
0.0
0
LINE
8
stand
62
4
5
308
100
AcDbEntity
100
AcDbLine
10
95.094621
20
170.973532
30
0.0
11
95.522901
21
171.764483
31
0.0
0
LINE
8
stand
62
4
5
309
100
AcDbEntity
100
AcDbLine
10
95.522901
20
171.764483
30
0.0
11
96.090221
21
172.453841
31
0.0
0
LINE
8
stand
62
4
5
30a
100
AcDbEntity
100
AcDbLine
10
96.090221
20
172.453841
30
0.0
11
96.777960
21
173.022780
31
0.0
0
LINE
8
stand
62
4
5
30b
100
AcDbEntity
100
AcDbLine
10
96.777960
20
173.022780
30
0.0
11
97.567499
21
173.452474
31
0.0
0
LINE
8
stand
62
4
5
30c
100
AcDbEntity
100
AcDbLine
10
97.567499
20
173.452474
30
0.0
11
98.440219
21
173.724095
31
0.0
0
LINE
8
stand
62
4
5
30d
100
AcDbEntity
100
AcDbLine
10
98.440219
20
173.724095
30
0.0
11
99.377500
21
173.818819
31
0.0
0
LINE
8
stand
62
4
5
30e
100
AcDbEntity
100
AcDbLine
10
99.377500
20
173.818819
30
0.0
11
99.377500
21
173.818819
31
0.0
0
LINE
8
stand
62
4
5
30f
100
AcDbEntity
100
AcDbLine
10
101.485347
20
161.983125
30
0.0
11
102.458761
21
161.884847
31
0.0
0
LINE
8
stand
62
4
5
310
100
AcDbEntity
100
AcDbLine
10
102.458761
20
161.884847
30
0.0
11
103.365686
21
161.603018
31
0.0
0
LINE
8
stand
62
4
5
311
100
AcDbEntity
100
AcDbLine
10
103.365686
20
161.603018
30
0.0
11
104.186612
21
161.157150
31
0.0
0
LINE
8
stand
62
4
5
312
100
AcDbEntity
100
AcDbLine
10
104.186612
20
161.157150
30
0.0
11
104.902030
21
160.566752
31
0.0
0
LINE
8
stand
62
4
5
313
100
AcDbEntity
100
AcDbLine
10
104.902030
20
160.566752
30
0.0
11
105.492428
21
159.851335
31
0.0
0
LINE
8
stand
62
4
5
314
100
AcDbEntity
100
AcDbLine
10
105.492428
20
159.851335
30
0.0
11
105.938296
21
159.030408
31
0.0
0
LINE
8
stand
62
4
5
315
100
AcDbEntity
100
AcDbLine
10
105.938296
20
159.030408
30
0.0
11
106.220124
21
158.123483
31
0.0
0
LINE
8
stand
62
4
5
316
100
AcDbEntity
100
AcDbLine
10
106.220124
20
158.123483
30
0.0
11
106.318403
21
157.150069
31
0.0
0
LINE
8
stand
62
4
5
317
100
AcDbEntity
100
AcDbLine
10
106.318403
20
157.150069
30
0.0
11
106.220124
21
156.177035
31
0.0
0
LINE
8
stand
62
4
5
318
100
AcDbEntity
100
AcDbLine
10
106.220124
20
156.177035
30
0.0
11
105.938296
21
155.271109
31
0.0
0
LINE
8
stand
62
4
5
319
100
AcDbEntity
100
AcDbLine
10
105.938296
20
155.271109
30
0.0
11
105.492428
21
154.451595
31
0.0
0
LINE
8
stand
62
4
5
31a
100
AcDbEntity
100
AcDbLine
10
105.492428
20
154.451595
30
0.0
11
104.902030
21
153.737797
31
0.0
0
LINE
8
stand
62
4
5
31b
100
AcDbEntity
100
AcDbLine
10
104.902030
20
153.737797
30
0.0
11
104.186612
21
153.149018
31
0.0
0
LINE
8
stand
62
4
5
31c
100
AcDbEntity
100
AcDbLine
10
104.186612
20
153.149018
30
0.0
11
103.365686
21
152.704562
31
0.0
0
LINE
8
stand
62
4
5
31d
100
AcDbEntity
100
AcDbLine
10
103.365686
20
152.704562
30
0.0
11
102.458761
21
152.423733
31
0.0
0
LINE
8
stand
62
4
5
31e
100
AcDbEntity
100
AcDbLine
10
102.458761
20
152.423733
30
0.0
11
101.485347
21
152.325833
31
0.0
0
LINE
8
stand
62
4
5
31f
100
AcDbEntity
100
AcDbLine
10
101.485347
20
152.325833
30
0.0
11
100.512312
21
152.423733
31
0.0
0
LINE
8
stand
62
4
5
320
100
AcDbEntity
100
AcDbLine
10
100.512312
20
152.423733
30
0.0
11
99.606386
21
152.704562
31
0.0
0
LINE
8
stand
62
4
5
321
100
AcDbEntity
100
AcDbLine
10
99.606386
20
152.704562
30
0.0
11
98.786873
21
153.149018
31
0.0
0
LINE
8
stand
62
4
5
322
100
AcDbEntity
100
AcDbLine
10
98.786873
20
153.149018
30
0.0
11
98.073075
21
153.737797
31
0.0
0
LINE
8
stand
62
4
5
323
100
AcDbEntity
100
AcDbLine
10
98.073075
20
153.737797
30
0.0
11
97.484296
21
154.451595
31
0.0
0
LINE
8
stand
62
4
5
324
100
AcDbEntity
100
AcDbLine
10
97.484296
20
154.451595
30
0.0
11
97.039840
21
155.271109
31
0.0
0
LINE
8
stand
62
4
5
325
100
AcDbEntity
100
AcDbLine
10
97.039840
20
155.271109
30
0.0
11
96.759011
21
156.177035
31
0.0
0
LINE
8
stand
62
4
5
326
100
AcDbEntity
100
AcDbLine
10
96.759011
20
156.177035
30
0.0
11
96.661111
21
157.150069
31
0.0
0
LINE
8
stand
62
4
5
327
100
AcDbEntity
100
AcDbLine
10
96.661111
20
157.150069
30
0.0
11
96.759011
21
158.123483
31
0.0
0
LINE
8
stand
62
4
5
328
100
AcDbEntity
100
AcDbLine
10
96.759011
20
158.123483
30
0.0
11
97.039840
21
159.030408
31
0.0
0
LINE
8
stand
62
4
5
329
100
AcDbEntity
100
AcDbLine
10
97.039840
20
159.030408
30
0.0
11
97.484296
21
159.851335
31
0.0
0
LINE
8
stand
62
4
5
32a
100
AcDbEntity
100
AcDbLine
10
97.484296
20
159.851335
30
0.0
11
98.073075
21
160.566752
31
0.0
0
LINE
8
stand
62
4
5
32b
100
AcDbEntity
100
AcDbLine
10
98.073075
20
160.566752
30
0.0
11
98.786873
21
161.157150
31
0.0
0
LINE
8
stand
62
4
5
32c
100
AcDbEntity
100
AcDbLine
10
98.786873
20
161.157150
30
0.0
11
99.606386
21
161.603018
31
0.0
0
LINE
8
stand
62
4
5
32d
100
AcDbEntity
100
AcDbLine
10
99.606386
20
161.603018
30
0.0
11
100.512312
21
161.884847
31
0.0
0
LINE
8
stand
62
4
5
32e
100
AcDbEntity
100
AcDbLine
10
100.512312
20
161.884847
30
0.0
11
101.485347
21
161.983125
31
0.0
0
LINE
8
stand
62
4
5
32f
100
AcDbEntity
100
AcDbLine
10
101.485347
20
161.983125
30
0.0
11
101.485347
21
161.983125
31
0.0
0
LINE
8
stand
62
4
5
330
100
AcDbEntity
100
AcDbLine
10
103.787222
20
149.944583
30
0.0
11
104.871636
21
149.835310
31
0.0
0
LINE
8
stand
62
4
5
331
100
AcDbEntity
100
AcDbLine
10
104.871636
20
149.835310
30
0.0
11
105.881577
21
149.521897
31
0.0
0
LINE
8
stand
62
4
5
332
100
AcDbEntity
100
AcDbLine
10
105.881577
20
149.521897
30
0.0
11
106.795436
21
149.025957
31
0.0
0
LINE
8
stand
62
4
5
333
100
AcDbEntity
100
AcDbLine
10
106.795436
20
149.025957
30
0.0
11
107.591599
21
148.369099
31
0.0
0
LINE
8
stand
62
4
5
334
100
AcDbEntity
100
AcDbLine
10
107.591599
20
148.369099
30
0.0
11
108.248457
21
147.572935
31
0.0
0
LINE
8
stand
62
4
5
335
100
AcDbEntity
100
AcDbLine
10
108.248457
20
147.572935
30
0.0
11
108.744397
21
146.659077
31
0.0
0
LINE
8
stand
62
4
5
336
100
AcDbEntity
100
AcDbLine
10
108.744397
20
146.659077
30
0.0
11
109.057810
21
145.649136
31
0.0
0
LINE
8
stand
62
4
5
337
100
AcDbEntity
100
AcDbLine
10
109.057810
20
145.649136
30
0.0
11
109.167083
21
144.564722
31
0.0
0
LINE
8
stand
62
4
5
338
100
AcDbEntity
100
AcDbLine
10
109.167083
20
144.564722
30
0.0
11
109.057810
21
143.480308
31
0.0
0
LINE
8
stand
62
4
5
339
100
AcDbEntity
100
AcDbLine
10
109.057810
20
143.480308
30
0.0
11
108.744397
21
142.470367
31
0.0
0
LINE
8
stand
62
4
5
33a
100
AcDbEntity
100
AcDbLine
10
108.744397
20
142.470367
30
0.0
11
108.248457
21
141.556509
31
0.0
0
LINE
8
stand
62
4
5
33b
100
AcDbEntity
100
AcDbLine
10
108.248457
20
141.556509
30
0.0
11
107.591599
21
140.760345
31
0.0
0
LINE
8
stand
62
4
5
33c
100
AcDbEntity
100
AcDbLine
10
107.591599
20
140.760345
30
0.0
11
106.795436
21
140.103488
31
0.0
0
LINE
8
stand
62
4
5
33d
100
AcDbEntity
100
AcDbLine
10
106.795436
20
140.103488
30
0.0
11
105.881577
21
139.607547
31
0.0
0
LINE
8
stand
62
4
5
33e
100
AcDbEntity
100
AcDbLine
10
105.881577
20
139.607547
30
0.0
11
104.871636
21
139.294134
31
0.0
0
LINE
8
stand
62
4
5
33f
100
AcDbEntity
100
AcDbLine
10
104.871636
20
139.294134
30
0.0
11
103.787222
21
139.184861
31
0.0
0
LINE
8
stand
62
4
5
340
100
AcDbEntity
100
AcDbLine
10
103.787222
20
139.184861
30
0.0
11
102.702430
21
139.294134
31
0.0
0
LINE
8
stand
62
4
5
341
100
AcDbEntity
100
AcDbLine
10
102.702430
20
139.294134
30
0.0
11
101.691489
21
139.607547
31
0.0
0
LINE
8
stand
62
4
5
342
100
AcDbEntity
100
AcDbLine
10
101.691489
20
139.607547
30
0.0
11
100.776218
21
140.103488
31
0.0
0
LINE
8
stand
62
4
5
343
100
AcDbEntity
100
AcDbLine
10
100.776218
20
140.103488
30
0.0
11
99.978436
21
140.760345
31
0.0
0
LINE
8
stand
62
4
5
344
100
AcDbEntity
100
AcDbLine
10
99.978436
20
140.760345
30
0.0
11
99.319959
21
141.556509
31
0.0
0
LINE
8
stand
62
4
5
345
100
AcDbEntity
100
AcDbLine
10
99.319959
20
141.556509
30
0.0
11
98.822606
21
142.470367
31
0.0
0
LINE
8
stand
62
4
5
346
100
AcDbEntity
100
AcDbLine
10
98.822606
20
142.470367
30
0.0
11
98.508194
21
143.480308
31
0.0
0
LINE
8
stand
62
4
5
347
100
AcDbEntity
100
AcDbLine
10
98.508194
20
143.480308
30
0.0
11
98.398542
21
144.564722
31
0.0
0
LINE
8
stand
62
4
5
348
100
AcDbEntity
100
AcDbLine
10
98.398542
20
144.564722
30
0.0
11
98.508194
21
145.649136
31
0.0
0
LINE
8
stand
62
4
5
349
100
AcDbEntity
100
AcDbLine
10
98.508194
20
145.649136
30
0.0
11
98.822606
21
146.659077
31
0.0
0
LINE
8
stand
62
4
5
34a
100
AcDbEntity
100
AcDbLine
10
98.822606
20
146.659077
30
0.0
11
99.319959
21
147.572935
31
0.0
0
LINE
8
stand
62
4
5
34b
100
AcDbEntity
100
AcDbLine
10
99.319959
20
147.572935
30
0.0
11
99.978436
21
148.369099
31
0.0
0
LINE
8
stand
62
4
5
34c
100
AcDbEntity
100
AcDbLine
10
99.978436
20
148.369099
30
0.0
11
100.776218
21
149.025957
31
0.0
0
LINE
8
stand
62
4
5
34d
100
AcDbEntity
100
AcDbLine
10
100.776218
20
149.025957
30
0.0
11
101.691489
21
149.521897
31
0.0
0
LINE
8
stand
62
4
5
34e
100
AcDbEntity
100
AcDbLine
10
101.691489
20
149.521897
30
0.0
11
102.702430
21
149.835310
31
0.0
0
LINE
8
stand
62
4
5
34f
100
AcDbEntity
100
AcDbLine
10
102.702430
20
149.835310
30
0.0
11
103.787222
21
149.944583
31
0.0
0
LINE
8
stand
62
4
5
350
100
AcDbEntity
100
AcDbLine
10
103.787222
20
149.944583
30
0.0
11
103.787222
21
149.944583
31
0.0
0
LINE
8
stand
62
4
5
351
100
AcDbEntity
100
AcDbLine
10
102.940556
20
135.277847
30
0.0
11
104.414229
21
135.129334
31
0.0
0
LINE
8
stand
62
4
5
352
100
AcDbEntity
100
AcDbLine
10
104.414229
20
135.129334
30
0.0
11
105.786726
21
134.703379
31
0.0
0
LINE
8
stand
62
4
5
353
100
AcDbEntity
100
AcDbLine
10
105.786726
20
134.703379
30
0.0
11
107.028671
21
134.029361
31
0.0
0
LINE
8
stand
62
4
5
354
100
AcDbEntity
100
AcDbLine
10
107.028671
20
134.029361
30
0.0
11
108.110684
21
133.136656
31
0.0
0
LINE
8
stand
62
4
5
355
100
AcDbEntity
100
AcDbLine
10
108.110684
20
133.136656
30
0.0
11
109.003389
21
132.054643
31
0.0
0
LINE
8
stand
62
4
5
356
100
AcDbEntity
100
AcDbLine
10
109.003389
20
132.054643
30
0.0
11
109.677407
21
130.812699
31
0.0
0
LINE
8
stand
62
4
5
357
100
AcDbEntity
100
AcDbLine
10
109.677407
20
130.812699
30
0.0
11
110.103362
21
129.440201
31
0.0
0
LINE
8
stand
62
4
5
358
100
AcDbEntity
100
AcDbLine
10
110.103362
20
129.440201
30
0.0
11
110.251875
21
127.966528
31
0.0
0
LINE
8
stand
62
4
5
359
100
AcDbEntity
100
AcDbLine
10
110.251875
20
127.966528
30
0.0
11
110.103362
21
126.492854
31
0.0
0
LINE
8
stand
62
4
5
35a
100
AcDbEntity
100
AcDbLine
10
110.103362
20
126.492854
30
0.0
11
109.677407
21
125.120357
31
0.0
0
LINE
8
stand
62
4
5
35b
100
AcDbEntity
100
AcDbLine
10
109.677407
20
125.120357
30
0.0
11
109.003389
21
123.878413
31
0.0
0
LINE
8
stand
62
4
5
35c
100
AcDbEntity
100
AcDbLine
10
109.003389
20
123.878413
30
0.0
11
108.110684
21
122.796399
31
0.0
0
LINE
8
stand
62
4
5
35d
100
AcDbEntity
100
AcDbLine
10
108.110684
20
122.796399
30
0.0
11
107.028671
21
121.903695
31
0.0
0
LINE
8
stand
62
4
5
35e
100
AcDbEntity
100
AcDbLine
10
107.028671
20
121.903695
30
0.0
11
105.786726
21
121.229676
31
0.0
0
LINE
8
stand
62
4
5
35f
100
AcDbEntity
100
AcDbLine
10
105.786726
20
121.229676
30
0.0
11
104.414229
21
120.803722
31
0.0
0
LINE
8
stand
62
4
5
360
100
AcDbEntity
100
AcDbLine
10
104.414229
20
120.803722
30
0.0
11
102.940556
21
120.655208
31
0.0
0
LINE
8
stand
62
4
5
361
100
AcDbEntity
100
AcDbLine
10
102.940556
20
120.655208
30
0.0
11
101.466882
21
120.803722
31
0.0
0
LINE
8
stand
62
4
5
362
100
AcDbEntity
100
AcDbLine
10
101.466882
20
120.803722
30
0.0
11
100.094385
21
121.229676
31
0.0
0
LINE
8
stand
62
4
5
363
100
AcDbEntity
100
AcDbLine
10
100.094385
20
121.229676
30
0.0
11
98.852440
21
121.903695
31
0.0
0
LINE
8
stand
62
4
5
364
100
AcDbEntity
100
AcDbLine
10
98.852440
20
121.903695
30
0.0
11
97.770427
21
122.796399
31
0.0
0
LINE
8
stand
62
4
5
365
100
AcDbEntity
100
AcDbLine
10
97.770427
20
122.796399
30
0.0
11
96.877723
21
123.878413
31
0.0
0
LINE
8
stand
62
4
5
366
100
AcDbEntity
100
AcDbLine
10
96.877723
20
123.878413
30
0.0
11
96.203704
21
125.120357
31
0.0
0
LINE
8
stand
62
4
5
367
100
AcDbEntity
100
AcDbLine
10
96.203704
20
125.120357
30
0.0
11
95.777749
21
126.492854
31
0.0
0
LINE
8
stand
62
4
5
368
100
AcDbEntity
100
AcDbLine
10
95.777749
20
126.492854
30
0.0
11
95.629236
21
127.966528
31
0.0
0
LINE
8
stand
62
4
5
369
100
AcDbEntity
100
AcDbLine
10
95.629236
20
127.966528
30
0.0
11
95.777749
21
129.440201
31
0.0
0
LINE
8
stand
62
4
5
36a
100
AcDbEntity
100
AcDbLine
10
95.777749
20
129.440201
30
0.0
11
96.203704
21
130.812699
31
0.0
0
LINE
8
stand
62
4
5
36b
100
AcDbEntity
100
AcDbLine
10
96.203704
20
130.812699
30
0.0
11
96.877723
21
132.054643
31
0.0
0
LINE
8
stand
62
4
5
36c
100
AcDbEntity
100
AcDbLine
10
96.877723
20
132.054643
30
0.0
11
97.770427
21
133.136656
31
0.0
0
LINE
8
stand
62
4
5
36d
100
AcDbEntity
100
AcDbLine
10
97.770427
20
133.136656
30
0.0
11
98.852440
21
134.029361
31
0.0
0
LINE
8
stand
62
4
5
36e
100
AcDbEntity
100
AcDbLine
10
98.852440
20
134.029361
30
0.0
11
100.094385
21
134.703379
31
0.0
0
LINE
8
stand
62
4
5
36f
100
AcDbEntity
100
AcDbLine
10
100.094385
20
134.703379
30
0.0
11
101.466882
21
135.129334
31
0.0
0
LINE
8
stand
62
4
5
370
100
AcDbEntity
100
AcDbLine
10
101.466882
20
135.129334
30
0.0
11
102.940556
21
135.277847
31
0.0
0
LINE
8
stand
62
4
5
371
100
AcDbEntity
100
AcDbLine
10
102.940556
20
135.277847
30
0.0
11
102.940556
21
135.277847
31
0.0
0
LINE
8
turboShroud
62
4
5
372
100
AcDbEntity
100
AcDbLine
10
23.508526
20
260.638015
30
0.0
11
23.741784
21
256.861929
31
0.0
0
LINE
8
turboShroud
62
4
5
373
100
AcDbEntity
100
AcDbLine
10
23.741784
20
256.861929
30
0.0
11
24.354031
21
252.474644
31
0.0
0
LINE
8
turboShroud
62
4
5
374
100
AcDbEntity
100
AcDbLine
10
24.354031
20
252.474644
30
0.0
11
25.395284
21
247.967037
31
0.0
0
LINE
8
turboShroud
62
4
5
375
100
AcDbEntity
100
AcDbLine
10
25.395284
20
247.967037
30
0.0
11
26.092418
21
245.821512
31
0.0
0
LINE
8
turboShroud
62
4
5
376
100
AcDbEntity
100
AcDbLine
10
26.092418
20
245.821512
30
0.0
11
26.915559
21
243.829985
31
0.0
0
LINE
8
turboShroud
62
4
5
377
100
AcDbEntity
100
AcDbLine
10
26.915559
20
243.829985
30
0.0
11
25.423609
21
245.997127
31
0.0
0
LINE
8
turboShroud
62
4
5
378
100
AcDbEntity
100
AcDbLine
10
25.423609
20
245.997127
30
0.0
11
24.220766
21
248.373223
31
0.0
0
LINE
8
turboShroud
62
4
5
379
100
AcDbEntity
100
AcDbLine
10
24.220766
20
248.373223
30
0.0
11
23.279282
21
250.842319
31
0.0
0
LINE
8
turboShroud
62
4
5
37a
100
AcDbEntity
100
AcDbLine
10
23.279282
20
250.842319
30
0.0
11
22.571409
21
253.288463
31
0.0
0
LINE
8
turboShroud
62
4
5
37b
100
AcDbEntity
100
AcDbLine
10
22.571409
20
253.288463
30
0.0
11
21.745510
21
257.648080
31
0.0
0
LINE
8
turboShroud
62
4
5
37c
100
AcDbEntity
100
AcDbLine
10
21.745510
20
257.648080
30
0.0
11
21.521090
21
260.524449
31
0.0
0
LINE
8
turboShroud
62
4
5
37d
100
AcDbEntity
100
AcDbLine
10
21.521090
20
260.524449
30
0.0
11
21.605734
21
261.140596
31
0.0
0
LINE
8
turboShroud
62
4
5
37e
100
AcDbEntity
100
AcDbLine
10
21.605734
20
261.140596
30
0.0
11
21.827710
21
261.594137
31
0.0
0
LINE
8
turboShroud
62
4
5
37f
100
AcDbEntity
100
AcDbLine
10
21.827710
20
261.594137
30
0.0
11
22.141749
21
261.880382
31
0.0
0
LINE
8
turboShroud
62
4
5
380
100
AcDbEntity
100
AcDbLine
10
22.141749
20
261.880382
30
0.0
11
22.502584
21
261.994640
31
0.0
0
LINE
8
turboShroud
62
4
5
381
100
AcDbEntity
100
AcDbLine
10
22.502584
20
261.994640
30
0.0
11
22.864948
21
261.932222
31
0.0
0
LINE
8
turboShroud
62
4
5
382
100
AcDbEntity
100
AcDbLine
10
22.864948
20
261.932222
30
0.0
11
23.183571
21
261.688438
31
0.0
0
LINE
8
turboShroud
62
4
5
383
100
AcDbEntity
100
AcDbLine
10
23.183571
20
261.688438
30
0.0
11
23.413186
21
261.258599
31
0.0
0
LINE
8
turboShroud
62
4
5
384
100
AcDbEntity
100
AcDbLine
10
23.413186
20
261.258599
30
0.0
11
23.508526
21
260.638015
31
0.0
0
LINE
8
turboShroud
62
4
5
385
100
AcDbEntity
100
AcDbLine
10
23.508526
20
260.638015
30
0.0
11
23.508526
21
260.638015
31
0.0
0
LINE
8
stand2
62
4
5
386
100
AcDbEntity
100
AcDbLine
10
62.273251
20
232.725021
30
0.0
11
64.125461
21
230.585953
31
0.0
0
LINE
8
stand2
62
4
5
387
100
AcDbEntity
100
AcDbLine
10
64.125461
20
230.585953
30
0.0
11
66.330534
21
228.225936
31
0.0
0
LINE
8
stand2
62
4
5
388
100
AcDbEntity
100
AcDbLine
10
66.330534
20
228.225936
30
0.0
11
68.452006
21
225.824009
31
0.0
0
LINE
8
stand2
62
4
5
389
100
AcDbEntity
100
AcDbLine
10
68.452006
20
225.824009
30
0.0
11
70.053412
21
223.559213
31
0.0
0
LINE
8
stand2
62
4
5
38a
100
AcDbEntity
100
AcDbLine
10
70.053412
20
223.559213
30
0.0
11
72.390559
21
223.430713
31
0.0
0
LINE
8
stand2
62
4
5
38b
100
AcDbEntity
100
AcDbLine
10
72.390559
20
223.430713
30
0.0
11
74.703587
21
223.115200
31
0.0
0
LINE
8
stand2
62
4
5
38c
100
AcDbEntity
100
AcDbLine
10
74.703587
20
223.115200
30
0.0
11
76.995465
21
222.497255
31
0.0
0
LINE
8
stand2
62
4
5
38d
100
AcDbEntity
100
AcDbLine
10
76.995465
20
222.497255
30
0.0
11
79.269167
21
221.461458
31
0.0
0
LINE
8
stand2
62
4
5
38e
100
AcDbEntity
100
AcDbLine
10
79.269167
20
221.461458
30
0.0
11
81.723560
21
219.842711
31
0.0
0
LINE
8
stand2
62
4
5
38f
100
AcDbEntity
100
AcDbLine
10
81.723560
20
219.842711
30
0.0
11
83.856392
21
217.853837
31
0.0
0
LINE
8
stand2
62
4
5
390
100
AcDbEntity
100
AcDbLine
10
83.856392
20
217.853837
30
0.0
11
84.735794
21
216.713695
31
0.0
0
LINE
8
stand2
62
4
5
391
100
AcDbEntity
100
AcDbLine
10
84.735794
20
216.713695
30
0.0
11
85.455091
21
215.472732
31
0.0
0
LINE
8
stand2
62
4
5
392
100
AcDbEntity
100
AcDbLine
10
85.455091
20
215.472732
30
0.0
11
85.987711
21
214.128185
31
0.0
0
LINE
8
stand2
62
4
5
393
100
AcDbEntity
100
AcDbLine
10
85.987711
20
214.128185
30
0.0
11
86.307083
21
212.677292
31
0.0
0
LINE
8
stand2
62
4
5
394
100
AcDbEntity
100
AcDbLine
10
86.307083
20
212.677292
30
0.0
11
95.488125
21
144.943958
31
0.0
0
LINE
8
stand2
62
4
5
395
100
AcDbEntity
100
AcDbLine
10
95.488125
20
144.943958
30
0.0
11
95.712957
21
141.753514
31
0.0
0
LINE
8
stand2
62
4
5
396
100
AcDbEntity
100
AcDbLine
10
95.712957
20
141.753514
30
0.0
11
95.468769
21
138.935648
31
0.0
0
LINE
8
stand2
62
4
5
397
100
AcDbEntity
100
AcDbLine
10
95.468769
20
138.935648
30
0.0
11
94.749191
21
136.495947
31
0.0
0
LINE
8
stand2
62
4
5
398
100
AcDbEntity
100
AcDbLine
10
94.749191
20
136.495947
30
0.0
11
94.209138
21
135.419655
31
0.0
0
LINE
8
stand2
62
4
5
399
100
AcDbEntity
100
AcDbLine
10
94.209138
20
135.419655
30
0.0
11
93.547847
21
134.440000
31
0.0
0
LINE
8
stand2
62
4
5
39a
100
AcDbEntity
100
AcDbLine
10
93.547847
20
134.440000
30
0.0
11
92.779978
21
133.575423
31
0.0
0
LINE
8
stand2
62
4
5
39b
100
AcDbEntity
100
AcDbLine
10
92.779978
20
133.575423
30
0.0
11
91.929046
21
132.838454
31
0.0
0
LINE
8
stand2
62
4
5
39c
100
AcDbEntity
100
AcDbLine
10
91.929046
20
132.838454
30
0.0
11
90.027909
21
131.714653
31
0.0
0
LINE
8
stand2
62
4
5
39d
100
AcDbEntity
100
AcDbLine
10
90.027909
20
131.714653
30
0.0
11
87.944258
21
131.003230
31
0.0
0
LINE
8
stand2
62
4
5
39e
100
AcDbEntity
100
AcDbLine
10
87.944258
20
131.003230
30
0.0
11
85.777917
21
130.638819
31
0.0
0
LINE
8
stand2
62
4
5
39f
100
AcDbEntity
100
AcDbLine
10
85.777917
20
130.638819
30
0.0
11
84.119861
21
130.541806
31
0.0
0
LINE
8
stand2
62
4
5
3a0
100
AcDbEntity
100
AcDbLine
10
84.119861
20
130.541806
30
0.0
11
86.324722
21
117.497847
31
0.0
0
LINE
8
stand2
62
4
5
3a1
100
AcDbEntity
100
AcDbLine
10
86.324722
20
117.497847
30
0.0
11
91.886528
21
116.566567
31
0.0
0
LINE
8
stand2
62
4
5
3a2
100
AcDbEntity
100
AcDbLine
10
91.886528
20
116.566567
30
0.0
11
96.978701
21
116.074964
31
0.0
0
LINE
8
stand2
62
4
5
3a3
100
AcDbEntity
100
AcDbLine
10
96.978701
20
116.074964
30
0.0
11
101.517408
21
116.069906
31
0.0
0
LINE
8
stand2
62
4
5
3a4
100
AcDbEntity
100
AcDbLine
10
101.517408
20
116.069906
30
0.0
11
103.553015
21
116.264478
31
0.0
0
LINE
8
stand2
62
4
5
3a5
100
AcDbEntity
100
AcDbLine
10
103.553015
20
116.264478
30
0.0
11
105.418819
21
116.598264
31
0.0
0
LINE
8
stand2
62
4
5
3a6
100
AcDbEntity
100
AcDbLine
10
105.418819
20
116.598264
30
0.0
11
108.092292
21
117.422233
31
0.0
0
LINE
8
stand2
62
4
5
3a7
100
AcDbEntity
100
AcDbLine
10
108.092292
20
117.422233
30
0.0
11
110.267453
21
118.586151
31
0.0
0
LINE
8
stand2
62
4
5
3a8
100
AcDbEntity
100
AcDbLine
10
110.267453
20
118.586151
30
0.0
11
111.180206
21
119.310075
31
0.0
0
LINE
8
stand2
62
4
5
3a9
100
AcDbEntity
100
AcDbLine
10
111.180206
20
119.310075
30
0.0
11
111.982828
21
120.136368
31
0.0
0
LINE
8
stand2
62
4
5
3aa
100
AcDbEntity
100
AcDbLine
10
111.982828
20
120.136368
30
0.0
11
113.276944
21
122.119236
31
0.0
0
LINE
8
stand2
62
4
5
3ab
100
AcDbEntity
100
AcDbLine
10
113.276944
20
122.119236
30
0.0
11
113.774960
21
123.305299
31
0.0
0
LINE
8
stand2
62
4
5
3ac
100
AcDbEntity
100
AcDbLine
10
113.774960
20
123.305299
30
0.0
11
114.165879
21
124.652557
31
0.0
0
LINE
8
stand2
62
4
5
3ad
100
AcDbEntity
100
AcDbLine
10
114.165879
20
124.652557
30
0.0
11
114.439508
21
126.166582
31
0.0
0
LINE
8
stand2
62
4
5
3ae
100
AcDbEntity
100
AcDbLine
10
114.439508
20
126.166582
30
0.0
11
114.585650
21
127.852945
31
0.0
0
LINE
8
stand2
62
4
5
3af
100
AcDbEntity
100
AcDbLine
10
114.585650
20
127.852945
30
0.0
11
114.454697
21
131.764969
31
0.0
0
LINE
8
stand2
62
4
5
3b0
100
AcDbEntity
100
AcDbLine
10
114.454697
20
131.764969
30
0.0
11
113.691458
21
136.433194
31
0.0
0
LINE
8
stand2
62
4
5
3b1
100
AcDbEntity
100
AcDbLine
10
113.691458
20
136.433194
30
0.0
11
96.537639
21
214.899792
31
0.0
0
LINE
8
stand2
62
4
5
3b2
100
AcDbEntity
100
AcDbLine
10
96.537639
20
214.899792
30
0.0
11
95.503914
21
219.301389
31
0.0
0
LINE
8
stand2
62
4
5
3b3
100
AcDbEntity
100
AcDbLine
10
95.503914
20
219.301389
30
0.0
11
94.768402
21
221.833019
31
0.0
0
LINE
8
stand2
62
4
5
3b4
100
AcDbEntity
100
AcDbLine
10
94.768402
20
221.833019
30
0.0
11
93.843198
21
224.408849
31
0.0
0
LINE
8
stand2
62
4
5
3b5
100
AcDbEntity
100
AcDbLine
10
93.843198
20
224.408849
30
0.0
11
92.695362
21
226.896610
31
0.0
0
LINE
8
stand2
62
4
5
3b6
100
AcDbEntity
100
AcDbLine
10
92.695362
20
226.896610
30
0.0
11
91.291950
21
229.164038
31
0.0
0
LINE
8
stand2
62
4
5
3b7
100
AcDbEntity
100
AcDbLine
10
91.291950
20
229.164038
30
0.0
11
89.600019
21
231.078864
31
0.0
0
LINE
8
stand2
62
4
5
3b8
100
AcDbEntity
100
AcDbLine
10
89.600019
20
231.078864
30
0.0
11
88.635565
21
231.862718
31
0.0
0
LINE
8
stand2
62
4
5
3b9
100
AcDbEntity
100
AcDbLine
10
88.635565
20
231.862718
30
0.0
11
87.586628
21
232.508821
31
0.0
0
LINE
8
stand2
62
4
5
3ba
100
AcDbEntity
100
AcDbLine
10
87.586628
20
232.508821
30
0.0
11
85.265640
21
233.514412
31
0.0
0
LINE
8
stand2
62
4
5
3bb
100
AcDbEntity
100
AcDbLine
10
85.265640
20
233.514412
30
0.0
11
82.839196
21
234.160346
31
0.0
0
LINE
8
stand2
62
4
5
3bc
100
AcDbEntity
100
AcDbLine
10
82.839196
20
234.160346
30
0.0
11
80.239569
21
234.486656
31
0.0
0
LINE
8
stand2
62
4
5
3bd
100
AcDbEntity
100
AcDbLine
10
80.239569
20
234.486656
30
0.0
11
77.399033
21
234.533376
31
0.0
0
LINE
8
stand2
62
4
5
3be
100
AcDbEntity
100
AcDbLine
10
77.399033
20
234.533376
30
0.0
11
74.249860
21
234.340540
31
0.0
0
LINE
8
stand2
62
4
5
3bf
100
AcDbEntity
100
AcDbLine
10
74.249860
20
234.340540
30
0.0
11
70.724324
21
233.948179
31
0.0
0
LINE
8
stand2
62
4
5
3c0
100
AcDbEntity
100
AcDbLine
10
70.724324
20
233.948179
30
0.0
11
62.273251
21
232.725021
31
0.0
0
LINE
8
stand2
62
4
5
3c1
100
AcDbEntity
100
AcDbLine
10
62.273251
20
232.725021
30
0.0
11
62.273251
21
232.725021
31
0.0
0
LINE
8
stand2
62
4
5
3c2
100
AcDbEntity
100
AcDbLine
10
39.175972
20
138.223542
30
0.0
11
37.659028
21
135.886389
31
0.0
0
LINE
8
stand2
62
4
5
3c3
100
AcDbEntity
100
AcDbLine
10
37.659028
20
135.886389
30
0.0
11
37.641389
21
135.851111
31
0.0
0
LINE
8
stand2
62
4
5
3c4
100
AcDbEntity
100
AcDbLine
10
37.641389
20
135.851111
30
0.0
11
37.614945
21
135.815833
31
0.0
0
LINE
8
stand2
62
4
5
3c5
100
AcDbEntity
100
AcDbLine
10
37.614945
20
135.815833
30
0.0
11
35.586472
21
132.429167
31
0.0
0
LINE
8
stand2
62
4
5
3c6
100
AcDbEntity
100
AcDbLine
10
35.586472
20
132.429167
30
0.0
11
35.568834
21
132.393889
31
0.0
0
LINE
8
stand2
62
4
5
3c7
100
AcDbEntity
100
AcDbLine
10
35.568834
20
132.393889
30
0.0
11
57.185292
21
125.699931
31
0.0
0
LINE
8
stand2
62
4
5
3c8
100
AcDbEntity
100
AcDbLine
10
57.185292
20
125.699931
30
0.0
11
59.257861
21
134.572292
31
0.0
0
LINE
8
stand2
62
4
5
3c9
100
AcDbEntity
100
AcDbLine
10
59.257861
20
134.572292
30
0.0
11
39.175986
21
138.223542
31
0.0
0
LINE
8
stand2
62
4
5
3ca
100
AcDbEntity
100
AcDbLine
10
39.175986
20
138.223542
30
0.0
11
39.175972
21
138.223542
31
0.0
0
LINE
8
refAndJunk
62
4
5
3cb
100
AcDbEntity
100
AcDbLine
10
71.429280
20
279.000008
30
0.0
11
71.270989
21
274.240039
31
0.0
0
LINE
8
refAndJunk
62
4
5
3cc
100
AcDbEntity
100
AcDbLine
10
71.270989
20
274.240039
30
0.0
11
70.801124
21
269.538515
31
0.0
0
LINE
8
refAndJunk
62
4
5
3cd
100
AcDbEntity
100
AcDbLine
10
70.801124
20
269.538515
30
0.0
11
70.027197
21
264.908447
31
0.0
0
LINE
8
refAndJunk
62
4
5
3ce
100
AcDbEntity
100
AcDbLine
10
70.027197
20
264.908447
30
0.0
11
68.956722
21
260.362848
31
0.0
0
LINE
8
refAndJunk
62
4
5
3cf
100
AcDbEntity
100
AcDbLine
10
68.956722
20
260.362848
30
0.0
11
67.597209
21
255.914729
31
0.0
0
LINE
8
refAndJunk
62
4
5
3d0
100
AcDbEntity
100
AcDbLine
10
67.597209
20
255.914729
30
0.0
11
65.956171
21
251.577101
31
0.0
0
LINE
8
refAndJunk
62
4
5
3d1
100
AcDbEntity
100
AcDbLine
10
65.956171
20
251.577101
30
0.0
11
64.041121
21
247.362977
31
0.0
0
LINE
8
refAndJunk
62
4
5
3d2
100
AcDbEntity
100
AcDbLine
10
64.041121
20
247.362977
30
0.0
11
61.859571
21
243.285368
31
0.0
0
LINE
8
refAndJunk
62
4
5
3d3
100
AcDbEntity
100
AcDbLine
10
61.859571
20
243.285368
30
0.0
11
59.419033
21
239.357286
31
0.0
0
LINE
8
refAndJunk
62
4
5
3d4
100
AcDbEntity
100
AcDbLine
10
59.419033
20
239.357286
30
0.0
11
56.727019
21
235.591742
31
0.0
0
LINE
8
refAndJunk
62
4
5
3d5
100
AcDbEntity
100
AcDbLine
10
56.727019
20
235.591742
30
0.0
11
53.791042
21
232.001748
31
0.0
0
LINE
8
refAndJunk
62
4
5
3d6
100
AcDbEntity
100
AcDbLine
10
53.791042
20
232.001748
30
0.0
11
50.618615
21
228.600315
31
0.0
0
LINE
8
refAndJunk
62
4
5
3d7
100
AcDbEntity
100
AcDbLine
10
50.618615
20
228.600315
30
0.0
11
47.217248
21
225.400456
31
0.0
0
LINE
8
refAndJunk
62
4
5
3d8
100
AcDbEntity
100
AcDbLine
10
47.217248
20
225.400456
30
0.0
11
43.594455
21
222.415183
31
0.0
0
LINE
8
refAndJunk
62
4
5
3d9
100
AcDbEntity
100
AcDbLine
10
43.594455
20
222.415183
30
0.0
11
39.757748
21
219.657506
31
0.0
0
LINE
8
refAndJunk
62
4
5
3da
100
AcDbEntity
100
AcDbLine
10
39.757748
20
219.657506
30
0.0
11
35.714640
21
217.140437
31
0.0
0
LINE
8
refAndJunk
62
4
5
3db
100
AcDbEntity
100
AcDbLine
10
35.714640
20
217.140437
30
0.0
11
31.513240
21
214.897536
31
0.0
0
LINE
8
refAndJunk
62
4
5
3dc
100
AcDbEntity
100
AcDbLine
10
31.513240
20
214.897536
30
0.0
11
27.206668
21
212.953689
31
0.0
0
LINE
8
refAndJunk
62
4
5
3dd
100
AcDbEntity
100
AcDbLine
10
27.206668
20
212.953689
30
0.0
11
22.809949
21
211.308895
31
0.0
0
LINE
8
refAndJunk
62
4
5
3de
100
AcDbEntity
100
AcDbLine
10
22.809949
20
211.308895
30
0.0
11
18.338106
21
209.963155
31
0.0
0
LINE
8
refAndJunk
62
4
5
3df
100
AcDbEntity
100
AcDbLine
10
18.338106
20
209.963155
30
0.0
11
13.806166
21
208.916468
31
0.0
0
LINE
8
refAndJunk
62
4
5
3e0
100
AcDbEntity
100
AcDbLine
10
13.806166
20
208.916468
30
0.0
11
9.229151
21
208.168835
31
0.0
0
LINE
8
refAndJunk
62
4
5
3e1
100
AcDbEntity
100
AcDbLine
10
9.229151
20
208.168835
30
0.0
11
4.622088
21
207.720255
31
0.0
0
LINE
8
refAndJunk
62
4
5
3e2
100
AcDbEntity
100
AcDbLine
10
4.622088
20
207.720255
30
0.0
11
-0.000001
21
207.570728
31
0.0
0
LINE
8
refAndJunk
62
4
5
3e3
100
AcDbEntity
100
AcDbLine
10
-0.000001
20
207.570728
30
0.0
11
-4.622089
21
207.720255
31
0.0
0
LINE
8
refAndJunk
62
4
5
3e4
100
AcDbEntity
100
AcDbLine
10
-4.622089
20
207.720255
30
0.0
11
-9.229152
21
208.168835
31
0.0
0
LINE
8
refAndJunk
62
4
5
3e5
100
AcDbEntity
100
AcDbLine
10
-9.229152
20
208.168835
30
0.0
11
-13.806167
21
208.916468
31
0.0
0
LINE
8
refAndJunk
62
4
5
3e6
100
AcDbEntity
100
AcDbLine
10
-13.806167
20
208.916468
30
0.0
11
-18.338107
21
209.963155
31
0.0
0
LINE
8
refAndJunk
62
4
5
3e7
100
AcDbEntity
100
AcDbLine
10
-18.338107
20
209.963155
30
0.0
11
-22.809950
21
211.308895
31
0.0
0
LINE
8
refAndJunk
62
4
5
3e8
100
AcDbEntity
100
AcDbLine
10
-22.809950
20
211.308895
30
0.0
11
-27.206669
21
212.953689
31
0.0
0
LINE
8
refAndJunk
62
4
5
3e9
100
AcDbEntity
100
AcDbLine
10
-27.206669
20
212.953689
30
0.0
11
-31.513241
21
214.897536
31
0.0
0
LINE
8
refAndJunk
62
4
5
3ea
100
AcDbEntity
100
AcDbLine
10
-31.513241
20
214.897536
30
0.0
11
-35.714641
21
217.140437
31
0.0
0
LINE
8
refAndJunk
62
4
5
3eb
100
AcDbEntity
100
AcDbLine
10
-35.714641
20
217.140437
30
0.0
11
-39.757750
21
219.657506
31
0.0
0
LINE
8
refAndJunk
62
4
5
3ec
100
AcDbEntity
100
AcDbLine
10
-39.757750
20
219.657506
30
0.0
11
-43.594457
21
222.415183
31
0.0
0
LINE
8
refAndJunk
62
4
5
3ed
100
AcDbEntity
100
AcDbLine
10
-43.594457
20
222.415183
30
0.0
11
-47.217249
21
225.400456
31
0.0
0
LINE
8
refAndJunk
62
4
5
3ee
100
AcDbEntity
100
AcDbLine
10
-47.217249
20
225.400456
30
0.0
11
-50.618616
21
228.600315
31
0.0
0
LINE
8
refAndJunk
62
4
5
3ef
100
AcDbEntity
100
AcDbLine
10
-50.618616
20
228.600315
30
0.0
11
-53.791044
21
232.001748
31
0.0
0
LINE
8
refAndJunk
62
4
5
3f0
100
AcDbEntity
100
AcDbLine
10
-53.791044
20
232.001748
30
0.0
11
-56.727021
21
235.591742
31
0.0
0
LINE
8
refAndJunk
62
4
5
3f1
100
AcDbEntity
100
AcDbLine
10
-56.727021
20
235.591742
30
0.0
11
-59.419034
21
239.357286
31
0.0
0
LINE
8
refAndJunk
62
4
5
3f2
100
AcDbEntity
100
AcDbLine
10
-59.419034
20
239.357286
30
0.0
11
-61.859572
21
243.285368
31
0.0
0
LINE
8
refAndJunk
62
4
5
3f3
100
AcDbEntity
100
AcDbLine
10
-61.859572
20
243.285368
30
0.0
11
-64.041122
21
247.362977
31
0.0
0
LINE
8
refAndJunk
62
4
5
3f4
100
AcDbEntity
100
AcDbLine
10
-64.041122
20
247.362977
30
0.0
11
-65.956172
21
251.577101
31
0.0
0
LINE
8
refAndJunk
62
4
5
3f5
100
AcDbEntity
100
AcDbLine
10
-65.956172
20
251.577101
30
0.0
11
-67.597210
21
255.914729
31
0.0
0
LINE
8
refAndJunk
62
4
5
3f6
100
AcDbEntity
100
AcDbLine
10
-67.597210
20
255.914729
30
0.0
11
-68.956723
21
260.362848
31
0.0
0
LINE
8
refAndJunk
62
4
5
3f7
100
AcDbEntity
100
AcDbLine
10
-68.956723
20
260.362848
30
0.0
11
-70.027199
21
264.908447
31
0.0
0
LINE
8
refAndJunk
62
4
5
3f8
100
AcDbEntity
100
AcDbLine
10
-70.027199
20
264.908447
30
0.0
11
-70.801125
21
269.538515
31
0.0
0
LINE
8
refAndJunk
62
4
5
3f9
100
AcDbEntity
100
AcDbLine
10
-70.801125
20
269.538515
30
0.0
11
-71.270990
21
274.240039
31
0.0
0
LINE
8
refAndJunk
62
4
5
3fa
100
AcDbEntity
100
AcDbLine
10
-71.270990
20
274.240039
30
0.0
11
-71.429281
21
279.000008
31
0.0
0
LINE
8
refAndJunk
62
4
5
3fb
100
AcDbEntity
100
AcDbLine
10
-71.429281
20
279.000008
30
0.0
11
-71.270990
21
283.759978
31
0.0
0
LINE
8
refAndJunk
62
4
5
3fc
100
AcDbEntity
100
AcDbLine
10
-71.270990
20
283.759978
30
0.0
11
-70.801125
21
288.461502
31
0.0
0
LINE
8
refAndJunk
62
4
5
3fd
100
AcDbEntity
100
AcDbLine
10
-70.801125
20
288.461502
30
0.0
11
-70.027199
21
293.091569
31
0.0
0
LINE
8
refAndJunk
62
4
5
3fe
100
AcDbEntity
100
AcDbLine
10
-70.027199
20
293.091569
30
0.0
11
-68.956723
21
297.637169
31
0.0
0
LINE
8
refAndJunk
62
4
5
3ff
100
AcDbEntity
100
AcDbLine
10
-68.956723
20
297.637169
30
0.0
11
-67.597210
21
302.085288
31
0.0
0
LINE
8
refAndJunk
62
4
5
400
100
AcDbEntity
100
AcDbLine
10
-67.597210
20
302.085288
30
0.0
11
-65.956172
21
306.422915
31
0.0
0
LINE
8
refAndJunk
62
4
5
401
100
AcDbEntity
100
AcDbLine
10
-65.956172
20
306.422915
30
0.0
11
-64.041122
21
310.637039
31
0.0
0
LINE
8
refAndJunk
62
4
5
402
100
AcDbEntity
100
AcDbLine
10
-64.041122
20
310.637039
30
0.0
11
-61.859572
21
314.714649
31
0.0
0
LINE
8
refAndJunk
62
4
5
403
100
AcDbEntity
100
AcDbLine
10
-61.859572
20
314.714649
30
0.0
11
-59.419034
21
318.642731
31
0.0
0
LINE
8
refAndJunk
62
4
5
404
100
AcDbEntity
100
AcDbLine
10
-59.419034
20
318.642731
30
0.0
11
-56.727021
21
322.408275
31
0.0
0
LINE
8
refAndJunk
62
4
5
405
100
AcDbEntity
100
AcDbLine
10
-56.727021
20
322.408275
30
0.0
11
-53.791044
21
325.998269
31
0.0
0
LINE
8
refAndJunk
62
4
5
406
100
AcDbEntity
100
AcDbLine
10
-53.791044
20
325.998269
30
0.0
11
-50.618616
21
329.399701
31
0.0
0
LINE
8
refAndJunk
62
4
5
407
100
AcDbEntity
100
AcDbLine
10
-50.618616
20
329.399701
30
0.0
11
-47.217249
21
332.599560
31
0.0
0
LINE
8
refAndJunk
62
4
5
408
100
AcDbEntity
100
AcDbLine
10
-47.217249
20
332.599560
30
0.0
11
-43.594457
21
335.584834
31
0.0
0
LINE
8
refAndJunk
62
4
5
409
100
AcDbEntity
100
AcDbLine
10
-43.594457
20
335.584834
30
0.0
11
-39.757750
21
338.342511
31
0.0
0
LINE
8
refAndJunk
62
4
5
40a
100
AcDbEntity
100
AcDbLine
10
-39.757750
20
338.342511
30
0.0
11
-35.714641
21
340.859580
31
0.0
0
LINE
8
refAndJunk
62
4
5
40b
100
AcDbEntity
100
AcDbLine
10
-35.714641
20
340.859580
30
0.0
11
-31.513241
21
343.102480
31
0.0
0
LINE
8
refAndJunk
62
4
5
40c
100
AcDbEntity
100
AcDbLine
10
-31.513241
20
343.102480
30
0.0
11
-27.206669
21
345.046328
31
0.0
0
LINE
8
refAndJunk
62
4
5
40d
100
AcDbEntity
100
AcDbLine
10
-27.206669
20
345.046328
30
0.0
11
-22.809950
21
346.691121
31
0.0
0
LINE
8
refAndJunk
62
4
5
40e
100
AcDbEntity
100
AcDbLine
10
-22.809950
20
346.691121
30
0.0
11
-18.338107
21
348.036862
31
0.0
0
LINE
8
refAndJunk
62
4
5
40f
100
AcDbEntity
100
AcDbLine
10
-18.338107
20
348.036862
30
0.0
11
-13.806167
21
349.083548
31
0.0
0
LINE
8
refAndJunk
62
4
5
410
100
AcDbEntity
100
AcDbLine
10
-13.806167
20
349.083548
30
0.0
11
-9.229152
21
349.831182
31
0.0
0
LINE
8
refAndJunk
62
4
5
411
100
AcDbEntity
100
AcDbLine
10
-9.229152
20
349.831182
30
0.0
11
-4.622089
21
350.279762
31
0.0
0
LINE
8
refAndJunk
62
4
5
412
100
AcDbEntity
100
AcDbLine
10
-4.622089
20
350.279762
30
0.0
11
-0.000001
21
350.429289
31
0.0
0
LINE
8
refAndJunk
62
4
5
413
100
AcDbEntity
100
AcDbLine
10
-0.000001
20
350.429289
30
0.0
11
4.622088
21
350.279762
31
0.0
0
LINE
8
refAndJunk
62
4
5
414
100
AcDbEntity
100
AcDbLine
10
4.622088
20
350.279762
30
0.0
11
9.229151
21
349.831182
31
0.0
0
LINE
8
refAndJunk
62
4
5
415
100
AcDbEntity
100
AcDbLine
10
9.229151
20
349.831182
30
0.0
11
13.806166
21
349.083548
31
0.0
0
LINE
8
refAndJunk
62
4
5
416
100
AcDbEntity
100
AcDbLine
10
13.806166
20
349.083548
30
0.0
11
18.338106
21
348.036862
31
0.0
0
LINE
8
refAndJunk
62
4
5
417
100
AcDbEntity
100
AcDbLine
10
18.338106
20
348.036862
30
0.0
11
22.809949
21
346.691121
31
0.0
0
LINE
8
refAndJunk
62
4
5
418
100
AcDbEntity
100
AcDbLine
10
22.809949
20
346.691121
30
0.0
11
27.206668
21
345.046328
31
0.0
0
LINE
8
refAndJunk
62
4
5
419
100
AcDbEntity
100
AcDbLine
10
27.206668
20
345.046328
30
0.0
11
31.513240
21
343.102480
31
0.0
0
LINE
8
refAndJunk
62
4
5
41a
100
AcDbEntity
100
AcDbLine
10
31.513240
20
343.102480
30
0.0
11
35.714640
21
340.859580
31
0.0
0
LINE
8
refAndJunk
62
4
5
41b
100
AcDbEntity
100
AcDbLine
10
35.714640
20
340.859580
30
0.0
11
39.757748
21
338.342511
31
0.0
0
LINE
8
refAndJunk
62
4
5
41c
100
AcDbEntity
100
AcDbLine
10
39.757748
20
338.342511
30
0.0
11
43.594455
21
335.584834
31
0.0
0
LINE
8
refAndJunk
62
4
5
41d
100
AcDbEntity
100
AcDbLine
10
43.594455
20
335.584834
30
0.0
11
47.217248
21
332.599560
31
0.0
0
LINE
8
refAndJunk
62
4
5
41e
100
AcDbEntity
100
AcDbLine
10
47.217248
20
332.599560
30
0.0
11
50.618615
21
329.399701
31
0.0
0
LINE
8
refAndJunk
62
4
5
41f
100
AcDbEntity
100
AcDbLine
10
50.618615
20
329.399701
30
0.0
11
53.791042
21
325.998269
31
0.0
0
LINE
8
refAndJunk
62
4
5
420
100
AcDbEntity
100
AcDbLine
10
53.791042
20
325.998269
30
0.0
11
56.727019
21
322.408275
31
0.0
0
LINE
8
refAndJunk
62
4
5
421
100
AcDbEntity
100
AcDbLine
10
56.727019
20
322.408275
30
0.0
11
59.419033
21
318.642731
31
0.0
0
LINE
8
refAndJunk
62
4
5
422
100
AcDbEntity
100
AcDbLine
10
59.419033
20
318.642731
30
0.0
11
61.859571
21
314.714649
31
0.0
0
LINE
8
refAndJunk
62
4
5
423
100
AcDbEntity
100
AcDbLine
10
61.859571
20
314.714649
30
0.0
11
64.041121
21
310.637039
31
0.0
0
LINE
8
refAndJunk
62
4
5
424
100
AcDbEntity
100
AcDbLine
10
64.041121
20
310.637039
30
0.0
11
65.956171
21
306.422915
31
0.0
0
LINE
8
refAndJunk
62
4
5
425
100
AcDbEntity
100
AcDbLine
10
65.956171
20
306.422915
30
0.0
11
67.597209
21
302.085288
31
0.0
0
LINE
8
refAndJunk
62
4
5
426
100
AcDbEntity
100
AcDbLine
10
67.597209
20
302.085288
30
0.0
11
68.956722
21
297.637169
31
0.0
0
LINE
8
refAndJunk
62
4
5
427
100
AcDbEntity
100
AcDbLine
10
68.956722
20
297.637169
30
0.0
11
70.027197
21
293.091569
31
0.0
0
LINE
8
refAndJunk
62
4
5
428
100
AcDbEntity
100
AcDbLine
10
70.027197
20
293.091569
30
0.0
11
70.801124
21
288.461502
31
0.0
0
LINE
8
refAndJunk
62
4
5
429
100
AcDbEntity
100
AcDbLine
10
70.801124
20
288.461502
30
0.0
11
71.270989
21
283.759978
31
0.0
0
LINE
8
refAndJunk
62
4
5
42a
100
AcDbEntity
100
AcDbLine
10
71.270989
20
283.759978
30
0.0
11
71.429280
21
279.000008
31
0.0
0
LINE
8
refAndJunk
62
4
5
42b
100
AcDbEntity
100
AcDbLine
10
71.429280
20
279.000008
30
0.0
11
71.429280
21
279.000008
31
0.0
0
LINE
8
refAndJunk
62
4
5
42c
100
AcDbEntity
100
AcDbLine
10
53.186171
20
279.000008
30
0.0
11
53.068308
21
275.455739
31
0.0
0
LINE
8
refAndJunk
62
4
5
42d
100
AcDbEntity
100
AcDbLine
10
53.068308
20
275.455739
30
0.0
11
52.718447
21
271.954989
31
0.0
0
LINE
8
refAndJunk
62
4
5
42e
100
AcDbEntity
100
AcDbLine
10
52.718447
20
271.954989
30
0.0
11
52.142182
21
268.507445
31
0.0
0
LINE
8
refAndJunk
62
4
5
42f
100
AcDbEntity
100
AcDbLine
10
52.142182
20
268.507445
30
0.0
11
51.345106
21
265.122796
31
0.0
0
LINE
8
refAndJunk
62
4
5
430
100
AcDbEntity
100
AcDbLine
10
51.345106
20
265.122796
30
0.0
11
50.332814
21
261.810731
31
0.0
0
LINE
8
refAndJunk
62
4
5
431
100
AcDbEntity
100
AcDbLine
10
50.332814
20
261.810731
30
0.0
11
49.110900
21
258.580938
31
0.0
0
LINE
8
refAndJunk
62
4
5
432
100
AcDbEntity
100
AcDbLine
10
49.110900
20
258.580938
30
0.0
11
47.684955
21
255.443105
31
0.0
0
LINE
8
refAndJunk
62
4
5
433
100
AcDbEntity
100
AcDbLine
10
47.684955
20
255.443105
30
0.0
11
46.060575
21
252.406922
31
0.0
0
LINE
8
refAndJunk
62
4
5
434
100
AcDbEntity
100
AcDbLine
10
46.060575
20
252.406922
30
0.0
11
44.243353
21
249.482075
31
0.0
0
LINE
8
refAndJunk
62
4
5
435
100
AcDbEntity
100
AcDbLine
10
44.243353
20
249.482075
30
0.0
11
42.238882
21
246.678255
31
0.0
0
LINE
8
refAndJunk
62
4
5
436
100
AcDbEntity
100
AcDbLine
10
42.238882
20
246.678255
30
0.0
11
40.052757
21
244.005149
31
0.0
0
LINE
8
refAndJunk
62
4
5
437
100
AcDbEntity
100
AcDbLine
10
40.052757
20
244.005149
30
0.0
11
37.690570
21
241.472446
31
0.0
0
LINE
8
refAndJunk
62
4
5
438
100
AcDbEntity
100
AcDbLine
10
37.690570
20
241.472446
30
0.0
11
35.157916
21
239.089834
31
0.0
0
LINE
8
refAndJunk
62
4
5
439
100
AcDbEntity
100
AcDbLine
10
35.157916
20
239.089834
30
0.0
11
32.460388
21
236.867002
31
0.0
0
LINE
8
refAndJunk
62
4
5
43a
100
AcDbEntity
100
AcDbLine
10
32.460388
20
236.867002
30
0.0
11
29.603580
21
234.813639
31
0.0
0
LINE
8
refAndJunk
62
4
5
43b
100
AcDbEntity
100
AcDbLine
10
29.603580
20
234.813639
30
0.0
11
26.593085
21
232.939432
31
0.0
0
LINE
8
refAndJunk
62
4
5
43c
100
AcDbEntity
100
AcDbLine
10
26.593085
20
232.939432
30
0.0
11
23.464727
21
231.269370
31
0.0
0
LINE
8
refAndJunk
62
4
5
43d
100
AcDbEntity
100
AcDbLine
10
23.464727
20
231.269370
30
0.0
11
20.258058
21
229.821984
31
0.0
0
LINE
8
refAndJunk
62
4
5
43e
100
AcDbEntity
100
AcDbLine
10
20.258058
20
229.821984
30
0.0
11
16.984265
21
228.597272
31
0.0
0
LINE
8
refAndJunk
62
4
5
43f
100
AcDbEntity
100
AcDbLine
10
16.984265
20
228.597272
30
0.0
11
13.654536
21
227.595235
31
0.0
0
LINE
8
refAndJunk
62
4
5
440
100
AcDbEntity
100
AcDbLine
10
13.654536
20
227.595235
30
0.0
11
10.280057
21
226.815873
31
0.0
0
LINE
8
refAndJunk
62
4
5
441
100
AcDbEntity
100
AcDbLine
10
10.280057
20
226.815873
30
0.0
11
6.872017
21
226.259186
31
0.0
0
LINE
8
refAndJunk
62
4
5
442
100
AcDbEntity
100
AcDbLine
10
6.872017
20
226.259186
30
0.0
11
3.441602
21
225.925173
31
0.0
0
LINE
8
refAndJunk
62
4
5
443
100
AcDbEntity
100
AcDbLine
10
3.441602
20
225.925173
30
0.0
11
-0.000001
21
225.813836
31
0.0
0
LINE
8
refAndJunk
62
4
5
444
100
AcDbEntity
100
AcDbLine
10
-0.000001
20
225.813836
30
0.0
11
-3.441603
21
225.925173
31
0.0
0
LINE
8
refAndJunk
62
4
5
445
100
AcDbEntity
100
AcDbLine
10
-3.441603
20
225.925173
30
0.0
11
-6.872018
21
226.259186
31
0.0
0
LINE
8
refAndJunk
62
4
5
446
100
AcDbEntity
100
AcDbLine
10
-6.872018
20
226.259186
30
0.0
11
-10.280058
21
226.815873
31
0.0
0
LINE
8
refAndJunk
62
4
5
447
100
AcDbEntity
100
AcDbLine
10
-10.280058
20
226.815873
30
0.0
11
-13.654537
21
227.595235
31
0.0
0
LINE
8
refAndJunk
62
4
5
448
100
AcDbEntity
100
AcDbLine
10
-13.654537
20
227.595235
30
0.0
11
-16.984266
21
228.597272
31
0.0
0
LINE
8
refAndJunk
62
4
5
449
100
AcDbEntity
100
AcDbLine
10
-16.984266
20
228.597272
30
0.0
11
-20.258059
21
229.821984
31
0.0
0
LINE
8
refAndJunk
62
4
5
44a
100
AcDbEntity
100
AcDbLine
10
-20.258059
20
229.821984
30
0.0
11
-23.464728
21
231.269370
31
0.0
0
LINE
8
refAndJunk
62
4
5
44b
100
AcDbEntity
100
AcDbLine
10
-23.464728
20
231.269370
30
0.0
11
-26.593086
21
232.939432
31
0.0
0
LINE
8
refAndJunk
62
4
5
44c
100
AcDbEntity
100
AcDbLine
10
-26.593086
20
232.939432
30
0.0
11
-29.603581
21
234.813639
31
0.0
0
LINE
8
refAndJunk
62
4
5
44d
100
AcDbEntity
100
AcDbLine
10
-29.603581
20
234.813639
30
0.0
11
-32.460389
21
236.867002
31
0.0
0
LINE
8
refAndJunk
62
4
5
44e
100
AcDbEntity
100
AcDbLine
10
-32.460389
20
236.867002
30
0.0
11
-35.157917
21
239.089834
31
0.0
0
LINE
8
refAndJunk
62
4
5
44f
100
AcDbEntity
100
AcDbLine
10
-35.157917
20
239.089834
30
0.0
11
-37.690571
21
241.472446
31
0.0
0
LINE
8
refAndJunk
62
4
5
450
100
AcDbEntity
100
AcDbLine
10
-37.690571
20
241.472446
30
0.0
11
-40.052758
21
244.005149
31
0.0
0
LINE
8
refAndJunk
62
4
5
451
100
AcDbEntity
100
AcDbLine
10
-40.052758
20
244.005149
30
0.0
11
-42.238884
21
246.678255
31
0.0
0
LINE
8
refAndJunk
62
4
5
452
100
AcDbEntity
100
AcDbLine
10
-42.238884
20
246.678255
30
0.0
11
-44.243354
21
249.482075
31
0.0
0
LINE
8
refAndJunk
62
4
5
453
100
AcDbEntity
100
AcDbLine
10
-44.243354
20
249.482075
30
0.0
11
-46.060576
21
252.406922
31
0.0
0
LINE
8
refAndJunk
62
4
5
454
100
AcDbEntity
100
AcDbLine
10
-46.060576
20
252.406922
30
0.0
11
-47.684956
21
255.443105
31
0.0
0
LINE
8
refAndJunk
62
4
5
455
100
AcDbEntity
100
AcDbLine
10
-47.684956
20
255.443105
30
0.0
11
-49.110901
21
258.580938
31
0.0
0
LINE
8
refAndJunk
62
4
5
456
100
AcDbEntity
100
AcDbLine
10
-49.110901
20
258.580938
30
0.0
11
-50.332816
21
261.810731
31
0.0
0
LINE
8
refAndJunk
62
4
5
457
100
AcDbEntity
100
AcDbLine
10
-50.332816
20
261.810731
30
0.0
11
-51.345108
21
265.122796
31
0.0
0
LINE
8
refAndJunk
62
4
5
458
100
AcDbEntity
100
AcDbLine
10
-51.345108
20
265.122796
30
0.0
11
-52.142183
21
268.507445
31
0.0
0
LINE
8
refAndJunk
62
4
5
459
100
AcDbEntity
100
AcDbLine
10
-52.142183
20
268.507445
30
0.0
11
-52.718448
21
271.954989
31
0.0
0
LINE
8
refAndJunk
62
4
5
45a
100
AcDbEntity
100
AcDbLine
10
-52.718448
20
271.954989
30
0.0
11
-53.068309
21
275.455739
31
0.0
0
LINE
8
refAndJunk
62
4
5
45b
100
AcDbEntity
100
AcDbLine
10
-53.068309
20
275.455739
30
0.0
11
-53.186172
21
279.000008
31
0.0
0
LINE
8
refAndJunk
62
4
5
45c
100
AcDbEntity
100
AcDbLine
10
-53.186172
20
279.000008
30
0.0
11
-53.068309
21
282.544276
31
0.0
0
LINE
8
refAndJunk
62
4
5
45d
100
AcDbEntity
100
AcDbLine
10
-53.068309
20
282.544276
30
0.0
11
-52.718448
21
286.045026
31
0.0
0
LINE
8
refAndJunk
62
4
5
45e
100
AcDbEntity
100
AcDbLine
10
-52.718448
20
286.045026
30
0.0
11
-52.142183
21
289.492570
31
0.0
0
LINE
8
refAndJunk
62
4
5
45f
100
AcDbEntity
100
AcDbLine
10
-52.142183
20
289.492570
30
0.0
11
-51.345108
21
292.877219
31
0.0
0
LINE
8
refAndJunk
62
4
5
460
100
AcDbEntity
100
AcDbLine
10
-51.345108
20
292.877219
30
0.0
11
-50.332816
21
296.189284
31
0.0
0
LINE
8
refAndJunk
62
4
5
461
100
AcDbEntity
100
AcDbLine
10
-50.332816
20
296.189284
30
0.0
11
-49.110901
21
299.419077
31
0.0
0
LINE
8
refAndJunk
62
4
5
462
100
AcDbEntity
100
AcDbLine
10
-49.110901
20
299.419077
30
0.0
11
-47.684956
21
302.556910
31
0.0
0
LINE
8
refAndJunk
62
4
5
463
100
AcDbEntity
100
AcDbLine
10
-47.684956
20
302.556910
30
0.0
11
-46.060576
21
305.593093
31
0.0
0
LINE
8
refAndJunk
62
4
5
464
100
AcDbEntity
100
AcDbLine
10
-46.060576
20
305.593093
30
0.0
11
-44.243354
21
308.517940
31
0.0
0
LINE
8
refAndJunk
62
4
5
465
100
AcDbEntity
100
AcDbLine
10
-44.243354
20
308.517940
30
0.0
11
-42.238884
21
311.321760
31
0.0
0
LINE
8
refAndJunk
62
4
5
466
100
AcDbEntity
100
AcDbLine
10
-42.238884
20
311.321760
30
0.0
11
-40.052758
21
313.994866
31
0.0
0
LINE
8
refAndJunk
62
4
5
467
100
AcDbEntity
100
AcDbLine
10
-40.052758
20
313.994866
30
0.0
11
-37.690571
21
316.527569
31
0.0
0
LINE
8
refAndJunk
62
4
5
468
100
AcDbEntity
100
AcDbLine
10
-37.690571
20
316.527569
30
0.0
11
-35.157917
21
318.910181
31
0.0
0
LINE
8
refAndJunk
62
4
5
469
100
AcDbEntity
100
AcDbLine
10
-35.157917
20
318.910181
30
0.0
11
-32.460389
21
321.133013
31
0.0
0
LINE
8
refAndJunk
62
4
5
46a
100
AcDbEntity
100
AcDbLine
10
-32.460389
20
321.133013
30
0.0
11
-29.603581
21
323.186376
31
0.0
0
LINE
8
refAndJunk
62
4
5
46b
100
AcDbEntity
100
AcDbLine
10
-29.603581
20
323.186376
30
0.0
11
-26.593086
21
325.060583
31
0.0
0
LINE
8
refAndJunk
62
4
5
46c
100
AcDbEntity
100
AcDbLine
10
-26.593086
20
325.060583
30
0.0
11
-23.464728
21
326.730645
31
0.0
0
LINE
8
refAndJunk
62
4
5
46d
100
AcDbEntity
100
AcDbLine
10
-23.464728
20
326.730645
30
0.0
11
-20.258059
21
328.178031
31
0.0
0
LINE
8
refAndJunk
62
4
5
46e
100
AcDbEntity
100
AcDbLine
10
-20.258059
20
328.178031
30
0.0
11
-16.984266
21
329.402743
31
0.0
0
LINE
8
refAndJunk
62
4
5
46f
100
AcDbEntity
100
AcDbLine
10
-16.984266
20
329.402743
30
0.0
11
-13.654537
21
330.404780
31
0.0
0
LINE
8
refAndJunk
62
4
5
470
100
AcDbEntity
100
AcDbLine
10
-13.654537
20
330.404780
30
0.0
11
-10.280058
21
331.184142
31
0.0
0
LINE
8
refAndJunk
62
4
5
471
100
AcDbEntity
100
AcDbLine
10
-10.280058
20
331.184142
30
0.0
11
-6.872018
21
331.740829
31
0.0
0
LINE
8
refAndJunk
62
4
5
472
100
AcDbEntity
100
AcDbLine
10
-6.872018
20
331.740829
30
0.0
11
-3.441603
21
332.074842
31
0.0
0
LINE
8
refAndJunk
62
4
5
473
100
AcDbEntity
100
AcDbLine
10
-3.441603
20
332.074842
30
0.0
11
-0.000001
21
332.186179
31
0.0
0
LINE
8
refAndJunk
62
4
5
474
100
AcDbEntity
100
AcDbLine
10
-0.000001
20
332.186179
30
0.0
11
3.441602
21
332.074842
31
0.0
0
LINE
8
refAndJunk
62
4
5
475
100
AcDbEntity
100
AcDbLine
10
3.441602
20
332.074842
30
0.0
11
6.872017
21
331.740829
31
0.0
0
LINE
8
refAndJunk
62
4
5
476
100
AcDbEntity
100
AcDbLine
10
6.872017
20
331.740829
30
0.0
11
10.280057
21
331.184142
31
0.0
0
LINE
8
refAndJunk
62
4
5
477
100
AcDbEntity
100
AcDbLine
10
10.280057
20
331.184142
30
0.0
11
13.654536
21
330.404780
31
0.0
0
LINE
8
refAndJunk
62
4
5
478
100
AcDbEntity
100
AcDbLine
10
13.654536
20
330.404780
30
0.0
11
16.984265
21
329.402743
31
0.0
0
LINE
8
refAndJunk
62
4
5
479
100
AcDbEntity
100
AcDbLine
10
16.984265
20
329.402743
30
0.0
11
20.258058
21
328.178031
31
0.0
0
LINE
8
refAndJunk
62
4
5
47a
100
AcDbEntity
100
AcDbLine
10
20.258058
20
328.178031
30
0.0
11
23.464727
21
326.730645
31
0.0
0
LINE
8
refAndJunk
62
4
5
47b
100
AcDbEntity
100
AcDbLine
10
23.464727
20
326.730645
30
0.0
11
26.593085
21
325.060583
31
0.0
0
LINE
8
refAndJunk
62
4
5
47c
100
AcDbEntity
100
AcDbLine
10
26.593085
20
325.060583
30
0.0
11
29.603580
21
323.186376
31
0.0
0
LINE
8
refAndJunk
62
4
5
47d
100
AcDbEntity
100
AcDbLine
10
29.603580
20
323.186376
30
0.0
11
32.460388
21
321.133013
31
0.0
0
LINE
8
refAndJunk
62
4
5
47e
100
AcDbEntity
100
AcDbLine
10
32.460388
20
321.133013
30
0.0
11
35.157916
21
318.910181
31
0.0
0
LINE
8
refAndJunk
62
4
5
47f
100
AcDbEntity
100
AcDbLine
10
35.157916
20
318.910181
30
0.0
11
37.690570
21
316.527569
31
0.0
0
LINE
8
refAndJunk
62
4
5
480
100
AcDbEntity
100
AcDbLine
10
37.690570
20
316.527569
30
0.0
11
40.052757
21
313.994866
31
0.0
0
LINE
8
refAndJunk
62
4
5
481
100
AcDbEntity
100
AcDbLine
10
40.052757
20
313.994866
30
0.0
11
42.238882
21
311.321760
31
0.0
0
LINE
8
refAndJunk
62
4
5
482
100
AcDbEntity
100
AcDbLine
10
42.238882
20
311.321760
30
0.0
11
44.243353
21
308.517940
31
0.0
0
LINE
8
refAndJunk
62
4
5
483
100
AcDbEntity
100
AcDbLine
10
44.243353
20
308.517940
30
0.0
11
46.060575
21
305.593093
31
0.0
0
LINE
8
refAndJunk
62
4
5
484
100
AcDbEntity
100
AcDbLine
10
46.060575
20
305.593093
30
0.0
11
47.684955
21
302.556910
31
0.0
0
LINE
8
refAndJunk
62
4
5
485
100
AcDbEntity
100
AcDbLine
10
47.684955
20
302.556910
30
0.0
11
49.110900
21
299.419077
31
0.0
0
LINE
8
refAndJunk
62
4
5
486
100
AcDbEntity
100
AcDbLine
10
49.110900
20
299.419077
30
0.0
11
50.332814
21
296.189284
31
0.0
0
LINE
8
refAndJunk
62
4
5
487
100
AcDbEntity
100
AcDbLine
10
50.332814
20
296.189284
30
0.0
11
51.345106
21
292.877219
31
0.0
0
LINE
8
refAndJunk
62
4
5
488
100
AcDbEntity
100
AcDbLine
10
51.345106
20
292.877219
30
0.0
11
52.142182
21
289.492570
31
0.0
0
LINE
8
refAndJunk
62
4
5
489
100
AcDbEntity
100
AcDbLine
10
52.142182
20
289.492570
30
0.0
11
52.718447
21
286.045026
31
0.0
0
LINE
8
refAndJunk
62
4
5
48a
100
AcDbEntity
100
AcDbLine
10
52.718447
20
286.045026
30
0.0
11
53.068308
21
282.544276
31
0.0
0
LINE
8
refAndJunk
62
4
5
48b
100
AcDbEntity
100
AcDbLine
10
53.068308
20
282.544276
30
0.0
11
53.186171
21
279.000008
31
0.0
0
LINE
8
refAndJunk
62
4
5
48c
100
AcDbEntity
100
AcDbLine
10
53.186171
20
279.000008
30
0.0
11
53.186171
21
279.000008
31
0.0
0
LINE
8
refAndJunk
62
4
5
48d
100
AcDbEntity
100
AcDbLine
10
164.972006
20
189.439885
30
0.0
11
164.778306
21
183.615115
31
0.0
0
LINE
8
refAndJunk
62
4
5
48e
100
AcDbEntity
100
AcDbLine
10
164.778306
20
183.615115
30
0.0
11
164.203333
21
177.861864
31
0.0
0
LINE
8
refAndJunk
62
4
5
48f
100
AcDbEntity
100
AcDbLine
10
164.203333
20
177.861864
30
0.0
11
163.256279
21
172.196054
31
0.0
0
LINE
8
refAndJunk
62
4
5
490
100
AcDbEntity
100
AcDbLine
10
163.256279
20
172.196054
30
0.0
11
161.946339
21
166.633609
31
0.0
0
LINE
8
refAndJunk
62
4
5
491
100
AcDbEntity
100
AcDbLine
10
161.946339
20
166.633609
30
0.0
11
160.282704
21
161.190449
31
0.0
0
LINE
8
refAndJunk
62
4
5
492
100
AcDbEntity
100
AcDbLine
10
160.282704
20
161.190449
30
0.0
11
158.274568
21
155.882498
31
0.0
0
LINE
8
refAndJunk
62
4
5
493
100
AcDbEntity
100
AcDbLine
10
158.274568
20
155.882498
30
0.0
11
155.931123
21
150.725678
31
0.0
0
LINE
8
refAndJunk
62
4
5
494
100
AcDbEntity
100
AcDbLine
10
155.931123
20
150.725678
30
0.0
11
153.261562
21
145.735911
31
0.0
0
LINE
8
refAndJunk
62
4
5
495
100
AcDbEntity
100
AcDbLine
10
153.261562
20
145.735911
30
0.0
11
150.275078
21
140.929120
31
0.0
0
LINE
8
refAndJunk
62
4
5
496
100
AcDbEntity
100
AcDbLine
10
150.275078
20
140.929120
30
0.0
11
146.980863
21
136.321227
31
0.0
0
LINE
8
refAndJunk
62
4
5
497
100
AcDbEntity
100
AcDbLine
10
146.980863
20
136.321227
30
0.0
11
143.388111
21
131.928155
31
0.0
0
LINE
8
refAndJunk
62
4
5
498
100
AcDbEntity
100
AcDbLine
10
143.388111
20
131.928155
30
0.0
11
139.506014
21
127.765825
31
0.0
0
LINE
8
refAndJunk
62
4
5
499
100
AcDbEntity
100
AcDbLine
10
139.506014
20
127.765825
30
0.0
11
135.343765
21
123.850161
31
0.0
0
LINE
8
refAndJunk
62
4
5
49a
100
AcDbEntity
100
AcDbLine
10
135.343765
20
123.850161
30
0.0
11
130.910556
21
120.197084
31
0.0
0
LINE
8
refAndJunk
62
4
5
49b
100
AcDbEntity
100
AcDbLine
10
130.910556
20
120.197084
30
0.0
11
126.215581
21
116.822517
31
0.0
0
LINE
8
refAndJunk
62
4
5
49c
100
AcDbEntity
100
AcDbLine
10
126.215581
20
116.822517
30
0.0
11
121.268033
21
113.742382
31
0.0
0
LINE
8
refAndJunk
62
4
5
49d
100
AcDbEntity
100
AcDbLine
10
121.268033
20
113.742382
30
0.0
11
116.126784
21
110.997747
31
0.0
0
LINE
8
refAndJunk
62
4
5
49e
100
AcDbEntity
100
AcDbLine
10
116.126784
20
110.997747
30
0.0
11
110.856835
21
108.619063
31
0.0
0
LINE
8
refAndJunk
62
4
5
49f
100
AcDbEntity
100
AcDbLine
10
110.856835
20
108.619063
30
0.0
11
105.476574
21
106.606330
31
0.0
0
LINE
8
refAndJunk
62
4
5
4a0
100
AcDbEntity
100
AcDbLine
10
105.476574
20
106.606330
30
0.0
11
100.004384
21
104.959549
31
0.0
0
LINE
8
refAndJunk
62
4
5
4a1
100
AcDbEntity
100
AcDbLine
10
100.004384
20
104.959549
30
0.0
11
94.458652
21
103.678719
31
0.0
0
LINE
8
refAndJunk
62
4
5
4a2
100
AcDbEntity
100
AcDbLine
10
94.458652
20
103.678719
30
0.0
11
88.857764
21
102.763840
31
0.0
0
LINE
8
refAndJunk
62
4
5
4a3
100
AcDbEntity
100
AcDbLine
10
88.857764
20
102.763840
30
0.0
11
83.220104
21
102.214913
31
0.0
0
LINE
8
refAndJunk
62
4
5
4a4
100
AcDbEntity
100
AcDbLine
10
83.220104
20
102.214913
30
0.0
11
77.564059
21
102.031938
31
0.0
0
LINE
8
refAndJunk
62
4
5
4a5
100
AcDbEntity
100
AcDbLine
10
77.564059
20
102.031938
30
0.0
11
71.908014
21
102.214913
31
0.0
0
LINE
8
refAndJunk
62
4
5
4a6
100
AcDbEntity
100
AcDbLine
10
71.908014
20
102.214913
30
0.0
11
66.270354
21
102.763840
31
0.0
0
LINE
8
refAndJunk
62
4
5
4a7
100
AcDbEntity
100
AcDbLine
10
66.270354
20
102.763840
30
0.0
11
60.669466
21
103.678719
31
0.0
0
LINE
8
refAndJunk
62
4
5
4a8
100
AcDbEntity
100
AcDbLine
10
60.669466
20
103.678719
30
0.0
11
55.123734
21
104.959549
31
0.0
0
LINE
8
refAndJunk
62
4
5
4a9
100
AcDbEntity
100
AcDbLine
10
55.123734
20
104.959549
30
0.0
11
49.651544
21
106.606330
31
0.0
0
LINE
8
refAndJunk
62
4
5
4aa
100
AcDbEntity
100
AcDbLine
10
49.651544
20
106.606330
30
0.0
11
44.271283
21
108.619063
31
0.0
0
LINE
8
refAndJunk
62
4
5
4ab
100
AcDbEntity
100
AcDbLine
10
44.271283
20
108.619063
30
0.0
11
39.001335
21
110.997747
31
0.0
0
LINE
8
refAndJunk
62
4
5
4ac
100
AcDbEntity
100
AcDbLine
10
39.001335
20
110.997747
30
0.0
11
33.860085
21
113.742382
31
0.0
0
LINE
8
refAndJunk
62
4
5
4ad
100
AcDbEntity
100
AcDbLine
10
33.860085
20
113.742382
30
0.0
11
28.912537
21
116.822517
31
0.0
0
LINE
8
refAndJunk
62
4
5
4ae
100
AcDbEntity
100
AcDbLine
10
28.912537
20
116.822517
30
0.0
11
24.217562
21
120.197084
31
0.0
0
LINE
8
refAndJunk
62
4
5
4af
100
AcDbEntity
100
AcDbLine
10
24.217562
20
120.197084
30
0.0
11
19.784353
21
123.850161
31
0.0
0
LINE
8
refAndJunk
62
4
5
4b0
100
AcDbEntity
100
AcDbLine
10
19.784353
20
123.850161
30
0.0
11
15.622104
21
127.765825
31
0.0
0
LINE
8
refAndJunk
62
4
5
4b1
100
AcDbEntity
100
AcDbLine
10
15.622104
20
127.765825
30
0.0
11
11.740007
21
131.928155
31
0.0
0
LINE
8
refAndJunk
62
4
5
4b2
100
AcDbEntity
100
AcDbLine
10
11.740007
20
131.928155
30
0.0
11
8.147255
21
136.321227
31
0.0
0
LINE
8
refAndJunk
62
4
5
4b3
100
AcDbEntity
100
AcDbLine
10
8.147255
20
136.321227
30
0.0
11
4.853040
21
140.929120
31
0.0
0
LINE
8
refAndJunk
62
4
5
4b4
100
AcDbEntity
100
AcDbLine
10
4.853040
20
140.929120
30
0.0
11
1.866556
21
145.735911
31
0.0
0
LINE
8
refAndJunk
62
4
5
4b5
100
AcDbEntity
100
AcDbLine
10
1.866556
20
145.735911
30
0.0
11
-0.803005
21
150.725678
31
0.0
0
LINE
8
refAndJunk
62
4
5
4b6
100
AcDbEntity
100
AcDbLine
10
-0.803005
20
150.725678
30
0.0
11
-3.146450
21
155.882498
31
0.0
0
LINE
8
refAndJunk
62
4
5
4b7
100
AcDbEntity
100
AcDbLine
10
-3.146450
20
155.882498
30
0.0
11
-5.154586
21
161.190449
31
0.0
0
LINE
8
refAndJunk
62
4
5
4b8
100
AcDbEntity
100
AcDbLine
10
-5.154586
20
161.190449
30
0.0
11
-6.818221
21
166.633609
31
0.0
0
LINE
8
refAndJunk
62
4
5
4b9
100
AcDbEntity
100
AcDbLine
10
-6.818221
20
166.633609
30
0.0
11
-8.128161
21
172.196054
31
0.0
0
LINE
8
refAndJunk
62
4
5
4ba
100
AcDbEntity
100
AcDbLine
10
-8.128161
20
172.196054
30
0.0
11
-9.075215
21
177.861864
31
0.0
0
LINE
8
refAndJunk
62
4
5
4bb
100
AcDbEntity
100
AcDbLine
10
-9.075215
20
177.861864
30
0.0
11
-9.650188
21
183.615115
31
0.0
0
LINE
8
refAndJunk
62
4
5
4bc
100
AcDbEntity
100
AcDbLine
10
-9.650188
20
183.615115
30
0.0
11
-9.843888
21
189.439885
31
0.0
0
LINE
8
refAndJunk
62
4
5
4bd
100
AcDbEntity
100
AcDbLine
10
-9.843888
20
189.439885
30
0.0
11
-9.650188
21
195.264655
31
0.0
0
LINE
8
refAndJunk
62
4
5
4be
100
AcDbEntity
100
AcDbLine
10
-9.650188
20
195.264655
30
0.0
11
-9.075215
21
201.017906
31
0.0
0
LINE
8
refAndJunk
62
4
5
4bf
100
AcDbEntity
100
AcDbLine
10
-9.075215
20
201.017906
30
0.0
11
-8.128161
21
206.683716
31
0.0
0
LINE
8
refAndJunk
62
4
5
4c0
100
AcDbEntity
100
AcDbLine
10
-8.128161
20
206.683716
30
0.0
11
-6.818221
21
212.246162
31
0.0
0
LINE
8
refAndJunk
62
4
5
4c1
100
AcDbEntity
100
AcDbLine
10
-6.818221
20
212.246162
30
0.0
11
-5.154586
21
217.689321
31
0.0
0
LINE
8
refAndJunk
62
4
5
4c2
100
AcDbEntity
100
AcDbLine
10
-5.154586
20
217.689321
30
0.0
11
-3.146450
21
222.997272
31
0.0
0
LINE
8
refAndJunk
62
4
5
4c3
100
AcDbEntity
100
AcDbLine
10
-3.146450
20
222.997272
30
0.0
11
-0.803005
21
228.154092
31
0.0
0
LINE
8
refAndJunk
62
4
5
4c4
100
AcDbEntity
100
AcDbLine
10
-0.803005
20
228.154092
30
0.0
11
1.866556
21
233.143859
31
0.0
0
LINE
8
refAndJunk
62
4
5
4c5
100
AcDbEntity
100
AcDbLine
10
1.866556
20
233.143859
30
0.0
11
4.853040
21
237.950650
31
0.0
0
LINE
8
refAndJunk
62
4
5
4c6
100
AcDbEntity
100
AcDbLine
10
4.853040
20
237.950650
30
0.0
11
8.147255
21
242.558543
31
0.0
0
LINE
8
refAndJunk
62
4
5
4c7
100
AcDbEntity
100
AcDbLine
10
8.147255
20
242.558543
30
0.0
11
11.740007
21
246.951615
31
0.0
0
LINE
8
refAndJunk
62
4
5
4c8
100
AcDbEntity
100
AcDbLine
10
11.740007
20
246.951615
30
0.0
11
15.622104
21
251.113945
31
0.0
0
LINE
8
refAndJunk
62
4
5
4c9
100
AcDbEntity
100
AcDbLine
10
15.622104
20
251.113945
30
0.0
11
19.784353
21
255.029609
31
0.0
0
LINE
8
refAndJunk
62
4
5
4ca
100
AcDbEntity
100
AcDbLine
10
19.784353
20
255.029609
30
0.0
11
24.217562
21
258.682686
31
0.0
0
LINE
8
refAndJunk
62
4
5
4cb
100
AcDbEntity
100
AcDbLine
10
24.217562
20
258.682686
30
0.0
11
28.912537
21
262.057253
31
0.0
0
LINE
8
refAndJunk
62
4
5
4cc
100
AcDbEntity
100
AcDbLine
10
28.912537
20
262.057253
30
0.0
11
33.860085
21
265.137388
31
0.0
0
LINE
8
refAndJunk
62
4
5
4cd
100
AcDbEntity
100
AcDbLine
10
33.860085
20
265.137388
30
0.0
11
39.001335
21
267.882023
31
0.0
0
LINE
8
refAndJunk
62
4
5
4ce
100
AcDbEntity
100
AcDbLine
10
39.001335
20
267.882023
30
0.0
11
44.271283
21
270.260708
31
0.0
0
LINE
8
refAndJunk
62
4
5
4cf
100
AcDbEntity
100
AcDbLine
10
44.271283
20
270.260708
30
0.0
11
49.651544
21
272.273440
31
0.0
0
LINE
8
refAndJunk
62
4
5
4d0
100
AcDbEntity
100
AcDbLine
10
49.651544
20
272.273440
30
0.0
11
55.123734
21
273.920221
31
0.0
0
LINE
8
refAndJunk
62
4
5
4d1
100
AcDbEntity
100
AcDbLine
10
55.123734
20
273.920221
30
0.0
11
60.669466
21
275.201051
31
0.0
0
LINE
8
refAndJunk
62
4
5
4d2
100
AcDbEntity
100
AcDbLine
10
60.669466
20
275.201051
30
0.0
11
66.270354
21
276.115930
31
0.0
0
LINE
8
refAndJunk
62
4
5
4d3
100
AcDbEntity
100
AcDbLine
10
66.270354
20
276.115930
30
0.0
11
71.908014
21
276.664857
31
0.0
0
LINE
8
refAndJunk
62
4
5
4d4
100
AcDbEntity
100
AcDbLine
10
71.908014
20
276.664857
30
0.0
11
77.564059
21
276.847833
31
0.0
0
LINE
8
refAndJunk
62
4
5
4d5
100
AcDbEntity
100
AcDbLine
10
77.564059
20
276.847833
30
0.0
11
83.220104
21
276.664857
31
0.0
0
LINE
8
refAndJunk
62
4
5
4d6
100
AcDbEntity
100
AcDbLine
10
83.220104
20
276.664857
30
0.0
11
88.857764
21
276.115930
31
0.0
0
LINE
8
refAndJunk
62
4
5
4d7
100
AcDbEntity
100
AcDbLine
10
88.857764
20
276.115930
30
0.0
11
94.458652
21
275.201051
31
0.0
0
LINE
8
refAndJunk
62
4
5
4d8
100
AcDbEntity
100
AcDbLine
10
94.458652
20
275.201051
30
0.0
11
100.004384
21
273.920221
31
0.0
0
LINE
8
refAndJunk
62
4
5
4d9
100
AcDbEntity
100
AcDbLine
10
100.004384
20
273.920221
30
0.0
11
105.476574
21
272.273440
31
0.0
0
LINE
8
refAndJunk
62
4
5
4da
100
AcDbEntity
100
AcDbLine
10
105.476574
20
272.273440
30
0.0
11
110.856835
21
270.260708
31
0.0
0
LINE
8
refAndJunk
62
4
5
4db
100
AcDbEntity
100
AcDbLine
10
110.856835
20
270.260708
30
0.0
11
116.126784
21
267.882023
31
0.0
0
LINE
8
refAndJunk
62
4
5
4dc
100
AcDbEntity
100
AcDbLine
10
116.126784
20
267.882023
30
0.0
11
121.268033
21
265.137388
31
0.0
0
LINE
8
refAndJunk
62
4
5
4dd
100
AcDbEntity
100
AcDbLine
10
121.268033
20
265.137388
30
0.0
11
126.215581
21
262.057253
31
0.0
0
LINE
8
refAndJunk
62
4
5
4de
100
AcDbEntity
100
AcDbLine
10
126.215581
20
262.057253
30
0.0
11
130.910556
21
258.682686
31
0.0
0
LINE
8
refAndJunk
62
4
5
4df
100
AcDbEntity
100
AcDbLine
10
130.910556
20
258.682686
30
0.0
11
135.343765
21
255.029609
31
0.0
0
LINE
8
refAndJunk
62
4
5
4e0
100
AcDbEntity
100
AcDbLine
10
135.343765
20
255.029609
30
0.0
11
139.506014
21
251.113945
31
0.0
0
LINE
8
refAndJunk
62
4
5
4e1
100
AcDbEntity
100
AcDbLine
10
139.506014
20
251.113945
30
0.0
11
143.388111
21
246.951615
31
0.0
0
LINE
8
refAndJunk
62
4
5
4e2
100
AcDbEntity
100
AcDbLine
10
143.388111
20
246.951615
30
0.0
11
146.980863
21
242.558543
31
0.0
0
LINE
8
refAndJunk
62
4
5
4e3
100
AcDbEntity
100
AcDbLine
10
146.980863
20
242.558543
30
0.0
11
150.275078
21
237.950650
31
0.0
0
LINE
8
refAndJunk
62
4
5
4e4
100
AcDbEntity
100
AcDbLine
10
150.275078
20
237.950650
30
0.0
11
153.261562
21
233.143859
31
0.0
0
LINE
8
refAndJunk
62
4
5
4e5
100
AcDbEntity
100
AcDbLine
10
153.261562
20
233.143859
30
0.0
11
155.931123
21
228.154092
31
0.0
0
LINE
8
refAndJunk
62
4
5
4e6
100
AcDbEntity
100
AcDbLine
10
155.931123
20
228.154092
30
0.0
11
158.274568
21
222.997272
31
0.0
0
LINE
8
refAndJunk
62
4
5
4e7
100
AcDbEntity
100
AcDbLine
10
158.274568
20
222.997272
30
0.0
11
160.282704
21
217.689321
31
0.0
0
LINE
8
refAndJunk
62
4
5
4e8
100
AcDbEntity
100
AcDbLine
10
160.282704
20
217.689321
30
0.0
11
161.946339
21
212.246162
31
0.0
0
LINE
8
refAndJunk
62
4
5
4e9
100
AcDbEntity
100
AcDbLine
10
161.946339
20
212.246162
30
0.0
11
163.256279
21
206.683716
31
0.0
0
LINE
8
refAndJunk
62
4
5
4ea
100
AcDbEntity
100
AcDbLine
10
163.256279
20
206.683716
30
0.0
11
164.203333
21
201.017906
31
0.0
0
LINE
8
refAndJunk
62
4
5
4eb
100
AcDbEntity
100
AcDbLine
10
164.203333
20
201.017906
30
0.0
11
164.778306
21
195.264655
31
0.0
0
LINE
8
refAndJunk
62
4
5
4ec
100
AcDbEntity
100
AcDbLine
10
164.778306
20
195.264655
30
0.0
11
164.972006
21
189.439885
31
0.0
0
LINE
8
refAndJunk
62
4
5
4ed
100
AcDbEntity
100
AcDbLine
10
164.972006
20
189.439885
30
0.0
11
164.972006
21
189.439885
31
0.0
0
LINE
8
refAndJunk
62
4
5
4ee
100
AcDbEntity
100
AcDbLine
10
103.394154
20
272.796563
30
0.0
11
124.430130
21
116.407789
31
0.0
0
LINE
8
refAndJunk
62
4
5
4ef
100
AcDbEntity
100
AcDbLine
10
103.394154
20
272.796563
30
0.0
11
102.536636
21
116.407789
31
0.0
  0
ENDSEC
  0
SECTION
  2
OBJECTS
  0
DICTIONARY
  5
C
330
0
100
AcDbDictionary
  3
ACAD_GROUP
350
D
  3
ACAD_MLINESTYLE
350
17
  0
DICTIONARY
  5
D
330
C
100
AcDbDictionary
  0
DICTIONARY
  5
1A
330
C
100
AcDbDictionary
  0
DICTIONARY
  5
17
330
C
100
AcDbDictionary
  3
STANDARD
350
18
  0
DICTIONARY
  5
19
330
C
100
AcDbDictionary
  0
ENDSEC
  0
EOF
