999
Inkscape export via "Better DXF Output" (bob@bobcookdev.com)
  0
SECTION
  2
HEADER
  9
$ACADVER
  1
AC1014
  9
$HANDSEED
  5
FFFF
  0
ENDSEC
  0
SECTION
  2
TABLES
  0
TABLE
  2
VPORT
  5
8
330
0
100
AcDbSymbolTable
 70
     4
  0
VPORT
  5
2E
330
8
100
AcDbSymbolTableRecord
100
AcDbViewportTableRecord
  2
*ACTIVE
 70
     0
 10
0.0
 20
0.0
 11
1.0
 21
1.0
 12
4.25
 22
5.5
 13
0.0
 23
0.0
 14
10.0
 24
10.0
 15
10.0
 25
10.0
 16
0.0
 26
0.0
 36
1.0
 17
0.0
 27
0.0
 37
0.0
 40
11
 41
1.24
 42
50.0
 43
0.0
 44
0.0
 50
0.0
 51
0.0
 71
     0
 72
   100
 73
     1
 74
     3
 75
     0
 76
     0
 77
     0
 78
     0
  0
ENDTAB
  0
TABLE
  2
LTYPE
  5
5
330
0
100
AcDbSymbolTable
 70
     1
  0
LTYPE
  5
14
330
5
100
AcDbSymbolTableRecord
100
AcDbLinetypeTableRecord
  2
BYBLOCK
 70
     0
  3

 72
    65
 73
     0
 40
0.0
  0
LTYPE
  5
15
330
5
100
AcDbSymbolTableRecord
100
AcDbLinetypeTableRecord
  2
BYLAYER
 70
     0
  3

 72
    65
 73
     0
 40
0.0
  0
LTYPE
  5
16
330
5
100
AcDbSymbolTableRecord
100
AcDbLinetypeTableRecord
  2
CONTINUOUS
 70
     0
  3
Solid line
 72
    65
 73
     0
 40
0.0
  0
ENDTAB
  0
TABLE
  2
LAYER
  5
2
330
0
100
AcDbSymbolTable
 70
1
  0
LAYER
  5
10
330
2
100
AcDbSymbolTableRecord
100
AcDbLayerTableRecord
  2
0
 70
     0
 62
     7
  6
CONTINUOUS
  0
ENDTAB
  0
TABLE
  2
STYLE
  5
3
330
0
100
AcDbSymbolTable
 70
     1
  0
STYLE
  5
11
330
3
100
AcDbSymbolTableRecord
100
AcDbTextStyleTableRecord
  2
STANDARD
 70
     0
 40
0.0
 41
1.0
 50
0.0
 71
     0
 42
2.5
  3
txt
  4

  0
ENDTAB
  0
TABLE
  2
VIEW
  5
6
330
0
100
AcDbSymbolTable
 70
     0
  0
ENDTAB
  0
TABLE
  2
UCS
  5
7
330
0
100
AcDbSymbolTable
 70
     0
  0
ENDTAB
  0
TABLE
  2
APPID
  5
9
330
0
100
AcDbSymbolTable
 70
     2
  0
APPID
  5
12
330
9
100
AcDbSymbolTableRecord
100
AcDbRegAppTableRecord
  2
ACAD
 70
     0
  0
ENDTAB
  0
TABLE
  2
DIMSTYLE
  5
A
330
0
100
AcDbSymbolTable
 70
     1
  0
DIMSTYLE
105
27
330
A
100
AcDbSymbolTableRecord
100
AcDbDimStyleTableRecord
  2
ISO-25
 70
     0
  3

  4

  5

  6

  7

 40
1.0
 41
2.5
 42
0.625
 43
3.75
 44
1.25
 45
0.0
 46
0.0
 47
0.0
 48
0.0
140
2.5
141
2.5
142
0.0
143
0.03937007874016
144
1.0
145
0.0
146
1.0
147
0.625
 71
     0
 72
     0
 73
     0
 74
     0
 75
     0
 76
     0
 77
     1
 78
     8
170
     0
171
     3
172
     1
173
     0
174
     0
175
     0
176
     0
177
     0
178
     0
270
     2
271
     2
272
     2
273
     2
274
     3
340
11
275
     0
280
     0
281
     0
282
     0
283
     0
284
     8
285
     0
286
     0
287
     3
288
     0
  0
ENDTAB
  0
TABLE
  2
BLOCK_RECORD
  5
1
330
0
100
AcDbSymbolTable
 70
     1
  0
BLOCK_RECORD
  5
1F
330
1
100
AcDbSymbolTableRecord
100
AcDbBlockTableRecord
  2
*MODEL_SPACE
  0
BLOCK_RECORD
  5
1B
330
1
100
AcDbSymbolTableRecord
100
AcDbBlockTableRecord
  2
*PAPER_SPACE
  0
ENDTAB
  0
ENDSEC
  0
SECTION
  2
BLOCKS
  0
BLOCK
  5
20
330
1F
100
AcDbEntity
  8
0
100
AcDbBlockBegin
  2
*MODEL_SPACE
 70
     0
 10
0.0
 20
0.0
 30
0.0
  3
*MODEL_SPACE
  1

  0
ENDBLK
  5
21
330
1F
100
AcDbEntity
  8
0
100
AcDbBlockEnd
  0
BLOCK
  5
1C
330
1B
100
AcDbEntity
 67
     1
  8
0
100
AcDbBlockBegin
  2
*PAPER_SPACE
  1

  0
ENDBLK
  5
1D
330
1B
100
AcDbEntity
 67
     1
  8
0
100
AcDbBlockEnd
  0
ENDSEC
  0
SECTION
  2
ENTITIES
0
LINE
8
base
62
4
5
100
100
AcDbEntity
100
AcDbLine
10
0.185252
20
210.632380
30
0.0
11
49.834202
21
210.632380
31
0.0
0
LINE
8
base
62
4
5
101
100
AcDbEntity
100
AcDbLine
10
49.834202
20
210.632380
30
0.0
11
70.221675
21
210.632380
31
0.0
0
LINE
8
base
62
4
5
102
100
AcDbEntity
100
AcDbLine
10
70.221675
20
210.632380
30
0.0
11
71.538177
21
210.481267
31
0.0
0
LINE
8
base
62
4
5
103
100
AcDbEntity
100
AcDbLine
10
71.538177
20
210.481267
30
0.0
11
72.701469
21
210.039775
31
0.0
0
LINE
8
base
62
4
5
104
100
AcDbEntity
100
AcDbLine
10
72.701469
20
210.039775
30
0.0
11
73.718855
21
209.325674
31
0.0
0
LINE
8
base
62
4
5
105
100
AcDbEntity
100
AcDbLine
10
73.718855
20
209.325674
30
0.0
11
74.597641
21
208.356735
31
0.0
0
LINE
8
base
62
4
5
106
100
AcDbEntity
100
AcDbLine
10
74.597641
20
208.356735
30
0.0
11
75.345135
21
207.150726
31
0.0
0
LINE
8
base
62
4
5
107
100
AcDbEntity
100
AcDbLine
10
75.345135
20
207.150726
30
0.0
11
75.968643
21
205.725419
31
0.0
0
LINE
8
base
62
4
5
108
100
AcDbEntity
100
AcDbLine
10
75.968643
20
205.725419
30
0.0
11
76.475471
21
204.098580
31
0.0
0
LINE
8
base
62
4
5
109
100
AcDbEntity
100
AcDbLine
10
76.475471
20
204.098580
30
0.0
11
76.872931
21
202.287983
31
0.0
0
LINE
8
base
62
4
5
10a
100
AcDbEntity
100
AcDbLine
10
76.872931
20
202.287983
30
0.0
11
77.168324
21
200.311395
31
0.0
0
LINE
8
base
62
4
5
10b
100
AcDbEntity
100
AcDbLine
10
77.168324
20
200.311395
30
0.0
11
77.368959
21
198.186589
31
0.0
0
LINE
8
base
62
4
5
10c
100
AcDbEntity
100
AcDbLine
10
77.368959
20
198.186589
30
0.0
11
77.482141
21
195.931331
31
0.0
0
LINE
8
base
62
4
5
10d
100
AcDbEntity
100
AcDbLine
10
77.482141
20
195.931331
30
0.0
11
77.515178
21
193.563394
31
0.0
0
LINE
8
base
62
4
5
10e
100
AcDbEntity
100
AcDbLine
10
77.515178
20
193.563394
30
0.0
11
77.370048
21
188.560556
31
0.0
0
LINE
8
base
62
4
5
10f
100
AcDbEntity
100
AcDbLine
10
77.370048
20
188.560556
30
0.0
11
76.992020
21
183.320234
31
0.0
0
LINE
8
base
62
4
5
110
100
AcDbEntity
100
AcDbLine
10
76.992020
20
183.320234
30
0.0
11
76.439550
21
177.984589
31
0.0
0
LINE
8
base
62
4
5
111
100
AcDbEntity
100
AcDbLine
10
76.439550
20
177.984589
30
0.0
11
75.771090
21
172.695778
31
0.0
0
LINE
8
base
62
4
5
112
100
AcDbEntity
100
AcDbLine
10
75.771090
20
172.695778
30
0.0
11
74.320019
21
162.827291
31
0.0
0
LINE
8
base
62
4
5
113
100
AcDbEntity
100
AcDbLine
10
74.320019
20
162.827291
30
0.0
11
73.106447
21
154.852050
31
0.0
0
LINE
8
base
62
4
5
114
100
AcDbEntity
100
AcDbLine
10
73.106447
20
154.852050
30
0.0
11
72.734856
21
151.929791
31
0.0
0
LINE
8
base
62
4
5
115
100
AcDbEntity
100
AcDbLine
10
72.734856
20
151.929791
30
0.0
11
72.598003
21
149.907319
31
0.0
0
LINE
8
base
62
4
5
116
100
AcDbEntity
100
AcDbLine
10
72.598003
20
149.907319
30
0.0
11
71.194202
21
151.114304
31
0.0
0
LINE
8
base
62
4
5
117
100
AcDbEntity
100
AcDbLine
10
71.194202
20
151.114304
30
0.0
11
69.800188
21
152.145338
31
0.0
0
LINE
8
base
62
4
5
118
100
AcDbEntity
100
AcDbLine
10
69.800188
20
152.145338
30
0.0
11
68.415899
21
153.005453
31
0.0
0
LINE
8
base
62
4
5
119
100
AcDbEntity
100
AcDbLine
10
68.415899
20
153.005453
30
0.0
11
67.041285
21
153.699677
31
0.0
0
LINE
8
base
62
4
5
11a
100
AcDbEntity
100
AcDbLine
10
67.041285
20
153.699677
30
0.0
11
65.676289
21
154.233043
31
0.0
0
LINE
8
base
62
4
5
11b
100
AcDbEntity
100
AcDbLine
10
65.676289
20
154.233043
30
0.0
11
64.320855
21
154.610583
31
0.0
0
LINE
8
base
62
4
5
11c
100
AcDbEntity
100
AcDbLine
10
64.320855
20
154.610583
30
0.0
11
62.974928
21
154.837326
31
0.0
0
LINE
8
base
62
4
5
11d
100
AcDbEntity
100
AcDbLine
10
62.974928
20
154.837326
30
0.0
11
61.638457
21
154.918304
31
0.0
0
LINE
8
base
62
4
5
11e
100
AcDbEntity
100
AcDbLine
10
61.638457
20
154.918304
30
0.0
11
60.311383
21
154.858549
31
0.0
0
LINE
8
base
62
4
5
11f
100
AcDbEntity
100
AcDbLine
10
60.311383
20
154.858549
30
0.0
11
58.993651
21
154.663091
31
0.0
0
LINE
8
base
62
4
5
120
100
AcDbEntity
100
AcDbLine
10
58.993651
20
154.663091
30
0.0
11
57.685206
21
154.336960
31
0.0
0
LINE
8
base
62
4
5
121
100
AcDbEntity
100
AcDbLine
10
57.685206
20
154.336960
30
0.0
11
56.385996
21
153.885187
31
0.0
0
LINE
8
base
62
4
5
122
100
AcDbEntity
100
AcDbLine
10
56.385996
20
153.885187
30
0.0
11
55.095964
21
153.312807
31
0.0
0
LINE
8
base
62
4
5
123
100
AcDbEntity
100
AcDbLine
10
55.095964
20
153.312807
30
0.0
11
53.815053
21
152.624845
31
0.0
0
LINE
8
base
62
4
5
124
100
AcDbEntity
100
AcDbLine
10
53.815053
20
152.624845
30
0.0
11
52.543210
21
151.826340
31
0.0
0
LINE
8
base
62
4
5
125
100
AcDbEntity
100
AcDbLine
10
52.543210
20
151.826340
30
0.0
11
51.280382
21
150.922314
31
0.0
0
LINE
8
base
62
4
5
126
100
AcDbEntity
100
AcDbLine
10
51.280382
20
150.922314
30
0.0
11
48.781541
21
148.817839
31
0.0
0
LINE
8
base
62
4
5
127
100
AcDbEntity
100
AcDbLine
10
48.781541
20
148.817839
30
0.0
11
46.318094
21
146.351671
31
0.0
0
LINE
8
base
62
4
5
128
100
AcDbEntity
100
AcDbLine
10
46.318094
20
146.351671
30
0.0
11
43.889594
21
143.564058
31
0.0
0
LINE
8
base
62
4
5
129
100
AcDbEntity
100
AcDbLine
10
43.889594
20
143.564058
30
0.0
11
41.495607
21
140.495250
31
0.0
0
LINE
8
base
62
4
5
12a
100
AcDbEntity
100
AcDbLine
10
41.495607
20
140.495250
30
0.0
11
39.135691
21
137.185492
31
0.0
0
LINE
8
base
62
4
5
12b
100
AcDbEntity
100
AcDbLine
10
39.135691
20
137.185492
30
0.0
11
36.809403
21
133.675034
31
0.0
0
LINE
8
base
62
4
5
12c
100
AcDbEntity
100
AcDbLine
10
36.809403
20
133.675034
30
0.0
11
34.516308
21
130.004124
31
0.0
0
LINE
8
base
62
4
5
12d
100
AcDbEntity
100
AcDbLine
10
34.516308
20
130.004124
30
0.0
11
32.255962
21
126.213013
31
0.0
0
LINE
8
base
62
4
5
12e
100
AcDbEntity
100
AcDbLine
10
32.255962
20
126.213013
30
0.0
11
27.831760
21
118.431176
31
0.0
0
LINE
8
base
62
4
5
12f
100
AcDbEntity
100
AcDbLine
10
27.831760
20
118.431176
30
0.0
11
23.533275
21
110.651511
31
0.0
0
LINE
8
base
62
4
5
130
100
AcDbEntity
100
AcDbLine
10
23.533275
20
110.651511
30
0.0
11
19.356988
21
103.196005
31
0.0
0
LINE
8
base
62
4
5
131
100
AcDbEntity
100
AcDbLine
10
19.356988
20
103.196005
30
0.0
11
17.313567
21
99.690432
31
0.0
0
LINE
8
base
62
4
5
132
100
AcDbEntity
100
AcDbLine
10
17.313567
20
99.690432
30
0.0
11
15.299375
21
96.386643
31
0.0
0
LINE
8
base
62
4
5
133
100
AcDbEntity
100
AcDbLine
10
15.299375
20
96.386643
30
0.0
11
13.313972
21
93.324890
31
0.0
0
LINE
8
base
62
4
5
134
100
AcDbEntity
100
AcDbLine
10
13.313972
20
93.324890
30
0.0
11
11.356917
21
90.545419
31
0.0
0
LINE
8
base
62
4
5
135
100
AcDbEntity
100
AcDbLine
10
11.356917
20
90.545419
30
0.0
11
9.427770
21
88.088477
31
0.0
0
LINE
8
base
62
4
5
136
100
AcDbEntity
100
AcDbLine
10
9.427770
20
88.088477
30
0.0
11
7.526091
21
85.994318
31
0.0
0
LINE
8
base
62
4
5
137
100
AcDbEntity
100
AcDbLine
10
7.526091
20
85.994318
30
0.0
11
5.651440
21
84.303183
31
0.0
0
LINE
8
base
62
4
5
138
100
AcDbEntity
100
AcDbLine
10
5.651440
20
84.303183
30
0.0
11
4.724113
21
83.621328
31
0.0
0
LINE
8
base
62
4
5
139
100
AcDbEntity
100
AcDbLine
10
4.724113
20
83.621328
30
0.0
11
3.803377
21
83.055326
31
0.0
0
LINE
8
base
62
4
5
13a
100
AcDbEntity
100
AcDbLine
10
3.803377
20
83.055326
30
0.0
11
2.889178
21
82.610202
31
0.0
0
LINE
8
base
62
4
5
13b
100
AcDbEntity
100
AcDbLine
10
2.889178
20
82.610202
30
0.0
11
1.981461
21
82.290992
31
0.0
0
LINE
8
base
62
4
5
13c
100
AcDbEntity
100
AcDbLine
10
1.981461
20
82.290992
30
0.0
11
1.080171
21
82.102724
31
0.0
0
LINE
8
base
62
4
5
13d
100
AcDbEntity
100
AcDbLine
10
1.080171
20
82.102724
30
0.0
11
0.185252
21
82.050431
31
0.0
0
LINE
8
base
62
4
5
13e
100
AcDbEntity
100
AcDbLine
10
0.185252
20
82.050431
30
0.0
11
0.185252
21
210.632380
31
0.0
0
LINE
8
shroud
62
4
5
13f
100
AcDbEntity
100
AcDbLine
10
80.544803
20
270.289716
30
0.0
11
29.277767
21
270.289716
31
0.0
0
LINE
8
shroud
62
4
5
140
100
AcDbEntity
100
AcDbLine
10
29.277767
20
270.289716
30
0.0
11
28.299849
21
269.347154
31
0.0
0
LINE
8
shroud
62
4
5
141
100
AcDbEntity
100
AcDbLine
10
28.299849
20
269.347154
30
0.0
11
27.456509
21
268.346841
31
0.0
0
LINE
8
shroud
62
4
5
142
100
AcDbEntity
100
AcDbLine
10
27.456509
20
268.346841
30
0.0
11
26.747078
21
267.288797
31
0.0
0
LINE
8
shroud
62
4
5
143
100
AcDbEntity
100
AcDbLine
10
26.747078
20
267.288797
30
0.0
11
26.170886
21
266.173043
31
0.0
0
LINE
8
shroud
62
4
5
144
100
AcDbEntity
100
AcDbLine
10
26.170886
20
266.173043
30
0.0
11
25.727263
21
264.999598
31
0.0
0
LINE
8
shroud
62
4
5
145
100
AcDbEntity
100
AcDbLine
10
25.727263
20
264.999598
30
0.0
11
25.415539
21
263.768483
31
0.0
0
LINE
8
shroud
62
4
5
146
100
AcDbEntity
100
AcDbLine
10
25.415539
20
263.768483
30
0.0
11
25.235043
21
262.479718
31
0.0
0
LINE
8
shroud
62
4
5
147
100
AcDbEntity
100
AcDbLine
10
25.235043
20
262.479718
30
0.0
11
25.185106
21
261.133323
31
0.0
0
LINE
8
shroud
62
4
5
148
100
AcDbEntity
100
AcDbLine
10
25.185106
20
261.133323
30
0.0
11
25.365109
21
258.044429
31
0.0
0
LINE
8
shroud
62
4
5
149
100
AcDbEntity
100
AcDbLine
10
25.365109
20
258.044429
30
0.0
11
25.830547
21
254.792437
31
0.0
0
LINE
8
shroud
62
4
5
14a
100
AcDbEntity
100
AcDbLine
10
25.830547
20
254.792437
30
0.0
11
26.568217
21
251.426386
31
0.0
0
LINE
8
shroud
62
4
5
14b
100
AcDbEntity
100
AcDbLine
10
26.568217
20
251.426386
30
0.0
11
27.564916
21
247.995316
31
0.0
0
LINE
8
shroud
62
4
5
14c
100
AcDbEntity
100
AcDbLine
10
27.564916
20
247.995316
30
0.0
11
28.807441
21
244.548266
31
0.0
0
LINE
8
shroud
62
4
5
14d
100
AcDbEntity
100
AcDbLine
10
28.807441
20
244.548266
30
0.0
11
30.282589
21
241.134276
31
0.0
0
LINE
8
shroud
62
4
5
14e
100
AcDbEntity
100
AcDbLine
10
30.282589
20
241.134276
30
0.0
11
31.977157
21
237.802386
31
0.0
0
LINE
8
shroud
62
4
5
14f
100
AcDbEntity
100
AcDbLine
10
31.977157
20
237.802386
30
0.0
11
33.877942
21
234.601634
31
0.0
0
LINE
8
shroud
62
4
5
150
100
AcDbEntity
100
AcDbLine
10
33.877942
20
234.601634
30
0.0
11
35.971740
21
231.581060
31
0.0
0
LINE
8
shroud
62
4
5
151
100
AcDbEntity
100
AcDbLine
10
35.971740
20
231.581060
30
0.0
11
38.245349
21
228.789704
31
0.0
0
LINE
8
shroud
62
4
5
152
100
AcDbEntity
100
AcDbLine
10
38.245349
20
228.789704
30
0.0
11
40.685565
21
226.276606
31
0.0
0
LINE
8
shroud
62
4
5
153
100
AcDbEntity
100
AcDbLine
10
40.685565
20
226.276606
30
0.0
11
41.964025
21
225.139729
31
0.0
0
LINE
8
shroud
62
4
5
154
100
AcDbEntity
100
AcDbLine
10
41.964025
20
225.139729
30
0.0
11
43.279186
21
224.090805
31
0.0
0
LINE
8
shroud
62
4
5
155
100
AcDbEntity
100
AcDbLine
10
43.279186
20
224.090805
30
0.0
11
44.629397
21
223.135966
31
0.0
0
LINE
8
shroud
62
4
5
156
100
AcDbEntity
100
AcDbLine
10
44.629397
20
223.135966
30
0.0
11
46.013008
21
222.281340
31
0.0
0
LINE
8
shroud
62
4
5
157
100
AcDbEntity
100
AcDbLine
10
46.013008
20
222.281340
30
0.0
11
47.428368
21
221.533059
31
0.0
0
LINE
8
shroud
62
4
5
158
100
AcDbEntity
100
AcDbLine
10
47.428368
20
221.533059
30
0.0
11
48.873828
21
220.897251
31
0.0
0
LINE
8
shroud
62
4
5
159
100
AcDbEntity
100
AcDbLine
10
48.873828
20
220.897251
30
0.0
11
50.347736
21
220.380048
31
0.0
0
LINE
8
shroud
62
4
5
15a
100
AcDbEntity
100
AcDbLine
10
50.347736
20
220.380048
30
0.0
11
51.848443
21
219.987578
31
0.0
0
LINE
8
shroud
62
4
5
15b
100
AcDbEntity
100
AcDbLine
10
51.848443
20
219.987578
30
0.0
11
53.374298
21
219.725972
31
0.0
0
LINE
8
shroud
62
4
5
15c
100
AcDbEntity
100
AcDbLine
10
53.374298
20
219.725972
30
0.0
11
54.923650
21
219.601360
31
0.0
0
LINE
8
shroud
62
4
5
15d
100
AcDbEntity
100
AcDbLine
10
54.923650
20
219.601360
30
0.0
11
57.793740
21
219.194252
31
0.0
0
LINE
8
shroud
62
4
5
15e
100
AcDbEntity
100
AcDbLine
10
57.793740
20
219.194252
30
0.0
11
60.676765
21
218.969792
31
0.0
0
LINE
8
shroud
62
4
5
15f
100
AcDbEntity
100
AcDbLine
10
60.676765
20
218.969792
30
0.0
11
64.080791
21
218.955681
31
0.0
0
LINE
8
shroud
62
4
5
160
100
AcDbEntity
100
AcDbLine
10
64.080791
20
218.955681
30
0.0
11
65.497360
21
219.001214
31
0.0
0
LINE
8
shroud
62
4
5
161
100
AcDbEntity
100
AcDbLine
10
65.497360
20
219.001214
30
0.0
11
66.933487
21
218.965694
31
0.0
0
LINE
8
shroud
62
4
5
162
100
AcDbEntity
100
AcDbLine
10
66.933487
20
218.965694
30
0.0
11
68.366826
21
218.823471
31
0.0
0
LINE
8
shroud
62
4
5
163
100
AcDbEntity
100
AcDbLine
10
68.366826
20
218.823471
30
0.0
11
69.775025
21
218.548894
31
0.0
0
LINE
8
shroud
62
4
5
164
100
AcDbEntity
100
AcDbLine
10
69.775025
20
218.548894
30
0.0
11
71.135742
21
218.116315
31
0.0
0
LINE
8
shroud
62
4
5
165
100
AcDbEntity
100
AcDbLine
10
71.135742
20
218.116315
30
0.0
11
72.426632
21
217.500080
31
0.0
0
LINE
8
shroud
62
4
5
166
100
AcDbEntity
100
AcDbLine
10
72.426632
20
217.500080
30
0.0
11
73.625346
21
216.674543
31
0.0
0
LINE
8
shroud
62
4
5
167
100
AcDbEntity
100
AcDbLine
10
73.625346
20
216.674543
30
0.0
11
74.709536
21
215.614051
31
0.0
0
LINE
8
shroud
62
4
5
168
100
AcDbEntity
100
AcDbLine
10
74.709536
20
215.614051
30
0.0
11
75.430394
21
214.696211
31
0.0
0
LINE
8
shroud
62
4
5
169
100
AcDbEntity
100
AcDbLine
10
75.430394
20
214.696211
30
0.0
11
76.073426
21
213.731781
31
0.0
0
LINE
8
shroud
62
4
5
16a
100
AcDbEntity
100
AcDbLine
10
76.073426
20
213.731781
30
0.0
11
76.643032
21
212.724987
31
0.0
0
LINE
8
shroud
62
4
5
16b
100
AcDbEntity
100
AcDbLine
10
76.643032
20
212.724987
30
0.0
11
77.143607
21
211.680051
31
0.0
0
LINE
8
shroud
62
4
5
16c
100
AcDbEntity
100
AcDbLine
10
77.143607
20
211.680051
30
0.0
11
77.955233
21
209.492628
31
0.0
0
LINE
8
shroud
62
4
5
16d
100
AcDbEntity
100
AcDbLine
10
77.955233
20
209.492628
30
0.0
11
78.543463
21
207.203295
31
0.0
0
LINE
8
shroud
62
4
5
16e
100
AcDbEntity
100
AcDbLine
10
78.543463
20
207.203295
30
0.0
11
78.943460
21
204.845825
31
0.0
0
LINE
8
shroud
62
4
5
16f
100
AcDbEntity
100
AcDbLine
10
78.943460
20
204.845825
30
0.0
11
79.190376
21
202.453992
31
0.0
0
LINE
8
shroud
62
4
5
170
100
AcDbEntity
100
AcDbLine
10
79.190376
20
202.453992
30
0.0
11
79.319374
21
200.061572
31
0.0
0
LINE
8
shroud
62
4
5
171
100
AcDbEntity
100
AcDbLine
10
79.319374
20
200.061572
30
0.0
11
79.365613
21
197.702343
31
0.0
0
LINE
8
shroud
62
4
5
172
100
AcDbEntity
100
AcDbLine
10
79.365613
20
197.702343
30
0.0
11
79.233841
21
193.600133
31
0.0
0
LINE
8
shroud
62
4
5
173
100
AcDbEntity
100
AcDbLine
10
79.233841
20
193.600133
30
0.0
11
78.928747
21
189.507877
31
0.0
0
LINE
8
shroud
62
4
5
174
100
AcDbEntity
100
AcDbLine
10
78.928747
20
189.507877
30
0.0
11
80.692814
21
195.920793
31
0.0
0
LINE
8
shroud
62
4
5
175
100
AcDbEntity
100
AcDbLine
10
80.692814
20
195.920793
30
0.0
11
82.525757
21
203.062463
31
0.0
0
LINE
8
shroud
62
4
5
176
100
AcDbEntity
100
AcDbLine
10
82.525757
20
203.062463
30
0.0
11
83.375209
21
206.730421
31
0.0
0
LINE
8
shroud
62
4
5
177
100
AcDbEntity
100
AcDbLine
10
83.375209
20
206.730421
30
0.0
11
84.130464
21
210.369165
31
0.0
0
LINE
8
shroud
62
4
5
178
100
AcDbEntity
100
AcDbLine
10
84.130464
20
210.369165
30
0.0
11
84.754387
21
213.908238
31
0.0
0
LINE
8
shroud
62
4
5
179
100
AcDbEntity
100
AcDbLine
10
84.754387
20
213.908238
30
0.0
11
85.209832
21
217.277172
31
0.0
0
LINE
8
shroud
62
4
5
17a
100
AcDbEntity
100
AcDbLine
10
85.209832
20
217.277172
30
0.0
11
85.956326
21
223.948502
31
0.0
0
LINE
8
shroud
62
4
5
17b
100
AcDbEntity
100
AcDbLine
10
85.956326
20
223.948502
30
0.0
11
86.687491
21
231.173123
31
0.0
0
LINE
8
shroud
62
4
5
17c
100
AcDbEntity
100
AcDbLine
10
86.687491
20
231.173123
30
0.0
11
86.990363
21
234.904470
31
0.0
0
LINE
8
shroud
62
4
5
17d
100
AcDbEntity
100
AcDbLine
10
86.990363
20
234.904470
30
0.0
11
87.221046
21
238.668000
31
0.0
0
LINE
8
shroud
62
4
5
17e
100
AcDbEntity
100
AcDbLine
10
87.221046
20
238.668000
30
0.0
11
87.356755
21
242.428331
31
0.0
0
LINE
8
shroud
62
4
5
17f
100
AcDbEntity
100
AcDbLine
10
87.356755
20
242.428331
30
0.0
11
87.374705
21
246.150086
31
0.0
0
LINE
8
shroud
62
4
5
180
100
AcDbEntity
100
AcDbLine
10
87.374705
20
246.150086
30
0.0
11
87.252113
21
249.797885
31
0.0
0
LINE
8
shroud
62
4
5
181
100
AcDbEntity
100
AcDbLine
10
87.252113
20
249.797885
30
0.0
11
86.966194
21
253.336344
31
0.0
0
LINE
8
shroud
62
4
5
182
100
AcDbEntity
100
AcDbLine
10
86.966194
20
253.336344
30
0.0
11
86.494157
21
256.730086
31
0.0
0
LINE
8
shroud
62
4
5
183
100
AcDbEntity
100
AcDbLine
10
86.494157
20
256.730086
30
0.0
11
85.813225
21
259.943734
31
0.0
0
LINE
8
shroud
62
4
5
184
100
AcDbEntity
100
AcDbLine
10
85.813225
20
259.943734
30
0.0
11
84.900609
21
262.941902
31
0.0
0
LINE
8
shroud
62
4
5
185
100
AcDbEntity
100
AcDbLine
10
84.900609
20
262.941902
30
0.0
11
84.350298
21
264.349127
31
0.0
0
LINE
8
shroud
62
4
5
186
100
AcDbEntity
100
AcDbLine
10
84.350298
20
264.349127
30
0.0
11
83.733521
21
265.689214
31
0.0
0
LINE
8
shroud
62
4
5
187
100
AcDbEntity
100
AcDbLine
10
83.733521
20
265.689214
30
0.0
11
83.047431
21
266.957741
31
0.0
0
LINE
8
shroud
62
4
5
188
100
AcDbEntity
100
AcDbLine
10
83.047431
20
266.957741
30
0.0
11
82.289179
21
268.150285
31
0.0
0
LINE
8
shroud
62
4
5
189
100
AcDbEntity
100
AcDbLine
10
82.289179
20
268.150285
30
0.0
11
81.455918
21
269.262427
31
0.0
0
LINE
8
shroud
62
4
5
18a
100
AcDbEntity
100
AcDbLine
10
81.455918
20
269.262427
30
0.0
11
80.544800
21
270.289742
31
0.0
0
LINE
8
shroud
62
4
5
18b
100
AcDbEntity
100
AcDbLine
10
80.544800
20
270.289742
30
0.0
11
80.544800
21
270.289742
31
0.0
0
LINE
8
turboBlades
62
4
5
18c
100
AcDbEntity
100
AcDbLine
10
0.000000
20
261.201875
30
0.0
11
0.000000
21
211.504306
31
0.0
0
LINE
8
turboBlades
62
4
5
18d
100
AcDbEntity
100
AcDbLine
10
0.000000
20
211.504306
30
0.0
11
54.354236
21
211.504306
31
0.0
0
LINE
8
turboBlades
62
4
5
18e
100
AcDbEntity
100
AcDbLine
10
54.354236
20
211.504306
30
0.0
11
54.354236
21
218.374653
31
0.0
0
LINE
8
turboBlades
62
4
5
18f
100
AcDbEntity
100
AcDbLine
10
54.354236
20
218.374653
30
0.0
11
50.356572
21
218.697562
31
0.0
0
LINE
8
turboBlades
62
4
5
190
100
AcDbEntity
100
AcDbLine
10
50.356572
20
218.697562
30
0.0
11
48.814666
21
218.993560
31
0.0
0
LINE
8
turboBlades
62
4
5
191
100
AcDbEntity
100
AcDbLine
10
48.814666
20
218.993560
30
0.0
11
47.458071
21
219.413199
31
0.0
0
LINE
8
turboBlades
62
4
5
192
100
AcDbEntity
100
AcDbLine
10
47.458071
20
219.413199
30
0.0
11
46.197307
21
219.981934
31
0.0
0
LINE
8
turboBlades
62
4
5
193
100
AcDbEntity
100
AcDbLine
10
46.197307
20
219.981934
30
0.0
11
44.942895
21
220.725223
31
0.0
0
LINE
8
turboBlades
62
4
5
194
100
AcDbEntity
100
AcDbLine
10
44.942895
20
220.725223
30
0.0
11
42.095208
21
222.837292
31
0.0
0
LINE
8
turboBlades
62
4
5
195
100
AcDbEntity
100
AcDbLine
10
42.095208
20
222.837292
30
0.0
11
40.490069
21
224.186667
31
0.0
0
LINE
8
turboBlades
62
4
5
196
100
AcDbEntity
100
AcDbLine
10
40.490069
20
224.186667
30
0.0
11
38.955486
21
225.641875
31
0.0
0
LINE
8
turboBlades
62
4
5
197
100
AcDbEntity
100
AcDbLine
10
38.955486
20
225.641875
30
0.0
11
37.491458
21
227.167639
31
0.0
0
LINE
8
turboBlades
62
4
5
198
100
AcDbEntity
100
AcDbLine
10
37.491458
20
227.167639
30
0.0
11
36.089167
21
228.737500
31
0.0
0
LINE
8
turboBlades
62
4
5
199
100
AcDbEntity
100
AcDbLine
10
36.089167
20
228.737500
30
0.0
11
33.575625
21
232.009514
31
0.0
0
LINE
8
turboBlades
62
4
5
19a
100
AcDbEntity
100
AcDbLine
10
33.575625
20
232.009514
30
0.0
11
31.273750
21
235.484375
31
0.0
0
LINE
8
turboBlades
62
4
5
19b
100
AcDbEntity
100
AcDbLine
10
31.273750
20
235.484375
30
0.0
11
29.210000
21
239.135625
31
0.0
0
LINE
8
turboBlades
62
4
5
19c
100
AcDbEntity
100
AcDbLine
10
29.210000
20
239.135625
30
0.0
11
28.275139
21
241.022986
31
0.0
0
LINE
8
turboBlades
62
4
5
19d
100
AcDbEntity
100
AcDbLine
10
28.275139
20
241.022986
30
0.0
11
27.419653
21
242.954444
31
0.0
0
LINE
8
turboBlades
62
4
5
19e
100
AcDbEntity
100
AcDbLine
10
27.419653
20
242.954444
30
0.0
11
26.625903
21
244.912361
31
0.0
0
LINE
8
turboBlades
62
4
5
19f
100
AcDbEntity
100
AcDbLine
10
26.625903
20
244.912361
30
0.0
11
25.920347
21
246.914375
31
0.0
0
LINE
8
turboBlades
62
4
5
1a0
100
AcDbEntity
100
AcDbLine
10
25.920347
20
246.914375
30
0.0
11
25.294167
21
248.934028
31
0.0
0
LINE
8
turboBlades
62
4
5
1a1
100
AcDbEntity
100
AcDbLine
10
25.294167
20
248.934028
30
0.0
11
24.747361
21
250.988958
31
0.0
0
LINE
8
turboBlades
62
4
5
1a2
100
AcDbEntity
100
AcDbLine
10
24.747361
20
250.988958
30
0.0
11
24.297569
21
253.070347
31
0.0
0
LINE
8
turboBlades
62
4
5
1a3
100
AcDbEntity
100
AcDbLine
10
24.297569
20
253.070347
30
0.0
11
23.935972
21
255.178194
31
0.0
0
LINE
8
turboBlades
62
4
5
1a4
100
AcDbEntity
100
AcDbLine
10
23.935972
20
255.178194
30
0.0
11
23.671389
21
257.303681
31
0.0
0
LINE
8
turboBlades
62
4
5
1a5
100
AcDbEntity
100
AcDbLine
10
23.671389
20
257.303681
30
0.0
11
23.512639
21
259.446806
31
0.0
0
LINE
8
turboBlades
62
4
5
1a6
100
AcDbEntity
100
AcDbLine
10
23.512639
20
259.446806
30
0.0
11
23.433264
21
261.025486
31
0.0
0
LINE
8
turboBlades
62
4
5
1a7
100
AcDbEntity
100
AcDbLine
10
23.433264
20
261.025486
30
0.0
11
23.450903
21
261.201875
31
0.0
0
LINE
8
turboBlades
62
4
5
1a8
100
AcDbEntity
100
AcDbLine
10
23.450903
20
261.201875
30
0.0
11
0.000000
21
261.201875
31
0.0
0
LINE
8
turboCore
62
4
5
1a9
100
AcDbEntity
100
AcDbLine
10
0.014421
20
268.214866
30
0.0
11
1.034541
21
268.191181
31
0.0
0
LINE
8
turboCore
62
4
5
1aa
100
AcDbEntity
100
AcDbLine
10
1.034541
20
268.191181
30
0.0
11
1.989227
21
268.082295
31
0.0
0
LINE
8
turboCore
62
4
5
1ab
100
AcDbEntity
100
AcDbLine
10
1.989227
20
268.082295
30
0.0
11
2.878498
21
267.894603
31
0.0
0
LINE
8
turboCore
62
4
5
1ac
100
AcDbEntity
100
AcDbLine
10
2.878498
20
267.894603
30
0.0
11
3.702368
21
267.634501
31
0.0
0
LINE
8
turboCore
62
4
5
1ad
100
AcDbEntity
100
AcDbLine
10
3.702368
20
267.634501
30
0.0
11
5.153979
21
266.922648
31
0.0
0
LINE
8
turboCore
62
4
5
1ae
100
AcDbEntity
100
AcDbLine
10
5.153979
20
266.922648
30
0.0
11
6.344195
21
265.997899
31
0.0
0
LINE
8
turboCore
62
4
5
1af
100
AcDbEntity
100
AcDbLine
10
6.344195
20
265.997899
30
0.0
11
7.273152
21
264.911416
31
0.0
0
LINE
8
turboCore
62
4
5
1b0
100
AcDbEntity
100
AcDbLine
10
7.273152
20
264.911416
30
0.0
11
7.940988
21
263.714364
31
0.0
0
LINE
8
turboCore
62
4
5
1b1
100
AcDbEntity
100
AcDbLine
10
7.940988
20
263.714364
30
0.0
11
8.347837
21
262.457906
31
0.0
0
LINE
8
turboCore
62
4
5
1b2
100
AcDbEntity
100
AcDbLine
10
8.347837
20
262.457906
30
0.0
11
8.493836
21
261.193205
31
0.0
0
LINE
8
turboCore
62
4
5
1b3
100
AcDbEntity
100
AcDbLine
10
8.493836
20
261.193205
30
0.0
11
8.570872
21
258.750950
31
0.0
0
LINE
8
turboCore
62
4
5
1b4
100
AcDbEntity
100
AcDbLine
10
8.570872
20
258.750950
30
0.0
11
8.797813
21
256.335805
31
0.0
0
LINE
8
turboCore
62
4
5
1b5
100
AcDbEntity
100
AcDbLine
10
8.797813
20
256.335805
30
0.0
11
9.168408
21
253.951075
31
0.0
0
LINE
8
turboCore
62
4
5
1b6
100
AcDbEntity
100
AcDbLine
10
9.168408
20
253.951075
30
0.0
11
9.676405
21
251.600068
31
0.0
0
LINE
8
turboCore
62
4
5
1b7
100
AcDbEntity
100
AcDbLine
10
9.676405
20
251.600068
30
0.0
11
10.315552
21
249.286092
31
0.0
0
LINE
8
turboCore
62
4
5
1b8
100
AcDbEntity
100
AcDbLine
10
10.315552
20
249.286092
30
0.0
11
11.079600
21
247.012450
31
0.0
0
LINE
8
turboCore
62
4
5
1b9
100
AcDbEntity
100
AcDbLine
10
11.079600
20
247.012450
30
0.0
11
11.962295
21
244.782451
31
0.0
0
LINE
8
turboCore
62
4
5
1ba
100
AcDbEntity
100
AcDbLine
10
11.962295
20
244.782451
30
0.0
11
12.957388
21
242.599403
31
0.0
0
LINE
8
turboCore
62
4
5
1bb
100
AcDbEntity
100
AcDbLine
10
12.957388
20
242.599403
30
0.0
11
14.058625
21
240.466610
31
0.0
0
LINE
8
turboCore
62
4
5
1bc
100
AcDbEntity
100
AcDbLine
10
14.058625
20
240.466610
30
0.0
11
15.259758
21
238.387381
31
0.0
0
LINE
8
turboCore
62
4
5
1bd
100
AcDbEntity
100
AcDbLine
10
15.259758
20
238.387381
30
0.0
11
16.554533
21
236.365021
31
0.0
0
LINE
8
turboCore
62
4
5
1be
100
AcDbEntity
100
AcDbLine
10
16.554533
20
236.365021
30
0.0
11
17.936699
21
234.402837
31
0.0
0
LINE
8
turboCore
62
4
5
1bf
100
AcDbEntity
100
AcDbLine
10
17.936699
20
234.402837
30
0.0
11
19.400006
21
232.504137
31
0.0
0
LINE
8
turboCore
62
4
5
1c0
100
AcDbEntity
100
AcDbLine
10
19.400006
20
232.504137
30
0.0
11
20.938201
21
230.672226
31
0.0
0
LINE
8
turboCore
62
4
5
1c1
100
AcDbEntity
100
AcDbLine
10
20.938201
20
230.672226
30
0.0
11
22.545034
21
228.910409
31
0.0
0
LINE
8
turboCore
62
4
5
1c2
100
AcDbEntity
100
AcDbLine
10
22.545034
20
228.910409
30
0.0
11
24.214252
21
227.221998
31
0.0
0
LINE
8
turboCore
62
4
5
1c3
100
AcDbEntity
100
AcDbLine
10
24.214252
20
227.221998
30
0.0
11
25.939606
21
225.610297
31
0.0
0
LINE
8
turboCore
62
4
5
1c4
100
AcDbEntity
100
AcDbLine
10
25.939606
20
225.610297
30
0.0
11
27.714843
21
224.078609
31
0.0
0
LINE
8
turboCore
62
4
5
1c5
100
AcDbEntity
100
AcDbLine
10
27.714843
20
224.078609
30
0.0
11
29.533712
21
222.630248
31
0.0
0
LINE
8
turboCore
62
4
5
1c6
100
AcDbEntity
100
AcDbLine
10
29.533712
20
222.630248
30
0.0
11
31.389963
21
221.268514
31
0.0
0
LINE
8
turboCore
62
4
5
1c7
100
AcDbEntity
100
AcDbLine
10
31.389963
20
221.268514
30
0.0
11
33.277342
21
219.996719
31
0.0
0
LINE
8
turboCore
62
4
5
1c8
100
AcDbEntity
100
AcDbLine
10
33.277342
20
219.996719
30
0.0
11
35.189600
21
218.818162
31
0.0
0
LINE
8
turboCore
62
4
5
1c9
100
AcDbEntity
100
AcDbLine
10
35.189600
20
218.818162
30
0.0
11
37.120486
21
217.736162
31
0.0
0
LINE
8
turboCore
62
4
5
1ca
100
AcDbEntity
100
AcDbLine
10
37.120486
20
217.736162
30
0.0
11
39.063744
21
216.754014
31
0.0
0
LINE
8
turboCore
62
4
5
1cb
100
AcDbEntity
100
AcDbLine
10
39.063744
20
216.754014
30
0.0
11
41.013126
21
215.875027
31
0.0
0
LINE
8
turboCore
62
4
5
1cc
100
AcDbEntity
100
AcDbLine
10
41.013126
20
215.875027
30
0.0
11
42.962384
21
215.102512
31
0.0
0
LINE
8
turboCore
62
4
5
1cd
100
AcDbEntity
100
AcDbLine
10
42.962384
20
215.102512
30
0.0
11
44.905261
21
214.439775
31
0.0
0
LINE
8
turboCore
62
4
5
1ce
100
AcDbEntity
100
AcDbLine
10
44.905261
20
214.439775
30
0.0
11
46.835512
21
213.890116
31
0.0
0
LINE
8
turboCore
62
4
5
1cf
100
AcDbEntity
100
AcDbLine
10
46.835512
20
213.890116
30
0.0
11
48.746876
21
213.456852
31
0.0
0
LINE
8
turboCore
62
4
5
1d0
100
AcDbEntity
100
AcDbLine
10
48.746876
20
213.456852
30
0.0
11
50.633108
21
213.143280
31
0.0
0
LINE
8
turboCore
62
4
5
1d1
100
AcDbEntity
100
AcDbLine
10
50.633108
20
213.143280
30
0.0
11
52.487960
21
212.952715
31
0.0
0
LINE
8
turboCore
62
4
5
1d2
100
AcDbEntity
100
AcDbLine
10
52.487960
20
212.952715
30
0.0
11
54.305175
21
212.888459
31
0.0
0
LINE
8
turboCore
62
4
5
1d3
100
AcDbEntity
100
AcDbLine
10
54.305175
20
212.888459
30
0.0
11
54.305175
21
211.517737
31
0.0
0
LINE
8
turboCore
62
4
5
1d4
100
AcDbEntity
100
AcDbLine
10
54.305175
20
211.517737
30
0.0
11
0.194463
21
211.517737
31
0.0
0
LINE
8
turboCore
62
4
5
1d5
100
AcDbEntity
100
AcDbLine
10
0.194463
20
211.517737
30
0.0
11
0.014421
21
268.214866
31
0.0
0
LINE
8
refAndJunk
62
4
5
1d6
100
AcDbEntity
100
AcDbLine
10
71.429280
20
279.000008
30
0.0
11
71.270989
21
274.240039
31
0.0
0
LINE
8
refAndJunk
62
4
5
1d7
100
AcDbEntity
100
AcDbLine
10
71.270989
20
274.240039
30
0.0
11
70.801124
21
269.538515
31
0.0
0
LINE
8
refAndJunk
62
4
5
1d8
100
AcDbEntity
100
AcDbLine
10
70.801124
20
269.538515
30
0.0
11
70.027197
21
264.908447
31
0.0
0
LINE
8
refAndJunk
62
4
5
1d9
100
AcDbEntity
100
AcDbLine
10
70.027197
20
264.908447
30
0.0
11
68.956722
21
260.362848
31
0.0
0
LINE
8
refAndJunk
62
4
5
1da
100
AcDbEntity
100
AcDbLine
10
68.956722
20
260.362848
30
0.0
11
67.597209
21
255.914729
31
0.0
0
LINE
8
refAndJunk
62
4
5
1db
100
AcDbEntity
100
AcDbLine
10
67.597209
20
255.914729
30
0.0
11
65.956171
21
251.577101
31
0.0
0
LINE
8
refAndJunk
62
4
5
1dc
100
AcDbEntity
100
AcDbLine
10
65.956171
20
251.577101
30
0.0
11
64.041121
21
247.362977
31
0.0
0
LINE
8
refAndJunk
62
4
5
1dd
100
AcDbEntity
100
AcDbLine
10
64.041121
20
247.362977
30
0.0
11
61.859571
21
243.285368
31
0.0
0
LINE
8
refAndJunk
62
4
5
1de
100
AcDbEntity
100
AcDbLine
10
61.859571
20
243.285368
30
0.0
11
59.419033
21
239.357286
31
0.0
0
LINE
8
refAndJunk
62
4
5
1df
100
AcDbEntity
100
AcDbLine
10
59.419033
20
239.357286
30
0.0
11
56.727019
21
235.591742
31
0.0
0
LINE
8
refAndJunk
62
4
5
1e0
100
AcDbEntity
100
AcDbLine
10
56.727019
20
235.591742
30
0.0
11
53.791042
21
232.001748
31
0.0
0
LINE
8
refAndJunk
62
4
5
1e1
100
AcDbEntity
100
AcDbLine
10
53.791042
20
232.001748
30
0.0
11
50.618615
21
228.600315
31
0.0
0
LINE
8
refAndJunk
62
4
5
1e2
100
AcDbEntity
100
AcDbLine
10
50.618615
20
228.600315
30
0.0
11
47.217248
21
225.400456
31
0.0
0
LINE
8
refAndJunk
62
4
5
1e3
100
AcDbEntity
100
AcDbLine
10
47.217248
20
225.400456
30
0.0
11
43.594455
21
222.415183
31
0.0
0
LINE
8
refAndJunk
62
4
5
1e4
100
AcDbEntity
100
AcDbLine
10
43.594455
20
222.415183
30
0.0
11
39.757748
21
219.657506
31
0.0
0
LINE
8
refAndJunk
62
4
5
1e5
100
AcDbEntity
100
AcDbLine
10
39.757748
20
219.657506
30
0.0
11
35.714640
21
217.140437
31
0.0
0
LINE
8
refAndJunk
62
4
5
1e6
100
AcDbEntity
100
AcDbLine
10
35.714640
20
217.140437
30
0.0
11
31.513240
21
214.897536
31
0.0
0
LINE
8
refAndJunk
62
4
5
1e7
100
AcDbEntity
100
AcDbLine
10
31.513240
20
214.897536
30
0.0
11
27.206668
21
212.953689
31
0.0
0
LINE
8
refAndJunk
62
4
5
1e8
100
AcDbEntity
100
AcDbLine
10
27.206668
20
212.953689
30
0.0
11
22.809949
21
211.308895
31
0.0
0
LINE
8
refAndJunk
62
4
5
1e9
100
AcDbEntity
100
AcDbLine
10
22.809949
20
211.308895
30
0.0
11
18.338106
21
209.963155
31
0.0
0
LINE
8
refAndJunk
62
4
5
1ea
100
AcDbEntity
100
AcDbLine
10
18.338106
20
209.963155
30
0.0
11
13.806166
21
208.916468
31
0.0
0
LINE
8
refAndJunk
62
4
5
1eb
100
AcDbEntity
100
AcDbLine
10
13.806166
20
208.916468
30
0.0
11
9.229151
21
208.168835
31
0.0
0
LINE
8
refAndJunk
62
4
5
1ec
100
AcDbEntity
100
AcDbLine
10
9.229151
20
208.168835
30
0.0
11
4.622088
21
207.720255
31
0.0
0
LINE
8
refAndJunk
62
4
5
1ed
100
AcDbEntity
100
AcDbLine
10
4.622088
20
207.720255
30
0.0
11
-0.000001
21
207.570728
31
0.0
0
LINE
8
refAndJunk
62
4
5
1ee
100
AcDbEntity
100
AcDbLine
10
-0.000001
20
207.570728
30
0.0
11
-4.622089
21
207.720255
31
0.0
0
LINE
8
refAndJunk
62
4
5
1ef
100
AcDbEntity
100
AcDbLine
10
-4.622089
20
207.720255
30
0.0
11
-9.229152
21
208.168835
31
0.0
0
LINE
8
refAndJunk
62
4
5
1f0
100
AcDbEntity
100
AcDbLine
10
-9.229152
20
208.168835
30
0.0
11
-13.806167
21
208.916468
31
0.0
0
LINE
8
refAndJunk
62
4
5
1f1
100
AcDbEntity
100
AcDbLine
10
-13.806167
20
208.916468
30
0.0
11
-18.338107
21
209.963155
31
0.0
0
LINE
8
refAndJunk
62
4
5
1f2
100
AcDbEntity
100
AcDbLine
10
-18.338107
20
209.963155
30
0.0
11
-22.809950
21
211.308895
31
0.0
0
LINE
8
refAndJunk
62
4
5
1f3
100
AcDbEntity
100
AcDbLine
10
-22.809950
20
211.308895
30
0.0
11
-27.206669
21
212.953689
31
0.0
0
LINE
8
refAndJunk
62
4
5
1f4
100
AcDbEntity
100
AcDbLine
10
-27.206669
20
212.953689
30
0.0
11
-31.513241
21
214.897536
31
0.0
0
LINE
8
refAndJunk
62
4
5
1f5
100
AcDbEntity
100
AcDbLine
10
-31.513241
20
214.897536
30
0.0
11
-35.714641
21
217.140437
31
0.0
0
LINE
8
refAndJunk
62
4
5
1f6
100
AcDbEntity
100
AcDbLine
10
-35.714641
20
217.140437
30
0.0
11
-39.757750
21
219.657506
31
0.0
0
LINE
8
refAndJunk
62
4
5
1f7
100
AcDbEntity
100
AcDbLine
10
-39.757750
20
219.657506
30
0.0
11
-43.594457
21
222.415183
31
0.0
0
LINE
8
refAndJunk
62
4
5
1f8
100
AcDbEntity
100
AcDbLine
10
-43.594457
20
222.415183
30
0.0
11
-47.217249
21
225.400456
31
0.0
0
LINE
8
refAndJunk
62
4
5
1f9
100
AcDbEntity
100
AcDbLine
10
-47.217249
20
225.400456
30
0.0
11
-50.618616
21
228.600315
31
0.0
0
LINE
8
refAndJunk
62
4
5
1fa
100
AcDbEntity
100
AcDbLine
10
-50.618616
20
228.600315
30
0.0
11
-53.791044
21
232.001748
31
0.0
0
LINE
8
refAndJunk
62
4
5
1fb
100
AcDbEntity
100
AcDbLine
10
-53.791044
20
232.001748
30
0.0
11
-56.727021
21
235.591742
31
0.0
0
LINE
8
refAndJunk
62
4
5
1fc
100
AcDbEntity
100
AcDbLine
10
-56.727021
20
235.591742
30
0.0
11
-59.419034
21
239.357286
31
0.0
0
LINE
8
refAndJunk
62
4
5
1fd
100
AcDbEntity
100
AcDbLine
10
-59.419034
20
239.357286
30
0.0
11
-61.859572
21
243.285368
31
0.0
0
LINE
8
refAndJunk
62
4
5
1fe
100
AcDbEntity
100
AcDbLine
10
-61.859572
20
243.285368
30
0.0
11
-64.041122
21
247.362977
31
0.0
0
LINE
8
refAndJunk
62
4
5
1ff
100
AcDbEntity
100
AcDbLine
10
-64.041122
20
247.362977
30
0.0
11
-65.956172
21
251.577101
31
0.0
0
LINE
8
refAndJunk
62
4
5
200
100
AcDbEntity
100
AcDbLine
10
-65.956172
20
251.577101
30
0.0
11
-67.597210
21
255.914729
31
0.0
0
LINE
8
refAndJunk
62
4
5
201
100
AcDbEntity
100
AcDbLine
10
-67.597210
20
255.914729
30
0.0
11
-68.956723
21
260.362848
31
0.0
0
LINE
8
refAndJunk
62
4
5
202
100
AcDbEntity
100
AcDbLine
10
-68.956723
20
260.362848
30
0.0
11
-70.027199
21
264.908447
31
0.0
0
LINE
8
refAndJunk
62
4
5
203
100
AcDbEntity
100
AcDbLine
10
-70.027199
20
264.908447
30
0.0
11
-70.801125
21
269.538515
31
0.0
0
LINE
8
refAndJunk
62
4
5
204
100
AcDbEntity
100
AcDbLine
10
-70.801125
20
269.538515
30
0.0
11
-71.270990
21
274.240039
31
0.0
0
LINE
8
refAndJunk
62
4
5
205
100
AcDbEntity
100
AcDbLine
10
-71.270990
20
274.240039
30
0.0
11
-71.429281
21
279.000008
31
0.0
0
LINE
8
refAndJunk
62
4
5
206
100
AcDbEntity
100
AcDbLine
10
-71.429281
20
279.000008
30
0.0
11
-71.270990
21
283.759978
31
0.0
0
LINE
8
refAndJunk
62
4
5
207
100
AcDbEntity
100
AcDbLine
10
-71.270990
20
283.759978
30
0.0
11
-70.801125
21
288.461502
31
0.0
0
LINE
8
refAndJunk
62
4
5
208
100
AcDbEntity
100
AcDbLine
10
-70.801125
20
288.461502
30
0.0
11
-70.027199
21
293.091569
31
0.0
0
LINE
8
refAndJunk
62
4
5
209
100
AcDbEntity
100
AcDbLine
10
-70.027199
20
293.091569
30
0.0
11
-68.956723
21
297.637169
31
0.0
0
LINE
8
refAndJunk
62
4
5
20a
100
AcDbEntity
100
AcDbLine
10
-68.956723
20
297.637169
30
0.0
11
-67.597210
21
302.085288
31
0.0
0
LINE
8
refAndJunk
62
4
5
20b
100
AcDbEntity
100
AcDbLine
10
-67.597210
20
302.085288
30
0.0
11
-65.956172
21
306.422915
31
0.0
0
LINE
8
refAndJunk
62
4
5
20c
100
AcDbEntity
100
AcDbLine
10
-65.956172
20
306.422915
30
0.0
11
-64.041122
21
310.637039
31
0.0
0
LINE
8
refAndJunk
62
4
5
20d
100
AcDbEntity
100
AcDbLine
10
-64.041122
20
310.637039
30
0.0
11
-61.859572
21
314.714649
31
0.0
0
LINE
8
refAndJunk
62
4
5
20e
100
AcDbEntity
100
AcDbLine
10
-61.859572
20
314.714649
30
0.0
11
-59.419034
21
318.642731
31
0.0
0
LINE
8
refAndJunk
62
4
5
20f
100
AcDbEntity
100
AcDbLine
10
-59.419034
20
318.642731
30
0.0
11
-56.727021
21
322.408275
31
0.0
0
LINE
8
refAndJunk
62
4
5
210
100
AcDbEntity
100
AcDbLine
10
-56.727021
20
322.408275
30
0.0
11
-53.791044
21
325.998269
31
0.0
0
LINE
8
refAndJunk
62
4
5
211
100
AcDbEntity
100
AcDbLine
10
-53.791044
20
325.998269
30
0.0
11
-50.618616
21
329.399701
31
0.0
0
LINE
8
refAndJunk
62
4
5
212
100
AcDbEntity
100
AcDbLine
10
-50.618616
20
329.399701
30
0.0
11
-47.217249
21
332.599560
31
0.0
0
LINE
8
refAndJunk
62
4
5
213
100
AcDbEntity
100
AcDbLine
10
-47.217249
20
332.599560
30
0.0
11
-43.594457
21
335.584834
31
0.0
0
LINE
8
refAndJunk
62
4
5
214
100
AcDbEntity
100
AcDbLine
10
-43.594457
20
335.584834
30
0.0
11
-39.757750
21
338.342511
31
0.0
0
LINE
8
refAndJunk
62
4
5
215
100
AcDbEntity
100
AcDbLine
10
-39.757750
20
338.342511
30
0.0
11
-35.714641
21
340.859580
31
0.0
0
LINE
8
refAndJunk
62
4
5
216
100
AcDbEntity
100
AcDbLine
10
-35.714641
20
340.859580
30
0.0
11
-31.513241
21
343.102480
31
0.0
0
LINE
8
refAndJunk
62
4
5
217
100
AcDbEntity
100
AcDbLine
10
-31.513241
20
343.102480
30
0.0
11
-27.206669
21
345.046328
31
0.0
0
LINE
8
refAndJunk
62
4
5
218
100
AcDbEntity
100
AcDbLine
10
-27.206669
20
345.046328
30
0.0
11
-22.809950
21
346.691121
31
0.0
0
LINE
8
refAndJunk
62
4
5
219
100
AcDbEntity
100
AcDbLine
10
-22.809950
20
346.691121
30
0.0
11
-18.338107
21
348.036862
31
0.0
0
LINE
8
refAndJunk
62
4
5
21a
100
AcDbEntity
100
AcDbLine
10
-18.338107
20
348.036862
30
0.0
11
-13.806167
21
349.083548
31
0.0
0
LINE
8
refAndJunk
62
4
5
21b
100
AcDbEntity
100
AcDbLine
10
-13.806167
20
349.083548
30
0.0
11
-9.229152
21
349.831182
31
0.0
0
LINE
8
refAndJunk
62
4
5
21c
100
AcDbEntity
100
AcDbLine
10
-9.229152
20
349.831182
30
0.0
11
-4.622089
21
350.279762
31
0.0
0
LINE
8
refAndJunk
62
4
5
21d
100
AcDbEntity
100
AcDbLine
10
-4.622089
20
350.279762
30
0.0
11
-0.000001
21
350.429289
31
0.0
0
LINE
8
refAndJunk
62
4
5
21e
100
AcDbEntity
100
AcDbLine
10
-0.000001
20
350.429289
30
0.0
11
4.622088
21
350.279762
31
0.0
0
LINE
8
refAndJunk
62
4
5
21f
100
AcDbEntity
100
AcDbLine
10
4.622088
20
350.279762
30
0.0
11
9.229151
21
349.831182
31
0.0
0
LINE
8
refAndJunk
62
4
5
220
100
AcDbEntity
100
AcDbLine
10
9.229151
20
349.831182
30
0.0
11
13.806166
21
349.083548
31
0.0
0
LINE
8
refAndJunk
62
4
5
221
100
AcDbEntity
100
AcDbLine
10
13.806166
20
349.083548
30
0.0
11
18.338106
21
348.036862
31
0.0
0
LINE
8
refAndJunk
62
4
5
222
100
AcDbEntity
100
AcDbLine
10
18.338106
20
348.036862
30
0.0
11
22.809949
21
346.691121
31
0.0
0
LINE
8
refAndJunk
62
4
5
223
100
AcDbEntity
100
AcDbLine
10
22.809949
20
346.691121
30
0.0
11
27.206668
21
345.046328
31
0.0
0
LINE
8
refAndJunk
62
4
5
224
100
AcDbEntity
100
AcDbLine
10
27.206668
20
345.046328
30
0.0
11
31.513240
21
343.102480
31
0.0
0
LINE
8
refAndJunk
62
4
5
225
100
AcDbEntity
100
AcDbLine
10
31.513240
20
343.102480
30
0.0
11
35.714640
21
340.859580
31
0.0
0
LINE
8
refAndJunk
62
4
5
226
100
AcDbEntity
100
AcDbLine
10
35.714640
20
340.859580
30
0.0
11
39.757748
21
338.342511
31
0.0
0
LINE
8
refAndJunk
62
4
5
227
100
AcDbEntity
100
AcDbLine
10
39.757748
20
338.342511
30
0.0
11
43.594455
21
335.584834
31
0.0
0
LINE
8
refAndJunk
62
4
5
228
100
AcDbEntity
100
AcDbLine
10
43.594455
20
335.584834
30
0.0
11
47.217248
21
332.599560
31
0.0
0
LINE
8
refAndJunk
62
4
5
229
100
AcDbEntity
100
AcDbLine
10
47.217248
20
332.599560
30
0.0
11
50.618615
21
329.399701
31
0.0
0
LINE
8
refAndJunk
62
4
5
22a
100
AcDbEntity
100
AcDbLine
10
50.618615
20
329.399701
30
0.0
11
53.791042
21
325.998269
31
0.0
0
LINE
8
refAndJunk
62
4
5
22b
100
AcDbEntity
100
AcDbLine
10
53.791042
20
325.998269
30
0.0
11
56.727019
21
322.408275
31
0.0
0
LINE
8
refAndJunk
62
4
5
22c
100
AcDbEntity
100
AcDbLine
10
56.727019
20
322.408275
30
0.0
11
59.419033
21
318.642731
31
0.0
0
LINE
8
refAndJunk
62
4
5
22d
100
AcDbEntity
100
AcDbLine
10
59.419033
20
318.642731
30
0.0
11
61.859571
21
314.714649
31
0.0
0
LINE
8
refAndJunk
62
4
5
22e
100
AcDbEntity
100
AcDbLine
10
61.859571
20
314.714649
30
0.0
11
64.041121
21
310.637039
31
0.0
0
LINE
8
refAndJunk
62
4
5
22f
100
AcDbEntity
100
AcDbLine
10
64.041121
20
310.637039
30
0.0
11
65.956171
21
306.422915
31
0.0
0
LINE
8
refAndJunk
62
4
5
230
100
AcDbEntity
100
AcDbLine
10
65.956171
20
306.422915
30
0.0
11
67.597209
21
302.085288
31
0.0
0
LINE
8
refAndJunk
62
4
5
231
100
AcDbEntity
100
AcDbLine
10
67.597209
20
302.085288
30
0.0
11
68.956722
21
297.637169
31
0.0
0
LINE
8
refAndJunk
62
4
5
232
100
AcDbEntity
100
AcDbLine
10
68.956722
20
297.637169
30
0.0
11
70.027197
21
293.091569
31
0.0
0
LINE
8
refAndJunk
62
4
5
233
100
AcDbEntity
100
AcDbLine
10
70.027197
20
293.091569
30
0.0
11
70.801124
21
288.461502
31
0.0
0
LINE
8
refAndJunk
62
4
5
234
100
AcDbEntity
100
AcDbLine
10
70.801124
20
288.461502
30
0.0
11
71.270989
21
283.759978
31
0.0
0
LINE
8
refAndJunk
62
4
5
235
100
AcDbEntity
100
AcDbLine
10
71.270989
20
283.759978
30
0.0
11
71.429280
21
279.000008
31
0.0
0
LINE
8
refAndJunk
62
4
5
236
100
AcDbEntity
100
AcDbLine
10
71.429280
20
279.000008
30
0.0
11
71.429280
21
279.000008
31
0.0
0
LINE
8
refAndJunk
62
4
5
237
100
AcDbEntity
100
AcDbLine
10
53.186171
20
279.000008
30
0.0
11
53.068308
21
275.455739
31
0.0
0
LINE
8
refAndJunk
62
4
5
238
100
AcDbEntity
100
AcDbLine
10
53.068308
20
275.455739
30
0.0
11
52.718447
21
271.954989
31
0.0
0
LINE
8
refAndJunk
62
4
5
239
100
AcDbEntity
100
AcDbLine
10
52.718447
20
271.954989
30
0.0
11
52.142182
21
268.507445
31
0.0
0
LINE
8
refAndJunk
62
4
5
23a
100
AcDbEntity
100
AcDbLine
10
52.142182
20
268.507445
30
0.0
11
51.345106
21
265.122796
31
0.0
0
LINE
8
refAndJunk
62
4
5
23b
100
AcDbEntity
100
AcDbLine
10
51.345106
20
265.122796
30
0.0
11
50.332814
21
261.810731
31
0.0
0
LINE
8
refAndJunk
62
4
5
23c
100
AcDbEntity
100
AcDbLine
10
50.332814
20
261.810731
30
0.0
11
49.110900
21
258.580938
31
0.0
0
LINE
8
refAndJunk
62
4
5
23d
100
AcDbEntity
100
AcDbLine
10
49.110900
20
258.580938
30
0.0
11
47.684955
21
255.443105
31
0.0
0
LINE
8
refAndJunk
62
4
5
23e
100
AcDbEntity
100
AcDbLine
10
47.684955
20
255.443105
30
0.0
11
46.060575
21
252.406922
31
0.0
0
LINE
8
refAndJunk
62
4
5
23f
100
AcDbEntity
100
AcDbLine
10
46.060575
20
252.406922
30
0.0
11
44.243353
21
249.482075
31
0.0
0
LINE
8
refAndJunk
62
4
5
240
100
AcDbEntity
100
AcDbLine
10
44.243353
20
249.482075
30
0.0
11
42.238882
21
246.678255
31
0.0
0
LINE
8
refAndJunk
62
4
5
241
100
AcDbEntity
100
AcDbLine
10
42.238882
20
246.678255
30
0.0
11
40.052757
21
244.005149
31
0.0
0
LINE
8
refAndJunk
62
4
5
242
100
AcDbEntity
100
AcDbLine
10
40.052757
20
244.005149
30
0.0
11
37.690570
21
241.472446
31
0.0
0
LINE
8
refAndJunk
62
4
5
243
100
AcDbEntity
100
AcDbLine
10
37.690570
20
241.472446
30
0.0
11
35.157916
21
239.089834
31
0.0
0
LINE
8
refAndJunk
62
4
5
244
100
AcDbEntity
100
AcDbLine
10
35.157916
20
239.089834
30
0.0
11
32.460388
21
236.867002
31
0.0
0
LINE
8
refAndJunk
62
4
5
245
100
AcDbEntity
100
AcDbLine
10
32.460388
20
236.867002
30
0.0
11
29.603580
21
234.813639
31
0.0
0
LINE
8
refAndJunk
62
4
5
246
100
AcDbEntity
100
AcDbLine
10
29.603580
20
234.813639
30
0.0
11
26.593085
21
232.939432
31
0.0
0
LINE
8
refAndJunk
62
4
5
247
100
AcDbEntity
100
AcDbLine
10
26.593085
20
232.939432
30
0.0
11
23.464727
21
231.269370
31
0.0
0
LINE
8
refAndJunk
62
4
5
248
100
AcDbEntity
100
AcDbLine
10
23.464727
20
231.269370
30
0.0
11
20.258058
21
229.821984
31
0.0
0
LINE
8
refAndJunk
62
4
5
249
100
AcDbEntity
100
AcDbLine
10
20.258058
20
229.821984
30
0.0
11
16.984265
21
228.597272
31
0.0
0
LINE
8
refAndJunk
62
4
5
24a
100
AcDbEntity
100
AcDbLine
10
16.984265
20
228.597272
30
0.0
11
13.654536
21
227.595235
31
0.0
0
LINE
8
refAndJunk
62
4
5
24b
100
AcDbEntity
100
AcDbLine
10
13.654536
20
227.595235
30
0.0
11
10.280057
21
226.815873
31
0.0
0
LINE
8
refAndJunk
62
4
5
24c
100
AcDbEntity
100
AcDbLine
10
10.280057
20
226.815873
30
0.0
11
6.872017
21
226.259186
31
0.0
0
LINE
8
refAndJunk
62
4
5
24d
100
AcDbEntity
100
AcDbLine
10
6.872017
20
226.259186
30
0.0
11
3.441602
21
225.925173
31
0.0
0
LINE
8
refAndJunk
62
4
5
24e
100
AcDbEntity
100
AcDbLine
10
3.441602
20
225.925173
30
0.0
11
-0.000001
21
225.813836
31
0.0
0
LINE
8
refAndJunk
62
4
5
24f
100
AcDbEntity
100
AcDbLine
10
-0.000001
20
225.813836
30
0.0
11
-3.441603
21
225.925173
31
0.0
0
LINE
8
refAndJunk
62
4
5
250
100
AcDbEntity
100
AcDbLine
10
-3.441603
20
225.925173
30
0.0
11
-6.872018
21
226.259186
31
0.0
0
LINE
8
refAndJunk
62
4
5
251
100
AcDbEntity
100
AcDbLine
10
-6.872018
20
226.259186
30
0.0
11
-10.280058
21
226.815873
31
0.0
0
LINE
8
refAndJunk
62
4
5
252
100
AcDbEntity
100
AcDbLine
10
-10.280058
20
226.815873
30
0.0
11
-13.654537
21
227.595235
31
0.0
0
LINE
8
refAndJunk
62
4
5
253
100
AcDbEntity
100
AcDbLine
10
-13.654537
20
227.595235
30
0.0
11
-16.984266
21
228.597272
31
0.0
0
LINE
8
refAndJunk
62
4
5
254
100
AcDbEntity
100
AcDbLine
10
-16.984266
20
228.597272
30
0.0
11
-20.258059
21
229.821984
31
0.0
0
LINE
8
refAndJunk
62
4
5
255
100
AcDbEntity
100
AcDbLine
10
-20.258059
20
229.821984
30
0.0
11
-23.464728
21
231.269370
31
0.0
0
LINE
8
refAndJunk
62
4
5
256
100
AcDbEntity
100
AcDbLine
10
-23.464728
20
231.269370
30
0.0
11
-26.593086
21
232.939432
31
0.0
0
LINE
8
refAndJunk
62
4
5
257
100
AcDbEntity
100
AcDbLine
10
-26.593086
20
232.939432
30
0.0
11
-29.603581
21
234.813639
31
0.0
0
LINE
8
refAndJunk
62
4
5
258
100
AcDbEntity
100
AcDbLine
10
-29.603581
20
234.813639
30
0.0
11
-32.460389
21
236.867002
31
0.0
0
LINE
8
refAndJunk
62
4
5
259
100
AcDbEntity
100
AcDbLine
10
-32.460389
20
236.867002
30
0.0
11
-35.157917
21
239.089834
31
0.0
0
LINE
8
refAndJunk
62
4
5
25a
100
AcDbEntity
100
AcDbLine
10
-35.157917
20
239.089834
30
0.0
11
-37.690571
21
241.472446
31
0.0
0
LINE
8
refAndJunk
62
4
5
25b
100
AcDbEntity
100
AcDbLine
10
-37.690571
20
241.472446
30
0.0
11
-40.052758
21
244.005149
31
0.0
0
LINE
8
refAndJunk
62
4
5
25c
100
AcDbEntity
100
AcDbLine
10
-40.052758
20
244.005149
30
0.0
11
-42.238884
21
246.678255
31
0.0
0
LINE
8
refAndJunk
62
4
5
25d
100
AcDbEntity
100
AcDbLine
10
-42.238884
20
246.678255
30
0.0
11
-44.243354
21
249.482075
31
0.0
0
LINE
8
refAndJunk
62
4
5
25e
100
AcDbEntity
100
AcDbLine
10
-44.243354
20
249.482075
30
0.0
11
-46.060576
21
252.406922
31
0.0
0
LINE
8
refAndJunk
62
4
5
25f
100
AcDbEntity
100
AcDbLine
10
-46.060576
20
252.406922
30
0.0
11
-47.684956
21
255.443105
31
0.0
0
LINE
8
refAndJunk
62
4
5
260
100
AcDbEntity
100
AcDbLine
10
-47.684956
20
255.443105
30
0.0
11
-49.110901
21
258.580938
31
0.0
0
LINE
8
refAndJunk
62
4
5
261
100
AcDbEntity
100
AcDbLine
10
-49.110901
20
258.580938
30
0.0
11
-50.332816
21
261.810731
31
0.0
0
LINE
8
refAndJunk
62
4
5
262
100
AcDbEntity
100
AcDbLine
10
-50.332816
20
261.810731
30
0.0
11
-51.345108
21
265.122796
31
0.0
0
LINE
8
refAndJunk
62
4
5
263
100
AcDbEntity
100
AcDbLine
10
-51.345108
20
265.122796
30
0.0
11
-52.142183
21
268.507445
31
0.0
0
LINE
8
refAndJunk
62
4
5
264
100
AcDbEntity
100
AcDbLine
10
-52.142183
20
268.507445
30
0.0
11
-52.718448
21
271.954989
31
0.0
0
LINE
8
refAndJunk
62
4
5
265
100
AcDbEntity
100
AcDbLine
10
-52.718448
20
271.954989
30
0.0
11
-53.068309
21
275.455739
31
0.0
0
LINE
8
refAndJunk
62
4
5
266
100
AcDbEntity
100
AcDbLine
10
-53.068309
20
275.455739
30
0.0
11
-53.186172
21
279.000008
31
0.0
0
LINE
8
refAndJunk
62
4
5
267
100
AcDbEntity
100
AcDbLine
10
-53.186172
20
279.000008
30
0.0
11
-53.068309
21
282.544276
31
0.0
0
LINE
8
refAndJunk
62
4
5
268
100
AcDbEntity
100
AcDbLine
10
-53.068309
20
282.544276
30
0.0
11
-52.718448
21
286.045026
31
0.0
0
LINE
8
refAndJunk
62
4
5
269
100
AcDbEntity
100
AcDbLine
10
-52.718448
20
286.045026
30
0.0
11
-52.142183
21
289.492570
31
0.0
0
LINE
8
refAndJunk
62
4
5
26a
100
AcDbEntity
100
AcDbLine
10
-52.142183
20
289.492570
30
0.0
11
-51.345108
21
292.877219
31
0.0
0
LINE
8
refAndJunk
62
4
5
26b
100
AcDbEntity
100
AcDbLine
10
-51.345108
20
292.877219
30
0.0
11
-50.332816
21
296.189284
31
0.0
0
LINE
8
refAndJunk
62
4
5
26c
100
AcDbEntity
100
AcDbLine
10
-50.332816
20
296.189284
30
0.0
11
-49.110901
21
299.419077
31
0.0
0
LINE
8
refAndJunk
62
4
5
26d
100
AcDbEntity
100
AcDbLine
10
-49.110901
20
299.419077
30
0.0
11
-47.684956
21
302.556910
31
0.0
0
LINE
8
refAndJunk
62
4
5
26e
100
AcDbEntity
100
AcDbLine
10
-47.684956
20
302.556910
30
0.0
11
-46.060576
21
305.593093
31
0.0
0
LINE
8
refAndJunk
62
4
5
26f
100
AcDbEntity
100
AcDbLine
10
-46.060576
20
305.593093
30
0.0
11
-44.243354
21
308.517940
31
0.0
0
LINE
8
refAndJunk
62
4
5
270
100
AcDbEntity
100
AcDbLine
10
-44.243354
20
308.517940
30
0.0
11
-42.238884
21
311.321760
31
0.0
0
LINE
8
refAndJunk
62
4
5
271
100
AcDbEntity
100
AcDbLine
10
-42.238884
20
311.321760
30
0.0
11
-40.052758
21
313.994866
31
0.0
0
LINE
8
refAndJunk
62
4
5
272
100
AcDbEntity
100
AcDbLine
10
-40.052758
20
313.994866
30
0.0
11
-37.690571
21
316.527569
31
0.0
0
LINE
8
refAndJunk
62
4
5
273
100
AcDbEntity
100
AcDbLine
10
-37.690571
20
316.527569
30
0.0
11
-35.157917
21
318.910181
31
0.0
0
LINE
8
refAndJunk
62
4
5
274
100
AcDbEntity
100
AcDbLine
10
-35.157917
20
318.910181
30
0.0
11
-32.460389
21
321.133013
31
0.0
0
LINE
8
refAndJunk
62
4
5
275
100
AcDbEntity
100
AcDbLine
10
-32.460389
20
321.133013
30
0.0
11
-29.603581
21
323.186376
31
0.0
0
LINE
8
refAndJunk
62
4
5
276
100
AcDbEntity
100
AcDbLine
10
-29.603581
20
323.186376
30
0.0
11
-26.593086
21
325.060583
31
0.0
0
LINE
8
refAndJunk
62
4
5
277
100
AcDbEntity
100
AcDbLine
10
-26.593086
20
325.060583
30
0.0
11
-23.464728
21
326.730645
31
0.0
0
LINE
8
refAndJunk
62
4
5
278
100
AcDbEntity
100
AcDbLine
10
-23.464728
20
326.730645
30
0.0
11
-20.258059
21
328.178031
31
0.0
0
LINE
8
refAndJunk
62
4
5
279
100
AcDbEntity
100
AcDbLine
10
-20.258059
20
328.178031
30
0.0
11
-16.984266
21
329.402743
31
0.0
0
LINE
8
refAndJunk
62
4
5
27a
100
AcDbEntity
100
AcDbLine
10
-16.984266
20
329.402743
30
0.0
11
-13.654537
21
330.404780
31
0.0
0
LINE
8
refAndJunk
62
4
5
27b
100
AcDbEntity
100
AcDbLine
10
-13.654537
20
330.404780
30
0.0
11
-10.280058
21
331.184142
31
0.0
0
LINE
8
refAndJunk
62
4
5
27c
100
AcDbEntity
100
AcDbLine
10
-10.280058
20
331.184142
30
0.0
11
-6.872018
21
331.740829
31
0.0
0
LINE
8
refAndJunk
62
4
5
27d
100
AcDbEntity
100
AcDbLine
10
-6.872018
20
331.740829
30
0.0
11
-3.441603
21
332.074842
31
0.0
0
LINE
8
refAndJunk
62
4
5
27e
100
AcDbEntity
100
AcDbLine
10
-3.441603
20
332.074842
30
0.0
11
-0.000001
21
332.186179
31
0.0
0
LINE
8
refAndJunk
62
4
5
27f
100
AcDbEntity
100
AcDbLine
10
-0.000001
20
332.186179
30
0.0
11
3.441602
21
332.074842
31
0.0
0
LINE
8
refAndJunk
62
4
5
280
100
AcDbEntity
100
AcDbLine
10
3.441602
20
332.074842
30
0.0
11
6.872017
21
331.740829
31
0.0
0
LINE
8
refAndJunk
62
4
5
281
100
AcDbEntity
100
AcDbLine
10
6.872017
20
331.740829
30
0.0
11
10.280057
21
331.184142
31
0.0
0
LINE
8
refAndJunk
62
4
5
282
100
AcDbEntity
100
AcDbLine
10
10.280057
20
331.184142
30
0.0
11
13.654536
21
330.404780
31
0.0
0
LINE
8
refAndJunk
62
4
5
283
100
AcDbEntity
100
AcDbLine
10
13.654536
20
330.404780
30
0.0
11
16.984265
21
329.402743
31
0.0
0
LINE
8
refAndJunk
62
4
5
284
100
AcDbEntity
100
AcDbLine
10
16.984265
20
329.402743
30
0.0
11
20.258058
21
328.178031
31
0.0
0
LINE
8
refAndJunk
62
4
5
285
100
AcDbEntity
100
AcDbLine
10
20.258058
20
328.178031
30
0.0
11
23.464727
21
326.730645
31
0.0
0
LINE
8
refAndJunk
62
4
5
286
100
AcDbEntity
100
AcDbLine
10
23.464727
20
326.730645
30
0.0
11
26.593085
21
325.060583
31
0.0
0
LINE
8
refAndJunk
62
4
5
287
100
AcDbEntity
100
AcDbLine
10
26.593085
20
325.060583
30
0.0
11
29.603580
21
323.186376
31
0.0
0
LINE
8
refAndJunk
62
4
5
288
100
AcDbEntity
100
AcDbLine
10
29.603580
20
323.186376
30
0.0
11
32.460388
21
321.133013
31
0.0
0
LINE
8
refAndJunk
62
4
5
289
100
AcDbEntity
100
AcDbLine
10
32.460388
20
321.133013
30
0.0
11
35.157916
21
318.910181
31
0.0
0
LINE
8
refAndJunk
62
4
5
28a
100
AcDbEntity
100
AcDbLine
10
35.157916
20
318.910181
30
0.0
11
37.690570
21
316.527569
31
0.0
0
LINE
8
refAndJunk
62
4
5
28b
100
AcDbEntity
100
AcDbLine
10
37.690570
20
316.527569
30
0.0
11
40.052757
21
313.994866
31
0.0
0
LINE
8
refAndJunk
62
4
5
28c
100
AcDbEntity
100
AcDbLine
10
40.052757
20
313.994866
30
0.0
11
42.238882
21
311.321760
31
0.0
0
LINE
8
refAndJunk
62
4
5
28d
100
AcDbEntity
100
AcDbLine
10
42.238882
20
311.321760
30
0.0
11
44.243353
21
308.517940
31
0.0
0
LINE
8
refAndJunk
62
4
5
28e
100
AcDbEntity
100
AcDbLine
10
44.243353
20
308.517940
30
0.0
11
46.060575
21
305.593093
31
0.0
0
LINE
8
refAndJunk
62
4
5
28f
100
AcDbEntity
100
AcDbLine
10
46.060575
20
305.593093
30
0.0
11
47.684955
21
302.556910
31
0.0
0
LINE
8
refAndJunk
62
4
5
290
100
AcDbEntity
100
AcDbLine
10
47.684955
20
302.556910
30
0.0
11
49.110900
21
299.419077
31
0.0
0
LINE
8
refAndJunk
62
4
5
291
100
AcDbEntity
100
AcDbLine
10
49.110900
20
299.419077
30
0.0
11
50.332814
21
296.189284
31
0.0
0
LINE
8
refAndJunk
62
4
5
292
100
AcDbEntity
100
AcDbLine
10
50.332814
20
296.189284
30
0.0
11
51.345106
21
292.877219
31
0.0
0
LINE
8
refAndJunk
62
4
5
293
100
AcDbEntity
100
AcDbLine
10
51.345106
20
292.877219
30
0.0
11
52.142182
21
289.492570
31
0.0
0
LINE
8
refAndJunk
62
4
5
294
100
AcDbEntity
100
AcDbLine
10
52.142182
20
289.492570
30
0.0
11
52.718447
21
286.045026
31
0.0
0
LINE
8
refAndJunk
62
4
5
295
100
AcDbEntity
100
AcDbLine
10
52.718447
20
286.045026
30
0.0
11
53.068308
21
282.544276
31
0.0
0
LINE
8
refAndJunk
62
4
5
296
100
AcDbEntity
100
AcDbLine
10
53.068308
20
282.544276
30
0.0
11
53.186171
21
279.000008
31
0.0
0
LINE
8
refAndJunk
62
4
5
297
100
AcDbEntity
100
AcDbLine
10
53.186171
20
279.000008
30
0.0
11
53.186171
21
279.000008
31
0.0
0
LINE
8
guideVane
62
4
5
298
100
AcDbEntity
100
AcDbLine
10
56.547131
20
235.344937
30
0.0
11
57.011480
21
239.255606
31
0.0
0
LINE
8
guideVane
62
4
5
299
100
AcDbEntity
100
AcDbLine
10
57.011480
20
239.255606
30
0.0
11
57.368705
21
243.142489
31
0.0
0
LINE
8
guideVane
62
4
5
29a
100
AcDbEntity
100
AcDbLine
10
57.368705
20
243.142489
30
0.0
11
57.619623
21
247.002473
31
0.0
0
LINE
8
guideVane
62
4
5
29b
100
AcDbEntity
100
AcDbLine
10
57.619623
20
247.002473
30
0.0
11
57.765044
21
250.832438
31
0.0
0
LINE
8
guideVane
62
4
5
29c
100
AcDbEntity
100
AcDbLine
10
57.765044
20
250.832438
30
0.0
11
57.805772
21
254.629267
31
0.0
0
LINE
8
guideVane
62
4
5
29d
100
AcDbEntity
100
AcDbLine
10
57.805772
20
254.629267
30
0.0
11
57.742616
21
258.389844
31
0.0
0
LINE
8
guideVane
62
4
5
29e
100
AcDbEntity
100
AcDbLine
10
57.742616
20
258.389844
30
0.0
11
57.576393
21
262.111051
31
0.0
0
LINE
8
guideVane
62
4
5
29f
100
AcDbEntity
100
AcDbLine
10
57.576393
20
262.111051
30
0.0
11
57.307906
21
265.789770
31
0.0
0
LINE
8
guideVane
62
4
5
2a0
100
AcDbEntity
100
AcDbLine
10
57.307906
20
265.789770
30
0.0
11
56.937966
21
269.422883
31
0.0
0
LINE
8
guideVane
62
4
5
2a1
100
AcDbEntity
100
AcDbLine
10
56.937966
20
269.422883
30
0.0
11
56.467386
21
273.007275
31
0.0
0
LINE
8
guideVane
62
4
5
2a2
100
AcDbEntity
100
AcDbLine
10
56.467386
20
273.007275
30
0.0
11
55.896973
21
276.539827
31
0.0
0
LINE
8
guideVane
62
4
5
2a3
100
AcDbEntity
100
AcDbLine
10
55.896973
20
276.539827
30
0.0
11
55.227536
21
280.017423
31
0.0
0
LINE
8
guideVane
62
4
5
2a4
100
AcDbEntity
100
AcDbLine
10
55.227536
20
280.017423
30
0.0
11
54.459886
21
283.436946
31
0.0
0
LINE
8
guideVane
62
4
5
2a5
100
AcDbEntity
100
AcDbLine
10
54.459886
20
283.436946
30
0.0
11
53.594830
21
286.795277
31
0.0
0
LINE
8
guideVane
62
4
5
2a6
100
AcDbEntity
100
AcDbLine
10
53.594830
20
286.795277
30
0.0
11
52.633180
21
290.089301
31
0.0
0
LINE
8
guideVane
62
4
5
2a7
100
AcDbEntity
100
AcDbLine
10
52.633180
20
290.089301
30
0.0
11
51.575747
21
293.315898
31
0.0
0
LINE
8
guideVane
62
4
5
2a8
100
AcDbEntity
100
AcDbLine
10
51.575747
20
293.315898
30
0.0
11
53.484072
21
291.877867
31
0.0
0
LINE
8
guideVane
62
4
5
2a9
100
AcDbEntity
100
AcDbLine
10
53.484072
20
291.877867
30
0.0
11
55.209937
21
290.363944
31
0.0
0
LINE
8
guideVane
62
4
5
2aa
100
AcDbEntity
100
AcDbLine
10
55.209937
20
290.363944
30
0.0
11
56.760282
21
288.779308
31
0.0
0
LINE
8
guideVane
62
4
5
2ab
100
AcDbEntity
100
AcDbLine
10
56.760282
20
288.779308
30
0.0
11
58.142045
21
287.129139
31
0.0
0
LINE
8
guideVane
62
4
5
2ac
100
AcDbEntity
100
AcDbLine
10
58.142045
20
287.129139
30
0.0
11
59.362159
21
285.418615
31
0.0
0
LINE
8
guideVane
62
4
5
2ad
100
AcDbEntity
100
AcDbLine
10
59.362159
20
285.418615
30
0.0
11
60.427560
21
283.652916
31
0.0
0
LINE
8
guideVane
62
4
5
2ae
100
AcDbEntity
100
AcDbLine
10
60.427560
20
283.652916
30
0.0
11
61.345188
21
281.837221
31
0.0
0
LINE
8
guideVane
62
4
5
2af
100
AcDbEntity
100
AcDbLine
10
61.345188
20
281.837221
30
0.0
11
62.121974
21
279.976709
31
0.0
0
LINE
8
guideVane
62
4
5
2b0
100
AcDbEntity
100
AcDbLine
10
62.121974
20
279.976709
30
0.0
11
62.764856
21
278.076559
31
0.0
0
LINE
8
guideVane
62
4
5
2b1
100
AcDbEntity
100
AcDbLine
10
62.764856
20
278.076559
30
0.0
11
63.280773
21
276.141950
31
0.0
0
LINE
8
guideVane
62
4
5
2b2
100
AcDbEntity
100
AcDbLine
10
63.280773
20
276.141950
30
0.0
11
63.676660
21
274.178061
31
0.0
0
LINE
8
guideVane
62
4
5
2b3
100
AcDbEntity
100
AcDbLine
10
63.676660
20
274.178061
30
0.0
11
63.959449
21
272.190072
31
0.0
0
LINE
8
guideVane
62
4
5
2b4
100
AcDbEntity
100
AcDbLine
10
63.959449
20
272.190072
30
0.0
11
64.136084
21
270.183161
31
0.0
0
LINE
8
guideVane
62
4
5
2b5
100
AcDbEntity
100
AcDbLine
10
64.136084
20
270.183161
30
0.0
11
64.213492
21
268.162508
31
0.0
0
LINE
8
guideVane
62
4
5
2b6
100
AcDbEntity
100
AcDbLine
10
64.213492
20
268.162508
30
0.0
11
64.198619
21
266.133291
31
0.0
0
LINE
8
guideVane
62
4
5
2b7
100
AcDbEntity
100
AcDbLine
10
64.198619
20
266.133291
30
0.0
11
64.098393
21
264.100690
31
0.0
0
LINE
8
guideVane
62
4
5
2b8
100
AcDbEntity
100
AcDbLine
10
64.098393
20
264.100690
30
0.0
11
63.669638
21
260.046048
31
0.0
0
LINE
8
guideVane
62
4
5
2b9
100
AcDbEntity
100
AcDbLine
10
63.669638
20
260.046048
30
0.0
11
62.982715
21
256.040022
31
0.0
0
LINE
8
guideVane
62
4
5
2ba
100
AcDbEntity
100
AcDbLine
10
62.982715
20
256.040022
30
0.0
11
62.093119
21
252.124039
31
0.0
0
LINE
8
guideVane
62
4
5
2bb
100
AcDbEntity
100
AcDbLine
10
62.093119
20
252.124039
30
0.0
11
61.056334
21
248.339532
31
0.0
0
LINE
8
guideVane
62
4
5
2bc
100
AcDbEntity
100
AcDbLine
10
61.056334
20
248.339532
30
0.0
11
59.927854
21
244.727937
31
0.0
0
LINE
8
guideVane
62
4
5
2bd
100
AcDbEntity
100
AcDbLine
10
59.927854
20
244.727937
30
0.0
11
58.763168
21
241.330685
31
0.0
0
LINE
8
guideVane
62
4
5
2be
100
AcDbEntity
100
AcDbLine
10
58.763168
20
241.330685
30
0.0
11
56.547134
21
235.344937
31
0.0
0
LINE
8
guideVane
62
4
5
2bf
100
AcDbEntity
100
AcDbLine
10
56.547134
20
235.344937
30
0.0
11
56.547134
21
235.344937
31
0.0
0
LINE
8
stand
62
4
5
2c0
100
AcDbEntity
100
AcDbLine
10
31.499999
20
263.250001
30
0.0
11
31.834061
21
267.912549
31
0.0
0
LINE
8
stand
62
4
5
2c1
100
AcDbEntity
100
AcDbLine
10
31.834061
20
267.912549
30
0.0
11
32.206617
21
270.223504
31
0.0
0
LINE
8
stand
62
4
5
2c2
100
AcDbEntity
100
AcDbLine
10
32.206617
20
270.223504
30
0.0
11
32.749535
21
272.510077
31
0.0
0
LINE
8
stand
62
4
5
2c3
100
AcDbEntity
100
AcDbLine
10
32.749535
20
272.510077
30
0.0
11
33.487824
21
274.764141
31
0.0
0
LINE
8
stand
62
4
5
2c4
100
AcDbEntity
100
AcDbLine
10
33.487824
20
274.764141
30
0.0
11
34.446491
21
276.977567
31
0.0
0
LINE
8
stand
62
4
5
2c5
100
AcDbEntity
100
AcDbLine
10
34.446491
20
276.977567
30
0.0
11
35.650547
21
279.142230
31
0.0
0
LINE
8
stand
62
4
5
2c6
100
AcDbEntity
100
AcDbLine
10
35.650547
20
279.142230
30
0.0
11
37.124998
21
281.250000
31
0.0
0
LINE
8
stand
62
4
5
2c7
100
AcDbEntity
100
AcDbLine
10
37.124998
20
281.250000
30
0.0
11
89.999998
21
281.250000
31
0.0
0
LINE
8
stand
62
4
5
2c8
100
AcDbEntity
100
AcDbLine
10
89.999998
20
281.250000
30
0.0
11
91.666852
21
279.489541
31
0.0
0
LINE
8
stand
62
4
5
2c9
100
AcDbEntity
100
AcDbLine
10
91.666852
20
279.489541
30
0.0
11
93.304819
21
277.490224
31
0.0
0
LINE
8
stand
62
4
5
2ca
100
AcDbEntity
100
AcDbLine
10
93.304819
20
277.490224
30
0.0
11
96.491664
21
272.833429
31
0.0
0
LINE
8
stand
62
4
5
2cb
100
AcDbEntity
100
AcDbLine
10
96.491664
20
272.833429
30
0.0
11
99.555675
21
267.396444
31
0.0
0
LINE
8
stand
62
4
5
2cc
100
AcDbEntity
100
AcDbLine
10
99.555675
20
267.396444
30
0.0
11
102.491995
21
261.296096
31
0.0
0
LINE
8
stand
62
4
5
2cd
100
AcDbEntity
100
AcDbLine
10
102.491995
20
261.296096
30
0.0
11
105.295767
21
254.649214
31
0.0
0
LINE
8
stand
62
4
5
2ce
100
AcDbEntity
100
AcDbLine
10
105.295767
20
254.649214
30
0.0
11
107.962134
21
247.572625
31
0.0
0
LINE
8
stand
62
4
5
2cf
100
AcDbEntity
100
AcDbLine
10
107.962134
20
247.572625
30
0.0
11
110.486240
21
240.183157
31
0.0
0
LINE
8
stand
62
4
5
2d0
100
AcDbEntity
100
AcDbLine
10
110.486240
20
240.183157
30
0.0
11
112.863226
21
232.597638
31
0.0
0
LINE
8
stand
62
4
5
2d1
100
AcDbEntity
100
AcDbLine
10
112.863226
20
232.597638
30
0.0
11
117.156414
21
217.305759
31
0.0
0
LINE
8
stand
62
4
5
2d2
100
AcDbEntity
100
AcDbLine
10
117.156414
20
217.305759
30
0.0
11
120.802843
21
202.631611
31
0.0
0
LINE
8
stand
62
4
5
2d3
100
AcDbEntity
100
AcDbLine
10
120.802843
20
202.631611
30
0.0
11
123.763655
21
189.509818
31
0.0
0
LINE
8
stand
62
4
5
2d4
100
AcDbEntity
100
AcDbLine
10
123.763655
20
189.509818
30
0.0
11
125.999996
21
178.875003
31
0.0
0
LINE
8
stand
62
4
5
2d5
100
AcDbEntity
100
AcDbLine
10
125.999996
20
178.875003
30
0.0
11
126.287852
21
176.729656
31
0.0
0
LINE
8
stand
62
4
5
2d6
100
AcDbEntity
100
AcDbLine
10
126.287852
20
176.729656
30
0.0
11
126.249382
21
174.808529
31
0.0
0
LINE
8
stand
62
4
5
2d7
100
AcDbEntity
100
AcDbLine
10
126.249382
20
174.808529
30
0.0
11
125.918399
21
173.118059
31
0.0
0
LINE
8
stand
62
4
5
2d8
100
AcDbEntity
100
AcDbLine
10
125.918399
20
173.118059
30
0.0
11
125.328714
21
171.664686
31
0.0
0
LINE
8
stand
62
4
5
2d9
100
AcDbEntity
100
AcDbLine
10
125.328714
20
171.664686
30
0.0
11
124.514137
21
170.454849
31
0.0
0
LINE
8
stand
62
4
5
2da
100
AcDbEntity
100
AcDbLine
10
124.514137
20
170.454849
30
0.0
11
123.508480
21
169.494986
31
0.0
0
LINE
8
stand
62
4
5
2db
100
AcDbEntity
100
AcDbLine
10
123.508480
20
169.494986
30
0.0
11
122.345554
21
168.791537
31
0.0
0
LINE
8
stand
62
4
5
2dc
100
AcDbEntity
100
AcDbLine
10
122.345554
20
168.791537
30
0.0
11
121.059170
21
168.350942
31
0.0
0
LINE
8
stand
62
4
5
2dd
100
AcDbEntity
100
AcDbLine
10
121.059170
20
168.350942
30
0.0
11
119.683138
21
168.179638
31
0.0
0
LINE
8
stand
62
4
5
2de
100
AcDbEntity
100
AcDbLine
10
119.683138
20
168.179638
30
0.0
11
118.251271
21
168.284065
31
0.0
0
LINE
8
stand
62
4
5
2df
100
AcDbEntity
100
AcDbLine
10
118.251271
20
168.284065
30
0.0
11
116.797380
21
168.670662
31
0.0
0
LINE
8
stand
62
4
5
2e0
100
AcDbEntity
100
AcDbLine
10
116.797380
20
168.670662
30
0.0
11
115.355274
21
169.345867
31
0.0
0
LINE
8
stand
62
4
5
2e1
100
AcDbEntity
100
AcDbLine
10
115.355274
20
169.345867
30
0.0
11
113.958766
21
170.316121
31
0.0
0
LINE
8
stand
62
4
5
2e2
100
AcDbEntity
100
AcDbLine
10
113.958766
20
170.316121
30
0.0
11
112.641667
21
171.587862
31
0.0
0
LINE
8
stand
62
4
5
2e3
100
AcDbEntity
100
AcDbLine
10
112.641667
20
171.587862
30
0.0
11
111.437787
21
173.167528
31
0.0
0
LINE
8
stand
62
4
5
2e4
100
AcDbEntity
100
AcDbLine
10
111.437787
20
173.167528
30
0.0
11
110.380938
21
175.061560
31
0.0
0
LINE
8
stand
62
4
5
2e5
100
AcDbEntity
100
AcDbLine
10
110.380938
20
175.061560
30
0.0
11
107.030959
21
181.912229
31
0.0
0
LINE
8
stand
62
4
5
2e6
100
AcDbEntity
100
AcDbLine
10
107.030959
20
181.912229
30
0.0
11
103.809048
21
188.050451
31
0.0
0
LINE
8
stand
62
4
5
2e7
100
AcDbEntity
100
AcDbLine
10
103.809048
20
188.050451
30
0.0
11
100.700072
21
193.522537
31
0.0
0
LINE
8
stand
62
4
5
2e8
100
AcDbEntity
100
AcDbLine
10
100.700072
20
193.522537
30
0.0
11
97.688897
21
198.374795
31
0.0
0
LINE
8
stand
62
4
5
2e9
100
AcDbEntity
100
AcDbLine
10
97.688897
20
198.374795
30
0.0
11
94.760390
21
202.653535
31
0.0
0
LINE
8
stand
62
4
5
2ea
100
AcDbEntity
100
AcDbLine
10
94.760390
20
202.653535
30
0.0
11
91.899415
21
206.405067
31
0.0
0
LINE
8
stand
62
4
5
2eb
100
AcDbEntity
100
AcDbLine
10
91.899415
20
206.405067
30
0.0
11
89.090840
21
209.675700
31
0.0
0
LINE
8
stand
62
4
5
2ec
100
AcDbEntity
100
AcDbLine
10
89.090840
20
209.675700
30
0.0
11
86.319531
21
212.511745
31
0.0
0
LINE
8
stand
62
4
5
2ed
100
AcDbEntity
100
AcDbLine
10
86.319531
20
212.511745
30
0.0
11
83.570353
21
214.959510
31
0.0
0
LINE
8
stand
62
4
5
2ee
100
AcDbEntity
100
AcDbLine
10
83.570353
20
214.959510
30
0.0
11
80.828173
21
217.065305
31
0.0
0
LINE
8
stand
62
4
5
2ef
100
AcDbEntity
100
AcDbLine
10
80.828173
20
217.065305
30
0.0
11
78.077857
21
218.875441
31
0.0
0
LINE
8
stand
62
4
5
2f0
100
AcDbEntity
100
AcDbLine
10
78.077857
20
218.875441
30
0.0
11
75.304271
21
220.436226
31
0.0
0
LINE
8
stand
62
4
5
2f1
100
AcDbEntity
100
AcDbLine
10
75.304271
20
220.436226
30
0.0
11
72.492281
21
221.793970
31
0.0
0
LINE
8
stand
62
4
5
2f2
100
AcDbEntity
100
AcDbLine
10
72.492281
20
221.793970
30
0.0
11
69.626753
21
222.994983
31
0.0
0
LINE
8
stand
62
4
5
2f3
100
AcDbEntity
100
AcDbLine
10
69.626753
20
222.994983
30
0.0
11
63.674549
21
225.112054
31
0.0
0
LINE
8
stand
62
4
5
2f4
100
AcDbEntity
100
AcDbLine
10
63.674549
20
225.112054
30
0.0
11
31.499999
21
263.250001
31
0.0
  0
ENDSEC
  0
SECTION
  2
OBJECTS
  0
DICTIONARY
  5
C
330
0
100
AcDbDictionary
  3
ACAD_GROUP
350
D
  3
ACAD_MLINESTYLE
350
17
  0
DICTIONARY
  5
D
330
C
100
AcDbDictionary
  0
DICTIONARY
  5
1A
330
C
100
AcDbDictionary
  0
DICTIONARY
  5
17
330
C
100
AcDbDictionary
  3
STANDARD
350
18
  0
DICTIONARY
  5
19
330
C
100
AcDbDictionary
  0
ENDSEC
  0
EOF
